<?xml version="1.0" encoding="utf-8" ?>
<svg xmlns="http://www.w3.org/2000/svg" xmlns:ev="http://www.w3.org/2001/xml-events" xmlns:xlink="http://www.w3.org/1999/xlink" baseProfile="full" height="313.600000mm" version="1.1" viewBox="0.000000 0.000000 340.000000 313.600000" width="340.000000mm">
  <defs/>
  <line stroke="#000000" x1="124.00000000000003" x2="111.00000000000001" y1="36.5" y2="36.5"/>
  <line stroke="#000000" x1="150.0" x2="150.0" y1="36.599999999999994" y2="36.5"/>
  <line opacity="0.5" stroke="#0000ff" x1="150.0" x2="85.00000000000001" y1="36.599999999999994" y2="36.599999999999994"/>
  <line stroke="#000000" x1="85.00000000000001" x2="85.00000000000001" y1="36.5" y2="36.599999999999994"/>
  <line stroke="#000000" x1="124.00000000000003" x2="124.00000000000003" y1="16.5" y2="36.5"/>
  <line opacity="0.5" stroke="#0000ff" x1="124.00000000000003" x2="111.00000000000001" y1="16.5" y2="16.5"/>
  <line stroke="#000000" x1="111.00000000000001" x2="111.00000000000001" y1="36.5" y2="16.5"/>
  <line opacity="0.75" stroke="#ff0000" x1="85.00000000000001" x2="106.66666666666669" y1="36.5" y2="0.0"/>
  <line stroke="#000000" x1="128.33333333333337" x2="106.66666666666669" y1="0.0" y2="0.0"/>
  <line opacity="0.75" stroke="#ff0000" x1="128.33333333333337" x2="150.0" y1="0.0" y2="36.5"/>
  <line stroke="#000000" x1="124.00000000000003" x2="124.00000000000003" y1="36.5" y2="16.5"/>
  <line stroke="#000000" x1="111.00000000000001" x2="124.00000000000003" y1="36.5" y2="36.5"/>
  <line stroke="#000000" x1="111.00000000000001" x2="111.00000000000001" y1="16.5" y2="36.5"/>
  <line stroke="#000000" x1="106.66666666666669" x2="85.00000000000001" y1="0.0" y2="0.0"/>
  <line stroke="#000000" x1="85.00000000000001" x2="85.00000000000001" y1="0.0" y2="36.5"/>
  <line stroke="#000000" x1="150.0" x2="150.0" y1="36.49999999999999" y2="0.0"/>
  <line stroke="#000000" x1="150.0" x2="128.33333333333334" y1="0.0" y2="0.0"/>
  <line opacity="0.5" stroke="#0000ff" x1="85.00000000000001" x2="85.00000000000001" y1="136.60000000000002" y2="36.599999999999994"/>
  <line opacity="0.5" stroke="#0000ff" x1="150.0" x2="150.0" y1="136.60000000000002" y2="36.599999999999994"/>
  <line opacity="1.0" stroke="#0000ff" x1="131.0" x2="150.0" y1="136.60000000000002" y2="136.60000000000002"/>
  <line stroke="#000000" x1="104.00000000000001" x2="131.0" y1="136.60000000000002" y2="136.60000000000002"/>
  <line stroke="#000000" x1="85.00000000000001" x2="104.00000000000001" y1="136.60000000000002" y2="136.60000000000002"/>
  <line stroke="#000000" x1="85.00000000000001" x2="85.00000000000001" y1="136.60000000000002" y2="136.60000000000002"/>
  <line stroke="#000000" x1="150.0" x2="150.0" y1="136.60000000000002" y2="136.60000000000002"/>
  <line stroke="#000000" x1="131.0" x2="150.0" y1="192.60000000000002" y2="192.60000000000002"/>
  <line opacity="0.5" stroke="#ff0000" x1="131.0" x2="131.0" y1="192.60000000000002" y2="136.60000000000005"/>
  <line opacity="0.5" stroke="#ff0000" x1="150.0" x2="150.0" y1="192.60000000000002" y2="136.60000000000005"/>
  <line stroke="#000000" x1="118.00000000000001" x2="131.0" y1="192.60000000000002" y2="192.60000000000002"/>
  <line opacity="0.5" stroke="#ff0000" x1="118.00000000000001" x2="118.00000000000001" y1="192.60000000000002" y2="136.60000000000005"/>
  <line stroke="#000000" x1="131.0" x2="118.00000000000001" y1="136.60000000000005" y2="136.60000000000005"/>
  <line stroke="#000000" x1="99.0" x2="118.00000000000001" y1="192.60000000000002" y2="192.60000000000002"/>
  <line stroke="#000000" x1="99.0" x2="99.0" y1="136.60000000000005" y2="192.60000000000002"/>
  <line stroke="#000000" x1="118.00000000000001" x2="99.0" y1="136.60000000000005" y2="136.60000000000005"/>
  <line opacity="0.5" stroke="#ff0000" x1="150.0" x2="163.00000000000003" y1="192.60000000000002" y2="192.60000000000002"/>
  <line stroke="#000000" x1="163.00000000000003" x2="150.0" y1="136.60000000000005" y2="136.60000000000005"/>
  <line opacity="0.5" stroke="#ff0000" x1="163.00000000000003" x2="163.00000000000003" y1="136.60000000000005" y2="192.60000000000002"/>
  <line opacity="0.5" stroke="#ff0000" x1="163.00000000000003" x2="150.0" y1="257.6000000000001" y2="257.6000000000001"/>
  <line opacity="0.5" stroke="#0000ff" x1="150.0" x2="150.0" y1="257.6000000000001" y2="192.60000000000002"/>
  <line opacity="0.5" stroke="#0000ff" x1="163.00000000000003" x2="163.00000000000003" y1="192.60000000000002" y2="257.6000000000001"/>
  <line stroke="#000000" x1="150.0" x2="163.00000000000003" y1="313.6" y2="313.6"/>
  <line opacity="0.5" stroke="#ff0000" x1="150.0" x2="150.0" y1="313.6" y2="257.6000000000001"/>
  <line opacity="0.5" stroke="#ff0000" x1="163.00000000000003" x2="163.00000000000003" y1="257.6000000000001" y2="313.6"/>
  <line stroke="#000000" x1="131.0" x2="150.0" y1="313.6" y2="313.6"/>
  <line opacity="0.5" stroke="#ff0000" x1="131.0" x2="131.0" y1="313.6" y2="257.6000000000001"/>
  <line stroke="#000000" x1="150.0" x2="131.0" y1="257.6000000000001" y2="257.6000000000001"/>
  <line stroke="#000000" x1="118.00000000000001" x2="131.0" y1="313.6" y2="313.6"/>
  <line opacity="0.5" stroke="#ff0000" x1="118.00000000000001" x2="118.00000000000001" y1="313.6" y2="257.6000000000001"/>
  <line stroke="#000000" x1="131.0" x2="118.00000000000001" y1="257.6000000000001" y2="257.6000000000001"/>
  <line stroke="#000000" x1="99.0" x2="118.00000000000001" y1="313.6" y2="313.6"/>
  <line stroke="#000000" x1="99.0" x2="99.0" y1="257.6000000000001" y2="313.6"/>
  <line stroke="#000000" x1="118.00000000000001" x2="99.0" y1="257.6000000000001" y2="257.6000000000001"/>
  <line stroke="#000000" x1="173.0" x2="163.00000000000003" y1="257.6000000000001" y2="257.6000000000001"/>
  <line stroke="#000000" x1="173.0" x2="173.0" y1="313.6" y2="257.6000000000001"/>
  <line stroke="#000000" x1="163.00000000000003" x2="173.0" y1="313.6" y2="313.6"/>
  <line stroke="#000000" x1="106.00000000000001" x2="150.0" y1="257.6000000000001" y2="257.6000000000001"/>
  <line opacity="0.5" stroke="#0000ff" x1="106.00000000000001" x2="106.00000000000001" y1="257.6000000000001" y2="192.60000000000002"/>
  <line stroke="#000000" x1="150.0" x2="106.00000000000001" y1="192.60000000000002" y2="192.60000000000002"/>
  <line stroke="#000000" x1="93.00000000000001" x2="106.00000000000001" y1="257.6000000000001" y2="257.6000000000001"/>
  <line opacity="0.5" stroke="#0000ff" x1="93.00000000000001" x2="93.00000000000001" y1="257.6000000000001" y2="192.60000000000002"/>
  <line stroke="#000000" x1="106.00000000000001" x2="93.00000000000001" y1="192.60000000000002" y2="192.60000000000002"/>
  <line stroke="#000000" x1="49.00000000000001" x2="93.00000000000001" y1="257.6000000000001" y2="257.6000000000001"/>
  <line stroke="#000000" x1="49.00000000000001" x2="49.00000000000001" y1="192.60000000000002" y2="257.6000000000001"/>
  <line stroke="#000000" x1="93.00000000000001" x2="49.00000000000001" y1="192.60000000000002" y2="192.60000000000002"/>
  <line stroke="#000000" x1="173.0" x2="163.00000000000003" y1="192.60000000000002" y2="192.60000000000002"/>
  <line stroke="#000000" x1="173.0" x2="173.0" y1="257.6000000000001" y2="192.60000000000002"/>
  <line stroke="#000000" x1="163.00000000000003" x2="173.0" y1="257.6000000000001" y2="257.6000000000001"/>
  <line stroke="#000000" x1="173.0" x2="163.00000000000003" y1="136.60000000000005" y2="136.60000000000005"/>
  <line stroke="#000000" x1="173.0" x2="173.0" y1="192.60000000000002" y2="136.60000000000005"/>
  <line stroke="#000000" x1="163.00000000000003" x2="173.0" y1="192.60000000000002" y2="192.60000000000002"/>
  <line stroke="#000000" x1="65.0" x2="85.00000000000001" y1="136.60000000000002" y2="136.60000000000002"/>
  <line opacity="0.5" stroke="#0000ff" x1="65.0" x2="65.0" y1="136.60000000000002" y2="36.599999999999994"/>
  <line stroke="#000000" x1="85.00000000000001" x2="65.0" y1="36.599999999999994" y2="36.599999999999994"/>
  <line stroke="#000000" x1="0.0" x2="65.0" y1="136.60000000000002" y2="136.60000000000002"/>
  <line stroke="#000000" x1="0.0" x2="0.0" y1="36.599999999999994" y2="136.60000000000002"/>
  <line stroke="#000000" x1="26.000000000000004" x2="0.0" y1="36.599999999999994" y2="36.599999999999994"/>
  <line stroke="#000000" x1="39.00000000000001" x2="26.000000000000004" y1="36.599999999999994" y2="36.599999999999994"/>
  <line stroke="#000000" x1="65.0" x2="39.00000000000001" y1="36.599999999999994" y2="36.599999999999994"/>
  <line stroke="#000000" x1="65.0" x2="65.0" y1="36.599999999999994" y2="36.599999999999994"/>
  <line stroke="#000000" x1="0.0" x2="0.0" y1="36.599999999999994" y2="36.599999999999994"/>
  <line stroke="#000000" x1="150.0" x2="170.00000000000003" y1="136.60000000000002" y2="136.60000000000002"/>
  <line stroke="#000000" x1="170.00000000000003" x2="150.0" y1="36.599999999999994" y2="36.599999999999994"/>
  <line opacity="0.5" stroke="#0000ff" x1="170.00000000000003" x2="170.00000000000003" y1="36.599999999999994" y2="136.60000000000002"/>
  <line stroke="#000000" x1="180.0" x2="170.00000000000003" y1="36.599999999999994" y2="36.599999999999994"/>
  <line stroke="#000000" x1="180.0" x2="180.0" y1="136.60000000000002" y2="36.599999999999994"/>
  <line stroke="#000000" x1="170.00000000000003" x2="180.0" y1="136.60000000000002" y2="136.60000000000002"/>
  <line stroke="#888888" x1="119.66666666666667" x2="115.33333333333334" y1="21.5" y2="21.5"/>
  <line stroke="#888888" x1="115.33333333333334" x2="115.33333333333334" y1="21.5" y2="31.5"/>
  <line stroke="#888888" x1="115.33333333333334" x2="119.66666666666669" y1="31.5" y2="31.5"/>
  <line stroke="#888888" x1="125.50000000000001" x2="121.50000000000001" y1="56.1" y2="56.1"/>
  <line stroke="#888888" x1="121.50000000000001" x2="121.50000000000001" y1="56.1" y2="47.1"/>
  <line stroke="#888888" x1="121.50000000000001" x2="125.50000000000001" y1="47.1" y2="47.1"/>
  <line stroke="#888888" x1="125.50000000000001" x2="125.50000000000001" y1="47.1" y2="56.1"/>
  <line stroke="#888888" x1="119.75000000000001" x2="92.75000000000001" y1="79.85" y2="79.85"/>
  <line stroke="#888888" x1="92.75000000000001" x2="92.75000000000001" y1="79.85" y2="71.85"/>
  <line stroke="#888888" x1="92.75000000000001" x2="119.75000000000001" y1="71.85" y2="71.85"/>
  <line stroke="#888888" x1="119.75000000000001" x2="119.75000000000001" y1="71.85" y2="79.85"/>
  <line stroke="#888888" x1="99.47000000000001" x2="96.47000000000001" y1="64.03000000000002" y2="64.03000000000002"/>
  <line stroke="#888888" x1="96.47000000000001" x2="96.47000000000001" y1="64.03000000000002" y2="61.03"/>
  <line stroke="#888888" x1="96.47000000000001" x2="99.47000000000001" y1="61.03" y2="61.03"/>
  <line stroke="#888888" x1="99.47000000000001" x2="99.47000000000001" y1="61.03" y2="64.03000000000002"/>
  <line stroke="#888888" x1="98.47000000000001" x2="97.47000000000001" y1="40.17" y2="40.17"/>
  <line stroke="#888888" x1="97.47000000000001" x2="97.47000000000001" y1="40.17" y2="39.169999999999995"/>
  <line stroke="#888888" x1="97.47000000000001" x2="98.47000000000001" y1="39.169999999999995" y2="39.169999999999995"/>
  <line stroke="#888888" x1="98.47000000000001" x2="98.47000000000001" y1="39.169999999999995" y2="40.17"/>
  <line stroke="#888888" x1="101.01" x2="100.01" y1="63.03" y2="63.03"/>
  <line stroke="#888888" x1="100.01" x2="100.01" y1="63.03" y2="62.03"/>
  <line stroke="#888888" x1="100.01" x2="101.01" y1="62.03" y2="62.03"/>
  <line stroke="#888888" x1="101.01" x2="101.01" y1="62.03" y2="63.03"/>
  <line stroke="#888888" x1="101.01" x2="100.01" y1="40.17" y2="40.17"/>
  <line stroke="#888888" x1="100.01" x2="100.01" y1="40.17" y2="39.169999999999995"/>
  <line stroke="#888888" x1="100.01" x2="101.01" y1="39.169999999999995" y2="39.169999999999995"/>
  <line stroke="#888888" x1="101.01" x2="101.01" y1="39.169999999999995" y2="40.17"/>
  <line stroke="#888888" x1="103.55000000000001" x2="102.55000000000001" y1="63.03" y2="63.03"/>
  <line stroke="#888888" x1="102.55000000000001" x2="102.55000000000001" y1="63.03" y2="62.03"/>
  <line stroke="#888888" x1="102.55000000000001" x2="103.55000000000001" y1="62.03" y2="62.03"/>
  <line stroke="#888888" x1="103.55000000000001" x2="103.55000000000001" y1="62.03" y2="63.03"/>
  <line stroke="#888888" x1="103.55000000000001" x2="102.55000000000001" y1="40.17" y2="40.17"/>
  <line stroke="#888888" x1="102.55000000000001" x2="102.55000000000001" y1="40.17" y2="39.169999999999995"/>
  <line stroke="#888888" x1="102.55000000000001" x2="103.55000000000001" y1="39.169999999999995" y2="39.169999999999995"/>
  <line stroke="#888888" x1="103.55000000000001" x2="103.55000000000001" y1="39.169999999999995" y2="40.17"/>
  <line stroke="#888888" x1="106.09000000000002" x2="105.09000000000002" y1="63.03" y2="63.03"/>
  <line stroke="#888888" x1="105.09000000000002" x2="105.09000000000002" y1="63.03" y2="62.03"/>
  <line stroke="#888888" x1="105.09000000000002" x2="106.09000000000002" y1="62.03" y2="62.03"/>
  <line stroke="#888888" x1="106.09000000000002" x2="106.09000000000002" y1="62.03" y2="63.03"/>
  <line stroke="#888888" x1="106.09000000000002" x2="105.09000000000002" y1="40.17" y2="40.17"/>
  <line stroke="#888888" x1="105.09000000000002" x2="105.09000000000002" y1="40.17" y2="39.169999999999995"/>
  <line stroke="#888888" x1="105.09000000000002" x2="106.09000000000002" y1="39.169999999999995" y2="39.169999999999995"/>
  <line stroke="#888888" x1="106.09000000000002" x2="106.09000000000002" y1="39.169999999999995" y2="40.17"/>
  <line stroke="#888888" x1="108.63000000000001" x2="107.63000000000001" y1="63.03" y2="63.03"/>
  <line stroke="#888888" x1="107.63000000000001" x2="107.63000000000001" y1="63.03" y2="62.03"/>
  <line stroke="#888888" x1="107.63000000000001" x2="108.63000000000001" y1="62.03" y2="62.03"/>
  <line stroke="#888888" x1="108.63000000000001" x2="108.63000000000001" y1="62.03" y2="63.03"/>
  <line stroke="#888888" x1="108.63000000000001" x2="107.63000000000001" y1="40.17" y2="40.17"/>
  <line stroke="#888888" x1="107.63000000000001" x2="107.63000000000001" y1="40.17" y2="39.169999999999995"/>
  <line stroke="#888888" x1="107.63000000000001" x2="108.63000000000001" y1="39.169999999999995" y2="39.169999999999995"/>
  <line stroke="#888888" x1="108.63000000000001" x2="108.63000000000001" y1="39.169999999999995" y2="40.17"/>
  <line stroke="#888888" x1="111.17000000000002" x2="110.17000000000002" y1="63.03" y2="63.03"/>
  <line stroke="#888888" x1="110.17000000000002" x2="110.17000000000002" y1="63.03" y2="62.03"/>
  <line stroke="#888888" x1="110.17000000000002" x2="111.17000000000002" y1="62.03" y2="62.03"/>
  <line stroke="#888888" x1="111.17000000000002" x2="111.17000000000002" y1="62.03" y2="63.03"/>
  <line stroke="#888888" x1="111.17000000000002" x2="110.17000000000002" y1="40.17" y2="40.17"/>
  <line stroke="#888888" x1="110.17000000000002" x2="110.17000000000002" y1="40.17" y2="39.169999999999995"/>
  <line stroke="#888888" x1="110.17000000000002" x2="111.17000000000002" y1="39.169999999999995" y2="39.169999999999995"/>
  <line stroke="#888888" x1="111.17000000000002" x2="111.17000000000002" y1="39.169999999999995" y2="40.17"/>
  <line stroke="#888888" x1="113.71000000000002" x2="112.71000000000002" y1="63.03" y2="63.03"/>
  <line stroke="#888888" x1="112.71000000000002" x2="112.71000000000002" y1="63.03" y2="62.03"/>
  <line stroke="#888888" x1="112.71000000000002" x2="113.71000000000002" y1="62.03" y2="62.03"/>
  <line stroke="#888888" x1="113.71000000000002" x2="113.71000000000002" y1="62.03" y2="63.03"/>
  <line stroke="#888888" x1="113.71000000000002" x2="112.71000000000002" y1="40.17" y2="40.17"/>
  <line stroke="#888888" x1="112.71000000000002" x2="112.71000000000002" y1="40.17" y2="39.169999999999995"/>
  <line stroke="#888888" x1="112.71000000000002" x2="113.71000000000002" y1="39.169999999999995" y2="39.169999999999995"/>
  <line stroke="#888888" x1="113.71000000000002" x2="113.71000000000002" y1="39.169999999999995" y2="40.17"/>
  <line stroke="#888888" x1="116.25000000000001" x2="115.25000000000001" y1="63.029999999999994" y2="63.029999999999994"/>
  <line stroke="#888888" x1="115.25000000000001" x2="115.25000000000001" y1="63.029999999999994" y2="62.029999999999994"/>
  <line stroke="#888888" x1="115.25000000000001" x2="116.25000000000001" y1="62.029999999999994" y2="62.029999999999994"/>
  <line stroke="#888888" x1="116.25000000000001" x2="116.25000000000001" y1="62.029999999999994" y2="63.029999999999994"/>
  <line stroke="#888888" x1="116.25000000000001" x2="115.25000000000001" y1="40.17" y2="40.17"/>
  <line stroke="#888888" x1="115.25000000000001" x2="115.25000000000001" y1="40.17" y2="39.169999999999995"/>
  <line stroke="#888888" x1="115.25000000000001" x2="116.25000000000001" y1="39.169999999999995" y2="39.169999999999995"/>
  <line stroke="#888888" x1="116.25000000000001" x2="116.25000000000001" y1="39.169999999999995" y2="40.17"/>
  <line stroke="#888888" x1="118.79" x2="117.79" y1="63.029999999999994" y2="63.029999999999994"/>
  <line stroke="#888888" x1="117.79" x2="117.79" y1="63.029999999999994" y2="62.029999999999994"/>
  <line stroke="#888888" x1="117.79" x2="118.79" y1="62.029999999999994" y2="62.029999999999994"/>
  <line stroke="#888888" x1="118.79" x2="118.79" y1="62.029999999999994" y2="63.029999999999994"/>
  <line stroke="#888888" x1="118.79" x2="117.79" y1="40.17" y2="40.17"/>
  <line stroke="#888888" x1="117.79" x2="117.79" y1="40.17" y2="39.169999999999995"/>
  <line stroke="#888888" x1="117.79" x2="118.79" y1="39.169999999999995" y2="39.169999999999995"/>
  <line stroke="#888888" x1="118.79" x2="118.79" y1="39.169999999999995" y2="40.17"/>
  <line stroke="#888888" x1="121.33000000000001" x2="120.33000000000001" y1="63.029999999999994" y2="63.029999999999994"/>
  <line stroke="#888888" x1="120.33000000000001" x2="120.33000000000001" y1="63.029999999999994" y2="62.029999999999994"/>
  <line stroke="#888888" x1="120.33000000000001" x2="121.33000000000001" y1="62.029999999999994" y2="62.029999999999994"/>
  <line stroke="#888888" x1="121.33000000000001" x2="121.33000000000001" y1="62.029999999999994" y2="63.029999999999994"/>
  <line stroke="#888888" x1="121.33000000000001" x2="120.33000000000001" y1="40.17" y2="40.17"/>
  <line stroke="#888888" x1="120.33000000000001" x2="120.33000000000001" y1="40.17" y2="39.169999999999995"/>
  <line stroke="#888888" x1="120.33000000000001" x2="121.33000000000001" y1="39.169999999999995" y2="39.169999999999995"/>
  <line stroke="#888888" x1="121.33000000000001" x2="121.33000000000001" y1="39.169999999999995" y2="40.17"/>
  <line stroke="#888888" x1="123.87000000000002" x2="122.87000000000002" y1="63.029999999999994" y2="63.029999999999994"/>
  <line stroke="#888888" x1="122.87000000000002" x2="122.87000000000002" y1="63.029999999999994" y2="62.029999999999994"/>
  <line stroke="#888888" x1="122.87000000000002" x2="123.87000000000002" y1="62.029999999999994" y2="62.029999999999994"/>
  <line stroke="#888888" x1="123.87000000000002" x2="123.87000000000002" y1="62.029999999999994" y2="63.029999999999994"/>
  <line stroke="#888888" x1="123.87000000000002" x2="122.87000000000002" y1="40.17" y2="40.17"/>
  <line stroke="#888888" x1="122.87000000000002" x2="122.87000000000002" y1="40.17" y2="39.169999999999995"/>
  <line stroke="#888888" x1="122.87000000000002" x2="123.87000000000002" y1="39.169999999999995" y2="39.169999999999995"/>
  <line stroke="#888888" x1="123.87000000000002" x2="123.87000000000002" y1="39.169999999999995" y2="40.17"/>
  <line stroke="#888888" x1="126.41000000000003" x2="125.41000000000001" y1="63.029999999999994" y2="63.029999999999994"/>
  <line stroke="#888888" x1="125.41000000000001" x2="125.41000000000001" y1="63.029999999999994" y2="62.029999999999994"/>
  <line stroke="#888888" x1="125.41000000000001" x2="126.41000000000003" y1="62.029999999999994" y2="62.029999999999994"/>
  <line stroke="#888888" x1="126.41000000000003" x2="126.41000000000003" y1="62.029999999999994" y2="63.029999999999994"/>
  <line stroke="#888888" x1="126.41000000000003" x2="125.41000000000001" y1="40.17" y2="40.17"/>
  <line stroke="#888888" x1="125.41000000000001" x2="125.41000000000001" y1="40.17" y2="39.169999999999995"/>
  <line stroke="#888888" x1="125.41000000000001" x2="126.41000000000003" y1="39.169999999999995" y2="39.169999999999995"/>
  <line stroke="#888888" x1="126.41000000000003" x2="126.41000000000003" y1="39.169999999999995" y2="40.17"/>
  <line stroke="#888888" x1="128.95000000000002" x2="127.95000000000002" y1="63.029999999999994" y2="63.029999999999994"/>
  <line stroke="#888888" x1="127.95000000000002" x2="127.95000000000002" y1="63.029999999999994" y2="62.029999999999994"/>
  <line stroke="#888888" x1="127.95000000000002" x2="128.95000000000002" y1="62.029999999999994" y2="62.029999999999994"/>
  <line stroke="#888888" x1="128.95000000000002" x2="128.95000000000002" y1="62.029999999999994" y2="63.029999999999994"/>
  <line stroke="#888888" x1="128.95000000000002" x2="127.95000000000002" y1="40.17" y2="40.17"/>
  <line stroke="#888888" x1="127.95000000000002" x2="127.95000000000002" y1="40.17" y2="39.169999999999995"/>
  <line stroke="#888888" x1="127.95000000000002" x2="128.95000000000002" y1="39.169999999999995" y2="39.169999999999995"/>
  <line stroke="#888888" x1="128.95000000000002" x2="128.95000000000002" y1="39.169999999999995" y2="40.17"/>
  <line stroke="#888888" x1="131.49000000000004" x2="130.49" y1="63.029999999999994" y2="63.029999999999994"/>
  <line stroke="#888888" x1="130.49" x2="130.49" y1="63.029999999999994" y2="62.029999999999994"/>
  <line stroke="#888888" x1="130.49" x2="131.49000000000004" y1="62.029999999999994" y2="62.029999999999994"/>
  <line stroke="#888888" x1="131.49000000000004" x2="131.49000000000004" y1="62.029999999999994" y2="63.029999999999994"/>
  <line stroke="#888888" x1="131.49000000000004" x2="130.49" y1="40.17" y2="40.17"/>
  <line stroke="#888888" x1="130.49" x2="130.49" y1="40.17" y2="39.169999999999995"/>
  <line stroke="#888888" x1="130.49" x2="131.49000000000004" y1="39.169999999999995" y2="39.169999999999995"/>
  <line stroke="#888888" x1="131.49000000000004" x2="131.49000000000004" y1="39.169999999999995" y2="40.17"/>
  <line stroke="#888888" x1="134.03000000000003" x2="133.03000000000003" y1="63.029999999999994" y2="63.029999999999994"/>
  <line stroke="#888888" x1="133.03000000000003" x2="133.03000000000003" y1="63.029999999999994" y2="62.029999999999994"/>
  <line stroke="#888888" x1="133.03000000000003" x2="134.03000000000003" y1="62.029999999999994" y2="62.029999999999994"/>
  <line stroke="#888888" x1="134.03000000000003" x2="134.03000000000003" y1="62.029999999999994" y2="63.029999999999994"/>
  <line stroke="#888888" x1="135.03000000000003" x2="132.03" y1="41.17" y2="41.17"/>
  <line stroke="#888888" x1="132.03" x2="132.03" y1="41.17" y2="38.17"/>
  <line stroke="#888888" x1="132.03" x2="135.03000000000003" y1="38.17" y2="38.17"/>
  <line stroke="#888888" x1="135.03000000000003" x2="135.03000000000003" y1="38.17" y2="41.17"/>
  <line stroke="#888888" x1="106.75000000000001" x2="106.75000000000001" y1="155.01666666666668" y2="174.18333333333334"/>
  <line stroke="#888888" x1="106.75000000000001" x2="106.25000000000001" y1="174.18333333333334" y2="174.18333333333334"/>
  <line stroke="#888888" x1="106.25000000000001" x2="106.25000000000001" y1="174.18333333333334" y2="155.01666666666668"/>
  <line stroke="#888888" x1="106.25000000000001" x2="106.75000000000001" y1="155.01666666666668" y2="155.01666666666668"/>
  <line stroke="#888888" x1="162.93500000000003" x2="150.065" y1="164.60000000000005" y2="164.60000000000005"/>
  <line stroke="#888888" x1="150.065" x2="150.065" y1="164.60000000000005" y2="141.60000000000005"/>
  <line stroke="#888888" x1="150.065" x2="162.93500000000003" y1="141.60000000000005" y2="141.60000000000005"/>
  <line stroke="#888888" x1="162.93500000000003" x2="162.93500000000003" y1="141.60000000000005" y2="164.60000000000005"/>
  <line stroke="#888888" x1="162.93500000000003" x2="150.065" y1="308.6" y2="308.6"/>
  <line stroke="#888888" x1="150.065" x2="150.065" y1="308.6" y2="285.6"/>
  <line stroke="#888888" x1="150.065" x2="162.93500000000003" y1="285.6" y2="285.6"/>
  <line stroke="#888888" x1="162.93500000000003" x2="162.93500000000003" y1="285.6" y2="308.6"/>
  <line stroke="#888888" x1="106.75000000000001" x2="106.75000000000001" y1="276.01666666666665" y2="295.18333333333334"/>
  <line stroke="#888888" x1="106.75000000000001" x2="106.25000000000001" y1="295.18333333333334" y2="295.18333333333334"/>
  <line stroke="#888888" x1="106.25000000000001" x2="106.25000000000001" y1="295.18333333333334" y2="276.01666666666665"/>
  <line stroke="#888888" x1="106.25000000000001" x2="106.75000000000001" y1="276.01666666666665" y2="276.01666666666665"/>
  <line stroke="#888888" x1="170.5" x2="170.5" y1="294.93333333333334" y2="299.93333333333334"/>
  <line stroke="#888888" x1="170.5" x2="165.50000000000003" y1="299.93333333333334" y2="294.93333333333334"/>
  <line stroke="#888888" x1="165.50000000000003" x2="165.50000000000003" y1="294.93333333333334" y2="276.26666666666665"/>
  <line stroke="#888888" x1="165.50000000000003" x2="170.5" y1="276.26666666666665" y2="271.26666666666665"/>
  <line stroke="#888888" x1="170.5" x2="170.5" y1="271.26666666666665" y2="276.26666666666665"/>
  <line stroke="#888888" x1="149.25000000000003" x2="149.25000000000003" y1="222.85000000000005" y2="249.85000000000005"/>
  <line stroke="#888888" x1="149.25000000000003" x2="141.25" y1="249.85000000000005" y2="249.85000000000005"/>
  <line stroke="#888888" x1="141.25" x2="141.25" y1="249.85000000000005" y2="222.85000000000005"/>
  <line stroke="#888888" x1="141.25" x2="149.25000000000003" y1="222.85000000000005" y2="222.85000000000005"/>
  <line stroke="#888888" x1="133.43000000000004" x2="133.43000000000004" y1="243.13000000000002" y2="246.13000000000002"/>
  <line stroke="#888888" x1="133.43000000000004" x2="130.43000000000004" y1="246.13000000000002" y2="246.13000000000002"/>
  <line stroke="#888888" x1="130.43000000000004" x2="130.43000000000004" y1="246.13000000000002" y2="243.13000000000002"/>
  <line stroke="#888888" x1="130.43000000000004" x2="133.43000000000004" y1="243.13000000000002" y2="243.13000000000002"/>
  <line stroke="#888888" x1="109.57" x2="109.57" y1="244.13000000000002" y2="245.13000000000002"/>
  <line stroke="#888888" x1="109.57" x2="108.57000000000001" y1="245.13000000000002" y2="245.13000000000002"/>
  <line stroke="#888888" x1="108.57000000000001" x2="108.57000000000001" y1="245.13000000000002" y2="244.13000000000002"/>
  <line stroke="#888888" x1="108.57000000000001" x2="109.57" y1="244.13000000000002" y2="244.13000000000002"/>
  <line stroke="#888888" x1="132.43000000000004" x2="132.43000000000004" y1="241.59000000000006" y2="242.59000000000006"/>
  <line stroke="#888888" x1="132.43000000000004" x2="131.43000000000004" y1="242.59000000000006" y2="242.59000000000006"/>
  <line stroke="#888888" x1="131.43000000000004" x2="131.43000000000004" y1="242.59000000000006" y2="241.59000000000006"/>
  <line stroke="#888888" x1="131.43000000000004" x2="132.43000000000004" y1="241.59000000000006" y2="241.59000000000006"/>
  <line stroke="#888888" x1="109.57" x2="109.57" y1="241.59000000000006" y2="242.59000000000006"/>
  <line stroke="#888888" x1="109.57" x2="108.57000000000001" y1="242.59000000000006" y2="242.59000000000006"/>
  <line stroke="#888888" x1="108.57000000000001" x2="108.57000000000001" y1="242.59000000000006" y2="241.59000000000006"/>
  <line stroke="#888888" x1="108.57000000000001" x2="109.57" y1="241.59000000000006" y2="241.59000000000006"/>
  <line stroke="#888888" x1="132.43000000000004" x2="132.43000000000004" y1="239.05000000000004" y2="240.05000000000004"/>
  <line stroke="#888888" x1="132.43000000000004" x2="131.43000000000004" y1="240.05000000000004" y2="240.05000000000004"/>
  <line stroke="#888888" x1="131.43000000000004" x2="131.43000000000004" y1="240.05000000000004" y2="239.05000000000004"/>
  <line stroke="#888888" x1="131.43000000000004" x2="132.43000000000004" y1="239.05000000000004" y2="239.05000000000004"/>
  <line stroke="#888888" x1="109.57" x2="109.57" y1="239.05000000000004" y2="240.05000000000004"/>
  <line stroke="#888888" x1="109.57" x2="108.57000000000001" y1="240.05000000000004" y2="240.05000000000004"/>
  <line stroke="#888888" x1="108.57000000000001" x2="108.57000000000001" y1="240.05000000000004" y2="239.05000000000004"/>
  <line stroke="#888888" x1="108.57000000000001" x2="109.57" y1="239.05000000000004" y2="239.05000000000004"/>
  <line stroke="#888888" x1="132.43000000000004" x2="132.43000000000004" y1="236.51000000000002" y2="237.51000000000002"/>
  <line stroke="#888888" x1="132.43000000000004" x2="131.43000000000004" y1="237.51000000000002" y2="237.51000000000002"/>
  <line stroke="#888888" x1="131.43000000000004" x2="131.43000000000004" y1="237.51000000000002" y2="236.51000000000002"/>
  <line stroke="#888888" x1="131.43000000000004" x2="132.43000000000004" y1="236.51000000000002" y2="236.51000000000002"/>
  <line stroke="#888888" x1="109.57" x2="109.57" y1="236.51000000000002" y2="237.51000000000002"/>
  <line stroke="#888888" x1="109.57" x2="108.57000000000001" y1="237.51000000000002" y2="237.51000000000002"/>
  <line stroke="#888888" x1="108.57000000000001" x2="108.57000000000001" y1="237.51000000000002" y2="236.51000000000002"/>
  <line stroke="#888888" x1="108.57000000000001" x2="109.57" y1="236.51000000000002" y2="236.51000000000002"/>
  <line stroke="#888888" x1="132.43000000000004" x2="132.43000000000004" y1="233.97000000000006" y2="234.97000000000006"/>
  <line stroke="#888888" x1="132.43000000000004" x2="131.43000000000004" y1="234.97000000000006" y2="234.97000000000006"/>
  <line stroke="#888888" x1="131.43000000000004" x2="131.43000000000004" y1="234.97000000000006" y2="233.97000000000006"/>
  <line stroke="#888888" x1="131.43000000000004" x2="132.43000000000004" y1="233.97000000000006" y2="233.97000000000006"/>
  <line stroke="#888888" x1="109.57" x2="109.57" y1="233.97000000000006" y2="234.97000000000006"/>
  <line stroke="#888888" x1="109.57" x2="108.57000000000001" y1="234.97000000000006" y2="234.97000000000006"/>
  <line stroke="#888888" x1="108.57000000000001" x2="108.57000000000001" y1="234.97000000000006" y2="233.97000000000006"/>
  <line stroke="#888888" x1="108.57000000000001" x2="109.57" y1="233.97000000000006" y2="233.97000000000006"/>
  <line stroke="#888888" x1="132.43000000000004" x2="132.43000000000004" y1="231.43000000000004" y2="232.43000000000004"/>
  <line stroke="#888888" x1="132.43000000000004" x2="131.43000000000004" y1="232.43000000000004" y2="232.43000000000004"/>
  <line stroke="#888888" x1="131.43000000000004" x2="131.43000000000004" y1="232.43000000000004" y2="231.43000000000004"/>
  <line stroke="#888888" x1="131.43000000000004" x2="132.43000000000004" y1="231.43000000000004" y2="231.43000000000004"/>
  <line stroke="#888888" x1="109.57" x2="109.57" y1="231.43000000000004" y2="232.43000000000004"/>
  <line stroke="#888888" x1="109.57" x2="108.57000000000001" y1="232.43000000000004" y2="232.43000000000004"/>
  <line stroke="#888888" x1="108.57000000000001" x2="108.57000000000001" y1="232.43000000000004" y2="231.43000000000004"/>
  <line stroke="#888888" x1="108.57000000000001" x2="109.57" y1="231.43000000000004" y2="231.43000000000004"/>
  <line stroke="#888888" x1="132.43000000000004" x2="132.43000000000004" y1="228.89000000000001" y2="229.89000000000001"/>
  <line stroke="#888888" x1="132.43000000000004" x2="131.43000000000004" y1="229.89000000000001" y2="229.89000000000001"/>
  <line stroke="#888888" x1="131.43000000000004" x2="131.43000000000004" y1="229.89000000000001" y2="228.89000000000001"/>
  <line stroke="#888888" x1="131.43000000000004" x2="132.43000000000004" y1="228.89000000000001" y2="228.89000000000001"/>
  <line stroke="#888888" x1="109.57" x2="109.57" y1="228.89000000000001" y2="229.89000000000001"/>
  <line stroke="#888888" x1="109.57" x2="108.57000000000001" y1="229.89000000000001" y2="229.89000000000001"/>
  <line stroke="#888888" x1="108.57000000000001" x2="108.57000000000001" y1="229.89000000000001" y2="228.89000000000001"/>
  <line stroke="#888888" x1="108.57000000000001" x2="109.57" y1="228.89000000000001" y2="228.89000000000001"/>
  <line stroke="#888888" x1="132.43000000000004" x2="132.43000000000004" y1="226.35000000000005" y2="227.35000000000005"/>
  <line stroke="#888888" x1="132.43000000000004" x2="131.43000000000004" y1="227.35000000000005" y2="227.35000000000005"/>
  <line stroke="#888888" x1="131.43000000000004" x2="131.43000000000004" y1="227.35000000000005" y2="226.35000000000005"/>
  <line stroke="#888888" x1="131.43000000000004" x2="132.43000000000004" y1="226.35000000000005" y2="226.35000000000005"/>
  <line stroke="#888888" x1="109.57" x2="109.57" y1="226.35000000000005" y2="227.35000000000005"/>
  <line stroke="#888888" x1="109.57" x2="108.57000000000001" y1="227.35000000000005" y2="227.35000000000005"/>
  <line stroke="#888888" x1="108.57000000000001" x2="108.57000000000001" y1="227.35000000000005" y2="226.35000000000005"/>
  <line stroke="#888888" x1="108.57000000000001" x2="109.57" y1="226.35000000000005" y2="226.35000000000005"/>
  <line stroke="#888888" x1="132.43000000000004" x2="132.43000000000004" y1="223.81000000000003" y2="224.81000000000003"/>
  <line stroke="#888888" x1="132.43000000000004" x2="131.43000000000004" y1="224.81000000000003" y2="224.81000000000003"/>
  <line stroke="#888888" x1="131.43000000000004" x2="131.43000000000004" y1="224.81000000000003" y2="223.81000000000003"/>
  <line stroke="#888888" x1="131.43000000000004" x2="132.43000000000004" y1="223.81000000000003" y2="223.81000000000003"/>
  <line stroke="#888888" x1="109.57" x2="109.57" y1="223.81000000000003" y2="224.81000000000003"/>
  <line stroke="#888888" x1="109.57" x2="108.57000000000001" y1="224.81000000000003" y2="224.81000000000003"/>
  <line stroke="#888888" x1="108.57000000000001" x2="108.57000000000001" y1="224.81000000000003" y2="223.81000000000003"/>
  <line stroke="#888888" x1="108.57000000000001" x2="109.57" y1="223.81000000000003" y2="223.81000000000003"/>
  <line stroke="#888888" x1="132.43000000000004" x2="132.43000000000004" y1="221.27" y2="222.27"/>
  <line stroke="#888888" x1="132.43000000000004" x2="131.43000000000004" y1="222.27" y2="222.27"/>
  <line stroke="#888888" x1="131.43000000000004" x2="131.43000000000004" y1="222.27" y2="221.27"/>
  <line stroke="#888888" x1="131.43000000000004" x2="132.43000000000004" y1="221.27" y2="221.27"/>
  <line stroke="#888888" x1="109.57" x2="109.57" y1="221.27" y2="222.27"/>
  <line stroke="#888888" x1="109.57" x2="108.57000000000001" y1="222.27" y2="222.27"/>
  <line stroke="#888888" x1="108.57000000000001" x2="108.57000000000001" y1="222.27" y2="221.27"/>
  <line stroke="#888888" x1="108.57000000000001" x2="109.57" y1="221.27" y2="221.27"/>
  <line stroke="#888888" x1="132.43000000000004" x2="132.43000000000004" y1="218.73000000000005" y2="219.73000000000005"/>
  <line stroke="#888888" x1="132.43000000000004" x2="131.43000000000004" y1="219.73000000000005" y2="219.73000000000005"/>
  <line stroke="#888888" x1="131.43000000000004" x2="131.43000000000004" y1="219.73000000000005" y2="218.73000000000005"/>
  <line stroke="#888888" x1="131.43000000000004" x2="132.43000000000004" y1="218.73000000000005" y2="218.73000000000005"/>
  <line stroke="#888888" x1="109.57" x2="109.57" y1="218.73000000000005" y2="219.73000000000005"/>
  <line stroke="#888888" x1="109.57" x2="108.57000000000001" y1="219.73000000000005" y2="219.73000000000005"/>
  <line stroke="#888888" x1="108.57000000000001" x2="108.57000000000001" y1="219.73000000000005" y2="218.73000000000005"/>
  <line stroke="#888888" x1="108.57000000000001" x2="109.57" y1="218.73000000000005" y2="218.73000000000005"/>
  <line stroke="#888888" x1="132.43000000000004" x2="132.43000000000004" y1="216.19" y2="217.19000000000003"/>
  <line stroke="#888888" x1="132.43000000000004" x2="131.43000000000004" y1="217.19000000000003" y2="217.19000000000003"/>
  <line stroke="#888888" x1="131.43000000000004" x2="131.43000000000004" y1="217.19000000000003" y2="216.19"/>
  <line stroke="#888888" x1="131.43000000000004" x2="132.43000000000004" y1="216.19" y2="216.19"/>
  <line stroke="#888888" x1="109.57" x2="109.57" y1="216.19" y2="217.19000000000003"/>
  <line stroke="#888888" x1="109.57" x2="108.57000000000001" y1="217.19000000000003" y2="217.19000000000003"/>
  <line stroke="#888888" x1="108.57000000000001" x2="108.57000000000001" y1="217.19000000000003" y2="216.19"/>
  <line stroke="#888888" x1="108.57000000000001" x2="109.57" y1="216.19" y2="216.19"/>
  <line stroke="#888888" x1="132.43000000000004" x2="132.43000000000004" y1="213.65000000000006" y2="214.65000000000003"/>
  <line stroke="#888888" x1="132.43000000000004" x2="131.43000000000004" y1="214.65000000000003" y2="214.65000000000003"/>
  <line stroke="#888888" x1="131.43000000000004" x2="131.43000000000004" y1="214.65000000000003" y2="213.65000000000006"/>
  <line stroke="#888888" x1="131.43000000000004" x2="132.43000000000004" y1="213.65000000000006" y2="213.65000000000006"/>
  <line stroke="#888888" x1="109.57" x2="109.57" y1="213.65000000000006" y2="214.65000000000003"/>
  <line stroke="#888888" x1="109.57" x2="108.57000000000001" y1="214.65000000000003" y2="214.65000000000003"/>
  <line stroke="#888888" x1="108.57000000000001" x2="108.57000000000001" y1="214.65000000000003" y2="213.65000000000006"/>
  <line stroke="#888888" x1="108.57000000000001" x2="109.57" y1="213.65000000000006" y2="213.65000000000006"/>
  <line stroke="#888888" x1="132.43000000000004" x2="132.43000000000004" y1="211.11" y2="212.11000000000004"/>
  <line stroke="#888888" x1="132.43000000000004" x2="131.43000000000004" y1="212.11000000000004" y2="212.11000000000004"/>
  <line stroke="#888888" x1="131.43000000000004" x2="131.43000000000004" y1="212.11000000000004" y2="211.11"/>
  <line stroke="#888888" x1="131.43000000000004" x2="132.43000000000004" y1="211.11" y2="211.11"/>
  <line stroke="#888888" x1="109.57" x2="109.57" y1="211.11" y2="212.11000000000004"/>
  <line stroke="#888888" x1="109.57" x2="108.57000000000001" y1="212.11000000000004" y2="212.11000000000004"/>
  <line stroke="#888888" x1="108.57000000000001" x2="108.57000000000001" y1="212.11000000000004" y2="211.11"/>
  <line stroke="#888888" x1="108.57000000000001" x2="109.57" y1="211.11" y2="211.11"/>
  <line stroke="#888888" x1="132.43000000000004" x2="132.43000000000004" y1="208.57000000000002" y2="209.57"/>
  <line stroke="#888888" x1="132.43000000000004" x2="131.43000000000004" y1="209.57" y2="209.57"/>
  <line stroke="#888888" x1="131.43000000000004" x2="131.43000000000004" y1="209.57" y2="208.57000000000002"/>
  <line stroke="#888888" x1="131.43000000000004" x2="132.43000000000004" y1="208.57000000000002" y2="208.57000000000002"/>
  <line stroke="#888888" x1="110.57000000000001" x2="110.57000000000001" y1="207.57000000000002" y2="210.57000000000002"/>
  <line stroke="#888888" x1="110.57000000000001" x2="107.57000000000001" y1="210.57000000000002" y2="210.57000000000002"/>
  <line stroke="#888888" x1="107.57000000000001" x2="107.57000000000001" y1="210.57000000000002" y2="207.57000000000002"/>
  <line stroke="#888888" x1="107.57000000000001" x2="110.57000000000001" y1="207.57000000000002" y2="207.57000000000002"/>
  <line stroke="#888888" x1="56.75000000000001" x2="56.75000000000001" y1="233.71363636363643" y2="246.03181818181824"/>
  <line stroke="#888888" x1="56.75000000000001" x2="56.25000000000001" y1="246.03181818181824" y2="246.03181818181824"/>
  <line stroke="#888888" x1="56.25000000000001" x2="56.25000000000001" y1="246.03181818181824" y2="233.71363636363643"/>
  <line stroke="#888888" x1="56.25000000000001" x2="56.75000000000001" y1="233.71363636363643" y2="233.71363636363643"/>
  <line stroke="#888888" x1="56.75000000000001" x2="56.75000000000001" y1="204.16818181818184" y2="216.48636363636368"/>
  <line stroke="#888888" x1="56.75000000000001" x2="56.25000000000001" y1="216.48636363636368" y2="216.48636363636368"/>
  <line stroke="#888888" x1="56.25000000000001" x2="56.25000000000001" y1="216.48636363636368" y2="204.16818181818184"/>
  <line stroke="#888888" x1="56.25000000000001" x2="56.75000000000001" y1="204.16818181818184" y2="204.16818181818184"/>
  <line stroke="#888888" x1="170.5" x2="165.50000000000003" y1="245.78181818181824" y2="245.78181818181824"/>
  <line stroke="#888888" x1="165.50000000000003" x2="165.50000000000003" y1="245.78181818181824" y2="233.96363636363643"/>
  <line stroke="#888888" x1="165.50000000000003" x2="170.5" y1="233.96363636363643" y2="233.96363636363643"/>
  <line stroke="#888888" x1="170.5" x2="165.50000000000003" y1="216.23636363636368" y2="216.23636363636368"/>
  <line stroke="#888888" x1="165.50000000000003" x2="165.50000000000003" y1="216.23636363636368" y2="204.41818181818186"/>
  <line stroke="#888888" x1="165.50000000000003" x2="170.5" y1="204.41818181818186" y2="204.41818181818186"/>
  <line stroke="#888888" x1="170.5" x2="170.5" y1="173.93333333333334" y2="178.93333333333334"/>
  <line stroke="#888888" x1="170.5" x2="165.50000000000003" y1="178.93333333333334" y2="173.93333333333334"/>
  <line stroke="#888888" x1="165.50000000000003" x2="165.50000000000003" y1="173.93333333333334" y2="155.26666666666668"/>
  <line stroke="#888888" x1="165.50000000000003" x2="170.5" y1="155.26666666666668" y2="150.26666666666668"/>
  <line stroke="#888888" x1="170.5" x2="170.5" y1="150.26666666666668" y2="155.26666666666668"/>
  <line stroke="#888888" x1="84.93500000000002" x2="72.06500000000001" y1="131.60000000000002" y2="131.60000000000002"/>
  <line stroke="#888888" x1="72.06500000000001" x2="72.06500000000001" y1="131.60000000000002" y2="108.60000000000001"/>
  <line stroke="#888888" x1="72.06500000000001" x2="84.93500000000002" y1="108.60000000000001" y2="108.60000000000001"/>
  <line stroke="#888888" x1="84.93500000000002" x2="84.93500000000002" y1="108.60000000000001" y2="131.60000000000002"/>
  <line stroke="#888888" x1="7.750000000000002" x2="7.750000000000002" y1="99.98636363636363" y2="118.66818181818182"/>
  <line stroke="#888888" x1="7.750000000000002" x2="7.25" y1="118.66818181818182" y2="118.66818181818182"/>
  <line stroke="#888888" x1="7.25" x2="7.25" y1="118.66818181818182" y2="99.98636363636363"/>
  <line stroke="#888888" x1="7.25" x2="7.750000000000002" y1="99.98636363636363" y2="99.98636363636363"/>
  <line stroke="#888888" x1="7.750000000000002" x2="7.750000000000002" y1="54.531818181818174" y2="73.21363636363635"/>
  <line stroke="#888888" x1="7.750000000000002" x2="7.25" y1="73.21363636363635" y2="73.21363636363635"/>
  <line stroke="#888888" x1="7.25" x2="7.25" y1="73.21363636363635" y2="54.531818181818174"/>
  <line stroke="#888888" x1="7.25" x2="7.750000000000002" y1="54.531818181818174" y2="54.531818181818174"/>
  <line stroke="#888888" x1="34.916666666666664" x2="34.916666666666664" y1="51.85" y2="41.35"/>
  <line stroke="#888888" x1="34.916666666666664" x2="34.416666666666664" y1="41.35" y2="41.35"/>
  <line stroke="#888888" x1="34.416666666666664" x2="34.416666666666664" y1="41.35" y2="51.85"/>
  <line stroke="#888888" x1="34.416666666666664" x2="34.916666666666664" y1="51.85" y2="51.85"/>
  <line stroke="#888888" x1="150.065" x2="162.93500000000003" y1="108.60000000000001" y2="108.60000000000001"/>
  <line stroke="#888888" x1="162.93500000000003" x2="162.93500000000003" y1="108.60000000000001" y2="131.60000000000002"/>
  <line stroke="#888888" x1="162.93500000000003" x2="150.065" y1="131.60000000000002" y2="131.60000000000002"/>
  <line stroke="#888888" x1="150.065" x2="150.065" y1="131.60000000000002" y2="108.60000000000001"/>
  <line stroke="#888888" x1="177.5" x2="177.5" y1="118.41818181818182" y2="123.41818181818182"/>
  <line stroke="#888888" x1="177.5" x2="172.50000000000003" y1="123.41818181818182" y2="118.41818181818182"/>
  <line stroke="#888888" x1="172.50000000000003" x2="172.50000000000003" y1="118.41818181818182" y2="100.23636363636363"/>
  <line stroke="#888888" x1="172.50000000000003" x2="177.5" y1="100.23636363636363" y2="95.23636363636362"/>
  <line stroke="#888888" x1="177.5" x2="177.5" y1="95.23636363636362" y2="100.23636363636363"/>
  <line stroke="#888888" x1="177.5" x2="177.5" y1="72.96363636363635" y2="77.96363636363635"/>
  <line stroke="#888888" x1="177.5" x2="172.50000000000003" y1="77.96363636363635" y2="72.96363636363635"/>
  <line stroke="#888888" x1="172.50000000000003" x2="172.50000000000003" y1="72.96363636363635" y2="54.781818181818174"/>
  <line stroke="#888888" x1="172.50000000000003" x2="177.5" y1="54.781818181818174" y2="49.781818181818174"/>
  <line stroke="#888888" x1="177.5" x2="177.5" y1="49.781818181818174" y2="54.781818181818174"/>
  <line stroke="#000000" x1="190.00000000000003" x2="190.00000000000003" y1="36.55" y2="36.55"/>
  <line stroke="#000000" x1="190.00000000000003" x2="190.00000000000003" y1="36.55" y2="36.55"/>
  <line stroke="#000000" x1="190.00000000000003" x2="190.00000000000003" y1="36.55" y2="36.55"/>
  <line stroke="#000000" x1="190.00000000000003" x2="190.00000000000003" y1="36.55" y2="36.55"/>
  <line stroke="#000000" x1="260.0" x2="259.6306502178541" y1="36.55" y2="31.85696604879307"/>
  <line stroke="#000000" x1="259.6306502178541" x2="260.0" y1="41.24303395120693" y2="36.55"/>
  <line stroke="#000000" x1="258.5316954888546" x2="259.6306502178541" y1="45.82050983124843" y2="41.24303395120693"/>
  <line stroke="#000000" x1="256.7301957256511" x2="258.5316954888546" y1="50.16971499218641" y2="45.82050983124843"/>
  <line stroke="#000000" x1="254.27050983124846" x2="256.7301957256511" y1="54.18355756877419" y2="50.16971499218641"/>
  <line stroke="#000000" x1="251.21320343559645" x2="254.27050983124846" y1="57.763203435596424" y2="54.18355756877419"/>
  <line stroke="#000000" x1="247.63355756877422" x2="251.21320343559645" y1="60.82050983124843" y2="57.763203435596424"/>
  <line stroke="#000000" x1="243.61971499218643" x2="247.63355756877422" y1="63.28019572565103" y2="60.82050983124843"/>
  <line stroke="#000000" x1="239.27050983124846" x2="243.61971499218643" y1="65.0816954888546" y2="63.28019572565103"/>
  <line stroke="#000000" x1="234.69303395120696" x2="239.27050983124846" y1="66.18065021785414" y2="65.0816954888546"/>
  <line stroke="#000000" x1="230.00000000000003" x2="234.69303395120696" y1="66.55000000000001" y2="66.18065021785414"/>
  <line stroke="#000000" x1="225.3069660487931" x2="230.00000000000003" y1="66.18065021785414" y2="66.55000000000001"/>
  <line stroke="#000000" x1="220.7294901687516" x2="225.3069660487931" y1="65.0816954888546" y2="66.18065021785414"/>
  <line stroke="#000000" x1="216.38028500781363" x2="220.7294901687516" y1="63.28019572565104" y2="65.0816954888546"/>
  <line stroke="#000000" x1="212.36644243122583" x2="216.38028500781363" y1="60.82050983124843" y2="63.28019572565104"/>
  <line stroke="#000000" x1="208.7867965644036" x2="212.36644243122583" y1="57.763203435596424" y2="60.82050983124843"/>
  <line stroke="#000000" x1="205.7294901687516" x2="208.7867965644036" y1="54.18355756877419" y2="57.763203435596424"/>
  <line stroke="#000000" x1="203.26980427434899" x2="205.7294901687516" y1="50.169714992186414" y2="54.18355756877419"/>
  <line stroke="#000000" x1="201.46830451114542" x2="203.26980427434899" y1="45.82050983124843" y2="50.169714992186414"/>
  <line stroke="#000000" x1="200.3693497821459" x2="201.46830451114542" y1="41.24303395120693" y2="45.82050983124843"/>
  <line stroke="#000000" x1="200.0" x2="200.3693497821459" y1="36.550000000000004" y2="41.24303395120693"/>
  <line stroke="#000000" x1="200.3693497821459" x2="200.0" y1="31.85696604879308" y2="36.550000000000004"/>
  <line stroke="#000000" x1="201.46830451114542" x2="200.3693497821459" y1="27.279490168751583" y2="31.85696604879308"/>
  <line stroke="#000000" x1="203.26980427434899" x2="201.46830451114542" y1="22.930285007813605" y2="27.279490168751583"/>
  <line stroke="#000000" x1="205.7294901687516" x2="203.26980427434899" y1="18.916442431225807" y2="22.930285007813605"/>
  <line stroke="#000000" x1="208.7867965644036" x2="205.7294901687516" y1="15.336796564403576" y2="18.916442431225807"/>
  <line stroke="#000000" x1="212.36644243122583" x2="208.7867965644036" y1="12.279490168751575" y2="15.336796564403576"/>
  <line stroke="#000000" x1="216.38028500781363" x2="212.36644243122583" y1="9.819804274348966" y2="12.279490168751575"/>
  <line stroke="#000000" x1="220.7294901687516" x2="216.38028500781363" y1="8.018304511145391" y2="9.819804274348966"/>
  <line stroke="#000000" x1="225.3069660487931" x2="220.7294901687516" y1="6.919349782145869" y2="8.018304511145391"/>
  <line stroke="#000000" x1="230.00000000000003" x2="225.3069660487931" y1="6.549999999999998" y2="6.919349782145869"/>
  <line stroke="#000000" x1="234.69303395120696" x2="230.00000000000003" y1="6.919349782145866" y2="6.549999999999998"/>
  <line stroke="#000000" x1="239.27050983124843" x2="234.69303395120696" y1="8.01830451114539" y2="6.919349782145866"/>
  <line stroke="#000000" x1="243.61971499218643" x2="239.27050983124843" y1="9.819804274348959" y2="8.01830451114539"/>
  <line stroke="#000000" x1="247.63355756877422" x2="243.61971499218643" y1="12.279490168751572" y2="9.819804274348959"/>
  <line stroke="#000000" x1="251.21320343559645" x2="247.63355756877422" y1="15.336796564403569" y2="12.279490168751572"/>
  <line stroke="#000000" x1="254.27050983124846" x2="251.21320343559645" y1="18.916442431225796" y2="15.336796564403569"/>
  <line stroke="#000000" x1="256.7301957256511" x2="254.27050983124846" y1="22.930285007813588" y2="18.916442431225796"/>
  <line stroke="#000000" x1="258.5316954888546" x2="256.7301957256511" y1="27.279490168751572" y2="22.930285007813588"/>
  <line stroke="#000000" x1="259.6306502178541" x2="258.5316954888546" y1="31.85696604879307" y2="27.279490168751572"/>
  <line stroke="#000000" x1="270.00000000000006" x2="270.00000000000006" y1="36.55" y2="36.55"/>
  <line stroke="#000000" x1="270.00000000000006" x2="270.00000000000006" y1="36.55" y2="36.55"/>
  <line stroke="#000000" x1="270.00000000000006" x2="270.00000000000006" y1="36.55" y2="36.55"/>
  <line stroke="#000000" x1="270.00000000000006" x2="270.00000000000006" y1="36.55" y2="36.55"/>
  <line stroke="#000000" x1="340.00000000000006" x2="339.63065021785417" y1="36.55" y2="31.85696604879307"/>
  <line stroke="#000000" x1="339.63065021785417" x2="340.00000000000006" y1="41.24303395120693" y2="36.55"/>
  <line stroke="#000000" x1="338.53169548885467" x2="339.63065021785417" y1="45.82050983124843" y2="41.24303395120693"/>
  <line stroke="#000000" x1="336.730195725651" x2="338.53169548885467" y1="50.16971499218641" y2="45.82050983124843"/>
  <line stroke="#000000" x1="334.27050983124843" x2="336.730195725651" y1="54.18355756877419" y2="50.16971499218641"/>
  <line stroke="#000000" x1="331.2132034355965" x2="334.27050983124843" y1="57.763203435596424" y2="54.18355756877419"/>
  <line stroke="#000000" x1="327.6335575687743" x2="331.2132034355965" y1="60.82050983124843" y2="57.763203435596424"/>
  <line stroke="#000000" x1="323.61971499218646" x2="327.6335575687743" y1="63.28019572565103" y2="60.82050983124843"/>
  <line stroke="#000000" x1="319.2705098312485" x2="323.61971499218646" y1="65.0816954888546" y2="63.28019572565103"/>
  <line stroke="#000000" x1="314.693033951207" x2="319.2705098312485" y1="66.18065021785414" y2="65.0816954888546"/>
  <line stroke="#000000" x1="310.0" x2="314.693033951207" y1="66.55000000000001" y2="66.18065021785414"/>
  <line stroke="#000000" x1="305.3069660487931" x2="310.0" y1="66.18065021785414" y2="66.55000000000001"/>
  <line stroke="#000000" x1="300.7294901687516" x2="305.3069660487931" y1="65.0816954888546" y2="66.18065021785414"/>
  <line stroke="#000000" x1="296.38028500781365" x2="300.7294901687516" y1="63.28019572565104" y2="65.0816954888546"/>
  <line stroke="#000000" x1="292.3664424312259" x2="296.38028500781365" y1="60.82050983124843" y2="63.28019572565104"/>
  <line stroke="#000000" x1="288.78679656440363" x2="292.3664424312259" y1="57.763203435596424" y2="60.82050983124843"/>
  <line stroke="#000000" x1="285.7294901687516" x2="288.78679656440363" y1="54.18355756877419" y2="57.763203435596424"/>
  <line stroke="#000000" x1="283.26980427434904" x2="285.7294901687516" y1="50.169714992186414" y2="54.18355756877419"/>
  <line stroke="#000000" x1="281.4683045111454" x2="283.26980427434904" y1="45.82050983124843" y2="50.169714992186414"/>
  <line stroke="#000000" x1="280.36934978214595" x2="281.4683045111454" y1="41.24303395120693" y2="45.82050983124843"/>
  <line stroke="#000000" x1="280.00000000000006" x2="280.36934978214595" y1="36.550000000000004" y2="41.24303395120693"/>
  <line stroke="#000000" x1="280.36934978214595" x2="280.00000000000006" y1="31.85696604879308" y2="36.550000000000004"/>
  <line stroke="#000000" x1="281.4683045111454" x2="280.36934978214595" y1="27.279490168751583" y2="31.85696604879308"/>
  <line stroke="#000000" x1="283.26980427434904" x2="281.4683045111454" y1="22.930285007813605" y2="27.279490168751583"/>
  <line stroke="#000000" x1="285.7294901687516" x2="283.26980427434904" y1="18.916442431225807" y2="22.930285007813605"/>
  <line stroke="#000000" x1="288.78679656440363" x2="285.7294901687516" y1="15.336796564403576" y2="18.916442431225807"/>
  <line stroke="#000000" x1="292.36644243122583" x2="288.78679656440363" y1="12.279490168751575" y2="15.336796564403576"/>
  <line stroke="#000000" x1="296.38028500781365" x2="292.36644243122583" y1="9.819804274348966" y2="12.279490168751575"/>
  <line stroke="#000000" x1="300.7294901687516" x2="296.38028500781365" y1="8.018304511145391" y2="9.819804274348966"/>
  <line stroke="#000000" x1="305.3069660487931" x2="300.7294901687516" y1="6.919349782145869" y2="8.018304511145391"/>
  <line stroke="#000000" x1="310.0" x2="305.3069660487931" y1="6.549999999999998" y2="6.919349782145869"/>
  <line stroke="#000000" x1="314.693033951207" x2="310.0" y1="6.919349782145866" y2="6.549999999999998"/>
  <line stroke="#000000" x1="319.2705098312485" x2="314.693033951207" y1="8.01830451114539" y2="6.919349782145866"/>
  <line stroke="#000000" x1="323.61971499218646" x2="319.2705098312485" y1="9.819804274348959" y2="8.01830451114539"/>
  <line stroke="#000000" x1="327.6335575687742" x2="323.61971499218646" y1="12.279490168751572" y2="9.819804274348959"/>
  <line stroke="#000000" x1="331.2132034355965" x2="327.6335575687742" y1="15.336796564403569" y2="12.279490168751572"/>
  <line stroke="#000000" x1="334.27050983124843" x2="331.2132034355965" y1="18.916442431225796" y2="15.336796564403569"/>
  <line stroke="#000000" x1="336.730195725651" x2="334.27050983124843" y1="22.930285007813588" y2="18.916442431225796"/>
  <line stroke="#000000" x1="338.53169548885467" x2="336.730195725651" y1="27.279490168751572" y2="22.930285007813588"/>
  <line stroke="#000000" x1="339.63065021785417" x2="338.53169548885467" y1="31.85696604879307" y2="27.279490168751572"/>
</svg>
