  0
SECTION
  2
HEADER
  9
$ACADVER
  1
AC1009
  9
$INSBASE
 10
0.0
 20
0.0
 30
0.0
  9
$EXTMIN
 10
0.0
 20
0.0
 30
0.0
  9
$EXTMAX
 10
100.0
 20
100.0
 30
0.0
  9
$UNITMODE
 70
0
  9
$AUNITS
 70
0
  9
$ANGBASE
 50
0.0
  9
$ANGDIR
 70
0
  0
ENDSEC
  0
SECTION
  2
TABLES
  0
TABLE
  2
LTYPE
 70
20
  0
LTYPE
  2
CONTINUOUS
 70
0
  3
Solid
 72
65
 73
0
 40
0.0
  0
LTYPE
  2
CENTER
 70
0
  3
Center ____ _ ____ _ ____ _ ____ _ ____ _ ____
 72
65
 73
4
 40
2.0
 49
1.25
 49
-0.25
 49
0.25
 49
-0.25
  0
LTYPE
  2
CENTERX2
 70
0
  3
Center (2x) ________  __  ________  __  ________
 72
65
 73
4
 40
3.5
 49
2.5
 49
-0.25
 49
0.5
 49
-0.25
  0
LTYPE
  2
CENTER2
 70
0
  3
Center (.5x) ____ _ ____ _ ____ _ ____ _ ____
 72
65
 73
4
 40
1.0
 49
0.625
 49
-0.125
 49
0.125
 49
-0.125
  0
LTYPE
  2
DASHED
 70
0
  3
Dashed __ __ __ __ __ __ __ __ __ __ __ __ __ _
 72
65
 73
2
 40
0.6
 49
0.5
 49
-0.1
  0
LTYPE
  2
DASHEDX2
 70
0
  3
Dashed (2x) ____  ____  ____  ____  ____  ____
 72
65
 73
2
 40
1.2
 49
1.0
 49
-0.2
  0
LTYPE
  2
DASHED2
 70
0
  3
Dashed (.5x) _ _ _ _ _ _ _ _ _ _ _ _ _ _
 72
65
 73
2
 40
0.3
 49
0.25
 49
-0.05
  0
LTYPE
  2
PHANTOM
 70
0
  3
Phantom ______  __  __  ______  __  __  ______
 72
65
 73
6
 40
2.5
 49
1.25
 49
-0.25
 49
0.25
 49
-0.25
 49
0.25
 49
-0.25
  0
LTYPE
  2
PHANTOMX2
 70
0
  3
Phantom (2x)____________    ____    ____    ____________
 72
65
 73
6
 40
4.25
 49
2.5
 49
-0.25
 49
0.5
 49
-0.25
 49
0.5
 49
-0.25
  0
LTYPE
  2
PHANTOM2
 70
0
  3
Phantom (.5x) ___ _ _ ___ _ _ ___ _ _ ___ _ _ ___
 72
65
 73
6
 40
1.25
 49
0.625
 49
-0.125
 49
0.125
 49
-0.125
 49
0.125
 49
-0.125
  0
LTYPE
  2
DASHDOT
 70
0
  3
Dash dot __ . __ . __ . __ . __ . __ . __ . __
 72
65
 73
4
 40
1.4
 49
1.0
 49
-0.2
 49
0.0
 49
-0.2
  0
LTYPE
  2
DASHDOTX2
 70
0
  3
Dash dot (2x) ____  .  ____  .  ____  .  ____
 72
65
 73
4
 40
2.4
 49
2.0
 49
-0.2
 49
0.0
 49
-0.2
  0
LTYPE
  2
DASHDOT2
 70
0
  3
Dash dot (.5x) _ . _ . _ . _ . _ . _ . _ . _
 72
65
 73
4
 40
0.7
 49
0.5
 49
-0.1
 49
0.0
 49
-0.1
  0
LTYPE
  2
DOT
 70
0
  3
Dot .  .  .  .  .  .  .  .  .  .  .  .  .  .  .  .
 72
65
 73
2
 40
0.2
 49
0.0
 49
-0.2
  0
LTYPE
  2
DOTX2
 70
0
  3
Dot (2x) .    .    .    .    .    .    .    . 
 72
65
 73
2
 40
0.4
 49
0.0
 49
-0.4
  0
LTYPE
  2
DOT2
 70
0
  3
Dot (.5) . . . . . . . . . . . . . . . . . . . 
 72
65
 73
2
 40
0.1
 49
0.0
 49
-0.1
  0
LTYPE
  2
DIVIDE
 70
0
  3
Divide __ . . __ . . __ . . __ . . __ . . __
 72
65
 73
6
 40
1.6
 49
1.0
 49
-0.2
 49
0.0
 49
-0.2
 49
0.0
 49
-0.2
  0
LTYPE
  2
DIVIDEX2
 70
0
  3
Divide (2x) ____  . .  ____  . .  ____  . .  ____
 72
65
 73
6
 40
2.6
 49
2.0
 49
-0.2
 49
0.0
 49
-0.2
 49
0.0
 49
-0.2
  0
LTYPE
  2
DIVIDE2
 70
0
  3
Divide(.5x) _ . _ . _ . _ . _ . _ . _ . _
 72
65
 73
6
 40
0.8
 49
0.5
 49
-0.1
 49
0.0
 49
-0.1
 49
0.0
 49
-0.1
  0
LTYPE
  2
DOTTED
 70
0
  3

 72
65
 73
2
 40
1.0
 49
0.0
 49
-1.0
  0
ENDTAB
  0
TABLE
  2
LAYER
 70
10
  0
LAYER
  2
DIMENSIONS
 70
0
 62
1
  6
CONTINUOUS
  0
LAYER
  2
TABLEBACKGROUND
 70
0
 62
1
  6
CONTINUOUS
  0
LAYER
  2
TABLECONTENT
 70
0
 62
1
  6
CONTINUOUS
  0
LAYER
  2
TABLEGRID
 70
0
 62
1
  6
CONTINUOUS
  0
LAYER
  2
VIEWPORTS
 70
0
 62
7
  6
CONTINUOUS
  0
LAYER
  2
0
 70
0
 62
1
  6
CONTINUOUS
  0
LAYER
  2
90
 70
0
 62
1
  6
CONTINUOUS
  0
LAYER
  2
-135
 70
0
 62
1
  6
CONTINUOUS
  0
LAYER
  2
180
 70
0
 62
1
  6
CONTINUOUS
  0
LAYER
  2
-90
 70
0
 62
1
  6
CONTINUOUS
  0
ENDTAB
  0
TABLE
  2
STYLE
 70
12
  0
STYLE
  2
STANDARD
 70
0
 40
0.0
 41
1.0
 42
1.0
 50
0.0
 71
0
  3
arial.ttf
  4

  0
STYLE
  2
ARIAL
 70
0
 40
0.0
 41
1.0
 42
1.0
 50
0.0
 71
0
  3
arial.ttf
  4

  0
STYLE
  2
ARIAL_BOLD
 70
0
 40
0.0
 41
1.0
 42
1.0
 50
0.0
 71
0
  3
arialbd.ttf
  4

  0
STYLE
  2
ARIAL_ITALIC
 70
0
 40
0.0
 41
1.0
 42
1.0
 50
0.0
 71
0
  3
ariali.ttf
  4

  0
STYLE
  2
ARIAL_BOLD_ITALIC
 70
0
 40
0.0
 41
1.0
 42
1.0
 50
0.0
 71
0
  3
arialbi.ttf
  4

  0
STYLE
  2
ARIAL_BLACK
 70
0
 40
0.0
 41
1.0
 42
1.0
 50
0.0
 71
0
  3
ariblk.ttf
  4

  0
STYLE
  2
ISOCPEUR
 70
0
 40
0.0
 41
1.0
 42
1.0
 50
0.0
 71
0
  3
isocpeur.ttf
  4

  0
STYLE
  2
ISOCPEUR_ITALIC
 70
0
 40
0.0
 41
1.0
 42
1.0
 50
0.0
 71
0
  3
isocpeui.ttf
  4

  0
STYLE
  2
TIMES
 70
0
 40
0.0
 41
1.0
 42
1.0
 50
0.0
 71
0
  3
times.ttf
  4

  0
STYLE
  2
TIMES_BOLD
 70
0
 40
0.0
 41
1.0
 42
1.0
 50
0.0
 71
0
  3
timesbd.ttf
  4

  0
STYLE
  2
TIMES_ITALIC
 70
0
 40
0.0
 41
1.0
 42
1.0
 50
0.0
 71
0
  3
timesi.ttf
  4

  0
STYLE
  2
TIMES_BOLD_ITALIC
 70
0
 40
0.0
 41
1.0
 42
1.0
 50
0.0
 71
0
  3
timesbi.ttf
  4

  0
ENDTAB
  0
TABLE
  2
VIEW
 70
0
  0
ENDTAB
  0
TABLE
  2
APPID
 70
1
  0
APPID
  2
DXFWRITE
 70
0
  0
ENDTAB
  0
TABLE
  2
VPORT
 70
0
  0
ENDTAB
  0
TABLE
  2
UCS
 70
0
  0
ENDTAB
  0
ENDSEC
  0
SECTION
  2
BLOCKS
  0
ENDSEC
  0
SECTION
  2
ENTITIES
  0
VIEWPORT
  8
VIEWPORTS
 67
1
 10
0.0
 20
0.0
 30
0.0
 40
1.0
 41
1.0
 68
1
 69
1
1001
ACAD
1000
MVIEW
1002
{
1070
16
1010
0.0
1020
0.0
1030
0.0
1010
0.0
1020
0.0
1030
0.0
1040
0.0
1040
1.0
1040
0.0
1040
0.0
1040
50.0
1040
0.0
1040
0.0
1070
0
1070
100
1070
1
1070
3
1070
0
1070
0
1070
0
1070
0
1040
0.0
1040
0.0
1040
0.0
1040
0.1
1040
0.1
1040
0.1
1040
0.1
1070
0
1002
{
1002
}
1002
}
  0
LINE
 62
5
  8
cut
 10
124.00000000000003
 20
36.5
 30
0.0
 11
111.00000000000001
 21
36.5
 31
0.0
  0
LINE
 62
5
  8
cut
 10
150.0
 20
36.599999999999994
 30
0.0
 11
150.0
 21
36.5
 31
0.0
  0
LINE
  6
DOTTED
 62
1
  8
90
 10
150.0
 20
36.599999999999994
 30
0.0
 11
85.00000000000001
 21
36.599999999999994
 31
0.0
  0
LINE
 62
5
  8
cut
 10
85.00000000000001
 20
36.5
 30
0.0
 11
85.00000000000001
 21
36.599999999999994
 31
0.0
  0
LINE
 62
5
  8
cut
 10
124.00000000000003
 20
16.5
 30
0.0
 11
124.00000000000003
 21
36.5
 31
0.0
  0
LINE
  6
DOTTED
 62
1
  8
90
 10
124.00000000000003
 20
16.5
 30
0.0
 11
111.00000000000001
 21
16.5
 31
0.0
  0
LINE
 62
5
  8
cut
 10
111.00000000000001
 20
36.5
 30
0.0
 11
111.00000000000001
 21
16.5
 31
0.0
  0
LINE
  6
DOTTED
 62
1
  8
-135
 10
85.00000000000001
 20
36.5
 30
0.0
 11
106.66666666666669
 21
0.0
 31
0.0
  0
LINE
 62
5
  8
cut
 10
128.33333333333337
 20
0.0
 30
0.0
 11
106.66666666666669
 21
0.0
 31
0.0
  0
LINE
  6
DOTTED
 62
1
  8
-135
 10
128.33333333333337
 20
0.0
 30
0.0
 11
150.0
 21
36.5
 31
0.0
  0
LINE
 62
5
  8
cut
 10
124.00000000000003
 20
36.5
 30
0.0
 11
124.00000000000003
 21
16.5
 31
0.0
  0
LINE
 62
5
  8
cut
 10
111.00000000000001
 20
36.5
 30
0.0
 11
124.00000000000003
 21
36.5
 31
0.0
  0
LINE
 62
5
  8
cut
 10
111.00000000000001
 20
16.5
 30
0.0
 11
111.00000000000001
 21
36.5
 31
0.0
  0
LINE
 62
5
  8
cut
 10
106.66666666666669
 20
0.0
 30
0.0
 11
85.00000000000001
 21
0.0
 31
0.0
  0
LINE
 62
5
  8
cut
 10
85.00000000000001
 20
0.0
 30
0.0
 11
85.00000000000001
 21
36.5
 31
0.0
  0
LINE
 62
5
  8
cut
 10
150.0
 20
36.49999999999999
 30
0.0
 11
150.0
 21
0.0
 31
0.0
  0
LINE
 62
5
  8
cut
 10
150.0
 20
0.0
 30
0.0
 11
128.33333333333334
 21
0.0
 31
0.0
  0
LINE
  6
DOTTED
 62
1
  8
90
 10
85.00000000000001
 20
136.60000000000002
 30
0.0
 11
85.00000000000001
 21
36.599999999999994
 31
0.0
  0
LINE
  6
DOTTED
 62
1
  8
90
 10
150.0
 20
136.60000000000002
 30
0.0
 11
150.0
 21
36.599999999999994
 31
0.0
  0
LINE
  6
DOTTED
 62
1
  8
180
 10
131.0
 20
136.60000000000002
 30
0.0
 11
150.0
 21
136.60000000000002
 31
0.0
  0
LINE
 62
5
  8
cut
 10
104.00000000000001
 20
136.60000000000002
 30
0.0
 11
131.0
 21
136.60000000000002
 31
0.0
  0
LINE
 62
5
  8
cut
 10
85.00000000000001
 20
136.60000000000002
 30
0.0
 11
104.00000000000001
 21
136.60000000000002
 31
0.0
  0
LINE
 62
5
  8
cut
 10
85.00000000000001
 20
136.60000000000002
 30
0.0
 11
85.00000000000001
 21
136.60000000000002
 31
0.0
  0
LINE
 62
5
  8
cut
 10
150.0
 20
136.60000000000002
 30
0.0
 11
150.0
 21
136.60000000000002
 31
0.0
  0
LINE
 62
5
  8
cut
 10
131.0
 20
192.60000000000002
 30
0.0
 11
150.0
 21
192.60000000000002
 31
0.0
  0
LINE
  6
DOTTED
 62
1
  8
-90
 10
131.0
 20
192.60000000000002
 30
0.0
 11
131.0
 21
136.60000000000005
 31
0.0
  0
LINE
  6
DOTTED
 62
1
  8
-90
 10
150.0
 20
192.60000000000002
 30
0.0
 11
150.0
 21
136.60000000000005
 31
0.0
  0
LINE
 62
5
  8
cut
 10
118.00000000000001
 20
192.60000000000002
 30
0.0
 11
131.0
 21
192.60000000000002
 31
0.0
  0
LINE
  6
DOTTED
 62
1
  8
-90
 10
118.00000000000001
 20
192.60000000000002
 30
0.0
 11
118.00000000000001
 21
136.60000000000005
 31
0.0
  0
LINE
 62
5
  8
cut
 10
131.0
 20
136.60000000000005
 30
0.0
 11
118.00000000000001
 21
136.60000000000005
 31
0.0
  0
LINE
 62
5
  8
cut
 10
99.0
 20
192.60000000000002
 30
0.0
 11
118.00000000000001
 21
192.60000000000002
 31
0.0
  0
LINE
 62
5
  8
cut
 10
99.0
 20
136.60000000000005
 30
0.0
 11
99.0
 21
192.60000000000002
 31
0.0
  0
LINE
 62
5
  8
cut
 10
118.00000000000001
 20
136.60000000000005
 30
0.0
 11
99.0
 21
136.60000000000005
 31
0.0
  0
LINE
  6
DOTTED
 62
1
  8
-90
 10
150.0
 20
192.60000000000002
 30
0.0
 11
163.00000000000003
 21
192.60000000000002
 31
0.0
  0
LINE
 62
5
  8
cut
 10
163.00000000000003
 20
136.60000000000005
 30
0.0
 11
150.0
 21
136.60000000000005
 31
0.0
  0
LINE
  6
DOTTED
 62
1
  8
-90
 10
163.00000000000003
 20
136.60000000000005
 30
0.0
 11
163.00000000000003
 21
192.60000000000002
 31
0.0
  0
LINE
  6
DOTTED
 62
1
  8
-90
 10
163.00000000000003
 20
257.6000000000001
 30
0.0
 11
150.0
 21
257.6000000000001
 31
0.0
  0
LINE
  6
DOTTED
 62
1
  8
90
 10
150.0
 20
257.6000000000001
 30
0.0
 11
150.0
 21
192.60000000000002
 31
0.0
  0
LINE
  6
DOTTED
 62
1
  8
90
 10
163.00000000000003
 20
192.60000000000002
 30
0.0
 11
163.00000000000003
 21
257.6000000000001
 31
0.0
  0
LINE
 62
5
  8
cut
 10
150.0
 20
313.6
 30
0.0
 11
163.00000000000003
 21
313.6
 31
0.0
  0
LINE
  6
DOTTED
 62
1
  8
-90
 10
150.0
 20
313.6
 30
0.0
 11
150.0
 21
257.6000000000001
 31
0.0
  0
LINE
  6
DOTTED
 62
1
  8
-90
 10
163.00000000000003
 20
257.6000000000001
 30
0.0
 11
163.00000000000003
 21
313.6
 31
0.0
  0
LINE
 62
5
  8
cut
 10
131.0
 20
313.6
 30
0.0
 11
150.0
 21
313.6
 31
0.0
  0
LINE
  6
DOTTED
 62
1
  8
-90
 10
131.0
 20
313.6
 30
0.0
 11
131.0
 21
257.6000000000001
 31
0.0
  0
LINE
 62
5
  8
cut
 10
150.0
 20
257.6000000000001
 30
0.0
 11
131.0
 21
257.6000000000001
 31
0.0
  0
LINE
 62
5
  8
cut
 10
118.00000000000001
 20
313.6
 30
0.0
 11
131.0
 21
313.6
 31
0.0
  0
LINE
  6
DOTTED
 62
1
  8
-90
 10
118.00000000000001
 20
313.6
 30
0.0
 11
118.00000000000001
 21
257.6000000000001
 31
0.0
  0
LINE
 62
5
  8
cut
 10
131.0
 20
257.6000000000001
 30
0.0
 11
118.00000000000001
 21
257.6000000000001
 31
0.0
  0
LINE
 62
5
  8
cut
 10
99.0
 20
313.6
 30
0.0
 11
118.00000000000001
 21
313.6
 31
0.0
  0
LINE
 62
5
  8
cut
 10
99.0
 20
257.6000000000001
 30
0.0
 11
99.0
 21
313.6
 31
0.0
  0
LINE
 62
5
  8
cut
 10
118.00000000000001
 20
257.6000000000001
 30
0.0
 11
99.0
 21
257.6000000000001
 31
0.0
  0
LINE
 62
5
  8
cut
 10
173.0
 20
257.6000000000001
 30
0.0
 11
163.00000000000003
 21
257.6000000000001
 31
0.0
  0
LINE
 62
5
  8
cut
 10
173.0
 20
313.6
 30
0.0
 11
173.0
 21
257.6000000000001
 31
0.0
  0
LINE
 62
5
  8
cut
 10
163.00000000000003
 20
313.6
 30
0.0
 11
173.0
 21
313.6
 31
0.0
  0
LINE
 62
5
  8
cut
 10
106.00000000000001
 20
257.6000000000001
 30
0.0
 11
150.0
 21
257.6000000000001
 31
0.0
  0
LINE
  6
DOTTED
 62
1
  8
90
 10
106.00000000000001
 20
257.6000000000001
 30
0.0
 11
106.00000000000001
 21
192.60000000000002
 31
0.0
  0
LINE
 62
5
  8
cut
 10
150.0
 20
192.60000000000002
 30
0.0
 11
106.00000000000001
 21
192.60000000000002
 31
0.0
  0
LINE
 62
5
  8
cut
 10
93.00000000000001
 20
257.6000000000001
 30
0.0
 11
106.00000000000001
 21
257.6000000000001
 31
0.0
  0
LINE
  6
DOTTED
 62
1
  8
90
 10
93.00000000000001
 20
257.6000000000001
 30
0.0
 11
93.00000000000001
 21
192.60000000000002
 31
0.0
  0
LINE
 62
5
  8
cut
 10
106.00000000000001
 20
192.60000000000002
 30
0.0
 11
93.00000000000001
 21
192.60000000000002
 31
0.0
  0
LINE
 62
5
  8
cut
 10
49.00000000000001
 20
257.6000000000001
 30
0.0
 11
93.00000000000001
 21
257.6000000000001
 31
0.0
  0
LINE
 62
5
  8
cut
 10
49.00000000000001
 20
192.60000000000002
 30
0.0
 11
49.00000000000001
 21
257.6000000000001
 31
0.0
  0
LINE
 62
5
  8
cut
 10
93.00000000000001
 20
192.60000000000002
 30
0.0
 11
49.00000000000001
 21
192.60000000000002
 31
0.0
  0
LINE
 62
5
  8
cut
 10
173.0
 20
192.60000000000002
 30
0.0
 11
163.00000000000003
 21
192.60000000000002
 31
0.0
  0
LINE
 62
5
  8
cut
 10
173.0
 20
257.6000000000001
 30
0.0
 11
173.0
 21
192.60000000000002
 31
0.0
  0
LINE
 62
5
  8
cut
 10
163.00000000000003
 20
257.6000000000001
 30
0.0
 11
173.0
 21
257.6000000000001
 31
0.0
  0
LINE
 62
5
  8
cut
 10
173.0
 20
136.60000000000005
 30
0.0
 11
163.00000000000003
 21
136.60000000000005
 31
0.0
  0
LINE
 62
5
  8
cut
 10
173.0
 20
192.60000000000002
 30
0.0
 11
173.0
 21
136.60000000000005
 31
0.0
  0
LINE
 62
5
  8
cut
 10
163.00000000000003
 20
192.60000000000002
 30
0.0
 11
173.0
 21
192.60000000000002
 31
0.0
  0
LINE
 62
5
  8
cut
 10
65.0
 20
136.60000000000002
 30
0.0
 11
85.00000000000001
 21
136.60000000000002
 31
0.0
  0
LINE
  6
DOTTED
 62
1
  8
90
 10
65.0
 20
136.60000000000002
 30
0.0
 11
65.0
 21
36.599999999999994
 31
0.0
  0
LINE
 62
5
  8
cut
 10
85.00000000000001
 20
36.599999999999994
 30
0.0
 11
65.0
 21
36.599999999999994
 31
0.0
  0
LINE
 62
5
  8
cut
 10
0.0
 20
136.60000000000002
 30
0.0
 11
65.0
 21
136.60000000000002
 31
0.0
  0
LINE
 62
5
  8
cut
 10
0.0
 20
36.599999999999994
 30
0.0
 11
0.0
 21
136.60000000000002
 31
0.0
  0
LINE
 62
5
  8
cut
 10
26.000000000000004
 20
36.599999999999994
 30
0.0
 11
0.0
 21
36.599999999999994
 31
0.0
  0
LINE
 62
5
  8
cut
 10
39.00000000000001
 20
36.599999999999994
 30
0.0
 11
26.000000000000004
 21
36.599999999999994
 31
0.0
  0
LINE
 62
5
  8
cut
 10
65.0
 20
36.599999999999994
 30
0.0
 11
39.00000000000001
 21
36.599999999999994
 31
0.0
  0
LINE
 62
5
  8
cut
 10
65.0
 20
36.599999999999994
 30
0.0
 11
65.0
 21
36.599999999999994
 31
0.0
  0
LINE
 62
5
  8
cut
 10
0.0
 20
36.599999999999994
 30
0.0
 11
0.0
 21
36.599999999999994
 31
0.0
  0
LINE
 62
5
  8
cut
 10
150.0
 20
136.60000000000002
 30
0.0
 11
170.00000000000003
 21
136.60000000000002
 31
0.0
  0
LINE
 62
5
  8
cut
 10
170.00000000000003
 20
36.599999999999994
 30
0.0
 11
150.0
 21
36.599999999999994
 31
0.0
  0
LINE
  6
DOTTED
 62
1
  8
90
 10
170.00000000000003
 20
36.599999999999994
 30
0.0
 11
170.00000000000003
 21
136.60000000000002
 31
0.0
  0
LINE
 62
5
  8
cut
 10
180.0
 20
36.599999999999994
 30
0.0
 11
170.00000000000003
 21
36.599999999999994
 31
0.0
  0
LINE
 62
5
  8
cut
 10
180.0
 20
136.60000000000002
 30
0.0
 11
180.0
 21
36.599999999999994
 31
0.0
  0
LINE
 62
5
  8
cut
 10
170.00000000000003
 20
136.60000000000002
 30
0.0
 11
180.0
 21
136.60000000000002
 31
0.0
  0
LINE
 62
5
  8
cut
 10
119.66666666666667
 20
21.5
 30
0.0
 11
115.33333333333334
 21
21.5
 31
0.0
  0
LINE
 62
5
  8
cut
 10
115.33333333333334
 20
21.5
 30
0.0
 11
115.33333333333334
 21
31.5
 31
0.0
  0
LINE
 62
5
  8
cut
 10
115.33333333333334
 20
31.5
 30
0.0
 11
119.66666666666669
 21
31.5
 31
0.0
  0
LINE
 62
5
  8
cut
 10
125.50000000000001
 20
56.1
 30
0.0
 11
121.50000000000001
 21
56.1
 31
0.0
  0
LINE
 62
5
  8
cut
 10
121.50000000000001
 20
56.1
 30
0.0
 11
121.50000000000001
 21
47.1
 31
0.0
  0
LINE
 62
5
  8
cut
 10
121.50000000000001
 20
47.1
 30
0.0
 11
125.50000000000001
 21
47.1
 31
0.0
  0
LINE
 62
5
  8
cut
 10
125.50000000000001
 20
47.1
 30
0.0
 11
125.50000000000001
 21
56.1
 31
0.0
  0
LINE
 62
5
  8
cut
 10
119.75000000000001
 20
79.85
 30
0.0
 11
92.75000000000001
 21
79.85
 31
0.0
  0
LINE
 62
5
  8
cut
 10
92.75000000000001
 20
79.85
 30
0.0
 11
92.75000000000001
 21
71.85
 31
0.0
  0
LINE
 62
5
  8
cut
 10
92.75000000000001
 20
71.85
 30
0.0
 11
119.75000000000001
 21
71.85
 31
0.0
  0
LINE
 62
5
  8
cut
 10
119.75000000000001
 20
71.85
 30
0.0
 11
119.75000000000001
 21
79.85
 31
0.0
  0
LINE
 62
5
  8
cut
 10
99.47000000000001
 20
64.03000000000002
 30
0.0
 11
96.47000000000001
 21
64.03000000000002
 31
0.0
  0
LINE
 62
5
  8
cut
 10
96.47000000000001
 20
64.03000000000002
 30
0.0
 11
96.47000000000001
 21
61.03
 31
0.0
  0
LINE
 62
5
  8
cut
 10
96.47000000000001
 20
61.03
 30
0.0
 11
99.47000000000001
 21
61.03
 31
0.0
  0
LINE
 62
5
  8
cut
 10
99.47000000000001
 20
61.03
 30
0.0
 11
99.47000000000001
 21
64.03000000000002
 31
0.0
  0
LINE
 62
5
  8
cut
 10
98.47000000000001
 20
40.17
 30
0.0
 11
97.47000000000001
 21
40.17
 31
0.0
  0
LINE
 62
5
  8
cut
 10
97.47000000000001
 20
40.17
 30
0.0
 11
97.47000000000001
 21
39.169999999999995
 31
0.0
  0
LINE
 62
5
  8
cut
 10
97.47000000000001
 20
39.169999999999995
 30
0.0
 11
98.47000000000001
 21
39.169999999999995
 31
0.0
  0
LINE
 62
5
  8
cut
 10
98.47000000000001
 20
39.169999999999995
 30
0.0
 11
98.47000000000001
 21
40.17
 31
0.0
  0
LINE
 62
5
  8
cut
 10
101.01
 20
63.03
 30
0.0
 11
100.01
 21
63.03
 31
0.0
  0
LINE
 62
5
  8
cut
 10
100.01
 20
63.03
 30
0.0
 11
100.01
 21
62.03
 31
0.0
  0
LINE
 62
5
  8
cut
 10
100.01
 20
62.03
 30
0.0
 11
101.01
 21
62.03
 31
0.0
  0
LINE
 62
5
  8
cut
 10
101.01
 20
62.03
 30
0.0
 11
101.01
 21
63.03
 31
0.0
  0
LINE
 62
5
  8
cut
 10
101.01
 20
40.17
 30
0.0
 11
100.01
 21
40.17
 31
0.0
  0
LINE
 62
5
  8
cut
 10
100.01
 20
40.17
 30
0.0
 11
100.01
 21
39.169999999999995
 31
0.0
  0
LINE
 62
5
  8
cut
 10
100.01
 20
39.169999999999995
 30
0.0
 11
101.01
 21
39.169999999999995
 31
0.0
  0
LINE
 62
5
  8
cut
 10
101.01
 20
39.169999999999995
 30
0.0
 11
101.01
 21
40.17
 31
0.0
  0
LINE
 62
5
  8
cut
 10
103.55000000000001
 20
63.03
 30
0.0
 11
102.55000000000001
 21
63.03
 31
0.0
  0
LINE
 62
5
  8
cut
 10
102.55000000000001
 20
63.03
 30
0.0
 11
102.55000000000001
 21
62.03
 31
0.0
  0
LINE
 62
5
  8
cut
 10
102.55000000000001
 20
62.03
 30
0.0
 11
103.55000000000001
 21
62.03
 31
0.0
  0
LINE
 62
5
  8
cut
 10
103.55000000000001
 20
62.03
 30
0.0
 11
103.55000000000001
 21
63.03
 31
0.0
  0
LINE
 62
5
  8
cut
 10
103.55000000000001
 20
40.17
 30
0.0
 11
102.55000000000001
 21
40.17
 31
0.0
  0
LINE
 62
5
  8
cut
 10
102.55000000000001
 20
40.17
 30
0.0
 11
102.55000000000001
 21
39.169999999999995
 31
0.0
  0
LINE
 62
5
  8
cut
 10
102.55000000000001
 20
39.169999999999995
 30
0.0
 11
103.55000000000001
 21
39.169999999999995
 31
0.0
  0
LINE
 62
5
  8
cut
 10
103.55000000000001
 20
39.169999999999995
 30
0.0
 11
103.55000000000001
 21
40.17
 31
0.0
  0
LINE
 62
5
  8
cut
 10
106.09000000000002
 20
63.03
 30
0.0
 11
105.09000000000002
 21
63.03
 31
0.0
  0
LINE
 62
5
  8
cut
 10
105.09000000000002
 20
63.03
 30
0.0
 11
105.09000000000002
 21
62.03
 31
0.0
  0
LINE
 62
5
  8
cut
 10
105.09000000000002
 20
62.03
 30
0.0
 11
106.09000000000002
 21
62.03
 31
0.0
  0
LINE
 62
5
  8
cut
 10
106.09000000000002
 20
62.03
 30
0.0
 11
106.09000000000002
 21
63.03
 31
0.0
  0
LINE
 62
5
  8
cut
 10
106.09000000000002
 20
40.17
 30
0.0
 11
105.09000000000002
 21
40.17
 31
0.0
  0
LINE
 62
5
  8
cut
 10
105.09000000000002
 20
40.17
 30
0.0
 11
105.09000000000002
 21
39.169999999999995
 31
0.0
  0
LINE
 62
5
  8
cut
 10
105.09000000000002
 20
39.169999999999995
 30
0.0
 11
106.09000000000002
 21
39.169999999999995
 31
0.0
  0
LINE
 62
5
  8
cut
 10
106.09000000000002
 20
39.169999999999995
 30
0.0
 11
106.09000000000002
 21
40.17
 31
0.0
  0
LINE
 62
5
  8
cut
 10
108.63000000000001
 20
63.03
 30
0.0
 11
107.63000000000001
 21
63.03
 31
0.0
  0
LINE
 62
5
  8
cut
 10
107.63000000000001
 20
63.03
 30
0.0
 11
107.63000000000001
 21
62.03
 31
0.0
  0
LINE
 62
5
  8
cut
 10
107.63000000000001
 20
62.03
 30
0.0
 11
108.63000000000001
 21
62.03
 31
0.0
  0
LINE
 62
5
  8
cut
 10
108.63000000000001
 20
62.03
 30
0.0
 11
108.63000000000001
 21
63.03
 31
0.0
  0
LINE
 62
5
  8
cut
 10
108.63000000000001
 20
40.17
 30
0.0
 11
107.63000000000001
 21
40.17
 31
0.0
  0
LINE
 62
5
  8
cut
 10
107.63000000000001
 20
40.17
 30
0.0
 11
107.63000000000001
 21
39.169999999999995
 31
0.0
  0
LINE
 62
5
  8
cut
 10
107.63000000000001
 20
39.169999999999995
 30
0.0
 11
108.63000000000001
 21
39.169999999999995
 31
0.0
  0
LINE
 62
5
  8
cut
 10
108.63000000000001
 20
39.169999999999995
 30
0.0
 11
108.63000000000001
 21
40.17
 31
0.0
  0
LINE
 62
5
  8
cut
 10
111.17000000000002
 20
63.03
 30
0.0
 11
110.17000000000002
 21
63.03
 31
0.0
  0
LINE
 62
5
  8
cut
 10
110.17000000000002
 20
63.03
 30
0.0
 11
110.17000000000002
 21
62.03
 31
0.0
  0
LINE
 62
5
  8
cut
 10
110.17000000000002
 20
62.03
 30
0.0
 11
111.17000000000002
 21
62.03
 31
0.0
  0
LINE
 62
5
  8
cut
 10
111.17000000000002
 20
62.03
 30
0.0
 11
111.17000000000002
 21
63.03
 31
0.0
  0
LINE
 62
5
  8
cut
 10
111.17000000000002
 20
40.17
 30
0.0
 11
110.17000000000002
 21
40.17
 31
0.0
  0
LINE
 62
5
  8
cut
 10
110.17000000000002
 20
40.17
 30
0.0
 11
110.17000000000002
 21
39.169999999999995
 31
0.0
  0
LINE
 62
5
  8
cut
 10
110.17000000000002
 20
39.169999999999995
 30
0.0
 11
111.17000000000002
 21
39.169999999999995
 31
0.0
  0
LINE
 62
5
  8
cut
 10
111.17000000000002
 20
39.169999999999995
 30
0.0
 11
111.17000000000002
 21
40.17
 31
0.0
  0
LINE
 62
5
  8
cut
 10
113.71000000000002
 20
63.03
 30
0.0
 11
112.71000000000002
 21
63.03
 31
0.0
  0
LINE
 62
5
  8
cut
 10
112.71000000000002
 20
63.03
 30
0.0
 11
112.71000000000002
 21
62.03
 31
0.0
  0
LINE
 62
5
  8
cut
 10
112.71000000000002
 20
62.03
 30
0.0
 11
113.71000000000002
 21
62.03
 31
0.0
  0
LINE
 62
5
  8
cut
 10
113.71000000000002
 20
62.03
 30
0.0
 11
113.71000000000002
 21
63.03
 31
0.0
  0
LINE
 62
5
  8
cut
 10
113.71000000000002
 20
40.17
 30
0.0
 11
112.71000000000002
 21
40.17
 31
0.0
  0
LINE
 62
5
  8
cut
 10
112.71000000000002
 20
40.17
 30
0.0
 11
112.71000000000002
 21
39.169999999999995
 31
0.0
  0
LINE
 62
5
  8
cut
 10
112.71000000000002
 20
39.169999999999995
 30
0.0
 11
113.71000000000002
 21
39.169999999999995
 31
0.0
  0
LINE
 62
5
  8
cut
 10
113.71000000000002
 20
39.169999999999995
 30
0.0
 11
113.71000000000002
 21
40.17
 31
0.0
  0
LINE
 62
5
  8
cut
 10
116.25000000000001
 20
63.029999999999994
 30
0.0
 11
115.25000000000001
 21
63.029999999999994
 31
0.0
  0
LINE
 62
5
  8
cut
 10
115.25000000000001
 20
63.029999999999994
 30
0.0
 11
115.25000000000001
 21
62.029999999999994
 31
0.0
  0
LINE
 62
5
  8
cut
 10
115.25000000000001
 20
62.029999999999994
 30
0.0
 11
116.25000000000001
 21
62.029999999999994
 31
0.0
  0
LINE
 62
5
  8
cut
 10
116.25000000000001
 20
62.029999999999994
 30
0.0
 11
116.25000000000001
 21
63.029999999999994
 31
0.0
  0
LINE
 62
5
  8
cut
 10
116.25000000000001
 20
40.17
 30
0.0
 11
115.25000000000001
 21
40.17
 31
0.0
  0
LINE
 62
5
  8
cut
 10
115.25000000000001
 20
40.17
 30
0.0
 11
115.25000000000001
 21
39.169999999999995
 31
0.0
  0
LINE
 62
5
  8
cut
 10
115.25000000000001
 20
39.169999999999995
 30
0.0
 11
116.25000000000001
 21
39.169999999999995
 31
0.0
  0
LINE
 62
5
  8
cut
 10
116.25000000000001
 20
39.169999999999995
 30
0.0
 11
116.25000000000001
 21
40.17
 31
0.0
  0
LINE
 62
5
  8
cut
 10
118.79
 20
63.029999999999994
 30
0.0
 11
117.79
 21
63.029999999999994
 31
0.0
  0
LINE
 62
5
  8
cut
 10
117.79
 20
63.029999999999994
 30
0.0
 11
117.79
 21
62.029999999999994
 31
0.0
  0
LINE
 62
5
  8
cut
 10
117.79
 20
62.029999999999994
 30
0.0
 11
118.79
 21
62.029999999999994
 31
0.0
  0
LINE
 62
5
  8
cut
 10
118.79
 20
62.029999999999994
 30
0.0
 11
118.79
 21
63.029999999999994
 31
0.0
  0
LINE
 62
5
  8
cut
 10
118.79
 20
40.17
 30
0.0
 11
117.79
 21
40.17
 31
0.0
  0
LINE
 62
5
  8
cut
 10
117.79
 20
40.17
 30
0.0
 11
117.79
 21
39.169999999999995
 31
0.0
  0
LINE
 62
5
  8
cut
 10
117.79
 20
39.169999999999995
 30
0.0
 11
118.79
 21
39.169999999999995
 31
0.0
  0
LINE
 62
5
  8
cut
 10
118.79
 20
39.169999999999995
 30
0.0
 11
118.79
 21
40.17
 31
0.0
  0
LINE
 62
5
  8
cut
 10
121.33000000000001
 20
63.029999999999994
 30
0.0
 11
120.33000000000001
 21
63.029999999999994
 31
0.0
  0
LINE
 62
5
  8
cut
 10
120.33000000000001
 20
63.029999999999994
 30
0.0
 11
120.33000000000001
 21
62.029999999999994
 31
0.0
  0
LINE
 62
5
  8
cut
 10
120.33000000000001
 20
62.029999999999994
 30
0.0
 11
121.33000000000001
 21
62.029999999999994
 31
0.0
  0
LINE
 62
5
  8
cut
 10
121.33000000000001
 20
62.029999999999994
 30
0.0
 11
121.33000000000001
 21
63.029999999999994
 31
0.0
  0
LINE
 62
5
  8
cut
 10
121.33000000000001
 20
40.17
 30
0.0
 11
120.33000000000001
 21
40.17
 31
0.0
  0
LINE
 62
5
  8
cut
 10
120.33000000000001
 20
40.17
 30
0.0
 11
120.33000000000001
 21
39.169999999999995
 31
0.0
  0
LINE
 62
5
  8
cut
 10
120.33000000000001
 20
39.169999999999995
 30
0.0
 11
121.33000000000001
 21
39.169999999999995
 31
0.0
  0
LINE
 62
5
  8
cut
 10
121.33000000000001
 20
39.169999999999995
 30
0.0
 11
121.33000000000001
 21
40.17
 31
0.0
  0
LINE
 62
5
  8
cut
 10
123.87000000000002
 20
63.029999999999994
 30
0.0
 11
122.87000000000002
 21
63.029999999999994
 31
0.0
  0
LINE
 62
5
  8
cut
 10
122.87000000000002
 20
63.029999999999994
 30
0.0
 11
122.87000000000002
 21
62.029999999999994
 31
0.0
  0
LINE
 62
5
  8
cut
 10
122.87000000000002
 20
62.029999999999994
 30
0.0
 11
123.87000000000002
 21
62.029999999999994
 31
0.0
  0
LINE
 62
5
  8
cut
 10
123.87000000000002
 20
62.029999999999994
 30
0.0
 11
123.87000000000002
 21
63.029999999999994
 31
0.0
  0
LINE
 62
5
  8
cut
 10
123.87000000000002
 20
40.17
 30
0.0
 11
122.87000000000002
 21
40.17
 31
0.0
  0
LINE
 62
5
  8
cut
 10
122.87000000000002
 20
40.17
 30
0.0
 11
122.87000000000002
 21
39.169999999999995
 31
0.0
  0
LINE
 62
5
  8
cut
 10
122.87000000000002
 20
39.169999999999995
 30
0.0
 11
123.87000000000002
 21
39.169999999999995
 31
0.0
  0
LINE
 62
5
  8
cut
 10
123.87000000000002
 20
39.169999999999995
 30
0.0
 11
123.87000000000002
 21
40.17
 31
0.0
  0
LINE
 62
5
  8
cut
 10
126.41000000000003
 20
63.029999999999994
 30
0.0
 11
125.41000000000001
 21
63.029999999999994
 31
0.0
  0
LINE
 62
5
  8
cut
 10
125.41000000000001
 20
63.029999999999994
 30
0.0
 11
125.41000000000001
 21
62.029999999999994
 31
0.0
  0
LINE
 62
5
  8
cut
 10
125.41000000000001
 20
62.029999999999994
 30
0.0
 11
126.41000000000003
 21
62.029999999999994
 31
0.0
  0
LINE
 62
5
  8
cut
 10
126.41000000000003
 20
62.029999999999994
 30
0.0
 11
126.41000000000003
 21
63.029999999999994
 31
0.0
  0
LINE
 62
5
  8
cut
 10
126.41000000000003
 20
40.17
 30
0.0
 11
125.41000000000001
 21
40.17
 31
0.0
  0
LINE
 62
5
  8
cut
 10
125.41000000000001
 20
40.17
 30
0.0
 11
125.41000000000001
 21
39.169999999999995
 31
0.0
  0
LINE
 62
5
  8
cut
 10
125.41000000000001
 20
39.169999999999995
 30
0.0
 11
126.41000000000003
 21
39.169999999999995
 31
0.0
  0
LINE
 62
5
  8
cut
 10
126.41000000000003
 20
39.169999999999995
 30
0.0
 11
126.41000000000003
 21
40.17
 31
0.0
  0
LINE
 62
5
  8
cut
 10
128.95000000000002
 20
63.029999999999994
 30
0.0
 11
127.95000000000002
 21
63.029999999999994
 31
0.0
  0
LINE
 62
5
  8
cut
 10
127.95000000000002
 20
63.029999999999994
 30
0.0
 11
127.95000000000002
 21
62.029999999999994
 31
0.0
  0
LINE
 62
5
  8
cut
 10
127.95000000000002
 20
62.029999999999994
 30
0.0
 11
128.95000000000002
 21
62.029999999999994
 31
0.0
  0
LINE
 62
5
  8
cut
 10
128.95000000000002
 20
62.029999999999994
 30
0.0
 11
128.95000000000002
 21
63.029999999999994
 31
0.0
  0
LINE
 62
5
  8
cut
 10
128.95000000000002
 20
40.17
 30
0.0
 11
127.95000000000002
 21
40.17
 31
0.0
  0
LINE
 62
5
  8
cut
 10
127.95000000000002
 20
40.17
 30
0.0
 11
127.95000000000002
 21
39.169999999999995
 31
0.0
  0
LINE
 62
5
  8
cut
 10
127.95000000000002
 20
39.169999999999995
 30
0.0
 11
128.95000000000002
 21
39.169999999999995
 31
0.0
  0
LINE
 62
5
  8
cut
 10
128.95000000000002
 20
39.169999999999995
 30
0.0
 11
128.95000000000002
 21
40.17
 31
0.0
  0
LINE
 62
5
  8
cut
 10
131.49000000000004
 20
63.029999999999994
 30
0.0
 11
130.49
 21
63.029999999999994
 31
0.0
  0
LINE
 62
5
  8
cut
 10
130.49
 20
63.029999999999994
 30
0.0
 11
130.49
 21
62.029999999999994
 31
0.0
  0
LINE
 62
5
  8
cut
 10
130.49
 20
62.029999999999994
 30
0.0
 11
131.49000000000004
 21
62.029999999999994
 31
0.0
  0
LINE
 62
5
  8
cut
 10
131.49000000000004
 20
62.029999999999994
 30
0.0
 11
131.49000000000004
 21
63.029999999999994
 31
0.0
  0
LINE
 62
5
  8
cut
 10
131.49000000000004
 20
40.17
 30
0.0
 11
130.49
 21
40.17
 31
0.0
  0
LINE
 62
5
  8
cut
 10
130.49
 20
40.17
 30
0.0
 11
130.49
 21
39.169999999999995
 31
0.0
  0
LINE
 62
5
  8
cut
 10
130.49
 20
39.169999999999995
 30
0.0
 11
131.49000000000004
 21
39.169999999999995
 31
0.0
  0
LINE
 62
5
  8
cut
 10
131.49000000000004
 20
39.169999999999995
 30
0.0
 11
131.49000000000004
 21
40.17
 31
0.0
  0
LINE
 62
5
  8
cut
 10
134.03000000000003
 20
63.029999999999994
 30
0.0
 11
133.03000000000003
 21
63.029999999999994
 31
0.0
  0
LINE
 62
5
  8
cut
 10
133.03000000000003
 20
63.029999999999994
 30
0.0
 11
133.03000000000003
 21
62.029999999999994
 31
0.0
  0
LINE
 62
5
  8
cut
 10
133.03000000000003
 20
62.029999999999994
 30
0.0
 11
134.03000000000003
 21
62.029999999999994
 31
0.0
  0
LINE
 62
5
  8
cut
 10
134.03000000000003
 20
62.029999999999994
 30
0.0
 11
134.03000000000003
 21
63.029999999999994
 31
0.0
  0
LINE
 62
5
  8
cut
 10
135.03000000000003
 20
41.17
 30
0.0
 11
132.03
 21
41.17
 31
0.0
  0
LINE
 62
5
  8
cut
 10
132.03
 20
41.17
 30
0.0
 11
132.03
 21
38.17
 31
0.0
  0
LINE
 62
5
  8
cut
 10
132.03
 20
38.17
 30
0.0
 11
135.03000000000003
 21
38.17
 31
0.0
  0
LINE
 62
5
  8
cut
 10
135.03000000000003
 20
38.17
 30
0.0
 11
135.03000000000003
 21
41.17
 31
0.0
  0
LINE
 62
5
  8
cut
 10
106.75000000000001
 20
155.01666666666668
 30
0.0
 11
106.75000000000001
 21
174.18333333333334
 31
0.0
  0
LINE
 62
5
  8
cut
 10
106.75000000000001
 20
174.18333333333334
 30
0.0
 11
106.25000000000001
 21
174.18333333333334
 31
0.0
  0
LINE
 62
5
  8
cut
 10
106.25000000000001
 20
174.18333333333334
 30
0.0
 11
106.25000000000001
 21
155.01666666666668
 31
0.0
  0
LINE
 62
5
  8
cut
 10
106.25000000000001
 20
155.01666666666668
 30
0.0
 11
106.75000000000001
 21
155.01666666666668
 31
0.0
  0
LINE
 62
5
  8
cut
 10
162.93500000000003
 20
164.60000000000005
 30
0.0
 11
150.065
 21
164.60000000000005
 31
0.0
  0
LINE
 62
5
  8
cut
 10
150.065
 20
164.60000000000005
 30
0.0
 11
150.065
 21
141.60000000000005
 31
0.0
  0
LINE
 62
5
  8
cut
 10
150.065
 20
141.60000000000005
 30
0.0
 11
162.93500000000003
 21
141.60000000000005
 31
0.0
  0
LINE
 62
5
  8
cut
 10
162.93500000000003
 20
141.60000000000005
 30
0.0
 11
162.93500000000003
 21
164.60000000000005
 31
0.0
  0
LINE
 62
5
  8
cut
 10
162.93500000000003
 20
308.6
 30
0.0
 11
150.065
 21
308.6
 31
0.0
  0
LINE
 62
5
  8
cut
 10
150.065
 20
308.6
 30
0.0
 11
150.065
 21
285.6
 31
0.0
  0
LINE
 62
5
  8
cut
 10
150.065
 20
285.6
 30
0.0
 11
162.93500000000003
 21
285.6
 31
0.0
  0
LINE
 62
5
  8
cut
 10
162.93500000000003
 20
285.6
 30
0.0
 11
162.93500000000003
 21
308.6
 31
0.0
  0
LINE
 62
5
  8
cut
 10
106.75000000000001
 20
276.01666666666665
 30
0.0
 11
106.75000000000001
 21
295.18333333333334
 31
0.0
  0
LINE
 62
5
  8
cut
 10
106.75000000000001
 20
295.18333333333334
 30
0.0
 11
106.25000000000001
 21
295.18333333333334
 31
0.0
  0
LINE
 62
5
  8
cut
 10
106.25000000000001
 20
295.18333333333334
 30
0.0
 11
106.25000000000001
 21
276.01666666666665
 31
0.0
  0
LINE
 62
5
  8
cut
 10
106.25000000000001
 20
276.01666666666665
 30
0.0
 11
106.75000000000001
 21
276.01666666666665
 31
0.0
  0
LINE
 62
5
  8
cut
 10
170.5
 20
294.93333333333334
 30
0.0
 11
170.5
 21
299.93333333333334
 31
0.0
  0
LINE
 62
5
  8
cut
 10
170.5
 20
299.93333333333334
 30
0.0
 11
165.50000000000003
 21
294.93333333333334
 31
0.0
  0
LINE
 62
5
  8
cut
 10
165.50000000000003
 20
294.93333333333334
 30
0.0
 11
165.50000000000003
 21
276.26666666666665
 31
0.0
  0
LINE
 62
5
  8
cut
 10
165.50000000000003
 20
276.26666666666665
 30
0.0
 11
170.5
 21
271.26666666666665
 31
0.0
  0
LINE
 62
5
  8
cut
 10
170.5
 20
271.26666666666665
 30
0.0
 11
170.5
 21
276.26666666666665
 31
0.0
  0
LINE
 62
5
  8
cut
 10
149.25000000000003
 20
222.85000000000005
 30
0.0
 11
149.25000000000003
 21
249.85000000000005
 31
0.0
  0
LINE
 62
5
  8
cut
 10
149.25000000000003
 20
249.85000000000005
 30
0.0
 11
141.25
 21
249.85000000000005
 31
0.0
  0
LINE
 62
5
  8
cut
 10
141.25
 20
249.85000000000005
 30
0.0
 11
141.25
 21
222.85000000000005
 31
0.0
  0
LINE
 62
5
  8
cut
 10
141.25
 20
222.85000000000005
 30
0.0
 11
149.25000000000003
 21
222.85000000000005
 31
0.0
  0
LINE
 62
5
  8
cut
 10
133.43000000000004
 20
243.13000000000002
 30
0.0
 11
133.43000000000004
 21
246.13000000000002
 31
0.0
  0
LINE
 62
5
  8
cut
 10
133.43000000000004
 20
246.13000000000002
 30
0.0
 11
130.43000000000004
 21
246.13000000000002
 31
0.0
  0
LINE
 62
5
  8
cut
 10
130.43000000000004
 20
246.13000000000002
 30
0.0
 11
130.43000000000004
 21
243.13000000000002
 31
0.0
  0
LINE
 62
5
  8
cut
 10
130.43000000000004
 20
243.13000000000002
 30
0.0
 11
133.43000000000004
 21
243.13000000000002
 31
0.0
  0
LINE
 62
5
  8
cut
 10
109.57
 20
244.13000000000002
 30
0.0
 11
109.57
 21
245.13000000000002
 31
0.0
  0
LINE
 62
5
  8
cut
 10
109.57
 20
245.13000000000002
 30
0.0
 11
108.57000000000001
 21
245.13000000000002
 31
0.0
  0
LINE
 62
5
  8
cut
 10
108.57000000000001
 20
245.13000000000002
 30
0.0
 11
108.57000000000001
 21
244.13000000000002
 31
0.0
  0
LINE
 62
5
  8
cut
 10
108.57000000000001
 20
244.13000000000002
 30
0.0
 11
109.57
 21
244.13000000000002
 31
0.0
  0
LINE
 62
5
  8
cut
 10
132.43000000000004
 20
241.59000000000006
 30
0.0
 11
132.43000000000004
 21
242.59000000000006
 31
0.0
  0
LINE
 62
5
  8
cut
 10
132.43000000000004
 20
242.59000000000006
 30
0.0
 11
131.43000000000004
 21
242.59000000000006
 31
0.0
  0
LINE
 62
5
  8
cut
 10
131.43000000000004
 20
242.59000000000006
 30
0.0
 11
131.43000000000004
 21
241.59000000000006
 31
0.0
  0
LINE
 62
5
  8
cut
 10
131.43000000000004
 20
241.59000000000006
 30
0.0
 11
132.43000000000004
 21
241.59000000000006
 31
0.0
  0
LINE
 62
5
  8
cut
 10
109.57
 20
241.59000000000006
 30
0.0
 11
109.57
 21
242.59000000000006
 31
0.0
  0
LINE
 62
5
  8
cut
 10
109.57
 20
242.59000000000006
 30
0.0
 11
108.57000000000001
 21
242.59000000000006
 31
0.0
  0
LINE
 62
5
  8
cut
 10
108.57000000000001
 20
242.59000000000006
 30
0.0
 11
108.57000000000001
 21
241.59000000000006
 31
0.0
  0
LINE
 62
5
  8
cut
 10
108.57000000000001
 20
241.59000000000006
 30
0.0
 11
109.57
 21
241.59000000000006
 31
0.0
  0
LINE
 62
5
  8
cut
 10
132.43000000000004
 20
239.05000000000004
 30
0.0
 11
132.43000000000004
 21
240.05000000000004
 31
0.0
  0
LINE
 62
5
  8
cut
 10
132.43000000000004
 20
240.05000000000004
 30
0.0
 11
131.43000000000004
 21
240.05000000000004
 31
0.0
  0
LINE
 62
5
  8
cut
 10
131.43000000000004
 20
240.05000000000004
 30
0.0
 11
131.43000000000004
 21
239.05000000000004
 31
0.0
  0
LINE
 62
5
  8
cut
 10
131.43000000000004
 20
239.05000000000004
 30
0.0
 11
132.43000000000004
 21
239.05000000000004
 31
0.0
  0
LINE
 62
5
  8
cut
 10
109.57
 20
239.05000000000004
 30
0.0
 11
109.57
 21
240.05000000000004
 31
0.0
  0
LINE
 62
5
  8
cut
 10
109.57
 20
240.05000000000004
 30
0.0
 11
108.57000000000001
 21
240.05000000000004
 31
0.0
  0
LINE
 62
5
  8
cut
 10
108.57000000000001
 20
240.05000000000004
 30
0.0
 11
108.57000000000001
 21
239.05000000000004
 31
0.0
  0
LINE
 62
5
  8
cut
 10
108.57000000000001
 20
239.05000000000004
 30
0.0
 11
109.57
 21
239.05000000000004
 31
0.0
  0
LINE
 62
5
  8
cut
 10
132.43000000000004
 20
236.51000000000002
 30
0.0
 11
132.43000000000004
 21
237.51000000000002
 31
0.0
  0
LINE
 62
5
  8
cut
 10
132.43000000000004
 20
237.51000000000002
 30
0.0
 11
131.43000000000004
 21
237.51000000000002
 31
0.0
  0
LINE
 62
5
  8
cut
 10
131.43000000000004
 20
237.51000000000002
 30
0.0
 11
131.43000000000004
 21
236.51000000000002
 31
0.0
  0
LINE
 62
5
  8
cut
 10
131.43000000000004
 20
236.51000000000002
 30
0.0
 11
132.43000000000004
 21
236.51000000000002
 31
0.0
  0
LINE
 62
5
  8
cut
 10
109.57
 20
236.51000000000002
 30
0.0
 11
109.57
 21
237.51000000000002
 31
0.0
  0
LINE
 62
5
  8
cut
 10
109.57
 20
237.51000000000002
 30
0.0
 11
108.57000000000001
 21
237.51000000000002
 31
0.0
  0
LINE
 62
5
  8
cut
 10
108.57000000000001
 20
237.51000000000002
 30
0.0
 11
108.57000000000001
 21
236.51000000000002
 31
0.0
  0
LINE
 62
5
  8
cut
 10
108.57000000000001
 20
236.51000000000002
 30
0.0
 11
109.57
 21
236.51000000000002
 31
0.0
  0
LINE
 62
5
  8
cut
 10
132.43000000000004
 20
233.97000000000006
 30
0.0
 11
132.43000000000004
 21
234.97000000000006
 31
0.0
  0
LINE
 62
5
  8
cut
 10
132.43000000000004
 20
234.97000000000006
 30
0.0
 11
131.43000000000004
 21
234.97000000000006
 31
0.0
  0
LINE
 62
5
  8
cut
 10
131.43000000000004
 20
234.97000000000006
 30
0.0
 11
131.43000000000004
 21
233.97000000000006
 31
0.0
  0
LINE
 62
5
  8
cut
 10
131.43000000000004
 20
233.97000000000006
 30
0.0
 11
132.43000000000004
 21
233.97000000000006
 31
0.0
  0
LINE
 62
5
  8
cut
 10
109.57
 20
233.97000000000006
 30
0.0
 11
109.57
 21
234.97000000000006
 31
0.0
  0
LINE
 62
5
  8
cut
 10
109.57
 20
234.97000000000006
 30
0.0
 11
108.57000000000001
 21
234.97000000000006
 31
0.0
  0
LINE
 62
5
  8
cut
 10
108.57000000000001
 20
234.97000000000006
 30
0.0
 11
108.57000000000001
 21
233.97000000000006
 31
0.0
  0
LINE
 62
5
  8
cut
 10
108.57000000000001
 20
233.97000000000006
 30
0.0
 11
109.57
 21
233.97000000000006
 31
0.0
  0
LINE
 62
5
  8
cut
 10
132.43000000000004
 20
231.43000000000004
 30
0.0
 11
132.43000000000004
 21
232.43000000000004
 31
0.0
  0
LINE
 62
5
  8
cut
 10
132.43000000000004
 20
232.43000000000004
 30
0.0
 11
131.43000000000004
 21
232.43000000000004
 31
0.0
  0
LINE
 62
5
  8
cut
 10
131.43000000000004
 20
232.43000000000004
 30
0.0
 11
131.43000000000004
 21
231.43000000000004
 31
0.0
  0
LINE
 62
5
  8
cut
 10
131.43000000000004
 20
231.43000000000004
 30
0.0
 11
132.43000000000004
 21
231.43000000000004
 31
0.0
  0
LINE
 62
5
  8
cut
 10
109.57
 20
231.43000000000004
 30
0.0
 11
109.57
 21
232.43000000000004
 31
0.0
  0
LINE
 62
5
  8
cut
 10
109.57
 20
232.43000000000004
 30
0.0
 11
108.57000000000001
 21
232.43000000000004
 31
0.0
  0
LINE
 62
5
  8
cut
 10
108.57000000000001
 20
232.43000000000004
 30
0.0
 11
108.57000000000001
 21
231.43000000000004
 31
0.0
  0
LINE
 62
5
  8
cut
 10
108.57000000000001
 20
231.43000000000004
 30
0.0
 11
109.57
 21
231.43000000000004
 31
0.0
  0
LINE
 62
5
  8
cut
 10
132.43000000000004
 20
228.89000000000001
 30
0.0
 11
132.43000000000004
 21
229.89000000000001
 31
0.0
  0
LINE
 62
5
  8
cut
 10
132.43000000000004
 20
229.89000000000001
 30
0.0
 11
131.43000000000004
 21
229.89000000000001
 31
0.0
  0
LINE
 62
5
  8
cut
 10
131.43000000000004
 20
229.89000000000001
 30
0.0
 11
131.43000000000004
 21
228.89000000000001
 31
0.0
  0
LINE
 62
5
  8
cut
 10
131.43000000000004
 20
228.89000000000001
 30
0.0
 11
132.43000000000004
 21
228.89000000000001
 31
0.0
  0
LINE
 62
5
  8
cut
 10
109.57
 20
228.89000000000001
 30
0.0
 11
109.57
 21
229.89000000000001
 31
0.0
  0
LINE
 62
5
  8
cut
 10
109.57
 20
229.89000000000001
 30
0.0
 11
108.57000000000001
 21
229.89000000000001
 31
0.0
  0
LINE
 62
5
  8
cut
 10
108.57000000000001
 20
229.89000000000001
 30
0.0
 11
108.57000000000001
 21
228.89000000000001
 31
0.0
  0
LINE
 62
5
  8
cut
 10
108.57000000000001
 20
228.89000000000001
 30
0.0
 11
109.57
 21
228.89000000000001
 31
0.0
  0
LINE
 62
5
  8
cut
 10
132.43000000000004
 20
226.35000000000005
 30
0.0
 11
132.43000000000004
 21
227.35000000000005
 31
0.0
  0
LINE
 62
5
  8
cut
 10
132.43000000000004
 20
227.35000000000005
 30
0.0
 11
131.43000000000004
 21
227.35000000000005
 31
0.0
  0
LINE
 62
5
  8
cut
 10
131.43000000000004
 20
227.35000000000005
 30
0.0
 11
131.43000000000004
 21
226.35000000000005
 31
0.0
  0
LINE
 62
5
  8
cut
 10
131.43000000000004
 20
226.35000000000005
 30
0.0
 11
132.43000000000004
 21
226.35000000000005
 31
0.0
  0
LINE
 62
5
  8
cut
 10
109.57
 20
226.35000000000005
 30
0.0
 11
109.57
 21
227.35000000000005
 31
0.0
  0
LINE
 62
5
  8
cut
 10
109.57
 20
227.35000000000005
 30
0.0
 11
108.57000000000001
 21
227.35000000000005
 31
0.0
  0
LINE
 62
5
  8
cut
 10
108.57000000000001
 20
227.35000000000005
 30
0.0
 11
108.57000000000001
 21
226.35000000000005
 31
0.0
  0
LINE
 62
5
  8
cut
 10
108.57000000000001
 20
226.35000000000005
 30
0.0
 11
109.57
 21
226.35000000000005
 31
0.0
  0
LINE
 62
5
  8
cut
 10
132.43000000000004
 20
223.81000000000003
 30
0.0
 11
132.43000000000004
 21
224.81000000000003
 31
0.0
  0
LINE
 62
5
  8
cut
 10
132.43000000000004
 20
224.81000000000003
 30
0.0
 11
131.43000000000004
 21
224.81000000000003
 31
0.0
  0
LINE
 62
5
  8
cut
 10
131.43000000000004
 20
224.81000000000003
 30
0.0
 11
131.43000000000004
 21
223.81000000000003
 31
0.0
  0
LINE
 62
5
  8
cut
 10
131.43000000000004
 20
223.81000000000003
 30
0.0
 11
132.43000000000004
 21
223.81000000000003
 31
0.0
  0
LINE
 62
5
  8
cut
 10
109.57
 20
223.81000000000003
 30
0.0
 11
109.57
 21
224.81000000000003
 31
0.0
  0
LINE
 62
5
  8
cut
 10
109.57
 20
224.81000000000003
 30
0.0
 11
108.57000000000001
 21
224.81000000000003
 31
0.0
  0
LINE
 62
5
  8
cut
 10
108.57000000000001
 20
224.81000000000003
 30
0.0
 11
108.57000000000001
 21
223.81000000000003
 31
0.0
  0
LINE
 62
5
  8
cut
 10
108.57000000000001
 20
223.81000000000003
 30
0.0
 11
109.57
 21
223.81000000000003
 31
0.0
  0
LINE
 62
5
  8
cut
 10
132.43000000000004
 20
221.27
 30
0.0
 11
132.43000000000004
 21
222.27
 31
0.0
  0
LINE
 62
5
  8
cut
 10
132.43000000000004
 20
222.27
 30
0.0
 11
131.43000000000004
 21
222.27
 31
0.0
  0
LINE
 62
5
  8
cut
 10
131.43000000000004
 20
222.27
 30
0.0
 11
131.43000000000004
 21
221.27
 31
0.0
  0
LINE
 62
5
  8
cut
 10
131.43000000000004
 20
221.27
 30
0.0
 11
132.43000000000004
 21
221.27
 31
0.0
  0
LINE
 62
5
  8
cut
 10
109.57
 20
221.27
 30
0.0
 11
109.57
 21
222.27
 31
0.0
  0
LINE
 62
5
  8
cut
 10
109.57
 20
222.27
 30
0.0
 11
108.57000000000001
 21
222.27
 31
0.0
  0
LINE
 62
5
  8
cut
 10
108.57000000000001
 20
222.27
 30
0.0
 11
108.57000000000001
 21
221.27
 31
0.0
  0
LINE
 62
5
  8
cut
 10
108.57000000000001
 20
221.27
 30
0.0
 11
109.57
 21
221.27
 31
0.0
  0
LINE
 62
5
  8
cut
 10
132.43000000000004
 20
218.73000000000005
 30
0.0
 11
132.43000000000004
 21
219.73000000000005
 31
0.0
  0
LINE
 62
5
  8
cut
 10
132.43000000000004
 20
219.73000000000005
 30
0.0
 11
131.43000000000004
 21
219.73000000000005
 31
0.0
  0
LINE
 62
5
  8
cut
 10
131.43000000000004
 20
219.73000000000005
 30
0.0
 11
131.43000000000004
 21
218.73000000000005
 31
0.0
  0
LINE
 62
5
  8
cut
 10
131.43000000000004
 20
218.73000000000005
 30
0.0
 11
132.43000000000004
 21
218.73000000000005
 31
0.0
  0
LINE
 62
5
  8
cut
 10
109.57
 20
218.73000000000005
 30
0.0
 11
109.57
 21
219.73000000000005
 31
0.0
  0
LINE
 62
5
  8
cut
 10
109.57
 20
219.73000000000005
 30
0.0
 11
108.57000000000001
 21
219.73000000000005
 31
0.0
  0
LINE
 62
5
  8
cut
 10
108.57000000000001
 20
219.73000000000005
 30
0.0
 11
108.57000000000001
 21
218.73000000000005
 31
0.0
  0
LINE
 62
5
  8
cut
 10
108.57000000000001
 20
218.73000000000005
 30
0.0
 11
109.57
 21
218.73000000000005
 31
0.0
  0
LINE
 62
5
  8
cut
 10
132.43000000000004
 20
216.19
 30
0.0
 11
132.43000000000004
 21
217.19000000000003
 31
0.0
  0
LINE
 62
5
  8
cut
 10
132.43000000000004
 20
217.19000000000003
 30
0.0
 11
131.43000000000004
 21
217.19000000000003
 31
0.0
  0
LINE
 62
5
  8
cut
 10
131.43000000000004
 20
217.19000000000003
 30
0.0
 11
131.43000000000004
 21
216.19
 31
0.0
  0
LINE
 62
5
  8
cut
 10
131.43000000000004
 20
216.19
 30
0.0
 11
132.43000000000004
 21
216.19
 31
0.0
  0
LINE
 62
5
  8
cut
 10
109.57
 20
216.19
 30
0.0
 11
109.57
 21
217.19000000000003
 31
0.0
  0
LINE
 62
5
  8
cut
 10
109.57
 20
217.19000000000003
 30
0.0
 11
108.57000000000001
 21
217.19000000000003
 31
0.0
  0
LINE
 62
5
  8
cut
 10
108.57000000000001
 20
217.19000000000003
 30
0.0
 11
108.57000000000001
 21
216.19
 31
0.0
  0
LINE
 62
5
  8
cut
 10
108.57000000000001
 20
216.19
 30
0.0
 11
109.57
 21
216.19
 31
0.0
  0
LINE
 62
5
  8
cut
 10
132.43000000000004
 20
213.65000000000006
 30
0.0
 11
132.43000000000004
 21
214.65000000000003
 31
0.0
  0
LINE
 62
5
  8
cut
 10
132.43000000000004
 20
214.65000000000003
 30
0.0
 11
131.43000000000004
 21
214.65000000000003
 31
0.0
  0
LINE
 62
5
  8
cut
 10
131.43000000000004
 20
214.65000000000003
 30
0.0
 11
131.43000000000004
 21
213.65000000000006
 31
0.0
  0
LINE
 62
5
  8
cut
 10
131.43000000000004
 20
213.65000000000006
 30
0.0
 11
132.43000000000004
 21
213.65000000000006
 31
0.0
  0
LINE
 62
5
  8
cut
 10
109.57
 20
213.65000000000006
 30
0.0
 11
109.57
 21
214.65000000000003
 31
0.0
  0
LINE
 62
5
  8
cut
 10
109.57
 20
214.65000000000003
 30
0.0
 11
108.57000000000001
 21
214.65000000000003
 31
0.0
  0
LINE
 62
5
  8
cut
 10
108.57000000000001
 20
214.65000000000003
 30
0.0
 11
108.57000000000001
 21
213.65000000000006
 31
0.0
  0
LINE
 62
5
  8
cut
 10
108.57000000000001
 20
213.65000000000006
 30
0.0
 11
109.57
 21
213.65000000000006
 31
0.0
  0
LINE
 62
5
  8
cut
 10
132.43000000000004
 20
211.11
 30
0.0
 11
132.43000000000004
 21
212.11000000000004
 31
0.0
  0
LINE
 62
5
  8
cut
 10
132.43000000000004
 20
212.11000000000004
 30
0.0
 11
131.43000000000004
 21
212.11000000000004
 31
0.0
  0
LINE
 62
5
  8
cut
 10
131.43000000000004
 20
212.11000000000004
 30
0.0
 11
131.43000000000004
 21
211.11
 31
0.0
  0
LINE
 62
5
  8
cut
 10
131.43000000000004
 20
211.11
 30
0.0
 11
132.43000000000004
 21
211.11
 31
0.0
  0
LINE
 62
5
  8
cut
 10
109.57
 20
211.11
 30
0.0
 11
109.57
 21
212.11000000000004
 31
0.0
  0
LINE
 62
5
  8
cut
 10
109.57
 20
212.11000000000004
 30
0.0
 11
108.57000000000001
 21
212.11000000000004
 31
0.0
  0
LINE
 62
5
  8
cut
 10
108.57000000000001
 20
212.11000000000004
 30
0.0
 11
108.57000000000001
 21
211.11
 31
0.0
  0
LINE
 62
5
  8
cut
 10
108.57000000000001
 20
211.11
 30
0.0
 11
109.57
 21
211.11
 31
0.0
  0
LINE
 62
5
  8
cut
 10
132.43000000000004
 20
208.57000000000002
 30
0.0
 11
132.43000000000004
 21
209.57
 31
0.0
  0
LINE
 62
5
  8
cut
 10
132.43000000000004
 20
209.57
 30
0.0
 11
131.43000000000004
 21
209.57
 31
0.0
  0
LINE
 62
5
  8
cut
 10
131.43000000000004
 20
209.57
 30
0.0
 11
131.43000000000004
 21
208.57000000000002
 31
0.0
  0
LINE
 62
5
  8
cut
 10
131.43000000000004
 20
208.57000000000002
 30
0.0
 11
132.43000000000004
 21
208.57000000000002
 31
0.0
  0
LINE
 62
5
  8
cut
 10
110.57000000000001
 20
207.57000000000002
 30
0.0
 11
110.57000000000001
 21
210.57000000000002
 31
0.0
  0
LINE
 62
5
  8
cut
 10
110.57000000000001
 20
210.57000000000002
 30
0.0
 11
107.57000000000001
 21
210.57000000000002
 31
0.0
  0
LINE
 62
5
  8
cut
 10
107.57000000000001
 20
210.57000000000002
 30
0.0
 11
107.57000000000001
 21
207.57000000000002
 31
0.0
  0
LINE
 62
5
  8
cut
 10
107.57000000000001
 20
207.57000000000002
 30
0.0
 11
110.57000000000001
 21
207.57000000000002
 31
0.0
  0
LINE
 62
5
  8
cut
 10
56.75000000000001
 20
233.71363636363643
 30
0.0
 11
56.75000000000001
 21
246.03181818181824
 31
0.0
  0
LINE
 62
5
  8
cut
 10
56.75000000000001
 20
246.03181818181824
 30
0.0
 11
56.25000000000001
 21
246.03181818181824
 31
0.0
  0
LINE
 62
5
  8
cut
 10
56.25000000000001
 20
246.03181818181824
 30
0.0
 11
56.25000000000001
 21
233.71363636363643
 31
0.0
  0
LINE
 62
5
  8
cut
 10
56.25000000000001
 20
233.71363636363643
 30
0.0
 11
56.75000000000001
 21
233.71363636363643
 31
0.0
  0
LINE
 62
5
  8
cut
 10
56.75000000000001
 20
204.16818181818184
 30
0.0
 11
56.75000000000001
 21
216.48636363636368
 31
0.0
  0
LINE
 62
5
  8
cut
 10
56.75000000000001
 20
216.48636363636368
 30
0.0
 11
56.25000000000001
 21
216.48636363636368
 31
0.0
  0
LINE
 62
5
  8
cut
 10
56.25000000000001
 20
216.48636363636368
 30
0.0
 11
56.25000000000001
 21
204.16818181818184
 31
0.0
  0
LINE
 62
5
  8
cut
 10
56.25000000000001
 20
204.16818181818184
 30
0.0
 11
56.75000000000001
 21
204.16818181818184
 31
0.0
  0
LINE
 62
5
  8
cut
 10
170.5
 20
245.78181818181824
 30
0.0
 11
165.50000000000003
 21
245.78181818181824
 31
0.0
  0
LINE
 62
5
  8
cut
 10
165.50000000000003
 20
245.78181818181824
 30
0.0
 11
165.50000000000003
 21
233.96363636363643
 31
0.0
  0
LINE
 62
5
  8
cut
 10
165.50000000000003
 20
233.96363636363643
 30
0.0
 11
170.5
 21
233.96363636363643
 31
0.0
  0
LINE
 62
5
  8
cut
 10
170.5
 20
216.23636363636368
 30
0.0
 11
165.50000000000003
 21
216.23636363636368
 31
0.0
  0
LINE
 62
5
  8
cut
 10
165.50000000000003
 20
216.23636363636368
 30
0.0
 11
165.50000000000003
 21
204.41818181818186
 31
0.0
  0
LINE
 62
5
  8
cut
 10
165.50000000000003
 20
204.41818181818186
 30
0.0
 11
170.5
 21
204.41818181818186
 31
0.0
  0
LINE
 62
5
  8
cut
 10
170.5
 20
173.93333333333334
 30
0.0
 11
170.5
 21
178.93333333333334
 31
0.0
  0
LINE
 62
5
  8
cut
 10
170.5
 20
178.93333333333334
 30
0.0
 11
165.50000000000003
 21
173.93333333333334
 31
0.0
  0
LINE
 62
5
  8
cut
 10
165.50000000000003
 20
173.93333333333334
 30
0.0
 11
165.50000000000003
 21
155.26666666666668
 31
0.0
  0
LINE
 62
5
  8
cut
 10
165.50000000000003
 20
155.26666666666668
 30
0.0
 11
170.5
 21
150.26666666666668
 31
0.0
  0
LINE
 62
5
  8
cut
 10
170.5
 20
150.26666666666668
 30
0.0
 11
170.5
 21
155.26666666666668
 31
0.0
  0
LINE
 62
5
  8
cut
 10
84.93500000000002
 20
131.60000000000002
 30
0.0
 11
72.06500000000001
 21
131.60000000000002
 31
0.0
  0
LINE
 62
5
  8
cut
 10
72.06500000000001
 20
131.60000000000002
 30
0.0
 11
72.06500000000001
 21
108.60000000000001
 31
0.0
  0
LINE
 62
5
  8
cut
 10
72.06500000000001
 20
108.60000000000001
 30
0.0
 11
84.93500000000002
 21
108.60000000000001
 31
0.0
  0
LINE
 62
5
  8
cut
 10
84.93500000000002
 20
108.60000000000001
 30
0.0
 11
84.93500000000002
 21
131.60000000000002
 31
0.0
  0
LINE
 62
5
  8
cut
 10
7.750000000000002
 20
99.98636363636363
 30
0.0
 11
7.750000000000002
 21
118.66818181818182
 31
0.0
  0
LINE
 62
5
  8
cut
 10
7.750000000000002
 20
118.66818181818182
 30
0.0
 11
7.25
 21
118.66818181818182
 31
0.0
  0
LINE
 62
5
  8
cut
 10
7.25
 20
118.66818181818182
 30
0.0
 11
7.25
 21
99.98636363636363
 31
0.0
  0
LINE
 62
5
  8
cut
 10
7.25
 20
99.98636363636363
 30
0.0
 11
7.750000000000002
 21
99.98636363636363
 31
0.0
  0
LINE
 62
5
  8
cut
 10
7.750000000000002
 20
54.531818181818174
 30
0.0
 11
7.750000000000002
 21
73.21363636363635
 31
0.0
  0
LINE
 62
5
  8
cut
 10
7.750000000000002
 20
73.21363636363635
 30
0.0
 11
7.25
 21
73.21363636363635
 31
0.0
  0
LINE
 62
5
  8
cut
 10
7.25
 20
73.21363636363635
 30
0.0
 11
7.25
 21
54.531818181818174
 31
0.0
  0
LINE
 62
5
  8
cut
 10
7.25
 20
54.531818181818174
 30
0.0
 11
7.750000000000002
 21
54.531818181818174
 31
0.0
  0
LINE
 62
5
  8
cut
 10
34.916666666666664
 20
51.85
 30
0.0
 11
34.916666666666664
 21
41.35
 31
0.0
  0
LINE
 62
5
  8
cut
 10
34.916666666666664
 20
41.35
 30
0.0
 11
34.416666666666664
 21
41.35
 31
0.0
  0
LINE
 62
5
  8
cut
 10
34.416666666666664
 20
41.35
 30
0.0
 11
34.416666666666664
 21
51.85
 31
0.0
  0
LINE
 62
5
  8
cut
 10
34.416666666666664
 20
51.85
 30
0.0
 11
34.916666666666664
 21
51.85
 31
0.0
  0
LINE
 62
5
  8
cut
 10
150.065
 20
108.60000000000001
 30
0.0
 11
162.93500000000003
 21
108.60000000000001
 31
0.0
  0
LINE
 62
5
  8
cut
 10
162.93500000000003
 20
108.60000000000001
 30
0.0
 11
162.93500000000003
 21
131.60000000000002
 31
0.0
  0
LINE
 62
5
  8
cut
 10
162.93500000000003
 20
131.60000000000002
 30
0.0
 11
150.065
 21
131.60000000000002
 31
0.0
  0
LINE
 62
5
  8
cut
 10
150.065
 20
131.60000000000002
 30
0.0
 11
150.065
 21
108.60000000000001
 31
0.0
  0
LINE
 62
5
  8
cut
 10
177.5
 20
118.41818181818182
 30
0.0
 11
177.5
 21
123.41818181818182
 31
0.0
  0
LINE
 62
5
  8
cut
 10
177.5
 20
123.41818181818182
 30
0.0
 11
172.50000000000003
 21
118.41818181818182
 31
0.0
  0
LINE
 62
5
  8
cut
 10
172.50000000000003
 20
118.41818181818182
 30
0.0
 11
172.50000000000003
 21
100.23636363636363
 31
0.0
  0
LINE
 62
5
  8
cut
 10
172.50000000000003
 20
100.23636363636363
 30
0.0
 11
177.5
 21
95.23636363636362
 31
0.0
  0
LINE
 62
5
  8
cut
 10
177.5
 20
95.23636363636362
 30
0.0
 11
177.5
 21
100.23636363636363
 31
0.0
  0
LINE
 62
5
  8
cut
 10
177.5
 20
72.96363636363635
 30
0.0
 11
177.5
 21
77.96363636363635
 31
0.0
  0
LINE
 62
5
  8
cut
 10
177.5
 20
77.96363636363635
 30
0.0
 11
172.50000000000003
 21
72.96363636363635
 31
0.0
  0
LINE
 62
5
  8
cut
 10
172.50000000000003
 20
72.96363636363635
 30
0.0
 11
172.50000000000003
 21
54.781818181818174
 31
0.0
  0
LINE
 62
5
  8
cut
 10
172.50000000000003
 20
54.781818181818174
 30
0.0
 11
177.5
 21
49.781818181818174
 31
0.0
  0
LINE
 62
5
  8
cut
 10
177.5
 20
49.781818181818174
 30
0.0
 11
177.5
 21
54.781818181818174
 31
0.0
  0
LINE
 62
5
  8
cut
 10
190.00000000000003
 20
36.55
 30
0.0
 11
190.00000000000003
 21
36.55
 31
0.0
  0
LINE
 62
5
  8
cut
 10
190.00000000000003
 20
36.55
 30
0.0
 11
190.00000000000003
 21
36.55
 31
0.0
  0
LINE
 62
5
  8
cut
 10
190.00000000000003
 20
36.55
 30
0.0
 11
190.00000000000003
 21
36.55
 31
0.0
  0
LINE
 62
5
  8
cut
 10
190.00000000000003
 20
36.55
 30
0.0
 11
190.00000000000003
 21
36.55
 31
0.0
  0
LINE
 62
5
  8
cut
 10
260.0
 20
36.55
 30
0.0
 11
259.6306502178541
 21
31.85696604879307
 31
0.0
  0
LINE
 62
5
  8
cut
 10
259.6306502178541
 20
41.24303395120693
 30
0.0
 11
260.0
 21
36.55
 31
0.0
  0
LINE
 62
5
  8
cut
 10
258.5316954888546
 20
45.82050983124843
 30
0.0
 11
259.6306502178541
 21
41.24303395120693
 31
0.0
  0
LINE
 62
5
  8
cut
 10
256.7301957256511
 20
50.16971499218641
 30
0.0
 11
258.5316954888546
 21
45.82050983124843
 31
0.0
  0
LINE
 62
5
  8
cut
 10
254.27050983124846
 20
54.18355756877419
 30
0.0
 11
256.7301957256511
 21
50.16971499218641
 31
0.0
  0
LINE
 62
5
  8
cut
 10
251.21320343559645
 20
57.763203435596424
 30
0.0
 11
254.27050983124846
 21
54.18355756877419
 31
0.0
  0
LINE
 62
5
  8
cut
 10
247.63355756877422
 20
60.82050983124843
 30
0.0
 11
251.21320343559645
 21
57.763203435596424
 31
0.0
  0
LINE
 62
5
  8
cut
 10
243.61971499218643
 20
63.28019572565103
 30
0.0
 11
247.63355756877422
 21
60.82050983124843
 31
0.0
  0
LINE
 62
5
  8
cut
 10
239.27050983124846
 20
65.0816954888546
 30
0.0
 11
243.61971499218643
 21
63.28019572565103
 31
0.0
  0
LINE
 62
5
  8
cut
 10
234.69303395120696
 20
66.18065021785414
 30
0.0
 11
239.27050983124846
 21
65.0816954888546
 31
0.0
  0
LINE
 62
5
  8
cut
 10
230.00000000000003
 20
66.55000000000001
 30
0.0
 11
234.69303395120696
 21
66.18065021785414
 31
0.0
  0
LINE
 62
5
  8
cut
 10
225.3069660487931
 20
66.18065021785414
 30
0.0
 11
230.00000000000003
 21
66.55000000000001
 31
0.0
  0
LINE
 62
5
  8
cut
 10
220.7294901687516
 20
65.0816954888546
 30
0.0
 11
225.3069660487931
 21
66.18065021785414
 31
0.0
  0
LINE
 62
5
  8
cut
 10
216.38028500781363
 20
63.28019572565104
 30
0.0
 11
220.7294901687516
 21
65.0816954888546
 31
0.0
  0
LINE
 62
5
  8
cut
 10
212.36644243122583
 20
60.82050983124843
 30
0.0
 11
216.38028500781363
 21
63.28019572565104
 31
0.0
  0
LINE
 62
5
  8
cut
 10
208.7867965644036
 20
57.763203435596424
 30
0.0
 11
212.36644243122583
 21
60.82050983124843
 31
0.0
  0
LINE
 62
5
  8
cut
 10
205.7294901687516
 20
54.18355756877419
 30
0.0
 11
208.7867965644036
 21
57.763203435596424
 31
0.0
  0
LINE
 62
5
  8
cut
 10
203.26980427434899
 20
50.169714992186414
 30
0.0
 11
205.7294901687516
 21
54.18355756877419
 31
0.0
  0
LINE
 62
5
  8
cut
 10
201.46830451114542
 20
45.82050983124843
 30
0.0
 11
203.26980427434899
 21
50.169714992186414
 31
0.0
  0
LINE
 62
5
  8
cut
 10
200.3693497821459
 20
41.24303395120693
 30
0.0
 11
201.46830451114542
 21
45.82050983124843
 31
0.0
  0
LINE
 62
5
  8
cut
 10
200.0
 20
36.550000000000004
 30
0.0
 11
200.3693497821459
 21
41.24303395120693
 31
0.0
  0
LINE
 62
5
  8
cut
 10
200.3693497821459
 20
31.85696604879308
 30
0.0
 11
200.0
 21
36.550000000000004
 31
0.0
  0
LINE
 62
5
  8
cut
 10
201.46830451114542
 20
27.279490168751583
 30
0.0
 11
200.3693497821459
 21
31.85696604879308
 31
0.0
  0
LINE
 62
5
  8
cut
 10
203.26980427434899
 20
22.930285007813605
 30
0.0
 11
201.46830451114542
 21
27.279490168751583
 31
0.0
  0
LINE
 62
5
  8
cut
 10
205.7294901687516
 20
18.916442431225807
 30
0.0
 11
203.26980427434899
 21
22.930285007813605
 31
0.0
  0
LINE
 62
5
  8
cut
 10
208.7867965644036
 20
15.336796564403576
 30
0.0
 11
205.7294901687516
 21
18.916442431225807
 31
0.0
  0
LINE
 62
5
  8
cut
 10
212.36644243122583
 20
12.279490168751575
 30
0.0
 11
208.7867965644036
 21
15.336796564403576
 31
0.0
  0
LINE
 62
5
  8
cut
 10
216.38028500781363
 20
9.819804274348966
 30
0.0
 11
212.36644243122583
 21
12.279490168751575
 31
0.0
  0
LINE
 62
5
  8
cut
 10
220.7294901687516
 20
8.018304511145391
 30
0.0
 11
216.38028500781363
 21
9.819804274348966
 31
0.0
  0
LINE
 62
5
  8
cut
 10
225.3069660487931
 20
6.919349782145869
 30
0.0
 11
220.7294901687516
 21
8.018304511145391
 31
0.0
  0
LINE
 62
5
  8
cut
 10
230.00000000000003
 20
6.549999999999998
 30
0.0
 11
225.3069660487931
 21
6.919349782145869
 31
0.0
  0
LINE
 62
5
  8
cut
 10
234.69303395120696
 20
6.919349782145866
 30
0.0
 11
230.00000000000003
 21
6.549999999999998
 31
0.0
  0
LINE
 62
5
  8
cut
 10
239.27050983124843
 20
8.01830451114539
 30
0.0
 11
234.69303395120696
 21
6.919349782145866
 31
0.0
  0
LINE
 62
5
  8
cut
 10
243.61971499218643
 20
9.819804274348959
 30
0.0
 11
239.27050983124843
 21
8.01830451114539
 31
0.0
  0
LINE
 62
5
  8
cut
 10
247.63355756877422
 20
12.279490168751572
 30
0.0
 11
243.61971499218643
 21
9.819804274348959
 31
0.0
  0
LINE
 62
5
  8
cut
 10
251.21320343559645
 20
15.336796564403569
 30
0.0
 11
247.63355756877422
 21
12.279490168751572
 31
0.0
  0
LINE
 62
5
  8
cut
 10
254.27050983124846
 20
18.916442431225796
 30
0.0
 11
251.21320343559645
 21
15.336796564403569
 31
0.0
  0
LINE
 62
5
  8
cut
 10
256.7301957256511
 20
22.930285007813588
 30
0.0
 11
254.27050983124846
 21
18.916442431225796
 31
0.0
  0
LINE
 62
5
  8
cut
 10
258.5316954888546
 20
27.279490168751572
 30
0.0
 11
256.7301957256511
 21
22.930285007813588
 31
0.0
  0
LINE
 62
5
  8
cut
 10
259.6306502178541
 20
31.85696604879307
 30
0.0
 11
258.5316954888546
 21
27.279490168751572
 31
0.0
  0
LINE
 62
5
  8
cut
 10
270.00000000000006
 20
36.55
 30
0.0
 11
270.00000000000006
 21
36.55
 31
0.0
  0
LINE
 62
5
  8
cut
 10
270.00000000000006
 20
36.55
 30
0.0
 11
270.00000000000006
 21
36.55
 31
0.0
  0
LINE
 62
5
  8
cut
 10
270.00000000000006
 20
36.55
 30
0.0
 11
270.00000000000006
 21
36.55
 31
0.0
  0
LINE
 62
5
  8
cut
 10
270.00000000000006
 20
36.55
 30
0.0
 11
270.00000000000006
 21
36.55
 31
0.0
  0
LINE
 62
5
  8
cut
 10
340.00000000000006
 20
36.55
 30
0.0
 11
339.63065021785417
 21
31.85696604879307
 31
0.0
  0
LINE
 62
5
  8
cut
 10
339.63065021785417
 20
41.24303395120693
 30
0.0
 11
340.00000000000006
 21
36.55
 31
0.0
  0
LINE
 62
5
  8
cut
 10
338.53169548885467
 20
45.82050983124843
 30
0.0
 11
339.63065021785417
 21
41.24303395120693
 31
0.0
  0
LINE
 62
5
  8
cut
 10
336.730195725651
 20
50.16971499218641
 30
0.0
 11
338.53169548885467
 21
45.82050983124843
 31
0.0
  0
LINE
 62
5
  8
cut
 10
334.27050983124843
 20
54.18355756877419
 30
0.0
 11
336.730195725651
 21
50.16971499218641
 31
0.0
  0
LINE
 62
5
  8
cut
 10
331.2132034355965
 20
57.763203435596424
 30
0.0
 11
334.27050983124843
 21
54.18355756877419
 31
0.0
  0
LINE
 62
5
  8
cut
 10
327.6335575687743
 20
60.82050983124843
 30
0.0
 11
331.2132034355965
 21
57.763203435596424
 31
0.0
  0
LINE
 62
5
  8
cut
 10
323.61971499218646
 20
63.28019572565103
 30
0.0
 11
327.6335575687743
 21
60.82050983124843
 31
0.0
  0
LINE
 62
5
  8
cut
 10
319.2705098312485
 20
65.0816954888546
 30
0.0
 11
323.61971499218646
 21
63.28019572565103
 31
0.0
  0
LINE
 62
5
  8
cut
 10
314.693033951207
 20
66.18065021785414
 30
0.0
 11
319.2705098312485
 21
65.0816954888546
 31
0.0
  0
LINE
 62
5
  8
cut
 10
310.0
 20
66.55000000000001
 30
0.0
 11
314.693033951207
 21
66.18065021785414
 31
0.0
  0
LINE
 62
5
  8
cut
 10
305.3069660487931
 20
66.18065021785414
 30
0.0
 11
310.0
 21
66.55000000000001
 31
0.0
  0
LINE
 62
5
  8
cut
 10
300.7294901687516
 20
65.0816954888546
 30
0.0
 11
305.3069660487931
 21
66.18065021785414
 31
0.0
  0
LINE
 62
5
  8
cut
 10
296.38028500781365
 20
63.28019572565104
 30
0.0
 11
300.7294901687516
 21
65.0816954888546
 31
0.0
  0
LINE
 62
5
  8
cut
 10
292.3664424312259
 20
60.82050983124843
 30
0.0
 11
296.38028500781365
 21
63.28019572565104
 31
0.0
  0
LINE
 62
5
  8
cut
 10
288.78679656440363
 20
57.763203435596424
 30
0.0
 11
292.3664424312259
 21
60.82050983124843
 31
0.0
  0
LINE
 62
5
  8
cut
 10
285.7294901687516
 20
54.18355756877419
 30
0.0
 11
288.78679656440363
 21
57.763203435596424
 31
0.0
  0
LINE
 62
5
  8
cut
 10
283.26980427434904
 20
50.169714992186414
 30
0.0
 11
285.7294901687516
 21
54.18355756877419
 31
0.0
  0
LINE
 62
5
  8
cut
 10
281.4683045111454
 20
45.82050983124843
 30
0.0
 11
283.26980427434904
 21
50.169714992186414
 31
0.0
  0
LINE
 62
5
  8
cut
 10
280.36934978214595
 20
41.24303395120693
 30
0.0
 11
281.4683045111454
 21
45.82050983124843
 31
0.0
  0
LINE
 62
5
  8
cut
 10
280.00000000000006
 20
36.550000000000004
 30
0.0
 11
280.36934978214595
 21
41.24303395120693
 31
0.0
  0
LINE
 62
5
  8
cut
 10
280.36934978214595
 20
31.85696604879308
 30
0.0
 11
280.00000000000006
 21
36.550000000000004
 31
0.0
  0
LINE
 62
5
  8
cut
 10
281.4683045111454
 20
27.279490168751583
 30
0.0
 11
280.36934978214595
 21
31.85696604879308
 31
0.0
  0
LINE
 62
5
  8
cut
 10
283.26980427434904
 20
22.930285007813605
 30
0.0
 11
281.4683045111454
 21
27.279490168751583
 31
0.0
  0
LINE
 62
5
  8
cut
 10
285.7294901687516
 20
18.916442431225807
 30
0.0
 11
283.26980427434904
 21
22.930285007813605
 31
0.0
  0
LINE
 62
5
  8
cut
 10
288.78679656440363
 20
15.336796564403576
 30
0.0
 11
285.7294901687516
 21
18.916442431225807
 31
0.0
  0
LINE
 62
5
  8
cut
 10
292.36644243122583
 20
12.279490168751575
 30
0.0
 11
288.78679656440363
 21
15.336796564403576
 31
0.0
  0
LINE
 62
5
  8
cut
 10
296.38028500781365
 20
9.819804274348966
 30
0.0
 11
292.36644243122583
 21
12.279490168751575
 31
0.0
  0
LINE
 62
5
  8
cut
 10
300.7294901687516
 20
8.018304511145391
 30
0.0
 11
296.38028500781365
 21
9.819804274348966
 31
0.0
  0
LINE
 62
5
  8
cut
 10
305.3069660487931
 20
6.919349782145869
 30
0.0
 11
300.7294901687516
 21
8.018304511145391
 31
0.0
  0
LINE
 62
5
  8
cut
 10
310.0
 20
6.549999999999998
 30
0.0
 11
305.3069660487931
 21
6.919349782145869
 31
0.0
  0
LINE
 62
5
  8
cut
 10
314.693033951207
 20
6.919349782145866
 30
0.0
 11
310.0
 21
6.549999999999998
 31
0.0
  0
LINE
 62
5
  8
cut
 10
319.2705098312485
 20
8.01830451114539
 30
0.0
 11
314.693033951207
 21
6.919349782145866
 31
0.0
  0
LINE
 62
5
  8
cut
 10
323.61971499218646
 20
9.819804274348959
 30
0.0
 11
319.2705098312485
 21
8.01830451114539
 31
0.0
  0
LINE
 62
5
  8
cut
 10
327.6335575687742
 20
12.279490168751572
 30
0.0
 11
323.61971499218646
 21
9.819804274348959
 31
0.0
  0
LINE
 62
5
  8
cut
 10
331.2132034355965
 20
15.336796564403569
 30
0.0
 11
327.6335575687742
 21
12.279490168751572
 31
0.0
  0
LINE
 62
5
  8
cut
 10
334.27050983124843
 20
18.916442431225796
 30
0.0
 11
331.2132034355965
 21
15.336796564403569
 31
0.0
  0
LINE
 62
5
  8
cut
 10
336.730195725651
 20
22.930285007813588
 30
0.0
 11
334.27050983124843
 21
18.916442431225796
 31
0.0
  0
LINE
 62
5
  8
cut
 10
338.53169548885467
 20
27.279490168751572
 30
0.0
 11
336.730195725651
 21
22.930285007813588
 31
0.0
  0
LINE
 62
5
  8
cut
 10
339.63065021785417
 20
31.85696604879307
 30
0.0
 11
338.53169548885467
 21
27.279490168751572
 31
0.0
  0
ENDSEC
  0
EOF
