  0
SECTION
  2
HEADER
  9
$ACADVER
  1
AC1009
  9
$INSBASE
 10
0.0
 20
0.0
 30
0.0
  9
$EXTMIN
 10
0.0
 20
0.0
 30
0.0
  9
$EXTMAX
 10
100.0
 20
100.0
 30
0.0
  9
$UNITMODE
 70
0
  9
$AUNITS
 70
0
  9
$ANGBASE
 50
0.0
  9
$ANGDIR
 70
0
  0
ENDSEC
  0
SECTION
  2
TABLES
  0
TABLE
  2
LTYPE
 70
20
  0
LTYPE
  2
CONTINUOUS
 70
0
  3
Solid
 72
65
 73
0
 40
0.0
  0
LTYPE
  2
CENTER
 70
0
  3
Center ____ _ ____ _ ____ _ ____ _ ____ _ ____
 72
65
 73
4
 40
2.0
 49
1.25
 49
-0.25
 49
0.25
 49
-0.25
  0
LTYPE
  2
CENTERX2
 70
0
  3
Center (2x) ________  __  ________  __  ________
 72
65
 73
4
 40
3.5
 49
2.5
 49
-0.25
 49
0.5
 49
-0.25
  0
LTYPE
  2
CENTER2
 70
0
  3
Center (.5x) ____ _ ____ _ ____ _ ____ _ ____
 72
65
 73
4
 40
1.0
 49
0.625
 49
-0.125
 49
0.125
 49
-0.125
  0
LTYPE
  2
DASHED
 70
0
  3
Dashed __ __ __ __ __ __ __ __ __ __ __ __ __ _
 72
65
 73
2
 40
0.6
 49
0.5
 49
-0.1
  0
LTYPE
  2
DASHEDX2
 70
0
  3
Dashed (2x) ____  ____  ____  ____  ____  ____
 72
65
 73
2
 40
1.2
 49
1.0
 49
-0.2
  0
LTYPE
  2
DASHED2
 70
0
  3
Dashed (.5x) _ _ _ _ _ _ _ _ _ _ _ _ _ _
 72
65
 73
2
 40
0.3
 49
0.25
 49
-0.05
  0
LTYPE
  2
PHANTOM
 70
0
  3
Phantom ______  __  __  ______  __  __  ______
 72
65
 73
6
 40
2.5
 49
1.25
 49
-0.25
 49
0.25
 49
-0.25
 49
0.25
 49
-0.25
  0
LTYPE
  2
PHANTOMX2
 70
0
  3
Phantom (2x)____________    ____    ____    ____________
 72
65
 73
6
 40
4.25
 49
2.5
 49
-0.25
 49
0.5
 49
-0.25
 49
0.5
 49
-0.25
  0
LTYPE
  2
PHANTOM2
 70
0
  3
Phantom (.5x) ___ _ _ ___ _ _ ___ _ _ ___ _ _ ___
 72
65
 73
6
 40
1.25
 49
0.625
 49
-0.125
 49
0.125
 49
-0.125
 49
0.125
 49
-0.125
  0
LTYPE
  2
DASHDOT
 70
0
  3
Dash dot __ . __ . __ . __ . __ . __ . __ . __
 72
65
 73
4
 40
1.4
 49
1.0
 49
-0.2
 49
0.0
 49
-0.2
  0
LTYPE
  2
DASHDOTX2
 70
0
  3
Dash dot (2x) ____  .  ____  .  ____  .  ____
 72
65
 73
4
 40
2.4
 49
2.0
 49
-0.2
 49
0.0
 49
-0.2
  0
LTYPE
  2
DASHDOT2
 70
0
  3
Dash dot (.5x) _ . _ . _ . _ . _ . _ . _ . _
 72
65
 73
4
 40
0.7
 49
0.5
 49
-0.1
 49
0.0
 49
-0.1
  0
LTYPE
  2
DOT
 70
0
  3
Dot .  .  .  .  .  .  .  .  .  .  .  .  .  .  .  .
 72
65
 73
2
 40
0.2
 49
0.0
 49
-0.2
  0
LTYPE
  2
DOTX2
 70
0
  3
Dot (2x) .    .    .    .    .    .    .    . 
 72
65
 73
2
 40
0.4
 49
0.0
 49
-0.4
  0
LTYPE
  2
DOT2
 70
0
  3
Dot (.5) . . . . . . . . . . . . . . . . . . . 
 72
65
 73
2
 40
0.1
 49
0.0
 49
-0.1
  0
LTYPE
  2
DIVIDE
 70
0
  3
Divide __ . . __ . . __ . . __ . . __ . . __
 72
65
 73
6
 40
1.6
 49
1.0
 49
-0.2
 49
0.0
 49
-0.2
 49
0.0
 49
-0.2
  0
LTYPE
  2
DIVIDEX2
 70
0
  3
Divide (2x) ____  . .  ____  . .  ____  . .  ____
 72
65
 73
6
 40
2.6
 49
2.0
 49
-0.2
 49
0.0
 49
-0.2
 49
0.0
 49
-0.2
  0
LTYPE
  2
DIVIDE2
 70
0
  3
Divide(.5x) _ . _ . _ . _ . _ . _ . _ . _
 72
65
 73
6
 40
0.8
 49
0.5
 49
-0.1
 49
0.0
 49
-0.1
 49
0.0
 49
-0.1
  0
LTYPE
  2
DOTTED
 70
0
  3

 72
65
 73
2
 40
1.0
 49
0.0
 49
-1.0
  0
ENDTAB
  0
TABLE
  2
LAYER
 70
10
  0
LAYER
  2
DIMENSIONS
 70
0
 62
1
  6
CONTINUOUS
  0
LAYER
  2
TABLEBACKGROUND
 70
0
 62
1
  6
CONTINUOUS
  0
LAYER
  2
TABLECONTENT
 70
0
 62
1
  6
CONTINUOUS
  0
LAYER
  2
TABLEGRID
 70
0
 62
1
  6
CONTINUOUS
  0
LAYER
  2
VIEWPORTS
 70
0
 62
7
  6
CONTINUOUS
  0
LAYER
  2
0
 70
0
 62
1
  6
CONTINUOUS
  0
LAYER
  2
90
 70
0
 62
1
  6
CONTINUOUS
  0
LAYER
  2
-135
 70
0
 62
1
  6
CONTINUOUS
  0
LAYER
  2
180
 70
0
 62
1
  6
CONTINUOUS
  0
LAYER
  2
-90
 70
0
 62
1
  6
CONTINUOUS
  0
ENDTAB
  0
TABLE
  2
STYLE
 70
12
  0
STYLE
  2
STANDARD
 70
0
 40
0.0
 41
1.0
 42
1.0
 50
0.0
 71
0
  3
arial.ttf
  4

  0
STYLE
  2
ARIAL
 70
0
 40
0.0
 41
1.0
 42
1.0
 50
0.0
 71
0
  3
arial.ttf
  4

  0
STYLE
  2
ARIAL_BOLD
 70
0
 40
0.0
 41
1.0
 42
1.0
 50
0.0
 71
0
  3
arialbd.ttf
  4

  0
STYLE
  2
ARIAL_ITALIC
 70
0
 40
0.0
 41
1.0
 42
1.0
 50
0.0
 71
0
  3
ariali.ttf
  4

  0
STYLE
  2
ARIAL_BOLD_ITALIC
 70
0
 40
0.0
 41
1.0
 42
1.0
 50
0.0
 71
0
  3
arialbi.ttf
  4

  0
STYLE
  2
ARIAL_BLACK
 70
0
 40
0.0
 41
1.0
 42
1.0
 50
0.0
 71
0
  3
ariblk.ttf
  4

  0
STYLE
  2
ISOCPEUR
 70
0
 40
0.0
 41
1.0
 42
1.0
 50
0.0
 71
0
  3
isocpeur.ttf
  4

  0
STYLE
  2
ISOCPEUR_ITALIC
 70
0
 40
0.0
 41
1.0
 42
1.0
 50
0.0
 71
0
  3
isocpeui.ttf
  4

  0
STYLE
  2
TIMES
 70
0
 40
0.0
 41
1.0
 42
1.0
 50
0.0
 71
0
  3
times.ttf
  4

  0
STYLE
  2
TIMES_BOLD
 70
0
 40
0.0
 41
1.0
 42
1.0
 50
0.0
 71
0
  3
timesbd.ttf
  4

  0
STYLE
  2
TIMES_ITALIC
 70
0
 40
0.0
 41
1.0
 42
1.0
 50
0.0
 71
0
  3
timesi.ttf
  4

  0
STYLE
  2
TIMES_BOLD_ITALIC
 70
0
 40
0.0
 41
1.0
 42
1.0
 50
0.0
 71
0
  3
timesbi.ttf
  4

  0
ENDTAB
  0
TABLE
  2
VIEW
 70
0
  0
ENDTAB
  0
TABLE
  2
APPID
 70
1
  0
APPID
  2
DXFWRITE
 70
0
  0
ENDTAB
  0
TABLE
  2
VPORT
 70
0
  0
ENDTAB
  0
TABLE
  2
UCS
 70
0
  0
ENDTAB
  0
ENDSEC
  0
SECTION
  2
BLOCKS
  0
ENDSEC
  0
SECTION
  2
ENTITIES
  0
VIEWPORT
  8
VIEWPORTS
 67
1
 10
0.0
 20
0.0
 30
0.0
 40
1.0
 41
1.0
 68
1
 69
1
1001
ACAD
1000
MVIEW
1002
{
1070
16
1010
0.0
1020
0.0
1030
0.0
1010
0.0
1020
0.0
1030
0.0
1040
0.0
1040
1.0
1040
0.0
1040
0.0
1040
50.0
1040
0.0
1040
0.0
1070
0
1070
100
1070
1
1070
3
1070
0
1070
0
1070
0
1070
0
1040
0.0
1040
0.0
1040
0.0
1040
0.1
1040
0.1
1040
0.1
1040
0.1
1070
0
1002
{
1002
}
1002
}
  0
LINE
 62
5
  8
cut
 10
228.00000000000003
 20
36.5
 30
0.0
 11
202.00000000000003
 21
36.5
 31
0.0
  0
LINE
 62
5
  8
cut
 10
280.00000000000006
 20
36.599999999999994
 30
0.0
 11
280.00000000000006
 21
36.5
 31
0.0
  0
LINE
  6
DOTTED
 62
1
  8
90
 10
280.00000000000006
 20
36.599999999999994
 30
0.0
 11
150.0
 21
36.599999999999994
 31
0.0
  0
LINE
 62
5
  8
cut
 10
150.0
 20
36.5
 30
0.0
 11
150.0
 21
36.599999999999994
 31
0.0
  0
LINE
 62
5
  8
cut
 10
228.00000000000003
 20
16.5
 30
0.0
 11
228.00000000000003
 21
36.5
 31
0.0
  0
LINE
  6
DOTTED
 62
1
  8
90
 10
228.00000000000003
 20
16.5
 30
0.0
 11
202.00000000000003
 21
16.5
 31
0.0
  0
LINE
 62
5
  8
cut
 10
202.00000000000003
 20
36.5
 30
0.0
 11
202.00000000000003
 21
16.5
 31
0.0
  0
LINE
  6
DOTTED
 62
1
  8
-135
 10
150.0
 20
36.5
 30
0.0
 11
193.33333333333334
 21
0.0
 31
0.0
  0
LINE
 62
5
  8
cut
 10
236.66666666666666
 20
0.0
 30
0.0
 11
193.33333333333334
 21
0.0
 31
0.0
  0
LINE
  6
DOTTED
 62
1
  8
-135
 10
236.66666666666666
 20
0.0
 30
0.0
 11
280.00000000000006
 21
36.5
 31
0.0
  0
LINE
 62
5
  8
cut
 10
228.00000000000003
 20
36.5
 30
0.0
 11
228.00000000000003
 21
16.5
 31
0.0
  0
LINE
 62
5
  8
cut
 10
202.00000000000003
 20
36.5
 30
0.0
 11
228.00000000000003
 21
36.5
 31
0.0
  0
LINE
 62
5
  8
cut
 10
202.00000000000003
 20
16.5
 30
0.0
 11
202.00000000000003
 21
36.5
 31
0.0
  0
LINE
 62
5
  8
cut
 10
193.33333333333334
 20
0.0
 30
0.0
 11
150.0
 21
0.0
 31
0.0
  0
LINE
 62
5
  8
cut
 10
150.0
 20
0.0
 30
0.0
 11
150.0
 21
36.5
 31
0.0
  0
LINE
 62
5
  8
cut
 10
280.00000000000006
 20
36.5
 30
0.0
 11
280.00000000000006
 21
-7.105427357601003e-15
 31
0.0
  0
LINE
 62
5
  8
cut
 10
280.00000000000006
 20
-7.105427357601003e-15
 30
0.0
 11
236.66666666666666
 21
0.0
 31
0.0
  0
LINE
  6
DOTTED
 62
1
  8
90
 10
150.0
 20
136.60000000000002
 30
0.0
 11
150.0
 21
36.599999999999994
 31
0.0
  0
LINE
  6
DOTTED
 62
1
  8
90
 10
280.00000000000006
 20
136.60000000000002
 30
0.0
 11
280.00000000000006
 21
36.599999999999994
 31
0.0
  0
LINE
  6
DOTTED
 62
1
  8
180
 10
261.00000000000006
 20
136.60000000000002
 30
0.0
 11
280.00000000000006
 21
136.60000000000002
 31
0.0
  0
LINE
 62
5
  8
cut
 10
169.00000000000003
 20
136.60000000000002
 30
0.0
 11
261.00000000000006
 21
136.60000000000002
 31
0.0
  0
LINE
 62
5
  8
cut
 10
150.0
 20
136.60000000000002
 30
0.0
 11
169.00000000000003
 21
136.60000000000002
 31
0.0
  0
LINE
 62
5
  8
cut
 10
150.0
 20
136.60000000000002
 30
0.0
 11
150.0
 21
136.60000000000002
 31
0.0
  0
LINE
 62
5
  8
cut
 10
280.00000000000006
 20
136.60000000000002
 30
0.0
 11
280.00000000000006
 21
136.60000000000002
 31
0.0
  0
LINE
 62
5
  8
cut
 10
261.00000000000006
 20
192.60000000000002
 30
0.0
 11
280.00000000000006
 21
192.60000000000002
 31
0.0
  0
LINE
  6
DOTTED
 62
1
  8
-90
 10
261.00000000000006
 20
192.60000000000002
 30
0.0
 11
261.00000000000006
 21
136.60000000000005
 31
0.0
  0
LINE
  6
DOTTED
 62
1
  8
-90
 10
280.00000000000006
 20
192.60000000000002
 30
0.0
 11
280.00000000000006
 21
136.60000000000005
 31
0.0
  0
LINE
 62
5
  8
cut
 10
248.00000000000006
 20
192.60000000000002
 30
0.0
 11
261.00000000000006
 21
192.60000000000002
 31
0.0
  0
LINE
  6
DOTTED
 62
1
  8
-90
 10
248.00000000000006
 20
192.60000000000002
 30
0.0
 11
248.00000000000006
 21
136.60000000000005
 31
0.0
  0
LINE
 62
5
  8
cut
 10
261.00000000000006
 20
136.60000000000005
 30
0.0
 11
248.00000000000006
 21
136.60000000000005
 31
0.0
  0
LINE
 62
5
  8
cut
 10
229.00000000000003
 20
192.60000000000002
 30
0.0
 11
248.00000000000006
 21
192.60000000000002
 31
0.0
  0
LINE
 62
5
  8
cut
 10
229.00000000000003
 20
136.60000000000005
 30
0.0
 11
229.00000000000003
 21
192.60000000000002
 31
0.0
  0
LINE
 62
5
  8
cut
 10
248.00000000000006
 20
136.60000000000005
 30
0.0
 11
229.00000000000003
 21
136.60000000000005
 31
0.0
  0
LINE
  6
DOTTED
 62
1
  8
-90
 10
280.00000000000006
 20
192.60000000000002
 30
0.0
 11
293.00000000000006
 21
192.60000000000002
 31
0.0
  0
LINE
 62
5
  8
cut
 10
293.00000000000006
 20
136.60000000000005
 30
0.0
 11
280.00000000000006
 21
136.60000000000005
 31
0.0
  0
LINE
  6
DOTTED
 62
1
  8
-90
 10
293.00000000000006
 20
136.60000000000005
 30
0.0
 11
293.00000000000006
 21
192.60000000000002
 31
0.0
  0
LINE
  6
DOTTED
 62
1
  8
-90
 10
293.00000000000006
 20
322.6
 30
0.0
 11
280.00000000000006
 21
322.6
 31
0.0
  0
LINE
  6
DOTTED
 62
1
  8
90
 10
280.00000000000006
 20
322.6
 30
0.0
 11
280.00000000000006
 21
192.60000000000002
 31
0.0
  0
LINE
  6
DOTTED
 62
1
  8
90
 10
293.00000000000006
 20
192.60000000000002
 30
0.0
 11
293.00000000000006
 21
322.6
 31
0.0
  0
LINE
 62
5
  8
cut
 10
280.00000000000006
 20
378.6000000000001
 30
0.0
 11
293.00000000000006
 21
378.6000000000001
 31
0.0
  0
LINE
  6
DOTTED
 62
1
  8
-90
 10
280.00000000000006
 20
378.6000000000001
 30
0.0
 11
280.00000000000006
 21
322.6
 31
0.0
  0
LINE
  6
DOTTED
 62
1
  8
-90
 10
293.00000000000006
 20
322.6
 30
0.0
 11
293.00000000000006
 21
378.6000000000001
 31
0.0
  0
LINE
 62
5
  8
cut
 10
261.00000000000006
 20
378.6000000000001
 30
0.0
 11
280.00000000000006
 21
378.6000000000001
 31
0.0
  0
LINE
  6
DOTTED
 62
1
  8
-90
 10
261.00000000000006
 20
378.6000000000001
 30
0.0
 11
261.00000000000006
 21
322.6
 31
0.0
  0
LINE
 62
5
  8
cut
 10
280.00000000000006
 20
322.6
 30
0.0
 11
261.00000000000006
 21
322.6
 31
0.0
  0
LINE
 62
5
  8
cut
 10
248.00000000000006
 20
378.6000000000001
 30
0.0
 11
261.00000000000006
 21
378.6000000000001
 31
0.0
  0
LINE
  6
DOTTED
 62
1
  8
-90
 10
248.00000000000006
 20
378.6000000000001
 30
0.0
 11
248.00000000000006
 21
322.6
 31
0.0
  0
LINE
 62
5
  8
cut
 10
261.00000000000006
 20
322.6
 30
0.0
 11
248.00000000000006
 21
322.6
 31
0.0
  0
LINE
 62
5
  8
cut
 10
229.00000000000003
 20
378.6000000000001
 30
0.0
 11
248.00000000000006
 21
378.6000000000001
 31
0.0
  0
LINE
 62
5
  8
cut
 10
229.00000000000003
 20
322.6
 30
0.0
 11
229.00000000000003
 21
378.6000000000001
 31
0.0
  0
LINE
 62
5
  8
cut
 10
248.00000000000006
 20
322.6
 30
0.0
 11
229.00000000000003
 21
322.6
 31
0.0
  0
LINE
 62
5
  8
cut
 10
303.00000000000006
 20
322.6
 30
0.0
 11
293.00000000000006
 21
322.6
 31
0.0
  0
LINE
 62
5
  8
cut
 10
303.00000000000006
 20
378.6000000000001
 30
0.0
 11
303.00000000000006
 21
322.6
 31
0.0
  0
LINE
 62
5
  8
cut
 10
293.00000000000006
 20
378.6000000000001
 30
0.0
 11
303.00000000000006
 21
378.6000000000001
 31
0.0
  0
LINE
 62
5
  8
cut
 10
236.00000000000003
 20
322.6
 30
0.0
 11
280.00000000000006
 21
322.6
 31
0.0
  0
LINE
  6
DOTTED
 62
1
  8
90
 10
236.00000000000003
 20
322.6
 30
0.0
 11
236.00000000000003
 21
192.60000000000002
 31
0.0
  0
LINE
 62
5
  8
cut
 10
280.00000000000006
 20
192.60000000000002
 30
0.0
 11
236.00000000000003
 21
192.60000000000002
 31
0.0
  0
LINE
 62
5
  8
cut
 10
223.0
 20
322.6
 30
0.0
 11
236.00000000000003
 21
322.6
 31
0.0
  0
LINE
  6
DOTTED
 62
1
  8
90
 10
223.0
 20
322.6
 30
0.0
 11
223.0
 21
192.60000000000002
 31
0.0
  0
LINE
 62
5
  8
cut
 10
236.00000000000003
 20
192.60000000000002
 30
0.0
 11
223.0
 21
192.60000000000002
 31
0.0
  0
LINE
 62
5
  8
cut
 10
179.00000000000003
 20
322.6
 30
0.0
 11
223.0
 21
322.6
 31
0.0
  0
LINE
 62
5
  8
cut
 10
179.00000000000003
 20
192.60000000000002
 30
0.0
 11
179.00000000000003
 21
322.6
 31
0.0
  0
LINE
 62
5
  8
cut
 10
223.0
 20
192.60000000000002
 30
0.0
 11
179.00000000000003
 21
192.60000000000002
 31
0.0
  0
LINE
 62
5
  8
cut
 10
303.00000000000006
 20
192.60000000000002
 30
0.0
 11
293.00000000000006
 21
192.60000000000002
 31
0.0
  0
LINE
 62
5
  8
cut
 10
303.00000000000006
 20
322.6
 30
0.0
 11
303.00000000000006
 21
192.60000000000002
 31
0.0
  0
LINE
 62
5
  8
cut
 10
293.00000000000006
 20
322.6
 30
0.0
 11
303.00000000000006
 21
322.6
 31
0.0
  0
LINE
 62
5
  8
cut
 10
303.00000000000006
 20
136.60000000000005
 30
0.0
 11
293.00000000000006
 21
136.60000000000005
 31
0.0
  0
LINE
 62
5
  8
cut
 10
303.00000000000006
 20
192.60000000000002
 30
0.0
 11
303.00000000000006
 21
136.60000000000005
 31
0.0
  0
LINE
 62
5
  8
cut
 10
293.00000000000006
 20
192.60000000000002
 30
0.0
 11
303.00000000000006
 21
192.60000000000002
 31
0.0
  0
LINE
 62
5
  8
cut
 10
130.0
 20
136.60000000000002
 30
0.0
 11
150.0
 21
136.60000000000002
 31
0.0
  0
LINE
  6
DOTTED
 62
1
  8
90
 10
130.0
 20
136.60000000000002
 30
0.0
 11
130.0
 21
36.599999999999994
 31
0.0
  0
LINE
 62
5
  8
cut
 10
150.0
 20
36.599999999999994
 30
0.0
 11
130.0
 21
36.599999999999994
 31
0.0
  0
LINE
 62
5
  8
cut
 10
0.0
 20
136.60000000000002
 30
0.0
 11
130.0
 21
136.60000000000002
 31
0.0
  0
LINE
 62
5
  8
cut
 10
0.0
 20
36.599999999999994
 30
0.0
 11
0.0
 21
136.60000000000002
 31
0.0
  0
LINE
 62
5
  8
cut
 10
52.00000000000001
 20
36.599999999999994
 30
0.0
 11
0.0
 21
36.599999999999994
 31
0.0
  0
LINE
 62
5
  8
cut
 10
78.00000000000001
 20
36.599999999999994
 30
0.0
 11
52.00000000000001
 21
36.599999999999994
 31
0.0
  0
LINE
 62
5
  8
cut
 10
130.0
 20
36.599999999999994
 30
0.0
 11
78.00000000000001
 21
36.599999999999994
 31
0.0
  0
LINE
 62
5
  8
cut
 10
130.0
 20
36.599999999999994
 30
0.0
 11
130.0
 21
36.599999999999994
 31
0.0
  0
LINE
 62
5
  8
cut
 10
0.0
 20
36.599999999999994
 30
0.0
 11
0.0
 21
36.599999999999994
 31
0.0
  0
LINE
 62
5
  8
cut
 10
280.00000000000006
 20
136.60000000000002
 30
0.0
 11
300.0
 21
136.60000000000002
 31
0.0
  0
LINE
 62
5
  8
cut
 10
300.0
 20
36.599999999999994
 30
0.0
 11
280.00000000000006
 21
36.599999999999994
 31
0.0
  0
LINE
  6
DOTTED
 62
1
  8
90
 10
300.0
 20
36.599999999999994
 30
0.0
 11
300.0
 21
136.60000000000002
 31
0.0
  0
LINE
 62
5
  8
cut
 10
310.0
 20
36.599999999999994
 30
0.0
 11
300.0
 21
36.599999999999994
 31
0.0
  0
LINE
 62
5
  8
cut
 10
310.0
 20
136.60000000000002
 30
0.0
 11
310.0
 21
36.599999999999994
 31
0.0
  0
LINE
 62
5
  8
cut
 10
300.0
 20
136.60000000000002
 30
0.0
 11
310.0
 21
136.60000000000002
 31
0.0
  0
LINE
 62
5
  8
cut
 10
219.33333333333334
 20
21.5
 30
0.0
 11
210.66666666666669
 21
21.5
 31
0.0
  0
LINE
 62
5
  8
cut
 10
210.66666666666669
 20
21.5
 30
0.0
 11
210.66666666666669
 21
31.5
 31
0.0
  0
LINE
 62
5
  8
cut
 10
210.66666666666669
 20
31.5
 30
0.0
 11
219.33333333333337
 21
31.5
 31
0.0
  0
LINE
 62
5
  8
cut
 10
223.0
 20
56.1
 30
0.0
 11
219.00000000000003
 21
56.1
 31
0.0
  0
LINE
 62
5
  8
cut
 10
219.00000000000003
 20
56.1
 30
0.0
 11
219.00000000000003
 21
47.1
 31
0.0
  0
LINE
 62
5
  8
cut
 10
219.00000000000003
 20
47.1
 30
0.0
 11
223.0
 21
47.1
 31
0.0
  0
LINE
 62
5
  8
cut
 10
223.0
 20
47.1
 30
0.0
 11
223.0
 21
56.1
 31
0.0
  0
LINE
 62
5
  8
cut
 10
249.75000000000003
 20
79.85
 30
0.0
 11
222.75000000000003
 21
79.85
 31
0.0
  0
LINE
 62
5
  8
cut
 10
222.75000000000003
 20
79.85
 30
0.0
 11
222.75000000000003
 21
71.85
 31
0.0
  0
LINE
 62
5
  8
cut
 10
222.75000000000003
 20
71.85
 30
0.0
 11
249.75000000000003
 21
71.85
 31
0.0
  0
LINE
 62
5
  8
cut
 10
249.75000000000003
 20
71.85
 30
0.0
 11
249.75000000000003
 21
79.85
 31
0.0
  0
LINE
 62
5
  8
cut
 10
229.47000000000003
 20
64.03
 30
0.0
 11
226.47
 21
64.03
 31
0.0
  0
LINE
 62
5
  8
cut
 10
226.47
 20
64.03
 30
0.0
 11
226.47
 21
61.029999999999994
 31
0.0
  0
LINE
 62
5
  8
cut
 10
226.47
 20
61.029999999999994
 30
0.0
 11
229.47000000000003
 21
61.029999999999994
 31
0.0
  0
LINE
 62
5
  8
cut
 10
229.47000000000003
 20
61.029999999999994
 30
0.0
 11
229.47000000000003
 21
64.03
 31
0.0
  0
LINE
 62
5
  8
cut
 10
228.47000000000003
 20
40.169999999999995
 30
0.0
 11
227.47000000000003
 21
40.169999999999995
 31
0.0
  0
LINE
 62
5
  8
cut
 10
227.47000000000003
 20
40.169999999999995
 30
0.0
 11
227.47000000000003
 21
39.16999999999999
 31
0.0
  0
LINE
 62
5
  8
cut
 10
227.47000000000003
 20
39.16999999999999
 30
0.0
 11
228.47000000000003
 21
39.16999999999999
 31
0.0
  0
LINE
 62
5
  8
cut
 10
228.47000000000003
 20
39.16999999999999
 30
0.0
 11
228.47000000000003
 21
40.169999999999995
 31
0.0
  0
LINE
 62
5
  8
cut
 10
231.01000000000002
 20
63.029999999999994
 30
0.0
 11
230.01000000000002
 21
63.029999999999994
 31
0.0
  0
LINE
 62
5
  8
cut
 10
230.01000000000002
 20
63.029999999999994
 30
0.0
 11
230.01000000000002
 21
62.029999999999994
 31
0.0
  0
LINE
 62
5
  8
cut
 10
230.01000000000002
 20
62.029999999999994
 30
0.0
 11
231.01000000000002
 21
62.029999999999994
 31
0.0
  0
LINE
 62
5
  8
cut
 10
231.01000000000002
 20
62.029999999999994
 30
0.0
 11
231.01000000000002
 21
63.029999999999994
 31
0.0
  0
LINE
 62
5
  8
cut
 10
231.01000000000002
 20
40.169999999999995
 30
0.0
 11
230.01000000000002
 21
40.169999999999995
 31
0.0
  0
LINE
 62
5
  8
cut
 10
230.01000000000002
 20
40.169999999999995
 30
0.0
 11
230.01000000000002
 21
39.16999999999999
 31
0.0
  0
LINE
 62
5
  8
cut
 10
230.01000000000002
 20
39.16999999999999
 30
0.0
 11
231.01000000000002
 21
39.16999999999999
 31
0.0
  0
LINE
 62
5
  8
cut
 10
231.01000000000002
 20
39.16999999999999
 30
0.0
 11
231.01000000000002
 21
40.169999999999995
 31
0.0
  0
LINE
 62
5
  8
cut
 10
233.55000000000004
 20
63.029999999999994
 30
0.0
 11
232.55000000000004
 21
63.029999999999994
 31
0.0
  0
LINE
 62
5
  8
cut
 10
232.55000000000004
 20
63.029999999999994
 30
0.0
 11
232.55000000000004
 21
62.029999999999994
 31
0.0
  0
LINE
 62
5
  8
cut
 10
232.55000000000004
 20
62.029999999999994
 30
0.0
 11
233.55000000000004
 21
62.029999999999994
 31
0.0
  0
LINE
 62
5
  8
cut
 10
233.55000000000004
 20
62.029999999999994
 30
0.0
 11
233.55000000000004
 21
63.029999999999994
 31
0.0
  0
LINE
 62
5
  8
cut
 10
233.55000000000004
 20
40.169999999999995
 30
0.0
 11
232.55000000000004
 21
40.169999999999995
 31
0.0
  0
LINE
 62
5
  8
cut
 10
232.55000000000004
 20
40.169999999999995
 30
0.0
 11
232.55000000000004
 21
39.16999999999999
 31
0.0
  0
LINE
 62
5
  8
cut
 10
232.55000000000004
 20
39.16999999999999
 30
0.0
 11
233.55000000000004
 21
39.16999999999999
 31
0.0
  0
LINE
 62
5
  8
cut
 10
233.55000000000004
 20
39.16999999999999
 30
0.0
 11
233.55000000000004
 21
40.169999999999995
 31
0.0
  0
LINE
 62
5
  8
cut
 10
236.09000000000003
 20
63.029999999999994
 30
0.0
 11
235.09000000000003
 21
63.029999999999994
 31
0.0
  0
LINE
 62
5
  8
cut
 10
235.09000000000003
 20
63.029999999999994
 30
0.0
 11
235.09000000000003
 21
62.029999999999994
 31
0.0
  0
LINE
 62
5
  8
cut
 10
235.09000000000003
 20
62.029999999999994
 30
0.0
 11
236.09000000000003
 21
62.029999999999994
 31
0.0
  0
LINE
 62
5
  8
cut
 10
236.09000000000003
 20
62.029999999999994
 30
0.0
 11
236.09000000000003
 21
63.029999999999994
 31
0.0
  0
LINE
 62
5
  8
cut
 10
236.09000000000003
 20
40.169999999999995
 30
0.0
 11
235.09000000000003
 21
40.169999999999995
 31
0.0
  0
LINE
 62
5
  8
cut
 10
235.09000000000003
 20
40.169999999999995
 30
0.0
 11
235.09000000000003
 21
39.16999999999999
 31
0.0
  0
LINE
 62
5
  8
cut
 10
235.09000000000003
 20
39.16999999999999
 30
0.0
 11
236.09000000000003
 21
39.16999999999999
 31
0.0
  0
LINE
 62
5
  8
cut
 10
236.09000000000003
 20
39.16999999999999
 30
0.0
 11
236.09000000000003
 21
40.169999999999995
 31
0.0
  0
LINE
 62
5
  8
cut
 10
238.63000000000002
 20
63.029999999999994
 30
0.0
 11
237.63000000000002
 21
63.029999999999994
 31
0.0
  0
LINE
 62
5
  8
cut
 10
237.63000000000002
 20
63.029999999999994
 30
0.0
 11
237.63000000000002
 21
62.029999999999994
 31
0.0
  0
LINE
 62
5
  8
cut
 10
237.63000000000002
 20
62.029999999999994
 30
0.0
 11
238.63000000000002
 21
62.029999999999994
 31
0.0
  0
LINE
 62
5
  8
cut
 10
238.63000000000002
 20
62.029999999999994
 30
0.0
 11
238.63000000000002
 21
63.029999999999994
 31
0.0
  0
LINE
 62
5
  8
cut
 10
238.63000000000002
 20
40.169999999999995
 30
0.0
 11
237.63000000000002
 21
40.169999999999995
 31
0.0
  0
LINE
 62
5
  8
cut
 10
237.63000000000002
 20
40.169999999999995
 30
0.0
 11
237.63000000000002
 21
39.16999999999999
 31
0.0
  0
LINE
 62
5
  8
cut
 10
237.63000000000002
 20
39.16999999999999
 30
0.0
 11
238.63000000000002
 21
39.16999999999999
 31
0.0
  0
LINE
 62
5
  8
cut
 10
238.63000000000002
 20
39.16999999999999
 30
0.0
 11
238.63000000000002
 21
40.169999999999995
 31
0.0
  0
LINE
 62
5
  8
cut
 10
241.17000000000004
 20
63.029999999999994
 30
0.0
 11
240.17000000000004
 21
63.029999999999994
 31
0.0
  0
LINE
 62
5
  8
cut
 10
240.17000000000004
 20
63.029999999999994
 30
0.0
 11
240.17000000000004
 21
62.029999999999994
 31
0.0
  0
LINE
 62
5
  8
cut
 10
240.17000000000004
 20
62.029999999999994
 30
0.0
 11
241.17000000000004
 21
62.029999999999994
 31
0.0
  0
LINE
 62
5
  8
cut
 10
241.17000000000004
 20
62.029999999999994
 30
0.0
 11
241.17000000000004
 21
63.029999999999994
 31
0.0
  0
LINE
 62
5
  8
cut
 10
241.17000000000004
 20
40.169999999999995
 30
0.0
 11
240.17000000000004
 21
40.169999999999995
 31
0.0
  0
LINE
 62
5
  8
cut
 10
240.17000000000004
 20
40.169999999999995
 30
0.0
 11
240.17000000000004
 21
39.16999999999999
 31
0.0
  0
LINE
 62
5
  8
cut
 10
240.17000000000004
 20
39.16999999999999
 30
0.0
 11
241.17000000000004
 21
39.16999999999999
 31
0.0
  0
LINE
 62
5
  8
cut
 10
241.17000000000004
 20
39.16999999999999
 30
0.0
 11
241.17000000000004
 21
40.169999999999995
 31
0.0
  0
LINE
 62
5
  8
cut
 10
243.71000000000004
 20
63.029999999999994
 30
0.0
 11
242.71000000000004
 21
63.029999999999994
 31
0.0
  0
LINE
 62
5
  8
cut
 10
242.71000000000004
 20
63.029999999999994
 30
0.0
 11
242.71000000000004
 21
62.029999999999994
 31
0.0
  0
LINE
 62
5
  8
cut
 10
242.71000000000004
 20
62.029999999999994
 30
0.0
 11
243.71000000000004
 21
62.029999999999994
 31
0.0
  0
LINE
 62
5
  8
cut
 10
243.71000000000004
 20
62.029999999999994
 30
0.0
 11
243.71000000000004
 21
63.029999999999994
 31
0.0
  0
LINE
 62
5
  8
cut
 10
243.71000000000004
 20
40.169999999999995
 30
0.0
 11
242.71000000000004
 21
40.169999999999995
 31
0.0
  0
LINE
 62
5
  8
cut
 10
242.71000000000004
 20
40.169999999999995
 30
0.0
 11
242.71000000000004
 21
39.16999999999999
 31
0.0
  0
LINE
 62
5
  8
cut
 10
242.71000000000004
 20
39.16999999999999
 30
0.0
 11
243.71000000000004
 21
39.16999999999999
 31
0.0
  0
LINE
 62
5
  8
cut
 10
243.71000000000004
 20
39.16999999999999
 30
0.0
 11
243.71000000000004
 21
40.169999999999995
 31
0.0
  0
LINE
 62
5
  8
cut
 10
246.25000000000003
 20
63.029999999999994
 30
0.0
 11
245.25000000000003
 21
63.029999999999994
 31
0.0
  0
LINE
 62
5
  8
cut
 10
245.25000000000003
 20
63.029999999999994
 30
0.0
 11
245.25000000000003
 21
62.029999999999994
 31
0.0
  0
LINE
 62
5
  8
cut
 10
245.25000000000003
 20
62.029999999999994
 30
0.0
 11
246.25000000000003
 21
62.029999999999994
 31
0.0
  0
LINE
 62
5
  8
cut
 10
246.25000000000003
 20
62.029999999999994
 30
0.0
 11
246.25000000000003
 21
63.029999999999994
 31
0.0
  0
LINE
 62
5
  8
cut
 10
246.25000000000003
 20
40.169999999999995
 30
0.0
 11
245.25000000000003
 21
40.169999999999995
 31
0.0
  0
LINE
 62
5
  8
cut
 10
245.25000000000003
 20
40.169999999999995
 30
0.0
 11
245.25000000000003
 21
39.16999999999999
 31
0.0
  0
LINE
 62
5
  8
cut
 10
245.25000000000003
 20
39.16999999999999
 30
0.0
 11
246.25000000000003
 21
39.16999999999999
 31
0.0
  0
LINE
 62
5
  8
cut
 10
246.25000000000003
 20
39.16999999999999
 30
0.0
 11
246.25000000000003
 21
40.169999999999995
 31
0.0
  0
LINE
 62
5
  8
cut
 10
248.79000000000002
 20
63.029999999999994
 30
0.0
 11
247.79000000000002
 21
63.029999999999994
 31
0.0
  0
LINE
 62
5
  8
cut
 10
247.79000000000002
 20
63.029999999999994
 30
0.0
 11
247.79000000000002
 21
62.029999999999994
 31
0.0
  0
LINE
 62
5
  8
cut
 10
247.79000000000002
 20
62.029999999999994
 30
0.0
 11
248.79000000000002
 21
62.029999999999994
 31
0.0
  0
LINE
 62
5
  8
cut
 10
248.79000000000002
 20
62.029999999999994
 30
0.0
 11
248.79000000000002
 21
63.029999999999994
 31
0.0
  0
LINE
 62
5
  8
cut
 10
248.79000000000002
 20
40.169999999999995
 30
0.0
 11
247.79000000000002
 21
40.169999999999995
 31
0.0
  0
LINE
 62
5
  8
cut
 10
247.79000000000002
 20
40.169999999999995
 30
0.0
 11
247.79000000000002
 21
39.16999999999999
 31
0.0
  0
LINE
 62
5
  8
cut
 10
247.79000000000002
 20
39.16999999999999
 30
0.0
 11
248.79000000000002
 21
39.16999999999999
 31
0.0
  0
LINE
 62
5
  8
cut
 10
248.79000000000002
 20
39.16999999999999
 30
0.0
 11
248.79000000000002
 21
40.169999999999995
 31
0.0
  0
LINE
 62
5
  8
cut
 10
251.33
 20
63.029999999999994
 30
0.0
 11
250.33
 21
63.029999999999994
 31
0.0
  0
LINE
 62
5
  8
cut
 10
250.33
 20
63.029999999999994
 30
0.0
 11
250.33
 21
62.029999999999994
 31
0.0
  0
LINE
 62
5
  8
cut
 10
250.33
 20
62.029999999999994
 30
0.0
 11
251.33
 21
62.029999999999994
 31
0.0
  0
LINE
 62
5
  8
cut
 10
251.33
 20
62.029999999999994
 30
0.0
 11
251.33
 21
63.029999999999994
 31
0.0
  0
LINE
 62
5
  8
cut
 10
251.33
 20
40.169999999999995
 30
0.0
 11
250.33
 21
40.169999999999995
 31
0.0
  0
LINE
 62
5
  8
cut
 10
250.33
 20
40.169999999999995
 30
0.0
 11
250.33
 21
39.16999999999999
 31
0.0
  0
LINE
 62
5
  8
cut
 10
250.33
 20
39.16999999999999
 30
0.0
 11
251.33
 21
39.16999999999999
 31
0.0
  0
LINE
 62
5
  8
cut
 10
251.33
 20
39.16999999999999
 30
0.0
 11
251.33
 21
40.169999999999995
 31
0.0
  0
LINE
 62
5
  8
cut
 10
253.87000000000003
 20
63.029999999999994
 30
0.0
 11
252.87000000000003
 21
63.029999999999994
 31
0.0
  0
LINE
 62
5
  8
cut
 10
252.87000000000003
 20
63.029999999999994
 30
0.0
 11
252.87000000000003
 21
62.029999999999994
 31
0.0
  0
LINE
 62
5
  8
cut
 10
252.87000000000003
 20
62.029999999999994
 30
0.0
 11
253.87000000000003
 21
62.029999999999994
 31
0.0
  0
LINE
 62
5
  8
cut
 10
253.87000000000003
 20
62.029999999999994
 30
0.0
 11
253.87000000000003
 21
63.029999999999994
 31
0.0
  0
LINE
 62
5
  8
cut
 10
253.87000000000003
 20
40.169999999999995
 30
0.0
 11
252.87000000000003
 21
40.169999999999995
 31
0.0
  0
LINE
 62
5
  8
cut
 10
252.87000000000003
 20
40.169999999999995
 30
0.0
 11
252.87000000000003
 21
39.16999999999999
 31
0.0
  0
LINE
 62
5
  8
cut
 10
252.87000000000003
 20
39.16999999999999
 30
0.0
 11
253.87000000000003
 21
39.16999999999999
 31
0.0
  0
LINE
 62
5
  8
cut
 10
253.87000000000003
 20
39.16999999999999
 30
0.0
 11
253.87000000000003
 21
40.169999999999995
 31
0.0
  0
LINE
 62
5
  8
cut
 10
256.40999999999997
 20
63.029999999999994
 30
0.0
 11
255.41000000000003
 21
63.029999999999994
 31
0.0
  0
LINE
 62
5
  8
cut
 10
255.41000000000003
 20
63.029999999999994
 30
0.0
 11
255.41000000000003
 21
62.029999999999994
 31
0.0
  0
LINE
 62
5
  8
cut
 10
255.41000000000003
 20
62.029999999999994
 30
0.0
 11
256.40999999999997
 21
62.029999999999994
 31
0.0
  0
LINE
 62
5
  8
cut
 10
256.40999999999997
 20
62.029999999999994
 30
0.0
 11
256.40999999999997
 21
63.029999999999994
 31
0.0
  0
LINE
 62
5
  8
cut
 10
256.40999999999997
 20
40.169999999999995
 30
0.0
 11
255.41000000000003
 21
40.169999999999995
 31
0.0
  0
LINE
 62
5
  8
cut
 10
255.41000000000003
 20
40.169999999999995
 30
0.0
 11
255.41000000000003
 21
39.16999999999999
 31
0.0
  0
LINE
 62
5
  8
cut
 10
255.41000000000003
 20
39.16999999999999
 30
0.0
 11
256.40999999999997
 21
39.16999999999999
 31
0.0
  0
LINE
 62
5
  8
cut
 10
256.40999999999997
 20
39.16999999999999
 30
0.0
 11
256.40999999999997
 21
40.169999999999995
 31
0.0
  0
LINE
 62
5
  8
cut
 10
258.95000000000005
 20
63.029999999999994
 30
0.0
 11
257.95
 21
63.029999999999994
 31
0.0
  0
LINE
 62
5
  8
cut
 10
257.95
 20
63.029999999999994
 30
0.0
 11
257.95
 21
62.029999999999994
 31
0.0
  0
LINE
 62
5
  8
cut
 10
257.95
 20
62.029999999999994
 30
0.0
 11
258.95000000000005
 21
62.029999999999994
 31
0.0
  0
LINE
 62
5
  8
cut
 10
258.95000000000005
 20
62.029999999999994
 30
0.0
 11
258.95000000000005
 21
63.029999999999994
 31
0.0
  0
LINE
 62
5
  8
cut
 10
258.95000000000005
 20
40.169999999999995
 30
0.0
 11
257.95
 21
40.169999999999995
 31
0.0
  0
LINE
 62
5
  8
cut
 10
257.95
 20
40.169999999999995
 30
0.0
 11
257.95
 21
39.16999999999999
 31
0.0
  0
LINE
 62
5
  8
cut
 10
257.95
 20
39.16999999999999
 30
0.0
 11
258.95000000000005
 21
39.16999999999999
 31
0.0
  0
LINE
 62
5
  8
cut
 10
258.95000000000005
 20
39.16999999999999
 30
0.0
 11
258.95000000000005
 21
40.169999999999995
 31
0.0
  0
LINE
 62
5
  8
cut
 10
261.49
 20
63.029999999999994
 30
0.0
 11
260.49000000000007
 21
63.029999999999994
 31
0.0
  0
LINE
 62
5
  8
cut
 10
260.49000000000007
 20
63.029999999999994
 30
0.0
 11
260.49000000000007
 21
62.029999999999994
 31
0.0
  0
LINE
 62
5
  8
cut
 10
260.49000000000007
 20
62.029999999999994
 30
0.0
 11
261.49
 21
62.029999999999994
 31
0.0
  0
LINE
 62
5
  8
cut
 10
261.49
 20
62.029999999999994
 30
0.0
 11
261.49
 21
63.029999999999994
 31
0.0
  0
LINE
 62
5
  8
cut
 10
261.49
 20
40.169999999999995
 30
0.0
 11
260.49000000000007
 21
40.169999999999995
 31
0.0
  0
LINE
 62
5
  8
cut
 10
260.49000000000007
 20
40.169999999999995
 30
0.0
 11
260.49000000000007
 21
39.16999999999999
 31
0.0
  0
LINE
 62
5
  8
cut
 10
260.49000000000007
 20
39.16999999999999
 30
0.0
 11
261.49
 21
39.16999999999999
 31
0.0
  0
LINE
 62
5
  8
cut
 10
261.49
 20
39.16999999999999
 30
0.0
 11
261.49
 21
40.169999999999995
 31
0.0
  0
LINE
 62
5
  8
cut
 10
264.03000000000003
 20
63.029999999999994
 30
0.0
 11
263.03
 21
63.029999999999994
 31
0.0
  0
LINE
 62
5
  8
cut
 10
263.03
 20
63.029999999999994
 30
0.0
 11
263.03
 21
62.029999999999994
 31
0.0
  0
LINE
 62
5
  8
cut
 10
263.03
 20
62.029999999999994
 30
0.0
 11
264.03000000000003
 21
62.029999999999994
 31
0.0
  0
LINE
 62
5
  8
cut
 10
264.03000000000003
 20
62.029999999999994
 30
0.0
 11
264.03000000000003
 21
63.029999999999994
 31
0.0
  0
LINE
 62
5
  8
cut
 10
265.03000000000003
 20
41.169999999999995
 30
0.0
 11
262.03000000000003
 21
41.169999999999995
 31
0.0
  0
LINE
 62
5
  8
cut
 10
262.03000000000003
 20
41.169999999999995
 30
0.0
 11
262.03000000000003
 21
38.16999999999999
 31
0.0
  0
LINE
 62
5
  8
cut
 10
262.03000000000003
 20
38.16999999999999
 30
0.0
 11
265.03000000000003
 21
38.16999999999999
 31
0.0
  0
LINE
 62
5
  8
cut
 10
265.03000000000003
 20
38.16999999999999
 30
0.0
 11
265.03000000000003
 21
41.169999999999995
 31
0.0
  0
LINE
 62
5
  8
cut
 10
236.75000000000003
 20
155.01666666666668
 30
0.0
 11
236.75000000000003
 21
174.18333333333334
 31
0.0
  0
LINE
 62
5
  8
cut
 10
236.75000000000003
 20
174.18333333333334
 30
0.0
 11
236.25000000000003
 21
174.18333333333334
 31
0.0
  0
LINE
 62
5
  8
cut
 10
236.25000000000003
 20
174.18333333333334
 30
0.0
 11
236.25000000000003
 21
155.01666666666668
 31
0.0
  0
LINE
 62
5
  8
cut
 10
236.25000000000003
 20
155.01666666666668
 30
0.0
 11
236.75000000000003
 21
155.01666666666668
 31
0.0
  0
LINE
 62
5
  8
cut
 10
292.93500000000006
 20
164.60000000000005
 30
0.0
 11
280.06500000000005
 21
164.60000000000005
 31
0.0
  0
LINE
 62
5
  8
cut
 10
280.06500000000005
 20
164.60000000000005
 30
0.0
 11
280.06500000000005
 21
141.60000000000005
 31
0.0
  0
LINE
 62
5
  8
cut
 10
280.06500000000005
 20
141.60000000000005
 30
0.0
 11
292.93500000000006
 21
141.60000000000005
 31
0.0
  0
LINE
 62
5
  8
cut
 10
292.93500000000006
 20
141.60000000000005
 30
0.0
 11
292.93500000000006
 21
164.60000000000005
 31
0.0
  0
LINE
 62
5
  8
cut
 10
292.93500000000006
 20
373.6000000000001
 30
0.0
 11
280.06500000000005
 21
373.6000000000001
 31
0.0
  0
LINE
 62
5
  8
cut
 10
280.06500000000005
 20
373.6000000000001
 30
0.0
 11
280.06500000000005
 21
350.6000000000001
 31
0.0
  0
LINE
 62
5
  8
cut
 10
280.06500000000005
 20
350.6000000000001
 30
0.0
 11
292.93500000000006
 21
350.6000000000001
 31
0.0
  0
LINE
 62
5
  8
cut
 10
292.93500000000006
 20
350.6000000000001
 30
0.0
 11
292.93500000000006
 21
373.6000000000001
 31
0.0
  0
LINE
 62
5
  8
cut
 10
236.75000000000003
 20
341.01666666666677
 30
0.0
 11
236.75000000000003
 21
360.1833333333334
 31
0.0
  0
LINE
 62
5
  8
cut
 10
236.75000000000003
 20
360.1833333333334
 30
0.0
 11
236.25000000000003
 21
360.1833333333334
 31
0.0
  0
LINE
 62
5
  8
cut
 10
236.25000000000003
 20
360.1833333333334
 30
0.0
 11
236.25000000000003
 21
341.01666666666677
 31
0.0
  0
LINE
 62
5
  8
cut
 10
236.25000000000003
 20
341.01666666666677
 30
0.0
 11
236.75000000000003
 21
341.01666666666677
 31
0.0
  0
LINE
 62
5
  8
cut
 10
300.5
 20
359.9333333333334
 30
0.0
 11
300.5
 21
364.9333333333334
 31
0.0
  0
LINE
 62
5
  8
cut
 10
300.5
 20
364.9333333333334
 30
0.0
 11
295.5
 21
359.9333333333334
 31
0.0
  0
LINE
 62
5
  8
cut
 10
295.5
 20
359.9333333333334
 30
0.0
 11
295.5
 21
341.26666666666677
 31
0.0
  0
LINE
 62
5
  8
cut
 10
295.5
 20
341.26666666666677
 30
0.0
 11
300.5
 21
336.2666666666667
 31
0.0
  0
LINE
 62
5
  8
cut
 10
300.5
 20
336.2666666666667
 30
0.0
 11
300.5
 21
341.26666666666677
 31
0.0
  0
LINE
 62
5
  8
cut
 10
279.25000000000006
 20
222.85000000000005
 30
0.0
 11
279.25000000000006
 21
249.85000000000005
 31
0.0
  0
LINE
 62
5
  8
cut
 10
279.25000000000006
 20
249.85000000000005
 30
0.0
 11
271.25000000000006
 21
249.85000000000005
 31
0.0
  0
LINE
 62
5
  8
cut
 10
271.25000000000006
 20
249.85000000000005
 30
0.0
 11
271.25000000000006
 21
222.85000000000005
 31
0.0
  0
LINE
 62
5
  8
cut
 10
271.25000000000006
 20
222.85000000000005
 30
0.0
 11
279.25000000000006
 21
222.85000000000005
 31
0.0
  0
LINE
 62
5
  8
cut
 10
263.43000000000006
 20
243.13000000000002
 30
0.0
 11
263.43000000000006
 21
246.13000000000002
 31
0.0
  0
LINE
 62
5
  8
cut
 10
263.43000000000006
 20
246.13000000000002
 30
0.0
 11
260.43000000000006
 21
246.13000000000002
 31
0.0
  0
LINE
 62
5
  8
cut
 10
260.43000000000006
 20
246.13000000000002
 30
0.0
 11
260.43000000000006
 21
243.13000000000002
 31
0.0
  0
LINE
 62
5
  8
cut
 10
260.43000000000006
 20
243.13000000000002
 30
0.0
 11
263.43000000000006
 21
243.13000000000002
 31
0.0
  0
LINE
 62
5
  8
cut
 10
239.57000000000002
 20
244.13000000000002
 30
0.0
 11
239.57000000000002
 21
245.13000000000002
 31
0.0
  0
LINE
 62
5
  8
cut
 10
239.57000000000002
 20
245.13000000000002
 30
0.0
 11
238.57000000000002
 21
245.13000000000002
 31
0.0
  0
LINE
 62
5
  8
cut
 10
238.57000000000002
 20
245.13000000000002
 30
0.0
 11
238.57000000000002
 21
244.13000000000002
 31
0.0
  0
LINE
 62
5
  8
cut
 10
238.57000000000002
 20
244.13000000000002
 30
0.0
 11
239.57000000000002
 21
244.13000000000002
 31
0.0
  0
LINE
 62
5
  8
cut
 10
262.43000000000006
 20
241.59000000000006
 30
0.0
 11
262.43000000000006
 21
242.59000000000006
 31
0.0
  0
LINE
 62
5
  8
cut
 10
262.43000000000006
 20
242.59000000000006
 30
0.0
 11
261.43
 21
242.59000000000006
 31
0.0
  0
LINE
 62
5
  8
cut
 10
261.43
 20
242.59000000000006
 30
0.0
 11
261.43
 21
241.59000000000006
 31
0.0
  0
LINE
 62
5
  8
cut
 10
261.43
 20
241.59000000000006
 30
0.0
 11
262.43000000000006
 21
241.59000000000006
 31
0.0
  0
LINE
 62
5
  8
cut
 10
239.57000000000002
 20
241.59000000000006
 30
0.0
 11
239.57000000000002
 21
242.59000000000006
 31
0.0
  0
LINE
 62
5
  8
cut
 10
239.57000000000002
 20
242.59000000000006
 30
0.0
 11
238.57000000000002
 21
242.59000000000006
 31
0.0
  0
LINE
 62
5
  8
cut
 10
238.57000000000002
 20
242.59000000000006
 30
0.0
 11
238.57000000000002
 21
241.59000000000006
 31
0.0
  0
LINE
 62
5
  8
cut
 10
238.57000000000002
 20
241.59000000000006
 30
0.0
 11
239.57000000000002
 21
241.59000000000006
 31
0.0
  0
LINE
 62
5
  8
cut
 10
262.43000000000006
 20
239.05000000000004
 30
0.0
 11
262.43000000000006
 21
240.05000000000004
 31
0.0
  0
LINE
 62
5
  8
cut
 10
262.43000000000006
 20
240.05000000000004
 30
0.0
 11
261.43
 21
240.05000000000004
 31
0.0
  0
LINE
 62
5
  8
cut
 10
261.43
 20
240.05000000000004
 30
0.0
 11
261.43
 21
239.05000000000004
 31
0.0
  0
LINE
 62
5
  8
cut
 10
261.43
 20
239.05000000000004
 30
0.0
 11
262.43000000000006
 21
239.05000000000004
 31
0.0
  0
LINE
 62
5
  8
cut
 10
239.57000000000002
 20
239.05000000000004
 30
0.0
 11
239.57000000000002
 21
240.05000000000004
 31
0.0
  0
LINE
 62
5
  8
cut
 10
239.57000000000002
 20
240.05000000000004
 30
0.0
 11
238.57000000000002
 21
240.05000000000004
 31
0.0
  0
LINE
 62
5
  8
cut
 10
238.57000000000002
 20
240.05000000000004
 30
0.0
 11
238.57000000000002
 21
239.05000000000004
 31
0.0
  0
LINE
 62
5
  8
cut
 10
238.57000000000002
 20
239.05000000000004
 30
0.0
 11
239.57000000000002
 21
239.05000000000004
 31
0.0
  0
LINE
 62
5
  8
cut
 10
262.43000000000006
 20
236.51000000000002
 30
0.0
 11
262.43000000000006
 21
237.51000000000002
 31
0.0
  0
LINE
 62
5
  8
cut
 10
262.43000000000006
 20
237.51000000000002
 30
0.0
 11
261.43
 21
237.51000000000002
 31
0.0
  0
LINE
 62
5
  8
cut
 10
261.43
 20
237.51000000000002
 30
0.0
 11
261.43
 21
236.51000000000002
 31
0.0
  0
LINE
 62
5
  8
cut
 10
261.43
 20
236.51000000000002
 30
0.0
 11
262.43000000000006
 21
236.51000000000002
 31
0.0
  0
LINE
 62
5
  8
cut
 10
239.57000000000002
 20
236.51000000000002
 30
0.0
 11
239.57000000000002
 21
237.51000000000002
 31
0.0
  0
LINE
 62
5
  8
cut
 10
239.57000000000002
 20
237.51000000000002
 30
0.0
 11
238.57000000000002
 21
237.51000000000002
 31
0.0
  0
LINE
 62
5
  8
cut
 10
238.57000000000002
 20
237.51000000000002
 30
0.0
 11
238.57000000000002
 21
236.51000000000002
 31
0.0
  0
LINE
 62
5
  8
cut
 10
238.57000000000002
 20
236.51000000000002
 30
0.0
 11
239.57000000000002
 21
236.51000000000002
 31
0.0
  0
LINE
 62
5
  8
cut
 10
262.43000000000006
 20
233.97000000000006
 30
0.0
 11
262.43000000000006
 21
234.97000000000006
 31
0.0
  0
LINE
 62
5
  8
cut
 10
262.43000000000006
 20
234.97000000000006
 30
0.0
 11
261.43
 21
234.97000000000006
 31
0.0
  0
LINE
 62
5
  8
cut
 10
261.43
 20
234.97000000000006
 30
0.0
 11
261.43
 21
233.97000000000006
 31
0.0
  0
LINE
 62
5
  8
cut
 10
261.43
 20
233.97000000000006
 30
0.0
 11
262.43000000000006
 21
233.97000000000006
 31
0.0
  0
LINE
 62
5
  8
cut
 10
239.57000000000002
 20
233.97000000000006
 30
0.0
 11
239.57000000000002
 21
234.97000000000006
 31
0.0
  0
LINE
 62
5
  8
cut
 10
239.57000000000002
 20
234.97000000000006
 30
0.0
 11
238.57000000000002
 21
234.97000000000006
 31
0.0
  0
LINE
 62
5
  8
cut
 10
238.57000000000002
 20
234.97000000000006
 30
0.0
 11
238.57000000000002
 21
233.97000000000006
 31
0.0
  0
LINE
 62
5
  8
cut
 10
238.57000000000002
 20
233.97000000000006
 30
0.0
 11
239.57000000000002
 21
233.97000000000006
 31
0.0
  0
LINE
 62
5
  8
cut
 10
262.43000000000006
 20
231.43000000000004
 30
0.0
 11
262.43000000000006
 21
232.43000000000004
 31
0.0
  0
LINE
 62
5
  8
cut
 10
262.43000000000006
 20
232.43000000000004
 30
0.0
 11
261.43
 21
232.43000000000004
 31
0.0
  0
LINE
 62
5
  8
cut
 10
261.43
 20
232.43000000000004
 30
0.0
 11
261.43
 21
231.43000000000004
 31
0.0
  0
LINE
 62
5
  8
cut
 10
261.43
 20
231.43000000000004
 30
0.0
 11
262.43000000000006
 21
231.43000000000004
 31
0.0
  0
LINE
 62
5
  8
cut
 10
239.57000000000002
 20
231.43000000000004
 30
0.0
 11
239.57000000000002
 21
232.43000000000004
 31
0.0
  0
LINE
 62
5
  8
cut
 10
239.57000000000002
 20
232.43000000000004
 30
0.0
 11
238.57000000000002
 21
232.43000000000004
 31
0.0
  0
LINE
 62
5
  8
cut
 10
238.57000000000002
 20
232.43000000000004
 30
0.0
 11
238.57000000000002
 21
231.43000000000004
 31
0.0
  0
LINE
 62
5
  8
cut
 10
238.57000000000002
 20
231.43000000000004
 30
0.0
 11
239.57000000000002
 21
231.43000000000004
 31
0.0
  0
LINE
 62
5
  8
cut
 10
262.43000000000006
 20
228.89000000000001
 30
0.0
 11
262.43000000000006
 21
229.89000000000001
 31
0.0
  0
LINE
 62
5
  8
cut
 10
262.43000000000006
 20
229.89000000000001
 30
0.0
 11
261.43
 21
229.89000000000001
 31
0.0
  0
LINE
 62
5
  8
cut
 10
261.43
 20
229.89000000000001
 30
0.0
 11
261.43
 21
228.89000000000001
 31
0.0
  0
LINE
 62
5
  8
cut
 10
261.43
 20
228.89000000000001
 30
0.0
 11
262.43000000000006
 21
228.89000000000001
 31
0.0
  0
LINE
 62
5
  8
cut
 10
239.57000000000002
 20
228.89000000000001
 30
0.0
 11
239.57000000000002
 21
229.89000000000001
 31
0.0
  0
LINE
 62
5
  8
cut
 10
239.57000000000002
 20
229.89000000000001
 30
0.0
 11
238.57000000000002
 21
229.89000000000001
 31
0.0
  0
LINE
 62
5
  8
cut
 10
238.57000000000002
 20
229.89000000000001
 30
0.0
 11
238.57000000000002
 21
228.89000000000001
 31
0.0
  0
LINE
 62
5
  8
cut
 10
238.57000000000002
 20
228.89000000000001
 30
0.0
 11
239.57000000000002
 21
228.89000000000001
 31
0.0
  0
LINE
 62
5
  8
cut
 10
262.43000000000006
 20
226.35000000000005
 30
0.0
 11
262.43000000000006
 21
227.35000000000005
 31
0.0
  0
LINE
 62
5
  8
cut
 10
262.43000000000006
 20
227.35000000000005
 30
0.0
 11
261.43
 21
227.35000000000005
 31
0.0
  0
LINE
 62
5
  8
cut
 10
261.43
 20
227.35000000000005
 30
0.0
 11
261.43
 21
226.35000000000005
 31
0.0
  0
LINE
 62
5
  8
cut
 10
261.43
 20
226.35000000000005
 30
0.0
 11
262.43000000000006
 21
226.35000000000005
 31
0.0
  0
LINE
 62
5
  8
cut
 10
239.57000000000002
 20
226.35000000000005
 30
0.0
 11
239.57000000000002
 21
227.35000000000005
 31
0.0
  0
LINE
 62
5
  8
cut
 10
239.57000000000002
 20
227.35000000000005
 30
0.0
 11
238.57000000000002
 21
227.35000000000005
 31
0.0
  0
LINE
 62
5
  8
cut
 10
238.57000000000002
 20
227.35000000000005
 30
0.0
 11
238.57000000000002
 21
226.35000000000005
 31
0.0
  0
LINE
 62
5
  8
cut
 10
238.57000000000002
 20
226.35000000000005
 30
0.0
 11
239.57000000000002
 21
226.35000000000005
 31
0.0
  0
LINE
 62
5
  8
cut
 10
262.43000000000006
 20
223.81000000000003
 30
0.0
 11
262.43000000000006
 21
224.81000000000003
 31
0.0
  0
LINE
 62
5
  8
cut
 10
262.43000000000006
 20
224.81000000000003
 30
0.0
 11
261.43
 21
224.81000000000003
 31
0.0
  0
LINE
 62
5
  8
cut
 10
261.43
 20
224.81000000000003
 30
0.0
 11
261.43
 21
223.81000000000003
 31
0.0
  0
LINE
 62
5
  8
cut
 10
261.43
 20
223.81000000000003
 30
0.0
 11
262.43000000000006
 21
223.81000000000003
 31
0.0
  0
LINE
 62
5
  8
cut
 10
239.57000000000002
 20
223.81000000000003
 30
0.0
 11
239.57000000000002
 21
224.81000000000003
 31
0.0
  0
LINE
 62
5
  8
cut
 10
239.57000000000002
 20
224.81000000000003
 30
0.0
 11
238.57000000000002
 21
224.81000000000003
 31
0.0
  0
LINE
 62
5
  8
cut
 10
238.57000000000002
 20
224.81000000000003
 30
0.0
 11
238.57000000000002
 21
223.81000000000003
 31
0.0
  0
LINE
 62
5
  8
cut
 10
238.57000000000002
 20
223.81000000000003
 30
0.0
 11
239.57000000000002
 21
223.81000000000003
 31
0.0
  0
LINE
 62
5
  8
cut
 10
262.43000000000006
 20
221.27000000000004
 30
0.0
 11
262.43000000000006
 21
222.27000000000007
 31
0.0
  0
LINE
 62
5
  8
cut
 10
262.43000000000006
 20
222.27000000000007
 30
0.0
 11
261.43
 21
222.27000000000007
 31
0.0
  0
LINE
 62
5
  8
cut
 10
261.43
 20
222.27000000000007
 30
0.0
 11
261.43
 21
221.27000000000004
 31
0.0
  0
LINE
 62
5
  8
cut
 10
261.43
 20
221.27000000000004
 30
0.0
 11
262.43000000000006
 21
221.27000000000004
 31
0.0
  0
LINE
 62
5
  8
cut
 10
239.57000000000002
 20
221.27000000000004
 30
0.0
 11
239.57000000000002
 21
222.27000000000007
 31
0.0
  0
LINE
 62
5
  8
cut
 10
239.57000000000002
 20
222.27000000000007
 30
0.0
 11
238.57000000000002
 21
222.27000000000007
 31
0.0
  0
LINE
 62
5
  8
cut
 10
238.57000000000002
 20
222.27000000000007
 30
0.0
 11
238.57000000000002
 21
221.27000000000004
 31
0.0
  0
LINE
 62
5
  8
cut
 10
238.57000000000002
 20
221.27000000000004
 30
0.0
 11
239.57000000000002
 21
221.27000000000004
 31
0.0
  0
LINE
 62
5
  8
cut
 10
262.43000000000006
 20
218.73000000000005
 30
0.0
 11
262.43000000000006
 21
219.73000000000005
 31
0.0
  0
LINE
 62
5
  8
cut
 10
262.43000000000006
 20
219.73000000000005
 30
0.0
 11
261.43
 21
219.73000000000005
 31
0.0
  0
LINE
 62
5
  8
cut
 10
261.43
 20
219.73000000000005
 30
0.0
 11
261.43
 21
218.73000000000005
 31
0.0
  0
LINE
 62
5
  8
cut
 10
261.43
 20
218.73000000000005
 30
0.0
 11
262.43000000000006
 21
218.73000000000005
 31
0.0
  0
LINE
 62
5
  8
cut
 10
239.57000000000002
 20
218.73000000000005
 30
0.0
 11
239.57000000000002
 21
219.73000000000005
 31
0.0
  0
LINE
 62
5
  8
cut
 10
239.57000000000002
 20
219.73000000000005
 30
0.0
 11
238.57000000000002
 21
219.73000000000005
 31
0.0
  0
LINE
 62
5
  8
cut
 10
238.57000000000002
 20
219.73000000000005
 30
0.0
 11
238.57000000000002
 21
218.73000000000005
 31
0.0
  0
LINE
 62
5
  8
cut
 10
238.57000000000002
 20
218.73000000000005
 30
0.0
 11
239.57000000000002
 21
218.73000000000005
 31
0.0
  0
LINE
 62
5
  8
cut
 10
262.43000000000006
 20
216.19
 30
0.0
 11
262.43000000000006
 21
217.19000000000003
 31
0.0
  0
LINE
 62
5
  8
cut
 10
262.43000000000006
 20
217.19000000000003
 30
0.0
 11
261.43
 21
217.19000000000003
 31
0.0
  0
LINE
 62
5
  8
cut
 10
261.43
 20
217.19000000000003
 30
0.0
 11
261.43
 21
216.19
 31
0.0
  0
LINE
 62
5
  8
cut
 10
261.43
 20
216.19
 30
0.0
 11
262.43000000000006
 21
216.19
 31
0.0
  0
LINE
 62
5
  8
cut
 10
239.57000000000002
 20
216.19
 30
0.0
 11
239.57000000000002
 21
217.19000000000003
 31
0.0
  0
LINE
 62
5
  8
cut
 10
239.57000000000002
 20
217.19000000000003
 30
0.0
 11
238.57000000000002
 21
217.19000000000003
 31
0.0
  0
LINE
 62
5
  8
cut
 10
238.57000000000002
 20
217.19000000000003
 30
0.0
 11
238.57000000000002
 21
216.19
 31
0.0
  0
LINE
 62
5
  8
cut
 10
238.57000000000002
 20
216.19
 30
0.0
 11
239.57000000000002
 21
216.19
 31
0.0
  0
LINE
 62
5
  8
cut
 10
262.43000000000006
 20
213.65000000000006
 30
0.0
 11
262.43000000000006
 21
214.65000000000003
 31
0.0
  0
LINE
 62
5
  8
cut
 10
262.43000000000006
 20
214.65000000000003
 30
0.0
 11
261.43
 21
214.65000000000003
 31
0.0
  0
LINE
 62
5
  8
cut
 10
261.43
 20
214.65000000000003
 30
0.0
 11
261.43
 21
213.65000000000006
 31
0.0
  0
LINE
 62
5
  8
cut
 10
261.43
 20
213.65000000000006
 30
0.0
 11
262.43000000000006
 21
213.65000000000006
 31
0.0
  0
LINE
 62
5
  8
cut
 10
239.57000000000002
 20
213.65000000000006
 30
0.0
 11
239.57000000000002
 21
214.65000000000003
 31
0.0
  0
LINE
 62
5
  8
cut
 10
239.57000000000002
 20
214.65000000000003
 30
0.0
 11
238.57000000000002
 21
214.65000000000003
 31
0.0
  0
LINE
 62
5
  8
cut
 10
238.57000000000002
 20
214.65000000000003
 30
0.0
 11
238.57000000000002
 21
213.65000000000006
 31
0.0
  0
LINE
 62
5
  8
cut
 10
238.57000000000002
 20
213.65000000000006
 30
0.0
 11
239.57000000000002
 21
213.65000000000006
 31
0.0
  0
LINE
 62
5
  8
cut
 10
262.43000000000006
 20
211.11
 30
0.0
 11
262.43000000000006
 21
212.11000000000004
 31
0.0
  0
LINE
 62
5
  8
cut
 10
262.43000000000006
 20
212.11000000000004
 30
0.0
 11
261.43
 21
212.11000000000004
 31
0.0
  0
LINE
 62
5
  8
cut
 10
261.43
 20
212.11000000000004
 30
0.0
 11
261.43
 21
211.11
 31
0.0
  0
LINE
 62
5
  8
cut
 10
261.43
 20
211.11
 30
0.0
 11
262.43000000000006
 21
211.11
 31
0.0
  0
LINE
 62
5
  8
cut
 10
239.57000000000002
 20
211.11
 30
0.0
 11
239.57000000000002
 21
212.11000000000004
 31
0.0
  0
LINE
 62
5
  8
cut
 10
239.57000000000002
 20
212.11000000000004
 30
0.0
 11
238.57000000000002
 21
212.11000000000004
 31
0.0
  0
LINE
 62
5
  8
cut
 10
238.57000000000002
 20
212.11000000000004
 30
0.0
 11
238.57000000000002
 21
211.11
 31
0.0
  0
LINE
 62
5
  8
cut
 10
238.57000000000002
 20
211.11
 30
0.0
 11
239.57000000000002
 21
211.11
 31
0.0
  0
LINE
 62
5
  8
cut
 10
262.43000000000006
 20
208.57000000000002
 30
0.0
 11
262.43000000000006
 21
209.57
 31
0.0
  0
LINE
 62
5
  8
cut
 10
262.43000000000006
 20
209.57
 30
0.0
 11
261.43
 21
209.57
 31
0.0
  0
LINE
 62
5
  8
cut
 10
261.43
 20
209.57
 30
0.0
 11
261.43
 21
208.57000000000002
 31
0.0
  0
LINE
 62
5
  8
cut
 10
261.43
 20
208.57000000000002
 30
0.0
 11
262.43000000000006
 21
208.57000000000002
 31
0.0
  0
LINE
 62
5
  8
cut
 10
240.57000000000002
 20
207.57000000000002
 30
0.0
 11
240.57000000000002
 21
210.57000000000002
 31
0.0
  0
LINE
 62
5
  8
cut
 10
240.57000000000002
 20
210.57000000000002
 30
0.0
 11
237.57000000000002
 21
210.57000000000002
 31
0.0
  0
LINE
 62
5
  8
cut
 10
237.57000000000002
 20
210.57000000000002
 30
0.0
 11
237.57000000000002
 21
207.57000000000002
 31
0.0
  0
LINE
 62
5
  8
cut
 10
237.57000000000002
 20
207.57000000000002
 30
0.0
 11
240.57000000000002
 21
207.57000000000002
 31
0.0
  0
LINE
 62
5
  8
cut
 10
186.75
 20
289.85
 30
0.0
 11
186.75
 21
306.6000000000001
 31
0.0
  0
LINE
 62
5
  8
cut
 10
186.75
 20
306.6000000000001
 30
0.0
 11
186.25000000000003
 21
306.6000000000001
 31
0.0
  0
LINE
 62
5
  8
cut
 10
186.25000000000003
 20
306.6000000000001
 30
0.0
 11
186.25000000000003
 21
289.85
 31
0.0
  0
LINE
 62
5
  8
cut
 10
186.25000000000003
 20
289.85
 30
0.0
 11
186.75
 21
289.85
 31
0.0
  0
LINE
 62
5
  8
cut
 10
186.75
 20
249.22500000000008
 30
0.0
 11
186.75
 21
265.975
 31
0.0
  0
LINE
 62
5
  8
cut
 10
186.75
 20
265.975
 30
0.0
 11
186.25000000000003
 21
265.975
 31
0.0
  0
LINE
 62
5
  8
cut
 10
186.25000000000003
 20
265.975
 30
0.0
 11
186.25000000000003
 21
249.22500000000008
 31
0.0
  0
LINE
 62
5
  8
cut
 10
186.25000000000003
 20
249.22500000000008
 30
0.0
 11
186.75
 21
249.22500000000008
 31
0.0
  0
LINE
 62
5
  8
cut
 10
186.75
 20
208.60000000000005
 30
0.0
 11
186.75
 21
225.35000000000005
 31
0.0
  0
LINE
 62
5
  8
cut
 10
186.75
 20
225.35000000000005
 30
0.0
 11
186.25000000000003
 21
225.35000000000005
 31
0.0
  0
LINE
 62
5
  8
cut
 10
186.25000000000003
 20
225.35000000000005
 30
0.0
 11
186.25000000000003
 21
208.60000000000005
 31
0.0
  0
LINE
 62
5
  8
cut
 10
186.25000000000003
 20
208.60000000000005
 30
0.0
 11
186.75
 21
208.60000000000005
 31
0.0
  0
LINE
 62
5
  8
cut
 10
300.5
 20
306.3500000000001
 30
0.0
 11
300.5
 21
311.3500000000001
 31
0.0
  0
LINE
 62
5
  8
cut
 10
300.5
 20
311.3500000000001
 30
0.0
 11
295.5
 21
306.3500000000001
 31
0.0
  0
LINE
 62
5
  8
cut
 10
295.5
 20
306.3500000000001
 30
0.0
 11
295.5
 21
290.1
 31
0.0
  0
LINE
 62
5
  8
cut
 10
295.5
 20
290.1
 30
0.0
 11
300.5
 21
285.1
 31
0.0
  0
LINE
 62
5
  8
cut
 10
300.5
 20
285.1
 30
0.0
 11
300.5
 21
290.1
 31
0.0
  0
LINE
 62
5
  8
cut
 10
300.5
 20
265.725
 30
0.0
 11
300.5
 21
270.725
 31
0.0
  0
LINE
 62
5
  8
cut
 10
300.5
 20
270.725
 30
0.0
 11
295.5
 21
265.725
 31
0.0
  0
LINE
 62
5
  8
cut
 10
295.5
 20
265.725
 30
0.0
 11
295.5
 21
249.47500000000005
 31
0.0
  0
LINE
 62
5
  8
cut
 10
295.5
 20
249.47500000000005
 30
0.0
 11
300.5
 21
244.47500000000005
 31
0.0
  0
LINE
 62
5
  8
cut
 10
300.5
 20
244.47500000000005
 30
0.0
 11
300.5
 21
249.47500000000005
 31
0.0
  0
LINE
 62
5
  8
cut
 10
300.5
 20
225.10000000000005
 30
0.0
 11
300.5
 21
230.10000000000005
 31
0.0
  0
LINE
 62
5
  8
cut
 10
300.5
 20
230.10000000000005
 30
0.0
 11
295.5
 21
225.10000000000005
 31
0.0
  0
LINE
 62
5
  8
cut
 10
295.5
 20
225.10000000000005
 30
0.0
 11
295.5
 21
208.85000000000005
 31
0.0
  0
LINE
 62
5
  8
cut
 10
295.5
 20
208.85000000000005
 30
0.0
 11
300.5
 21
203.85000000000002
 31
0.0
  0
LINE
 62
5
  8
cut
 10
300.5
 20
203.85000000000002
 30
0.0
 11
300.5
 21
208.85000000000005
 31
0.0
  0
LINE
 62
5
  8
cut
 10
300.5
 20
173.93333333333334
 30
0.0
 11
300.5
 21
178.93333333333334
 31
0.0
  0
LINE
 62
5
  8
cut
 10
300.5
 20
178.93333333333334
 30
0.0
 11
295.5
 21
173.93333333333334
 31
0.0
  0
LINE
 62
5
  8
cut
 10
295.5
 20
173.93333333333334
 30
0.0
 11
295.5
 21
155.26666666666668
 31
0.0
  0
LINE
 62
5
  8
cut
 10
295.5
 20
155.26666666666668
 30
0.0
 11
300.5
 21
150.26666666666668
 31
0.0
  0
LINE
 62
5
  8
cut
 10
300.5
 20
150.26666666666668
 30
0.0
 11
300.5
 21
155.26666666666668
 31
0.0
  0
LINE
 62
5
  8
cut
 10
149.935
 20
131.60000000000002
 30
0.0
 11
137.065
 21
131.60000000000002
 31
0.0
  0
LINE
 62
5
  8
cut
 10
137.065
 20
131.60000000000002
 30
0.0
 11
137.065
 21
108.60000000000001
 31
0.0
  0
LINE
 62
5
  8
cut
 10
137.065
 20
108.60000000000001
 30
0.0
 11
149.935
 21
108.60000000000001
 31
0.0
  0
LINE
 62
5
  8
cut
 10
149.935
 20
108.60000000000001
 30
0.0
 11
149.935
 21
131.60000000000002
 31
0.0
  0
LINE
 62
5
  8
cut
 10
7.750000000000002
 20
99.98636363636363
 30
0.0
 11
7.750000000000002
 21
118.66818181818182
 31
0.0
  0
LINE
 62
5
  8
cut
 10
7.750000000000002
 20
118.66818181818182
 30
0.0
 11
7.25
 21
118.66818181818182
 31
0.0
  0
LINE
 62
5
  8
cut
 10
7.25
 20
118.66818181818182
 30
0.0
 11
7.25
 21
99.98636363636363
 31
0.0
  0
LINE
 62
5
  8
cut
 10
7.25
 20
99.98636363636363
 30
0.0
 11
7.750000000000002
 21
99.98636363636363
 31
0.0
  0
LINE
 62
5
  8
cut
 10
7.750000000000002
 20
54.531818181818174
 30
0.0
 11
7.750000000000002
 21
73.21363636363635
 31
0.0
  0
LINE
 62
5
  8
cut
 10
7.750000000000002
 20
73.21363636363635
 30
0.0
 11
7.25
 21
73.21363636363635
 31
0.0
  0
LINE
 62
5
  8
cut
 10
7.25
 20
73.21363636363635
 30
0.0
 11
7.25
 21
54.531818181818174
 31
0.0
  0
LINE
 62
5
  8
cut
 10
7.25
 20
54.531818181818174
 30
0.0
 11
7.750000000000002
 21
54.531818181818174
 31
0.0
  0
LINE
 62
5
  8
cut
 10
69.58333333333331
 20
51.85
 30
0.0
 11
69.58333333333331
 21
41.35
 31
0.0
  0
LINE
 62
5
  8
cut
 10
69.58333333333331
 20
41.35
 30
0.0
 11
69.08333333333333
 21
41.35
 31
0.0
  0
LINE
 62
5
  8
cut
 10
69.08333333333333
 20
41.35
 30
0.0
 11
69.08333333333333
 21
51.85
 31
0.0
  0
LINE
 62
5
  8
cut
 10
69.08333333333333
 20
51.85
 30
0.0
 11
69.58333333333331
 21
51.85
 31
0.0
  0
LINE
 62
5
  8
cut
 10
280.06500000000005
 20
108.60000000000001
 30
0.0
 11
292.93500000000006
 21
108.60000000000001
 31
0.0
  0
LINE
 62
5
  8
cut
 10
292.93500000000006
 20
108.60000000000001
 30
0.0
 11
292.93500000000006
 21
131.60000000000002
 31
0.0
  0
LINE
 62
5
  8
cut
 10
292.93500000000006
 20
131.60000000000002
 30
0.0
 11
280.06500000000005
 21
131.60000000000002
 31
0.0
  0
LINE
 62
5
  8
cut
 10
280.06500000000005
 20
131.60000000000002
 30
0.0
 11
280.06500000000005
 21
108.60000000000001
 31
0.0
  0
LINE
 62
5
  8
cut
 10
307.50000000000006
 20
118.41818181818182
 30
0.0
 11
307.50000000000006
 21
123.41818181818182
 31
0.0
  0
LINE
 62
5
  8
cut
 10
307.50000000000006
 20
123.41818181818182
 30
0.0
 11
302.50000000000006
 21
118.41818181818182
 31
0.0
  0
LINE
 62
5
  8
cut
 10
302.50000000000006
 20
118.41818181818182
 30
0.0
 11
302.50000000000006
 21
100.23636363636363
 31
0.0
  0
LINE
 62
5
  8
cut
 10
302.50000000000006
 20
100.23636363636363
 30
0.0
 11
307.50000000000006
 21
95.23636363636362
 31
0.0
  0
LINE
 62
5
  8
cut
 10
307.50000000000006
 20
95.23636363636362
 30
0.0
 11
307.50000000000006
 21
100.23636363636363
 31
0.0
  0
LINE
 62
5
  8
cut
 10
307.50000000000006
 20
72.96363636363635
 30
0.0
 11
307.50000000000006
 21
77.96363636363635
 31
0.0
  0
LINE
 62
5
  8
cut
 10
307.50000000000006
 20
77.96363636363635
 30
0.0
 11
302.50000000000006
 21
72.96363636363635
 31
0.0
  0
LINE
 62
5
  8
cut
 10
302.50000000000006
 20
72.96363636363635
 30
0.0
 11
302.50000000000006
 21
54.781818181818174
 31
0.0
  0
LINE
 62
5
  8
cut
 10
302.50000000000006
 20
54.781818181818174
 30
0.0
 11
307.50000000000006
 21
49.781818181818174
 31
0.0
  0
LINE
 62
5
  8
cut
 10
307.50000000000006
 20
49.781818181818174
 30
0.0
 11
307.50000000000006
 21
54.781818181818174
 31
0.0
  0
LINE
 62
5
  8
cut
 10
320.00000000000006
 20
36.55
 30
0.0
 11
320.00000000000006
 21
36.55
 31
0.0
  0
LINE
 62
5
  8
cut
 10
320.00000000000006
 20
36.55
 30
0.0
 11
320.00000000000006
 21
36.55
 31
0.0
  0
LINE
 62
5
  8
cut
 10
320.00000000000006
 20
36.55
 30
0.0
 11
320.00000000000006
 21
36.55
 31
0.0
  0
LINE
 62
5
  8
cut
 10
320.00000000000006
 20
36.55
 30
0.0
 11
320.00000000000006
 21
36.55
 31
0.0
  0
LINE
 62
5
  8
cut
 10
390.00000000000006
 20
36.55
 30
0.0
 11
389.63065021785417
 21
31.85696604879307
 31
0.0
  0
LINE
 62
5
  8
cut
 10
389.63065021785417
 20
41.24303395120693
 30
0.0
 11
390.00000000000006
 21
36.55
 31
0.0
  0
LINE
 62
5
  8
cut
 10
388.53169548885467
 20
45.82050983124843
 30
0.0
 11
389.63065021785417
 21
41.24303395120693
 31
0.0
  0
LINE
 62
5
  8
cut
 10
386.730195725651
 20
50.16971499218641
 30
0.0
 11
388.53169548885467
 21
45.82050983124843
 31
0.0
  0
LINE
 62
5
  8
cut
 10
384.27050983124843
 20
54.18355756877419
 30
0.0
 11
386.730195725651
 21
50.16971499218641
 31
0.0
  0
LINE
 62
5
  8
cut
 10
381.2132034355965
 20
57.763203435596424
 30
0.0
 11
384.27050983124843
 21
54.18355756877419
 31
0.0
  0
LINE
 62
5
  8
cut
 10
377.6335575687743
 20
60.82050983124843
 30
0.0
 11
381.2132034355965
 21
57.763203435596424
 31
0.0
  0
LINE
 62
5
  8
cut
 10
373.61971499218646
 20
63.28019572565103
 30
0.0
 11
377.6335575687743
 21
60.82050983124843
 31
0.0
  0
LINE
 62
5
  8
cut
 10
369.2705098312485
 20
65.0816954888546
 30
0.0
 11
373.61971499218646
 21
63.28019572565103
 31
0.0
  0
LINE
 62
5
  8
cut
 10
364.693033951207
 20
66.18065021785414
 30
0.0
 11
369.2705098312485
 21
65.0816954888546
 31
0.0
  0
LINE
 62
5
  8
cut
 10
360.0
 20
66.55000000000001
 30
0.0
 11
364.693033951207
 21
66.18065021785414
 31
0.0
  0
LINE
 62
5
  8
cut
 10
355.3069660487931
 20
66.18065021785414
 30
0.0
 11
360.0
 21
66.55000000000001
 31
0.0
  0
LINE
 62
5
  8
cut
 10
350.7294901687516
 20
65.0816954888546
 30
0.0
 11
355.3069660487931
 21
66.18065021785414
 31
0.0
  0
LINE
 62
5
  8
cut
 10
346.38028500781365
 20
63.28019572565104
 30
0.0
 11
350.7294901687516
 21
65.0816954888546
 31
0.0
  0
LINE
 62
5
  8
cut
 10
342.3664424312259
 20
60.82050983124843
 30
0.0
 11
346.38028500781365
 21
63.28019572565104
 31
0.0
  0
LINE
 62
5
  8
cut
 10
338.78679656440363
 20
57.763203435596424
 30
0.0
 11
342.3664424312259
 21
60.82050983124843
 31
0.0
  0
LINE
 62
5
  8
cut
 10
335.7294901687516
 20
54.18355756877419
 30
0.0
 11
338.78679656440363
 21
57.763203435596424
 31
0.0
  0
LINE
 62
5
  8
cut
 10
333.26980427434904
 20
50.169714992186414
 30
0.0
 11
335.7294901687516
 21
54.18355756877419
 31
0.0
  0
LINE
 62
5
  8
cut
 10
331.4683045111454
 20
45.82050983124843
 30
0.0
 11
333.26980427434904
 21
50.169714992186414
 31
0.0
  0
LINE
 62
5
  8
cut
 10
330.36934978214595
 20
41.24303395120693
 30
0.0
 11
331.4683045111454
 21
45.82050983124843
 31
0.0
  0
LINE
 62
5
  8
cut
 10
330.00000000000006
 20
36.550000000000004
 30
0.0
 11
330.36934978214595
 21
41.24303395120693
 31
0.0
  0
LINE
 62
5
  8
cut
 10
330.36934978214595
 20
31.85696604879308
 30
0.0
 11
330.00000000000006
 21
36.550000000000004
 31
0.0
  0
LINE
 62
5
  8
cut
 10
331.4683045111454
 20
27.279490168751583
 30
0.0
 11
330.36934978214595
 21
31.85696604879308
 31
0.0
  0
LINE
 62
5
  8
cut
 10
333.26980427434904
 20
22.930285007813605
 30
0.0
 11
331.4683045111454
 21
27.279490168751583
 31
0.0
  0
LINE
 62
5
  8
cut
 10
335.7294901687516
 20
18.916442431225807
 30
0.0
 11
333.26980427434904
 21
22.930285007813605
 31
0.0
  0
LINE
 62
5
  8
cut
 10
338.78679656440363
 20
15.336796564403576
 30
0.0
 11
335.7294901687516
 21
18.916442431225807
 31
0.0
  0
LINE
 62
5
  8
cut
 10
342.36644243122583
 20
12.279490168751575
 30
0.0
 11
338.78679656440363
 21
15.336796564403576
 31
0.0
  0
LINE
 62
5
  8
cut
 10
346.38028500781365
 20
9.819804274348966
 30
0.0
 11
342.36644243122583
 21
12.279490168751575
 31
0.0
  0
LINE
 62
5
  8
cut
 10
350.7294901687516
 20
8.018304511145391
 30
0.0
 11
346.38028500781365
 21
9.819804274348966
 31
0.0
  0
LINE
 62
5
  8
cut
 10
355.3069660487931
 20
6.919349782145869
 30
0.0
 11
350.7294901687516
 21
8.018304511145391
 31
0.0
  0
LINE
 62
5
  8
cut
 10
360.0
 20
6.549999999999998
 30
0.0
 11
355.3069660487931
 21
6.919349782145869
 31
0.0
  0
LINE
 62
5
  8
cut
 10
364.693033951207
 20
6.919349782145866
 30
0.0
 11
360.0
 21
6.549999999999998
 31
0.0
  0
LINE
 62
5
  8
cut
 10
369.2705098312485
 20
8.01830451114539
 30
0.0
 11
364.693033951207
 21
6.919349782145866
 31
0.0
  0
LINE
 62
5
  8
cut
 10
373.61971499218646
 20
9.819804274348959
 30
0.0
 11
369.2705098312485
 21
8.01830451114539
 31
0.0
  0
LINE
 62
5
  8
cut
 10
377.6335575687742
 20
12.279490168751572
 30
0.0
 11
373.61971499218646
 21
9.819804274348959
 31
0.0
  0
LINE
 62
5
  8
cut
 10
381.2132034355965
 20
15.336796564403569
 30
0.0
 11
377.6335575687742
 21
12.279490168751572
 31
0.0
  0
LINE
 62
5
  8
cut
 10
384.27050983124843
 20
18.916442431225796
 30
0.0
 11
381.2132034355965
 21
15.336796564403569
 31
0.0
  0
LINE
 62
5
  8
cut
 10
386.730195725651
 20
22.930285007813588
 30
0.0
 11
384.27050983124843
 21
18.916442431225796
 31
0.0
  0
LINE
 62
5
  8
cut
 10
388.53169548885467
 20
27.279490168751572
 30
0.0
 11
386.730195725651
 21
22.930285007813588
 31
0.0
  0
LINE
 62
5
  8
cut
 10
389.63065021785417
 20
31.85696604879307
 30
0.0
 11
388.53169548885467
 21
27.279490168751572
 31
0.0
  0
LINE
 62
5
  8
cut
 10
400.0
 20
36.55
 30
0.0
 11
400.0
 21
36.55
 31
0.0
  0
LINE
 62
5
  8
cut
 10
400.0
 20
36.55
 30
0.0
 11
400.0
 21
36.55
 31
0.0
  0
LINE
 62
5
  8
cut
 10
400.0
 20
36.55
 30
0.0
 11
400.0
 21
36.55
 31
0.0
  0
LINE
 62
5
  8
cut
 10
400.0
 20
36.55
 30
0.0
 11
400.0
 21
36.55
 31
0.0
  0
LINE
 62
5
  8
cut
 10
470.00000000000006
 20
36.55
 30
0.0
 11
469.63065021785417
 21
31.85696604879307
 31
0.0
  0
LINE
 62
5
  8
cut
 10
469.63065021785417
 20
41.24303395120693
 30
0.0
 11
470.00000000000006
 21
36.55
 31
0.0
  0
LINE
 62
5
  8
cut
 10
468.53169548885467
 20
45.82050983124843
 30
0.0
 11
469.63065021785417
 21
41.24303395120693
 31
0.0
  0
LINE
 62
5
  8
cut
 10
466.7301957256511
 20
50.16971499218641
 30
0.0
 11
468.53169548885467
 21
45.82050983124843
 31
0.0
  0
LINE
 62
5
  8
cut
 10
464.2705098312485
 20
54.18355756877419
 30
0.0
 11
466.7301957256511
 21
50.16971499218641
 31
0.0
  0
LINE
 62
5
  8
cut
 10
461.2132034355965
 20
57.763203435596424
 30
0.0
 11
464.2705098312485
 21
54.18355756877419
 31
0.0
  0
LINE
 62
5
  8
cut
 10
457.6335575687743
 20
60.82050983124843
 30
0.0
 11
461.2132034355965
 21
57.763203435596424
 31
0.0
  0
LINE
 62
5
  8
cut
 10
453.61971499218646
 20
63.28019572565103
 30
0.0
 11
457.6335575687743
 21
60.82050983124843
 31
0.0
  0
LINE
 62
5
  8
cut
 10
449.2705098312485
 20
65.0816954888546
 30
0.0
 11
453.61971499218646
 21
63.28019572565103
 31
0.0
  0
LINE
 62
5
  8
cut
 10
444.693033951207
 20
66.18065021785414
 30
0.0
 11
449.2705098312485
 21
65.0816954888546
 31
0.0
  0
LINE
 62
5
  8
cut
 10
440.00000000000006
 20
66.55000000000001
 30
0.0
 11
444.693033951207
 21
66.18065021785414
 31
0.0
  0
LINE
 62
5
  8
cut
 10
435.30696604879313
 20
66.18065021785414
 30
0.0
 11
440.00000000000006
 21
66.55000000000001
 31
0.0
  0
LINE
 62
5
  8
cut
 10
430.7294901687516
 20
65.0816954888546
 30
0.0
 11
435.30696604879313
 21
66.18065021785414
 31
0.0
  0
LINE
 62
5
  8
cut
 10
426.38028500781365
 20
63.28019572565104
 30
0.0
 11
430.7294901687516
 21
65.0816954888546
 31
0.0
  0
LINE
 62
5
  8
cut
 10
422.3664424312259
 20
60.82050983124843
 30
0.0
 11
426.38028500781365
 21
63.28019572565104
 31
0.0
  0
LINE
 62
5
  8
cut
 10
418.78679656440363
 20
57.763203435596424
 30
0.0
 11
422.3664424312259
 21
60.82050983124843
 31
0.0
  0
LINE
 62
5
  8
cut
 10
415.7294901687516
 20
54.18355756877419
 30
0.0
 11
418.78679656440363
 21
57.763203435596424
 31
0.0
  0
LINE
 62
5
  8
cut
 10
413.26980427434904
 20
50.169714992186414
 30
0.0
 11
415.7294901687516
 21
54.18355756877419
 31
0.0
  0
LINE
 62
5
  8
cut
 10
411.46830451114545
 20
45.82050983124843
 30
0.0
 11
413.26980427434904
 21
50.169714992186414
 31
0.0
  0
LINE
 62
5
  8
cut
 10
410.36934978214595
 20
41.24303395120693
 30
0.0
 11
411.46830451114545
 21
45.82050983124843
 31
0.0
  0
LINE
 62
5
  8
cut
 10
410.00000000000006
 20
36.550000000000004
 30
0.0
 11
410.36934978214595
 21
41.24303395120693
 31
0.0
  0
LINE
 62
5
  8
cut
 10
410.36934978214595
 20
31.85696604879308
 30
0.0
 11
410.00000000000006
 21
36.550000000000004
 31
0.0
  0
LINE
 62
5
  8
cut
 10
411.46830451114545
 20
27.279490168751583
 30
0.0
 11
410.36934978214595
 21
31.85696604879308
 31
0.0
  0
LINE
 62
5
  8
cut
 10
413.26980427434904
 20
22.930285007813605
 30
0.0
 11
411.46830451114545
 21
27.279490168751583
 31
0.0
  0
LINE
 62
5
  8
cut
 10
415.7294901687516
 20
18.916442431225807
 30
0.0
 11
413.26980427434904
 21
22.930285007813605
 31
0.0
  0
LINE
 62
5
  8
cut
 10
418.78679656440363
 20
15.336796564403576
 30
0.0
 11
415.7294901687516
 21
18.916442431225807
 31
0.0
  0
LINE
 62
5
  8
cut
 10
422.36644243122583
 20
12.279490168751575
 30
0.0
 11
418.78679656440363
 21
15.336796564403576
 31
0.0
  0
LINE
 62
5
  8
cut
 10
426.38028500781365
 20
9.819804274348966
 30
0.0
 11
422.36644243122583
 21
12.279490168751575
 31
0.0
  0
LINE
 62
5
  8
cut
 10
430.7294901687516
 20
8.018304511145391
 30
0.0
 11
426.38028500781365
 21
9.819804274348966
 31
0.0
  0
LINE
 62
5
  8
cut
 10
435.30696604879313
 20
6.919349782145869
 30
0.0
 11
430.7294901687516
 21
8.018304511145391
 31
0.0
  0
LINE
 62
5
  8
cut
 10
440.00000000000006
 20
6.549999999999998
 30
0.0
 11
435.30696604879313
 21
6.919349782145869
 31
0.0
  0
LINE
 62
5
  8
cut
 10
444.693033951207
 20
6.919349782145866
 30
0.0
 11
440.00000000000006
 21
6.549999999999998
 31
0.0
  0
LINE
 62
5
  8
cut
 10
449.2705098312485
 20
8.01830451114539
 30
0.0
 11
444.693033951207
 21
6.919349782145866
 31
0.0
  0
LINE
 62
5
  8
cut
 10
453.61971499218646
 20
9.819804274348959
 30
0.0
 11
449.2705098312485
 21
8.01830451114539
 31
0.0
  0
LINE
 62
5
  8
cut
 10
457.6335575687742
 20
12.279490168751572
 30
0.0
 11
453.61971499218646
 21
9.819804274348959
 31
0.0
  0
LINE
 62
5
  8
cut
 10
461.2132034355965
 20
15.336796564403569
 30
0.0
 11
457.6335575687742
 21
12.279490168751572
 31
0.0
  0
LINE
 62
5
  8
cut
 10
464.2705098312485
 20
18.916442431225796
 30
0.0
 11
461.2132034355965
 21
15.336796564403569
 31
0.0
  0
LINE
 62
5
  8
cut
 10
466.7301957256511
 20
22.930285007813588
 30
0.0
 11
464.2705098312485
 21
18.916442431225796
 31
0.0
  0
LINE
 62
5
  8
cut
 10
468.53169548885467
 20
27.279490168751572
 30
0.0
 11
466.7301957256511
 21
22.930285007813588
 31
0.0
  0
LINE
 62
5
  8
cut
 10
469.63065021785417
 20
31.85696604879307
 30
0.0
 11
468.53169548885467
 21
27.279490168751572
 31
0.0
  0
ENDSEC
  0
EOF
