<?xml version="1.0" encoding="utf-8" ?>
<svg xmlns="http://www.w3.org/2000/svg" xmlns:ev="http://www.w3.org/2001/xml-events" xmlns:xlink="http://www.w3.org/1999/xlink" baseProfile="full" height="378.600000mm" version="1.1" viewBox="0.000000 0.000000 470.000000 378.600000" width="470.000000mm">
  <defs/>
  <line stroke="#000000" x1="228.00000000000003" x2="202.00000000000003" y1="36.5" y2="36.5"/>
  <line stroke="#000000" x1="280.00000000000006" x2="280.00000000000006" y1="36.599999999999994" y2="36.5"/>
  <line opacity="0.5" stroke="#0000ff" x1="280.00000000000006" x2="150.0" y1="36.599999999999994" y2="36.599999999999994"/>
  <line stroke="#000000" x1="150.0" x2="150.0" y1="36.5" y2="36.599999999999994"/>
  <line stroke="#000000" x1="228.00000000000003" x2="228.00000000000003" y1="16.5" y2="36.5"/>
  <line opacity="0.5" stroke="#0000ff" x1="228.00000000000003" x2="202.00000000000003" y1="16.5" y2="16.5"/>
  <line stroke="#000000" x1="202.00000000000003" x2="202.00000000000003" y1="36.5" y2="16.5"/>
  <line opacity="0.75" stroke="#ff0000" x1="150.0" x2="193.33333333333334" y1="36.5" y2="0.0"/>
  <line stroke="#000000" x1="236.66666666666666" x2="193.33333333333334" y1="0.0" y2="0.0"/>
  <line opacity="0.75" stroke="#ff0000" x1="236.66666666666666" x2="280.00000000000006" y1="0.0" y2="36.5"/>
  <line stroke="#000000" x1="228.00000000000003" x2="228.00000000000003" y1="36.5" y2="16.5"/>
  <line stroke="#000000" x1="202.00000000000003" x2="228.00000000000003" y1="36.5" y2="36.5"/>
  <line stroke="#000000" x1="202.00000000000003" x2="202.00000000000003" y1="16.5" y2="36.5"/>
  <line stroke="#000000" x1="193.33333333333334" x2="150.0" y1="0.0" y2="0.0"/>
  <line stroke="#000000" x1="150.0" x2="150.0" y1="0.0" y2="36.5"/>
  <line stroke="#000000" x1="280.00000000000006" x2="280.00000000000006" y1="36.5" y2="-7.105427357601003e-15"/>
  <line stroke="#000000" x1="280.00000000000006" x2="236.66666666666666" y1="-7.105427357601003e-15" y2="0.0"/>
  <line opacity="0.5" stroke="#0000ff" x1="150.0" x2="150.0" y1="136.60000000000002" y2="36.599999999999994"/>
  <line opacity="0.5" stroke="#0000ff" x1="280.00000000000006" x2="280.00000000000006" y1="136.60000000000002" y2="36.599999999999994"/>
  <line opacity="1.0" stroke="#0000ff" x1="261.00000000000006" x2="280.00000000000006" y1="136.60000000000002" y2="136.60000000000002"/>
  <line stroke="#000000" x1="169.00000000000003" x2="261.00000000000006" y1="136.60000000000002" y2="136.60000000000002"/>
  <line stroke="#000000" x1="150.0" x2="169.00000000000003" y1="136.60000000000002" y2="136.60000000000002"/>
  <line stroke="#000000" x1="150.0" x2="150.0" y1="136.60000000000002" y2="136.60000000000002"/>
  <line stroke="#000000" x1="280.00000000000006" x2="280.00000000000006" y1="136.60000000000002" y2="136.60000000000002"/>
  <line stroke="#000000" x1="261.00000000000006" x2="280.00000000000006" y1="192.60000000000002" y2="192.60000000000002"/>
  <line opacity="0.5" stroke="#ff0000" x1="261.00000000000006" x2="261.00000000000006" y1="192.60000000000002" y2="136.60000000000005"/>
  <line opacity="0.5" stroke="#ff0000" x1="280.00000000000006" x2="280.00000000000006" y1="192.60000000000002" y2="136.60000000000005"/>
  <line stroke="#000000" x1="248.00000000000006" x2="261.00000000000006" y1="192.60000000000002" y2="192.60000000000002"/>
  <line opacity="0.5" stroke="#ff0000" x1="248.00000000000006" x2="248.00000000000006" y1="192.60000000000002" y2="136.60000000000005"/>
  <line stroke="#000000" x1="261.00000000000006" x2="248.00000000000006" y1="136.60000000000005" y2="136.60000000000005"/>
  <line stroke="#000000" x1="229.00000000000003" x2="248.00000000000006" y1="192.60000000000002" y2="192.60000000000002"/>
  <line stroke="#000000" x1="229.00000000000003" x2="229.00000000000003" y1="136.60000000000005" y2="192.60000000000002"/>
  <line stroke="#000000" x1="248.00000000000006" x2="229.00000000000003" y1="136.60000000000005" y2="136.60000000000005"/>
  <line opacity="0.5" stroke="#ff0000" x1="280.00000000000006" x2="293.00000000000006" y1="192.60000000000002" y2="192.60000000000002"/>
  <line stroke="#000000" x1="293.00000000000006" x2="280.00000000000006" y1="136.60000000000005" y2="136.60000000000005"/>
  <line opacity="0.5" stroke="#ff0000" x1="293.00000000000006" x2="293.00000000000006" y1="136.60000000000005" y2="192.60000000000002"/>
  <line opacity="0.5" stroke="#ff0000" x1="293.00000000000006" x2="280.00000000000006" y1="322.6" y2="322.6"/>
  <line opacity="0.5" stroke="#0000ff" x1="280.00000000000006" x2="280.00000000000006" y1="322.6" y2="192.60000000000002"/>
  <line opacity="0.5" stroke="#0000ff" x1="293.00000000000006" x2="293.00000000000006" y1="192.60000000000002" y2="322.6"/>
  <line stroke="#000000" x1="280.00000000000006" x2="293.00000000000006" y1="378.6000000000001" y2="378.6000000000001"/>
  <line opacity="0.5" stroke="#ff0000" x1="280.00000000000006" x2="280.00000000000006" y1="378.6000000000001" y2="322.6"/>
  <line opacity="0.5" stroke="#ff0000" x1="293.00000000000006" x2="293.00000000000006" y1="322.6" y2="378.6000000000001"/>
  <line stroke="#000000" x1="261.00000000000006" x2="280.00000000000006" y1="378.6000000000001" y2="378.6000000000001"/>
  <line opacity="0.5" stroke="#ff0000" x1="261.00000000000006" x2="261.00000000000006" y1="378.6000000000001" y2="322.6"/>
  <line stroke="#000000" x1="280.00000000000006" x2="261.00000000000006" y1="322.6" y2="322.6"/>
  <line stroke="#000000" x1="248.00000000000006" x2="261.00000000000006" y1="378.6000000000001" y2="378.6000000000001"/>
  <line opacity="0.5" stroke="#ff0000" x1="248.00000000000006" x2="248.00000000000006" y1="378.6000000000001" y2="322.6"/>
  <line stroke="#000000" x1="261.00000000000006" x2="248.00000000000006" y1="322.6" y2="322.6"/>
  <line stroke="#000000" x1="229.00000000000003" x2="248.00000000000006" y1="378.6000000000001" y2="378.6000000000001"/>
  <line stroke="#000000" x1="229.00000000000003" x2="229.00000000000003" y1="322.6" y2="378.6000000000001"/>
  <line stroke="#000000" x1="248.00000000000006" x2="229.00000000000003" y1="322.6" y2="322.6"/>
  <line stroke="#000000" x1="303.00000000000006" x2="293.00000000000006" y1="322.6" y2="322.6"/>
  <line stroke="#000000" x1="303.00000000000006" x2="303.00000000000006" y1="378.6000000000001" y2="322.6"/>
  <line stroke="#000000" x1="293.00000000000006" x2="303.00000000000006" y1="378.6000000000001" y2="378.6000000000001"/>
  <line stroke="#000000" x1="236.00000000000003" x2="280.00000000000006" y1="322.6" y2="322.6"/>
  <line opacity="0.5" stroke="#0000ff" x1="236.00000000000003" x2="236.00000000000003" y1="322.6" y2="192.60000000000002"/>
  <line stroke="#000000" x1="280.00000000000006" x2="236.00000000000003" y1="192.60000000000002" y2="192.60000000000002"/>
  <line stroke="#000000" x1="223.0" x2="236.00000000000003" y1="322.6" y2="322.6"/>
  <line opacity="0.5" stroke="#0000ff" x1="223.0" x2="223.0" y1="322.6" y2="192.60000000000002"/>
  <line stroke="#000000" x1="236.00000000000003" x2="223.0" y1="192.60000000000002" y2="192.60000000000002"/>
  <line stroke="#000000" x1="179.00000000000003" x2="223.0" y1="322.6" y2="322.6"/>
  <line stroke="#000000" x1="179.00000000000003" x2="179.00000000000003" y1="192.60000000000002" y2="322.6"/>
  <line stroke="#000000" x1="223.0" x2="179.00000000000003" y1="192.60000000000002" y2="192.60000000000002"/>
  <line stroke="#000000" x1="303.00000000000006" x2="293.00000000000006" y1="192.60000000000002" y2="192.60000000000002"/>
  <line stroke="#000000" x1="303.00000000000006" x2="303.00000000000006" y1="322.6" y2="192.60000000000002"/>
  <line stroke="#000000" x1="293.00000000000006" x2="303.00000000000006" y1="322.6" y2="322.6"/>
  <line stroke="#000000" x1="303.00000000000006" x2="293.00000000000006" y1="136.60000000000005" y2="136.60000000000005"/>
  <line stroke="#000000" x1="303.00000000000006" x2="303.00000000000006" y1="192.60000000000002" y2="136.60000000000005"/>
  <line stroke="#000000" x1="293.00000000000006" x2="303.00000000000006" y1="192.60000000000002" y2="192.60000000000002"/>
  <line stroke="#000000" x1="130.0" x2="150.0" y1="136.60000000000002" y2="136.60000000000002"/>
  <line opacity="0.5" stroke="#0000ff" x1="130.0" x2="130.0" y1="136.60000000000002" y2="36.599999999999994"/>
  <line stroke="#000000" x1="150.0" x2="130.0" y1="36.599999999999994" y2="36.599999999999994"/>
  <line stroke="#000000" x1="0.0" x2="130.0" y1="136.60000000000002" y2="136.60000000000002"/>
  <line stroke="#000000" x1="0.0" x2="0.0" y1="36.599999999999994" y2="136.60000000000002"/>
  <line stroke="#000000" x1="52.00000000000001" x2="0.0" y1="36.599999999999994" y2="36.599999999999994"/>
  <line stroke="#000000" x1="78.00000000000001" x2="52.00000000000001" y1="36.599999999999994" y2="36.599999999999994"/>
  <line stroke="#000000" x1="130.0" x2="78.00000000000001" y1="36.599999999999994" y2="36.599999999999994"/>
  <line stroke="#000000" x1="130.0" x2="130.0" y1="36.599999999999994" y2="36.599999999999994"/>
  <line stroke="#000000" x1="0.0" x2="0.0" y1="36.599999999999994" y2="36.599999999999994"/>
  <line stroke="#000000" x1="280.00000000000006" x2="300.0" y1="136.60000000000002" y2="136.60000000000002"/>
  <line stroke="#000000" x1="300.0" x2="280.00000000000006" y1="36.599999999999994" y2="36.599999999999994"/>
  <line opacity="0.5" stroke="#0000ff" x1="300.0" x2="300.0" y1="36.599999999999994" y2="136.60000000000002"/>
  <line stroke="#000000" x1="310.0" x2="300.0" y1="36.599999999999994" y2="36.599999999999994"/>
  <line stroke="#000000" x1="310.0" x2="310.0" y1="136.60000000000002" y2="36.599999999999994"/>
  <line stroke="#000000" x1="300.0" x2="310.0" y1="136.60000000000002" y2="136.60000000000002"/>
  <line stroke="#888888" x1="219.33333333333334" x2="210.66666666666669" y1="21.5" y2="21.5"/>
  <line stroke="#888888" x1="210.66666666666669" x2="210.66666666666669" y1="21.5" y2="31.5"/>
  <line stroke="#888888" x1="210.66666666666669" x2="219.33333333333337" y1="31.5" y2="31.5"/>
  <line stroke="#888888" x1="223.0" x2="219.00000000000003" y1="56.1" y2="56.1"/>
  <line stroke="#888888" x1="219.00000000000003" x2="219.00000000000003" y1="56.1" y2="47.1"/>
  <line stroke="#888888" x1="219.00000000000003" x2="223.0" y1="47.1" y2="47.1"/>
  <line stroke="#888888" x1="223.0" x2="223.0" y1="47.1" y2="56.1"/>
  <line stroke="#888888" x1="249.75000000000003" x2="222.75000000000003" y1="79.85" y2="79.85"/>
  <line stroke="#888888" x1="222.75000000000003" x2="222.75000000000003" y1="79.85" y2="71.85"/>
  <line stroke="#888888" x1="222.75000000000003" x2="249.75000000000003" y1="71.85" y2="71.85"/>
  <line stroke="#888888" x1="249.75000000000003" x2="249.75000000000003" y1="71.85" y2="79.85"/>
  <line stroke="#888888" x1="229.47000000000003" x2="226.47" y1="64.03" y2="64.03"/>
  <line stroke="#888888" x1="226.47" x2="226.47" y1="64.03" y2="61.029999999999994"/>
  <line stroke="#888888" x1="226.47" x2="229.47000000000003" y1="61.029999999999994" y2="61.029999999999994"/>
  <line stroke="#888888" x1="229.47000000000003" x2="229.47000000000003" y1="61.029999999999994" y2="64.03"/>
  <line stroke="#888888" x1="228.47000000000003" x2="227.47000000000003" y1="40.169999999999995" y2="40.169999999999995"/>
  <line stroke="#888888" x1="227.47000000000003" x2="227.47000000000003" y1="40.169999999999995" y2="39.16999999999999"/>
  <line stroke="#888888" x1="227.47000000000003" x2="228.47000000000003" y1="39.16999999999999" y2="39.16999999999999"/>
  <line stroke="#888888" x1="228.47000000000003" x2="228.47000000000003" y1="39.16999999999999" y2="40.169999999999995"/>
  <line stroke="#888888" x1="231.01000000000002" x2="230.01000000000002" y1="63.029999999999994" y2="63.029999999999994"/>
  <line stroke="#888888" x1="230.01000000000002" x2="230.01000000000002" y1="63.029999999999994" y2="62.029999999999994"/>
  <line stroke="#888888" x1="230.01000000000002" x2="231.01000000000002" y1="62.029999999999994" y2="62.029999999999994"/>
  <line stroke="#888888" x1="231.01000000000002" x2="231.01000000000002" y1="62.029999999999994" y2="63.029999999999994"/>
  <line stroke="#888888" x1="231.01000000000002" x2="230.01000000000002" y1="40.169999999999995" y2="40.169999999999995"/>
  <line stroke="#888888" x1="230.01000000000002" x2="230.01000000000002" y1="40.169999999999995" y2="39.16999999999999"/>
  <line stroke="#888888" x1="230.01000000000002" x2="231.01000000000002" y1="39.16999999999999" y2="39.16999999999999"/>
  <line stroke="#888888" x1="231.01000000000002" x2="231.01000000000002" y1="39.16999999999999" y2="40.169999999999995"/>
  <line stroke="#888888" x1="233.55000000000004" x2="232.55000000000004" y1="63.029999999999994" y2="63.029999999999994"/>
  <line stroke="#888888" x1="232.55000000000004" x2="232.55000000000004" y1="63.029999999999994" y2="62.029999999999994"/>
  <line stroke="#888888" x1="232.55000000000004" x2="233.55000000000004" y1="62.029999999999994" y2="62.029999999999994"/>
  <line stroke="#888888" x1="233.55000000000004" x2="233.55000000000004" y1="62.029999999999994" y2="63.029999999999994"/>
  <line stroke="#888888" x1="233.55000000000004" x2="232.55000000000004" y1="40.169999999999995" y2="40.169999999999995"/>
  <line stroke="#888888" x1="232.55000000000004" x2="232.55000000000004" y1="40.169999999999995" y2="39.16999999999999"/>
  <line stroke="#888888" x1="232.55000000000004" x2="233.55000000000004" y1="39.16999999999999" y2="39.16999999999999"/>
  <line stroke="#888888" x1="233.55000000000004" x2="233.55000000000004" y1="39.16999999999999" y2="40.169999999999995"/>
  <line stroke="#888888" x1="236.09000000000003" x2="235.09000000000003" y1="63.029999999999994" y2="63.029999999999994"/>
  <line stroke="#888888" x1="235.09000000000003" x2="235.09000000000003" y1="63.029999999999994" y2="62.029999999999994"/>
  <line stroke="#888888" x1="235.09000000000003" x2="236.09000000000003" y1="62.029999999999994" y2="62.029999999999994"/>
  <line stroke="#888888" x1="236.09000000000003" x2="236.09000000000003" y1="62.029999999999994" y2="63.029999999999994"/>
  <line stroke="#888888" x1="236.09000000000003" x2="235.09000000000003" y1="40.169999999999995" y2="40.169999999999995"/>
  <line stroke="#888888" x1="235.09000000000003" x2="235.09000000000003" y1="40.169999999999995" y2="39.16999999999999"/>
  <line stroke="#888888" x1="235.09000000000003" x2="236.09000000000003" y1="39.16999999999999" y2="39.16999999999999"/>
  <line stroke="#888888" x1="236.09000000000003" x2="236.09000000000003" y1="39.16999999999999" y2="40.169999999999995"/>
  <line stroke="#888888" x1="238.63000000000002" x2="237.63000000000002" y1="63.029999999999994" y2="63.029999999999994"/>
  <line stroke="#888888" x1="237.63000000000002" x2="237.63000000000002" y1="63.029999999999994" y2="62.029999999999994"/>
  <line stroke="#888888" x1="237.63000000000002" x2="238.63000000000002" y1="62.029999999999994" y2="62.029999999999994"/>
  <line stroke="#888888" x1="238.63000000000002" x2="238.63000000000002" y1="62.029999999999994" y2="63.029999999999994"/>
  <line stroke="#888888" x1="238.63000000000002" x2="237.63000000000002" y1="40.169999999999995" y2="40.169999999999995"/>
  <line stroke="#888888" x1="237.63000000000002" x2="237.63000000000002" y1="40.169999999999995" y2="39.16999999999999"/>
  <line stroke="#888888" x1="237.63000000000002" x2="238.63000000000002" y1="39.16999999999999" y2="39.16999999999999"/>
  <line stroke="#888888" x1="238.63000000000002" x2="238.63000000000002" y1="39.16999999999999" y2="40.169999999999995"/>
  <line stroke="#888888" x1="241.17000000000004" x2="240.17000000000004" y1="63.029999999999994" y2="63.029999999999994"/>
  <line stroke="#888888" x1="240.17000000000004" x2="240.17000000000004" y1="63.029999999999994" y2="62.029999999999994"/>
  <line stroke="#888888" x1="240.17000000000004" x2="241.17000000000004" y1="62.029999999999994" y2="62.029999999999994"/>
  <line stroke="#888888" x1="241.17000000000004" x2="241.17000000000004" y1="62.029999999999994" y2="63.029999999999994"/>
  <line stroke="#888888" x1="241.17000000000004" x2="240.17000000000004" y1="40.169999999999995" y2="40.169999999999995"/>
  <line stroke="#888888" x1="240.17000000000004" x2="240.17000000000004" y1="40.169999999999995" y2="39.16999999999999"/>
  <line stroke="#888888" x1="240.17000000000004" x2="241.17000000000004" y1="39.16999999999999" y2="39.16999999999999"/>
  <line stroke="#888888" x1="241.17000000000004" x2="241.17000000000004" y1="39.16999999999999" y2="40.169999999999995"/>
  <line stroke="#888888" x1="243.71000000000004" x2="242.71000000000004" y1="63.029999999999994" y2="63.029999999999994"/>
  <line stroke="#888888" x1="242.71000000000004" x2="242.71000000000004" y1="63.029999999999994" y2="62.029999999999994"/>
  <line stroke="#888888" x1="242.71000000000004" x2="243.71000000000004" y1="62.029999999999994" y2="62.029999999999994"/>
  <line stroke="#888888" x1="243.71000000000004" x2="243.71000000000004" y1="62.029999999999994" y2="63.029999999999994"/>
  <line stroke="#888888" x1="243.71000000000004" x2="242.71000000000004" y1="40.169999999999995" y2="40.169999999999995"/>
  <line stroke="#888888" x1="242.71000000000004" x2="242.71000000000004" y1="40.169999999999995" y2="39.16999999999999"/>
  <line stroke="#888888" x1="242.71000000000004" x2="243.71000000000004" y1="39.16999999999999" y2="39.16999999999999"/>
  <line stroke="#888888" x1="243.71000000000004" x2="243.71000000000004" y1="39.16999999999999" y2="40.169999999999995"/>
  <line stroke="#888888" x1="246.25000000000003" x2="245.25000000000003" y1="63.029999999999994" y2="63.029999999999994"/>
  <line stroke="#888888" x1="245.25000000000003" x2="245.25000000000003" y1="63.029999999999994" y2="62.029999999999994"/>
  <line stroke="#888888" x1="245.25000000000003" x2="246.25000000000003" y1="62.029999999999994" y2="62.029999999999994"/>
  <line stroke="#888888" x1="246.25000000000003" x2="246.25000000000003" y1="62.029999999999994" y2="63.029999999999994"/>
  <line stroke="#888888" x1="246.25000000000003" x2="245.25000000000003" y1="40.169999999999995" y2="40.169999999999995"/>
  <line stroke="#888888" x1="245.25000000000003" x2="245.25000000000003" y1="40.169999999999995" y2="39.16999999999999"/>
  <line stroke="#888888" x1="245.25000000000003" x2="246.25000000000003" y1="39.16999999999999" y2="39.16999999999999"/>
  <line stroke="#888888" x1="246.25000000000003" x2="246.25000000000003" y1="39.16999999999999" y2="40.169999999999995"/>
  <line stroke="#888888" x1="248.79000000000002" x2="247.79000000000002" y1="63.029999999999994" y2="63.029999999999994"/>
  <line stroke="#888888" x1="247.79000000000002" x2="247.79000000000002" y1="63.029999999999994" y2="62.029999999999994"/>
  <line stroke="#888888" x1="247.79000000000002" x2="248.79000000000002" y1="62.029999999999994" y2="62.029999999999994"/>
  <line stroke="#888888" x1="248.79000000000002" x2="248.79000000000002" y1="62.029999999999994" y2="63.029999999999994"/>
  <line stroke="#888888" x1="248.79000000000002" x2="247.79000000000002" y1="40.169999999999995" y2="40.169999999999995"/>
  <line stroke="#888888" x1="247.79000000000002" x2="247.79000000000002" y1="40.169999999999995" y2="39.16999999999999"/>
  <line stroke="#888888" x1="247.79000000000002" x2="248.79000000000002" y1="39.16999999999999" y2="39.16999999999999"/>
  <line stroke="#888888" x1="248.79000000000002" x2="248.79000000000002" y1="39.16999999999999" y2="40.169999999999995"/>
  <line stroke="#888888" x1="251.33" x2="250.33" y1="63.029999999999994" y2="63.029999999999994"/>
  <line stroke="#888888" x1="250.33" x2="250.33" y1="63.029999999999994" y2="62.029999999999994"/>
  <line stroke="#888888" x1="250.33" x2="251.33" y1="62.029999999999994" y2="62.029999999999994"/>
  <line stroke="#888888" x1="251.33" x2="251.33" y1="62.029999999999994" y2="63.029999999999994"/>
  <line stroke="#888888" x1="251.33" x2="250.33" y1="40.169999999999995" y2="40.169999999999995"/>
  <line stroke="#888888" x1="250.33" x2="250.33" y1="40.169999999999995" y2="39.16999999999999"/>
  <line stroke="#888888" x1="250.33" x2="251.33" y1="39.16999999999999" y2="39.16999999999999"/>
  <line stroke="#888888" x1="251.33" x2="251.33" y1="39.16999999999999" y2="40.169999999999995"/>
  <line stroke="#888888" x1="253.87000000000003" x2="252.87000000000003" y1="63.029999999999994" y2="63.029999999999994"/>
  <line stroke="#888888" x1="252.87000000000003" x2="252.87000000000003" y1="63.029999999999994" y2="62.029999999999994"/>
  <line stroke="#888888" x1="252.87000000000003" x2="253.87000000000003" y1="62.029999999999994" y2="62.029999999999994"/>
  <line stroke="#888888" x1="253.87000000000003" x2="253.87000000000003" y1="62.029999999999994" y2="63.029999999999994"/>
  <line stroke="#888888" x1="253.87000000000003" x2="252.87000000000003" y1="40.169999999999995" y2="40.169999999999995"/>
  <line stroke="#888888" x1="252.87000000000003" x2="252.87000000000003" y1="40.169999999999995" y2="39.16999999999999"/>
  <line stroke="#888888" x1="252.87000000000003" x2="253.87000000000003" y1="39.16999999999999" y2="39.16999999999999"/>
  <line stroke="#888888" x1="253.87000000000003" x2="253.87000000000003" y1="39.16999999999999" y2="40.169999999999995"/>
  <line stroke="#888888" x1="256.40999999999997" x2="255.41000000000003" y1="63.029999999999994" y2="63.029999999999994"/>
  <line stroke="#888888" x1="255.41000000000003" x2="255.41000000000003" y1="63.029999999999994" y2="62.029999999999994"/>
  <line stroke="#888888" x1="255.41000000000003" x2="256.40999999999997" y1="62.029999999999994" y2="62.029999999999994"/>
  <line stroke="#888888" x1="256.40999999999997" x2="256.40999999999997" y1="62.029999999999994" y2="63.029999999999994"/>
  <line stroke="#888888" x1="256.40999999999997" x2="255.41000000000003" y1="40.169999999999995" y2="40.169999999999995"/>
  <line stroke="#888888" x1="255.41000000000003" x2="255.41000000000003" y1="40.169999999999995" y2="39.16999999999999"/>
  <line stroke="#888888" x1="255.41000000000003" x2="256.40999999999997" y1="39.16999999999999" y2="39.16999999999999"/>
  <line stroke="#888888" x1="256.40999999999997" x2="256.40999999999997" y1="39.16999999999999" y2="40.169999999999995"/>
  <line stroke="#888888" x1="258.95000000000005" x2="257.95" y1="63.029999999999994" y2="63.029999999999994"/>
  <line stroke="#888888" x1="257.95" x2="257.95" y1="63.029999999999994" y2="62.029999999999994"/>
  <line stroke="#888888" x1="257.95" x2="258.95000000000005" y1="62.029999999999994" y2="62.029999999999994"/>
  <line stroke="#888888" x1="258.95000000000005" x2="258.95000000000005" y1="62.029999999999994" y2="63.029999999999994"/>
  <line stroke="#888888" x1="258.95000000000005" x2="257.95" y1="40.169999999999995" y2="40.169999999999995"/>
  <line stroke="#888888" x1="257.95" x2="257.95" y1="40.169999999999995" y2="39.16999999999999"/>
  <line stroke="#888888" x1="257.95" x2="258.95000000000005" y1="39.16999999999999" y2="39.16999999999999"/>
  <line stroke="#888888" x1="258.95000000000005" x2="258.95000000000005" y1="39.16999999999999" y2="40.169999999999995"/>
  <line stroke="#888888" x1="261.49" x2="260.49000000000007" y1="63.029999999999994" y2="63.029999999999994"/>
  <line stroke="#888888" x1="260.49000000000007" x2="260.49000000000007" y1="63.029999999999994" y2="62.029999999999994"/>
  <line stroke="#888888" x1="260.49000000000007" x2="261.49" y1="62.029999999999994" y2="62.029999999999994"/>
  <line stroke="#888888" x1="261.49" x2="261.49" y1="62.029999999999994" y2="63.029999999999994"/>
  <line stroke="#888888" x1="261.49" x2="260.49000000000007" y1="40.169999999999995" y2="40.169999999999995"/>
  <line stroke="#888888" x1="260.49000000000007" x2="260.49000000000007" y1="40.169999999999995" y2="39.16999999999999"/>
  <line stroke="#888888" x1="260.49000000000007" x2="261.49" y1="39.16999999999999" y2="39.16999999999999"/>
  <line stroke="#888888" x1="261.49" x2="261.49" y1="39.16999999999999" y2="40.169999999999995"/>
  <line stroke="#888888" x1="264.03000000000003" x2="263.03" y1="63.029999999999994" y2="63.029999999999994"/>
  <line stroke="#888888" x1="263.03" x2="263.03" y1="63.029999999999994" y2="62.029999999999994"/>
  <line stroke="#888888" x1="263.03" x2="264.03000000000003" y1="62.029999999999994" y2="62.029999999999994"/>
  <line stroke="#888888" x1="264.03000000000003" x2="264.03000000000003" y1="62.029999999999994" y2="63.029999999999994"/>
  <line stroke="#888888" x1="265.03000000000003" x2="262.03000000000003" y1="41.169999999999995" y2="41.169999999999995"/>
  <line stroke="#888888" x1="262.03000000000003" x2="262.03000000000003" y1="41.169999999999995" y2="38.16999999999999"/>
  <line stroke="#888888" x1="262.03000000000003" x2="265.03000000000003" y1="38.16999999999999" y2="38.16999999999999"/>
  <line stroke="#888888" x1="265.03000000000003" x2="265.03000000000003" y1="38.16999999999999" y2="41.169999999999995"/>
  <line stroke="#888888" x1="236.75000000000003" x2="236.75000000000003" y1="155.01666666666668" y2="174.18333333333334"/>
  <line stroke="#888888" x1="236.75000000000003" x2="236.25000000000003" y1="174.18333333333334" y2="174.18333333333334"/>
  <line stroke="#888888" x1="236.25000000000003" x2="236.25000000000003" y1="174.18333333333334" y2="155.01666666666668"/>
  <line stroke="#888888" x1="236.25000000000003" x2="236.75000000000003" y1="155.01666666666668" y2="155.01666666666668"/>
  <line stroke="#888888" x1="292.93500000000006" x2="280.06500000000005" y1="164.60000000000005" y2="164.60000000000005"/>
  <line stroke="#888888" x1="280.06500000000005" x2="280.06500000000005" y1="164.60000000000005" y2="141.60000000000005"/>
  <line stroke="#888888" x1="280.06500000000005" x2="292.93500000000006" y1="141.60000000000005" y2="141.60000000000005"/>
  <line stroke="#888888" x1="292.93500000000006" x2="292.93500000000006" y1="141.60000000000005" y2="164.60000000000005"/>
  <line stroke="#888888" x1="292.93500000000006" x2="280.06500000000005" y1="373.6000000000001" y2="373.6000000000001"/>
  <line stroke="#888888" x1="280.06500000000005" x2="280.06500000000005" y1="373.6000000000001" y2="350.6000000000001"/>
  <line stroke="#888888" x1="280.06500000000005" x2="292.93500000000006" y1="350.6000000000001" y2="350.6000000000001"/>
  <line stroke="#888888" x1="292.93500000000006" x2="292.93500000000006" y1="350.6000000000001" y2="373.6000000000001"/>
  <line stroke="#888888" x1="236.75000000000003" x2="236.75000000000003" y1="341.01666666666677" y2="360.1833333333334"/>
  <line stroke="#888888" x1="236.75000000000003" x2="236.25000000000003" y1="360.1833333333334" y2="360.1833333333334"/>
  <line stroke="#888888" x1="236.25000000000003" x2="236.25000000000003" y1="360.1833333333334" y2="341.01666666666677"/>
  <line stroke="#888888" x1="236.25000000000003" x2="236.75000000000003" y1="341.01666666666677" y2="341.01666666666677"/>
  <line stroke="#888888" x1="300.5" x2="300.5" y1="359.9333333333334" y2="364.9333333333334"/>
  <line stroke="#888888" x1="300.5" x2="295.5" y1="364.9333333333334" y2="359.9333333333334"/>
  <line stroke="#888888" x1="295.5" x2="295.5" y1="359.9333333333334" y2="341.26666666666677"/>
  <line stroke="#888888" x1="295.5" x2="300.5" y1="341.26666666666677" y2="336.2666666666667"/>
  <line stroke="#888888" x1="300.5" x2="300.5" y1="336.2666666666667" y2="341.26666666666677"/>
  <line stroke="#888888" x1="279.25000000000006" x2="279.25000000000006" y1="222.85000000000005" y2="249.85000000000005"/>
  <line stroke="#888888" x1="279.25000000000006" x2="271.25000000000006" y1="249.85000000000005" y2="249.85000000000005"/>
  <line stroke="#888888" x1="271.25000000000006" x2="271.25000000000006" y1="249.85000000000005" y2="222.85000000000005"/>
  <line stroke="#888888" x1="271.25000000000006" x2="279.25000000000006" y1="222.85000000000005" y2="222.85000000000005"/>
  <line stroke="#888888" x1="263.43000000000006" x2="263.43000000000006" y1="243.13000000000002" y2="246.13000000000002"/>
  <line stroke="#888888" x1="263.43000000000006" x2="260.43000000000006" y1="246.13000000000002" y2="246.13000000000002"/>
  <line stroke="#888888" x1="260.43000000000006" x2="260.43000000000006" y1="246.13000000000002" y2="243.13000000000002"/>
  <line stroke="#888888" x1="260.43000000000006" x2="263.43000000000006" y1="243.13000000000002" y2="243.13000000000002"/>
  <line stroke="#888888" x1="239.57000000000002" x2="239.57000000000002" y1="244.13000000000002" y2="245.13000000000002"/>
  <line stroke="#888888" x1="239.57000000000002" x2="238.57000000000002" y1="245.13000000000002" y2="245.13000000000002"/>
  <line stroke="#888888" x1="238.57000000000002" x2="238.57000000000002" y1="245.13000000000002" y2="244.13000000000002"/>
  <line stroke="#888888" x1="238.57000000000002" x2="239.57000000000002" y1="244.13000000000002" y2="244.13000000000002"/>
  <line stroke="#888888" x1="262.43000000000006" x2="262.43000000000006" y1="241.59000000000006" y2="242.59000000000006"/>
  <line stroke="#888888" x1="262.43000000000006" x2="261.43" y1="242.59000000000006" y2="242.59000000000006"/>
  <line stroke="#888888" x1="261.43" x2="261.43" y1="242.59000000000006" y2="241.59000000000006"/>
  <line stroke="#888888" x1="261.43" x2="262.43000000000006" y1="241.59000000000006" y2="241.59000000000006"/>
  <line stroke="#888888" x1="239.57000000000002" x2="239.57000000000002" y1="241.59000000000006" y2="242.59000000000006"/>
  <line stroke="#888888" x1="239.57000000000002" x2="238.57000000000002" y1="242.59000000000006" y2="242.59000000000006"/>
  <line stroke="#888888" x1="238.57000000000002" x2="238.57000000000002" y1="242.59000000000006" y2="241.59000000000006"/>
  <line stroke="#888888" x1="238.57000000000002" x2="239.57000000000002" y1="241.59000000000006" y2="241.59000000000006"/>
  <line stroke="#888888" x1="262.43000000000006" x2="262.43000000000006" y1="239.05000000000004" y2="240.05000000000004"/>
  <line stroke="#888888" x1="262.43000000000006" x2="261.43" y1="240.05000000000004" y2="240.05000000000004"/>
  <line stroke="#888888" x1="261.43" x2="261.43" y1="240.05000000000004" y2="239.05000000000004"/>
  <line stroke="#888888" x1="261.43" x2="262.43000000000006" y1="239.05000000000004" y2="239.05000000000004"/>
  <line stroke="#888888" x1="239.57000000000002" x2="239.57000000000002" y1="239.05000000000004" y2="240.05000000000004"/>
  <line stroke="#888888" x1="239.57000000000002" x2="238.57000000000002" y1="240.05000000000004" y2="240.05000000000004"/>
  <line stroke="#888888" x1="238.57000000000002" x2="238.57000000000002" y1="240.05000000000004" y2="239.05000000000004"/>
  <line stroke="#888888" x1="238.57000000000002" x2="239.57000000000002" y1="239.05000000000004" y2="239.05000000000004"/>
  <line stroke="#888888" x1="262.43000000000006" x2="262.43000000000006" y1="236.51000000000002" y2="237.51000000000002"/>
  <line stroke="#888888" x1="262.43000000000006" x2="261.43" y1="237.51000000000002" y2="237.51000000000002"/>
  <line stroke="#888888" x1="261.43" x2="261.43" y1="237.51000000000002" y2="236.51000000000002"/>
  <line stroke="#888888" x1="261.43" x2="262.43000000000006" y1="236.51000000000002" y2="236.51000000000002"/>
  <line stroke="#888888" x1="239.57000000000002" x2="239.57000000000002" y1="236.51000000000002" y2="237.51000000000002"/>
  <line stroke="#888888" x1="239.57000000000002" x2="238.57000000000002" y1="237.51000000000002" y2="237.51000000000002"/>
  <line stroke="#888888" x1="238.57000000000002" x2="238.57000000000002" y1="237.51000000000002" y2="236.51000000000002"/>
  <line stroke="#888888" x1="238.57000000000002" x2="239.57000000000002" y1="236.51000000000002" y2="236.51000000000002"/>
  <line stroke="#888888" x1="262.43000000000006" x2="262.43000000000006" y1="233.97000000000006" y2="234.97000000000006"/>
  <line stroke="#888888" x1="262.43000000000006" x2="261.43" y1="234.97000000000006" y2="234.97000000000006"/>
  <line stroke="#888888" x1="261.43" x2="261.43" y1="234.97000000000006" y2="233.97000000000006"/>
  <line stroke="#888888" x1="261.43" x2="262.43000000000006" y1="233.97000000000006" y2="233.97000000000006"/>
  <line stroke="#888888" x1="239.57000000000002" x2="239.57000000000002" y1="233.97000000000006" y2="234.97000000000006"/>
  <line stroke="#888888" x1="239.57000000000002" x2="238.57000000000002" y1="234.97000000000006" y2="234.97000000000006"/>
  <line stroke="#888888" x1="238.57000000000002" x2="238.57000000000002" y1="234.97000000000006" y2="233.97000000000006"/>
  <line stroke="#888888" x1="238.57000000000002" x2="239.57000000000002" y1="233.97000000000006" y2="233.97000000000006"/>
  <line stroke="#888888" x1="262.43000000000006" x2="262.43000000000006" y1="231.43000000000004" y2="232.43000000000004"/>
  <line stroke="#888888" x1="262.43000000000006" x2="261.43" y1="232.43000000000004" y2="232.43000000000004"/>
  <line stroke="#888888" x1="261.43" x2="261.43" y1="232.43000000000004" y2="231.43000000000004"/>
  <line stroke="#888888" x1="261.43" x2="262.43000000000006" y1="231.43000000000004" y2="231.43000000000004"/>
  <line stroke="#888888" x1="239.57000000000002" x2="239.57000000000002" y1="231.43000000000004" y2="232.43000000000004"/>
  <line stroke="#888888" x1="239.57000000000002" x2="238.57000000000002" y1="232.43000000000004" y2="232.43000000000004"/>
  <line stroke="#888888" x1="238.57000000000002" x2="238.57000000000002" y1="232.43000000000004" y2="231.43000000000004"/>
  <line stroke="#888888" x1="238.57000000000002" x2="239.57000000000002" y1="231.43000000000004" y2="231.43000000000004"/>
  <line stroke="#888888" x1="262.43000000000006" x2="262.43000000000006" y1="228.89000000000001" y2="229.89000000000001"/>
  <line stroke="#888888" x1="262.43000000000006" x2="261.43" y1="229.89000000000001" y2="229.89000000000001"/>
  <line stroke="#888888" x1="261.43" x2="261.43" y1="229.89000000000001" y2="228.89000000000001"/>
  <line stroke="#888888" x1="261.43" x2="262.43000000000006" y1="228.89000000000001" y2="228.89000000000001"/>
  <line stroke="#888888" x1="239.57000000000002" x2="239.57000000000002" y1="228.89000000000001" y2="229.89000000000001"/>
  <line stroke="#888888" x1="239.57000000000002" x2="238.57000000000002" y1="229.89000000000001" y2="229.89000000000001"/>
  <line stroke="#888888" x1="238.57000000000002" x2="238.57000000000002" y1="229.89000000000001" y2="228.89000000000001"/>
  <line stroke="#888888" x1="238.57000000000002" x2="239.57000000000002" y1="228.89000000000001" y2="228.89000000000001"/>
  <line stroke="#888888" x1="262.43000000000006" x2="262.43000000000006" y1="226.35000000000005" y2="227.35000000000005"/>
  <line stroke="#888888" x1="262.43000000000006" x2="261.43" y1="227.35000000000005" y2="227.35000000000005"/>
  <line stroke="#888888" x1="261.43" x2="261.43" y1="227.35000000000005" y2="226.35000000000005"/>
  <line stroke="#888888" x1="261.43" x2="262.43000000000006" y1="226.35000000000005" y2="226.35000000000005"/>
  <line stroke="#888888" x1="239.57000000000002" x2="239.57000000000002" y1="226.35000000000005" y2="227.35000000000005"/>
  <line stroke="#888888" x1="239.57000000000002" x2="238.57000000000002" y1="227.35000000000005" y2="227.35000000000005"/>
  <line stroke="#888888" x1="238.57000000000002" x2="238.57000000000002" y1="227.35000000000005" y2="226.35000000000005"/>
  <line stroke="#888888" x1="238.57000000000002" x2="239.57000000000002" y1="226.35000000000005" y2="226.35000000000005"/>
  <line stroke="#888888" x1="262.43000000000006" x2="262.43000000000006" y1="223.81000000000003" y2="224.81000000000003"/>
  <line stroke="#888888" x1="262.43000000000006" x2="261.43" y1="224.81000000000003" y2="224.81000000000003"/>
  <line stroke="#888888" x1="261.43" x2="261.43" y1="224.81000000000003" y2="223.81000000000003"/>
  <line stroke="#888888" x1="261.43" x2="262.43000000000006" y1="223.81000000000003" y2="223.81000000000003"/>
  <line stroke="#888888" x1="239.57000000000002" x2="239.57000000000002" y1="223.81000000000003" y2="224.81000000000003"/>
  <line stroke="#888888" x1="239.57000000000002" x2="238.57000000000002" y1="224.81000000000003" y2="224.81000000000003"/>
  <line stroke="#888888" x1="238.57000000000002" x2="238.57000000000002" y1="224.81000000000003" y2="223.81000000000003"/>
  <line stroke="#888888" x1="238.57000000000002" x2="239.57000000000002" y1="223.81000000000003" y2="223.81000000000003"/>
  <line stroke="#888888" x1="262.43000000000006" x2="262.43000000000006" y1="221.27000000000004" y2="222.27000000000007"/>
  <line stroke="#888888" x1="262.43000000000006" x2="261.43" y1="222.27000000000007" y2="222.27000000000007"/>
  <line stroke="#888888" x1="261.43" x2="261.43" y1="222.27000000000007" y2="221.27000000000004"/>
  <line stroke="#888888" x1="261.43" x2="262.43000000000006" y1="221.27000000000004" y2="221.27000000000004"/>
  <line stroke="#888888" x1="239.57000000000002" x2="239.57000000000002" y1="221.27000000000004" y2="222.27000000000007"/>
  <line stroke="#888888" x1="239.57000000000002" x2="238.57000000000002" y1="222.27000000000007" y2="222.27000000000007"/>
  <line stroke="#888888" x1="238.57000000000002" x2="238.57000000000002" y1="222.27000000000007" y2="221.27000000000004"/>
  <line stroke="#888888" x1="238.57000000000002" x2="239.57000000000002" y1="221.27000000000004" y2="221.27000000000004"/>
  <line stroke="#888888" x1="262.43000000000006" x2="262.43000000000006" y1="218.73000000000005" y2="219.73000000000005"/>
  <line stroke="#888888" x1="262.43000000000006" x2="261.43" y1="219.73000000000005" y2="219.73000000000005"/>
  <line stroke="#888888" x1="261.43" x2="261.43" y1="219.73000000000005" y2="218.73000000000005"/>
  <line stroke="#888888" x1="261.43" x2="262.43000000000006" y1="218.73000000000005" y2="218.73000000000005"/>
  <line stroke="#888888" x1="239.57000000000002" x2="239.57000000000002" y1="218.73000000000005" y2="219.73000000000005"/>
  <line stroke="#888888" x1="239.57000000000002" x2="238.57000000000002" y1="219.73000000000005" y2="219.73000000000005"/>
  <line stroke="#888888" x1="238.57000000000002" x2="238.57000000000002" y1="219.73000000000005" y2="218.73000000000005"/>
  <line stroke="#888888" x1="238.57000000000002" x2="239.57000000000002" y1="218.73000000000005" y2="218.73000000000005"/>
  <line stroke="#888888" x1="262.43000000000006" x2="262.43000000000006" y1="216.19" y2="217.19000000000003"/>
  <line stroke="#888888" x1="262.43000000000006" x2="261.43" y1="217.19000000000003" y2="217.19000000000003"/>
  <line stroke="#888888" x1="261.43" x2="261.43" y1="217.19000000000003" y2="216.19"/>
  <line stroke="#888888" x1="261.43" x2="262.43000000000006" y1="216.19" y2="216.19"/>
  <line stroke="#888888" x1="239.57000000000002" x2="239.57000000000002" y1="216.19" y2="217.19000000000003"/>
  <line stroke="#888888" x1="239.57000000000002" x2="238.57000000000002" y1="217.19000000000003" y2="217.19000000000003"/>
  <line stroke="#888888" x1="238.57000000000002" x2="238.57000000000002" y1="217.19000000000003" y2="216.19"/>
  <line stroke="#888888" x1="238.57000000000002" x2="239.57000000000002" y1="216.19" y2="216.19"/>
  <line stroke="#888888" x1="262.43000000000006" x2="262.43000000000006" y1="213.65000000000006" y2="214.65000000000003"/>
  <line stroke="#888888" x1="262.43000000000006" x2="261.43" y1="214.65000000000003" y2="214.65000000000003"/>
  <line stroke="#888888" x1="261.43" x2="261.43" y1="214.65000000000003" y2="213.65000000000006"/>
  <line stroke="#888888" x1="261.43" x2="262.43000000000006" y1="213.65000000000006" y2="213.65000000000006"/>
  <line stroke="#888888" x1="239.57000000000002" x2="239.57000000000002" y1="213.65000000000006" y2="214.65000000000003"/>
  <line stroke="#888888" x1="239.57000000000002" x2="238.57000000000002" y1="214.65000000000003" y2="214.65000000000003"/>
  <line stroke="#888888" x1="238.57000000000002" x2="238.57000000000002" y1="214.65000000000003" y2="213.65000000000006"/>
  <line stroke="#888888" x1="238.57000000000002" x2="239.57000000000002" y1="213.65000000000006" y2="213.65000000000006"/>
  <line stroke="#888888" x1="262.43000000000006" x2="262.43000000000006" y1="211.11" y2="212.11000000000004"/>
  <line stroke="#888888" x1="262.43000000000006" x2="261.43" y1="212.11000000000004" y2="212.11000000000004"/>
  <line stroke="#888888" x1="261.43" x2="261.43" y1="212.11000000000004" y2="211.11"/>
  <line stroke="#888888" x1="261.43" x2="262.43000000000006" y1="211.11" y2="211.11"/>
  <line stroke="#888888" x1="239.57000000000002" x2="239.57000000000002" y1="211.11" y2="212.11000000000004"/>
  <line stroke="#888888" x1="239.57000000000002" x2="238.57000000000002" y1="212.11000000000004" y2="212.11000000000004"/>
  <line stroke="#888888" x1="238.57000000000002" x2="238.57000000000002" y1="212.11000000000004" y2="211.11"/>
  <line stroke="#888888" x1="238.57000000000002" x2="239.57000000000002" y1="211.11" y2="211.11"/>
  <line stroke="#888888" x1="262.43000000000006" x2="262.43000000000006" y1="208.57000000000002" y2="209.57"/>
  <line stroke="#888888" x1="262.43000000000006" x2="261.43" y1="209.57" y2="209.57"/>
  <line stroke="#888888" x1="261.43" x2="261.43" y1="209.57" y2="208.57000000000002"/>
  <line stroke="#888888" x1="261.43" x2="262.43000000000006" y1="208.57000000000002" y2="208.57000000000002"/>
  <line stroke="#888888" x1="240.57000000000002" x2="240.57000000000002" y1="207.57000000000002" y2="210.57000000000002"/>
  <line stroke="#888888" x1="240.57000000000002" x2="237.57000000000002" y1="210.57000000000002" y2="210.57000000000002"/>
  <line stroke="#888888" x1="237.57000000000002" x2="237.57000000000002" y1="210.57000000000002" y2="207.57000000000002"/>
  <line stroke="#888888" x1="237.57000000000002" x2="240.57000000000002" y1="207.57000000000002" y2="207.57000000000002"/>
  <line stroke="#888888" x1="186.75" x2="186.75" y1="289.85" y2="306.6000000000001"/>
  <line stroke="#888888" x1="186.75" x2="186.25000000000003" y1="306.6000000000001" y2="306.6000000000001"/>
  <line stroke="#888888" x1="186.25000000000003" x2="186.25000000000003" y1="306.6000000000001" y2="289.85"/>
  <line stroke="#888888" x1="186.25000000000003" x2="186.75" y1="289.85" y2="289.85"/>
  <line stroke="#888888" x1="186.75" x2="186.75" y1="249.22500000000008" y2="265.975"/>
  <line stroke="#888888" x1="186.75" x2="186.25000000000003" y1="265.975" y2="265.975"/>
  <line stroke="#888888" x1="186.25000000000003" x2="186.25000000000003" y1="265.975" y2="249.22500000000008"/>
  <line stroke="#888888" x1="186.25000000000003" x2="186.75" y1="249.22500000000008" y2="249.22500000000008"/>
  <line stroke="#888888" x1="186.75" x2="186.75" y1="208.60000000000005" y2="225.35000000000005"/>
  <line stroke="#888888" x1="186.75" x2="186.25000000000003" y1="225.35000000000005" y2="225.35000000000005"/>
  <line stroke="#888888" x1="186.25000000000003" x2="186.25000000000003" y1="225.35000000000005" y2="208.60000000000005"/>
  <line stroke="#888888" x1="186.25000000000003" x2="186.75" y1="208.60000000000005" y2="208.60000000000005"/>
  <line stroke="#888888" x1="300.5" x2="300.5" y1="306.3500000000001" y2="311.3500000000001"/>
  <line stroke="#888888" x1="300.5" x2="295.5" y1="311.3500000000001" y2="306.3500000000001"/>
  <line stroke="#888888" x1="295.5" x2="295.5" y1="306.3500000000001" y2="290.1"/>
  <line stroke="#888888" x1="295.5" x2="300.5" y1="290.1" y2="285.1"/>
  <line stroke="#888888" x1="300.5" x2="300.5" y1="285.1" y2="290.1"/>
  <line stroke="#888888" x1="300.5" x2="300.5" y1="265.725" y2="270.725"/>
  <line stroke="#888888" x1="300.5" x2="295.5" y1="270.725" y2="265.725"/>
  <line stroke="#888888" x1="295.5" x2="295.5" y1="265.725" y2="249.47500000000005"/>
  <line stroke="#888888" x1="295.5" x2="300.5" y1="249.47500000000005" y2="244.47500000000005"/>
  <line stroke="#888888" x1="300.5" x2="300.5" y1="244.47500000000005" y2="249.47500000000005"/>
  <line stroke="#888888" x1="300.5" x2="300.5" y1="225.10000000000005" y2="230.10000000000005"/>
  <line stroke="#888888" x1="300.5" x2="295.5" y1="230.10000000000005" y2="225.10000000000005"/>
  <line stroke="#888888" x1="295.5" x2="295.5" y1="225.10000000000005" y2="208.85000000000005"/>
  <line stroke="#888888" x1="295.5" x2="300.5" y1="208.85000000000005" y2="203.85000000000002"/>
  <line stroke="#888888" x1="300.5" x2="300.5" y1="203.85000000000002" y2="208.85000000000005"/>
  <line stroke="#888888" x1="300.5" x2="300.5" y1="173.93333333333334" y2="178.93333333333334"/>
  <line stroke="#888888" x1="300.5" x2="295.5" y1="178.93333333333334" y2="173.93333333333334"/>
  <line stroke="#888888" x1="295.5" x2="295.5" y1="173.93333333333334" y2="155.26666666666668"/>
  <line stroke="#888888" x1="295.5" x2="300.5" y1="155.26666666666668" y2="150.26666666666668"/>
  <line stroke="#888888" x1="300.5" x2="300.5" y1="150.26666666666668" y2="155.26666666666668"/>
  <line stroke="#888888" x1="149.935" x2="137.065" y1="131.60000000000002" y2="131.60000000000002"/>
  <line stroke="#888888" x1="137.065" x2="137.065" y1="131.60000000000002" y2="108.60000000000001"/>
  <line stroke="#888888" x1="137.065" x2="149.935" y1="108.60000000000001" y2="108.60000000000001"/>
  <line stroke="#888888" x1="149.935" x2="149.935" y1="108.60000000000001" y2="131.60000000000002"/>
  <line stroke="#888888" x1="7.750000000000002" x2="7.750000000000002" y1="99.98636363636363" y2="118.66818181818182"/>
  <line stroke="#888888" x1="7.750000000000002" x2="7.25" y1="118.66818181818182" y2="118.66818181818182"/>
  <line stroke="#888888" x1="7.25" x2="7.25" y1="118.66818181818182" y2="99.98636363636363"/>
  <line stroke="#888888" x1="7.25" x2="7.750000000000002" y1="99.98636363636363" y2="99.98636363636363"/>
  <line stroke="#888888" x1="7.750000000000002" x2="7.750000000000002" y1="54.531818181818174" y2="73.21363636363635"/>
  <line stroke="#888888" x1="7.750000000000002" x2="7.25" y1="73.21363636363635" y2="73.21363636363635"/>
  <line stroke="#888888" x1="7.25" x2="7.25" y1="73.21363636363635" y2="54.531818181818174"/>
  <line stroke="#888888" x1="7.25" x2="7.750000000000002" y1="54.531818181818174" y2="54.531818181818174"/>
  <line stroke="#888888" x1="69.58333333333331" x2="69.58333333333331" y1="51.85" y2="41.35"/>
  <line stroke="#888888" x1="69.58333333333331" x2="69.08333333333333" y1="41.35" y2="41.35"/>
  <line stroke="#888888" x1="69.08333333333333" x2="69.08333333333333" y1="41.35" y2="51.85"/>
  <line stroke="#888888" x1="69.08333333333333" x2="69.58333333333331" y1="51.85" y2="51.85"/>
  <line stroke="#888888" x1="280.06500000000005" x2="292.93500000000006" y1="108.60000000000001" y2="108.60000000000001"/>
  <line stroke="#888888" x1="292.93500000000006" x2="292.93500000000006" y1="108.60000000000001" y2="131.60000000000002"/>
  <line stroke="#888888" x1="292.93500000000006" x2="280.06500000000005" y1="131.60000000000002" y2="131.60000000000002"/>
  <line stroke="#888888" x1="280.06500000000005" x2="280.06500000000005" y1="131.60000000000002" y2="108.60000000000001"/>
  <line stroke="#888888" x1="307.50000000000006" x2="307.50000000000006" y1="118.41818181818182" y2="123.41818181818182"/>
  <line stroke="#888888" x1="307.50000000000006" x2="302.50000000000006" y1="123.41818181818182" y2="118.41818181818182"/>
  <line stroke="#888888" x1="302.50000000000006" x2="302.50000000000006" y1="118.41818181818182" y2="100.23636363636363"/>
  <line stroke="#888888" x1="302.50000000000006" x2="307.50000000000006" y1="100.23636363636363" y2="95.23636363636362"/>
  <line stroke="#888888" x1="307.50000000000006" x2="307.50000000000006" y1="95.23636363636362" y2="100.23636363636363"/>
  <line stroke="#888888" x1="307.50000000000006" x2="307.50000000000006" y1="72.96363636363635" y2="77.96363636363635"/>
  <line stroke="#888888" x1="307.50000000000006" x2="302.50000000000006" y1="77.96363636363635" y2="72.96363636363635"/>
  <line stroke="#888888" x1="302.50000000000006" x2="302.50000000000006" y1="72.96363636363635" y2="54.781818181818174"/>
  <line stroke="#888888" x1="302.50000000000006" x2="307.50000000000006" y1="54.781818181818174" y2="49.781818181818174"/>
  <line stroke="#888888" x1="307.50000000000006" x2="307.50000000000006" y1="49.781818181818174" y2="54.781818181818174"/>
  <line stroke="#000000" x1="320.00000000000006" x2="320.00000000000006" y1="36.55" y2="36.55"/>
  <line stroke="#000000" x1="320.00000000000006" x2="320.00000000000006" y1="36.55" y2="36.55"/>
  <line stroke="#000000" x1="320.00000000000006" x2="320.00000000000006" y1="36.55" y2="36.55"/>
  <line stroke="#000000" x1="320.00000000000006" x2="320.00000000000006" y1="36.55" y2="36.55"/>
  <line stroke="#000000" x1="390.00000000000006" x2="389.63065021785417" y1="36.55" y2="31.85696604879307"/>
  <line stroke="#000000" x1="389.63065021785417" x2="390.00000000000006" y1="41.24303395120693" y2="36.55"/>
  <line stroke="#000000" x1="388.53169548885467" x2="389.63065021785417" y1="45.82050983124843" y2="41.24303395120693"/>
  <line stroke="#000000" x1="386.730195725651" x2="388.53169548885467" y1="50.16971499218641" y2="45.82050983124843"/>
  <line stroke="#000000" x1="384.27050983124843" x2="386.730195725651" y1="54.18355756877419" y2="50.16971499218641"/>
  <line stroke="#000000" x1="381.2132034355965" x2="384.27050983124843" y1="57.763203435596424" y2="54.18355756877419"/>
  <line stroke="#000000" x1="377.6335575687743" x2="381.2132034355965" y1="60.82050983124843" y2="57.763203435596424"/>
  <line stroke="#000000" x1="373.61971499218646" x2="377.6335575687743" y1="63.28019572565103" y2="60.82050983124843"/>
  <line stroke="#000000" x1="369.2705098312485" x2="373.61971499218646" y1="65.0816954888546" y2="63.28019572565103"/>
  <line stroke="#000000" x1="364.693033951207" x2="369.2705098312485" y1="66.18065021785414" y2="65.0816954888546"/>
  <line stroke="#000000" x1="360.0" x2="364.693033951207" y1="66.55000000000001" y2="66.18065021785414"/>
  <line stroke="#000000" x1="355.3069660487931" x2="360.0" y1="66.18065021785414" y2="66.55000000000001"/>
  <line stroke="#000000" x1="350.7294901687516" x2="355.3069660487931" y1="65.0816954888546" y2="66.18065021785414"/>
  <line stroke="#000000" x1="346.38028500781365" x2="350.7294901687516" y1="63.28019572565104" y2="65.0816954888546"/>
  <line stroke="#000000" x1="342.3664424312259" x2="346.38028500781365" y1="60.82050983124843" y2="63.28019572565104"/>
  <line stroke="#000000" x1="338.78679656440363" x2="342.3664424312259" y1="57.763203435596424" y2="60.82050983124843"/>
  <line stroke="#000000" x1="335.7294901687516" x2="338.78679656440363" y1="54.18355756877419" y2="57.763203435596424"/>
  <line stroke="#000000" x1="333.26980427434904" x2="335.7294901687516" y1="50.169714992186414" y2="54.18355756877419"/>
  <line stroke="#000000" x1="331.4683045111454" x2="333.26980427434904" y1="45.82050983124843" y2="50.169714992186414"/>
  <line stroke="#000000" x1="330.36934978214595" x2="331.4683045111454" y1="41.24303395120693" y2="45.82050983124843"/>
  <line stroke="#000000" x1="330.00000000000006" x2="330.36934978214595" y1="36.550000000000004" y2="41.24303395120693"/>
  <line stroke="#000000" x1="330.36934978214595" x2="330.00000000000006" y1="31.85696604879308" y2="36.550000000000004"/>
  <line stroke="#000000" x1="331.4683045111454" x2="330.36934978214595" y1="27.279490168751583" y2="31.85696604879308"/>
  <line stroke="#000000" x1="333.26980427434904" x2="331.4683045111454" y1="22.930285007813605" y2="27.279490168751583"/>
  <line stroke="#000000" x1="335.7294901687516" x2="333.26980427434904" y1="18.916442431225807" y2="22.930285007813605"/>
  <line stroke="#000000" x1="338.78679656440363" x2="335.7294901687516" y1="15.336796564403576" y2="18.916442431225807"/>
  <line stroke="#000000" x1="342.36644243122583" x2="338.78679656440363" y1="12.279490168751575" y2="15.336796564403576"/>
  <line stroke="#000000" x1="346.38028500781365" x2="342.36644243122583" y1="9.819804274348966" y2="12.279490168751575"/>
  <line stroke="#000000" x1="350.7294901687516" x2="346.38028500781365" y1="8.018304511145391" y2="9.819804274348966"/>
  <line stroke="#000000" x1="355.3069660487931" x2="350.7294901687516" y1="6.919349782145869" y2="8.018304511145391"/>
  <line stroke="#000000" x1="360.0" x2="355.3069660487931" y1="6.549999999999998" y2="6.919349782145869"/>
  <line stroke="#000000" x1="364.693033951207" x2="360.0" y1="6.919349782145866" y2="6.549999999999998"/>
  <line stroke="#000000" x1="369.2705098312485" x2="364.693033951207" y1="8.01830451114539" y2="6.919349782145866"/>
  <line stroke="#000000" x1="373.61971499218646" x2="369.2705098312485" y1="9.819804274348959" y2="8.01830451114539"/>
  <line stroke="#000000" x1="377.6335575687742" x2="373.61971499218646" y1="12.279490168751572" y2="9.819804274348959"/>
  <line stroke="#000000" x1="381.2132034355965" x2="377.6335575687742" y1="15.336796564403569" y2="12.279490168751572"/>
  <line stroke="#000000" x1="384.27050983124843" x2="381.2132034355965" y1="18.916442431225796" y2="15.336796564403569"/>
  <line stroke="#000000" x1="386.730195725651" x2="384.27050983124843" y1="22.930285007813588" y2="18.916442431225796"/>
  <line stroke="#000000" x1="388.53169548885467" x2="386.730195725651" y1="27.279490168751572" y2="22.930285007813588"/>
  <line stroke="#000000" x1="389.63065021785417" x2="388.53169548885467" y1="31.85696604879307" y2="27.279490168751572"/>
  <line stroke="#000000" x1="400.0" x2="400.0" y1="36.55" y2="36.55"/>
  <line stroke="#000000" x1="400.0" x2="400.0" y1="36.55" y2="36.55"/>
  <line stroke="#000000" x1="400.0" x2="400.0" y1="36.55" y2="36.55"/>
  <line stroke="#000000" x1="400.0" x2="400.0" y1="36.55" y2="36.55"/>
  <line stroke="#000000" x1="470.00000000000006" x2="469.63065021785417" y1="36.55" y2="31.85696604879307"/>
  <line stroke="#000000" x1="469.63065021785417" x2="470.00000000000006" y1="41.24303395120693" y2="36.55"/>
  <line stroke="#000000" x1="468.53169548885467" x2="469.63065021785417" y1="45.82050983124843" y2="41.24303395120693"/>
  <line stroke="#000000" x1="466.7301957256511" x2="468.53169548885467" y1="50.16971499218641" y2="45.82050983124843"/>
  <line stroke="#000000" x1="464.2705098312485" x2="466.7301957256511" y1="54.18355756877419" y2="50.16971499218641"/>
  <line stroke="#000000" x1="461.2132034355965" x2="464.2705098312485" y1="57.763203435596424" y2="54.18355756877419"/>
  <line stroke="#000000" x1="457.6335575687743" x2="461.2132034355965" y1="60.82050983124843" y2="57.763203435596424"/>
  <line stroke="#000000" x1="453.61971499218646" x2="457.6335575687743" y1="63.28019572565103" y2="60.82050983124843"/>
  <line stroke="#000000" x1="449.2705098312485" x2="453.61971499218646" y1="65.0816954888546" y2="63.28019572565103"/>
  <line stroke="#000000" x1="444.693033951207" x2="449.2705098312485" y1="66.18065021785414" y2="65.0816954888546"/>
  <line stroke="#000000" x1="440.00000000000006" x2="444.693033951207" y1="66.55000000000001" y2="66.18065021785414"/>
  <line stroke="#000000" x1="435.30696604879313" x2="440.00000000000006" y1="66.18065021785414" y2="66.55000000000001"/>
  <line stroke="#000000" x1="430.7294901687516" x2="435.30696604879313" y1="65.0816954888546" y2="66.18065021785414"/>
  <line stroke="#000000" x1="426.38028500781365" x2="430.7294901687516" y1="63.28019572565104" y2="65.0816954888546"/>
  <line stroke="#000000" x1="422.3664424312259" x2="426.38028500781365" y1="60.82050983124843" y2="63.28019572565104"/>
  <line stroke="#000000" x1="418.78679656440363" x2="422.3664424312259" y1="57.763203435596424" y2="60.82050983124843"/>
  <line stroke="#000000" x1="415.7294901687516" x2="418.78679656440363" y1="54.18355756877419" y2="57.763203435596424"/>
  <line stroke="#000000" x1="413.26980427434904" x2="415.7294901687516" y1="50.169714992186414" y2="54.18355756877419"/>
  <line stroke="#000000" x1="411.46830451114545" x2="413.26980427434904" y1="45.82050983124843" y2="50.169714992186414"/>
  <line stroke="#000000" x1="410.36934978214595" x2="411.46830451114545" y1="41.24303395120693" y2="45.82050983124843"/>
  <line stroke="#000000" x1="410.00000000000006" x2="410.36934978214595" y1="36.550000000000004" y2="41.24303395120693"/>
  <line stroke="#000000" x1="410.36934978214595" x2="410.00000000000006" y1="31.85696604879308" y2="36.550000000000004"/>
  <line stroke="#000000" x1="411.46830451114545" x2="410.36934978214595" y1="27.279490168751583" y2="31.85696604879308"/>
  <line stroke="#000000" x1="413.26980427434904" x2="411.46830451114545" y1="22.930285007813605" y2="27.279490168751583"/>
  <line stroke="#000000" x1="415.7294901687516" x2="413.26980427434904" y1="18.916442431225807" y2="22.930285007813605"/>
  <line stroke="#000000" x1="418.78679656440363" x2="415.7294901687516" y1="15.336796564403576" y2="18.916442431225807"/>
  <line stroke="#000000" x1="422.36644243122583" x2="418.78679656440363" y1="12.279490168751575" y2="15.336796564403576"/>
  <line stroke="#000000" x1="426.38028500781365" x2="422.36644243122583" y1="9.819804274348966" y2="12.279490168751575"/>
  <line stroke="#000000" x1="430.7294901687516" x2="426.38028500781365" y1="8.018304511145391" y2="9.819804274348966"/>
  <line stroke="#000000" x1="435.30696604879313" x2="430.7294901687516" y1="6.919349782145869" y2="8.018304511145391"/>
  <line stroke="#000000" x1="440.00000000000006" x2="435.30696604879313" y1="6.549999999999998" y2="6.919349782145869"/>
  <line stroke="#000000" x1="444.693033951207" x2="440.00000000000006" y1="6.919349782145866" y2="6.549999999999998"/>
  <line stroke="#000000" x1="449.2705098312485" x2="444.693033951207" y1="8.01830451114539" y2="6.919349782145866"/>
  <line stroke="#000000" x1="453.61971499218646" x2="449.2705098312485" y1="9.819804274348959" y2="8.01830451114539"/>
  <line stroke="#000000" x1="457.6335575687742" x2="453.61971499218646" y1="12.279490168751572" y2="9.819804274348959"/>
  <line stroke="#000000" x1="461.2132034355965" x2="457.6335575687742" y1="15.336796564403569" y2="12.279490168751572"/>
  <line stroke="#000000" x1="464.2705098312485" x2="461.2132034355965" y1="18.916442431225796" y2="15.336796564403569"/>
  <line stroke="#000000" x1="466.7301957256511" x2="464.2705098312485" y1="22.930285007813588" y2="18.916442431225796"/>
  <line stroke="#000000" x1="468.53169548885467" x2="466.7301957256511" y1="27.279490168751572" y2="22.930285007813588"/>
  <line stroke="#000000" x1="469.63065021785417" x2="468.53169548885467" y1="31.85696604879307" y2="27.279490168751572"/>
</svg>
