  0
SECTION
  2
HEADER
  9
$ACADVER
  1
AC1009
  9
$INSBASE
 10
0.0
 20
0.0
 30
0.0
  9
$EXTMIN
 10
0.0
 20
0.0
 30
0.0
  9
$EXTMAX
 10
100.0
 20
100.0
 30
0.0
  9
$UNITMODE
 70
0
  9
$AUNITS
 70
0
  9
$ANGBASE
 50
0.0
  9
$ANGDIR
 70
0
  0
ENDSEC
  0
SECTION
  2
TABLES
  0
TABLE
  2
LTYPE
 70
20
  0
LTYPE
  2
CONTINUOUS
 70
0
  3
Solid
 72
65
 73
0
 40
0.0
  0
LTYPE
  2
CENTER
 70
0
  3
Center ____ _ ____ _ ____ _ ____ _ ____ _ ____
 72
65
 73
4
 40
2.0
 49
1.25
 49
-0.25
 49
0.25
 49
-0.25
  0
LTYPE
  2
CENTERX2
 70
0
  3
Center (2x) ________  __  ________  __  ________
 72
65
 73
4
 40
3.5
 49
2.5
 49
-0.25
 49
0.5
 49
-0.25
  0
LTYPE
  2
CENTER2
 70
0
  3
Center (.5x) ____ _ ____ _ ____ _ ____ _ ____
 72
65
 73
4
 40
1.0
 49
0.625
 49
-0.125
 49
0.125
 49
-0.125
  0
LTYPE
  2
DASHED
 70
0
  3
Dashed __ __ __ __ __ __ __ __ __ __ __ __ __ _
 72
65
 73
2
 40
0.6
 49
0.5
 49
-0.1
  0
LTYPE
  2
DASHEDX2
 70
0
  3
Dashed (2x) ____  ____  ____  ____  ____  ____
 72
65
 73
2
 40
1.2
 49
1.0
 49
-0.2
  0
LTYPE
  2
DASHED2
 70
0
  3
Dashed (.5x) _ _ _ _ _ _ _ _ _ _ _ _ _ _
 72
65
 73
2
 40
0.3
 49
0.25
 49
-0.05
  0
LTYPE
  2
PHANTOM
 70
0
  3
Phantom ______  __  __  ______  __  __  ______
 72
65
 73
6
 40
2.5
 49
1.25
 49
-0.25
 49
0.25
 49
-0.25
 49
0.25
 49
-0.25
  0
LTYPE
  2
PHANTOMX2
 70
0
  3
Phantom (2x)____________    ____    ____    ____________
 72
65
 73
6
 40
4.25
 49
2.5
 49
-0.25
 49
0.5
 49
-0.25
 49
0.5
 49
-0.25
  0
LTYPE
  2
PHANTOM2
 70
0
  3
Phantom (.5x) ___ _ _ ___ _ _ ___ _ _ ___ _ _ ___
 72
65
 73
6
 40
1.25
 49
0.625
 49
-0.125
 49
0.125
 49
-0.125
 49
0.125
 49
-0.125
  0
LTYPE
  2
DASHDOT
 70
0
  3
Dash dot __ . __ . __ . __ . __ . __ . __ . __
 72
65
 73
4
 40
1.4
 49
1.0
 49
-0.2
 49
0.0
 49
-0.2
  0
LTYPE
  2
DASHDOTX2
 70
0
  3
Dash dot (2x) ____  .  ____  .  ____  .  ____
 72
65
 73
4
 40
2.4
 49
2.0
 49
-0.2
 49
0.0
 49
-0.2
  0
LTYPE
  2
DASHDOT2
 70
0
  3
Dash dot (.5x) _ . _ . _ . _ . _ . _ . _ . _
 72
65
 73
4
 40
0.7
 49
0.5
 49
-0.1
 49
0.0
 49
-0.1
  0
LTYPE
  2
DOT
 70
0
  3
Dot .  .  .  .  .  .  .  .  .  .  .  .  .  .  .  .
 72
65
 73
2
 40
0.2
 49
0.0
 49
-0.2
  0
LTYPE
  2
DOTX2
 70
0
  3
Dot (2x) .    .    .    .    .    .    .    . 
 72
65
 73
2
 40
0.4
 49
0.0
 49
-0.4
  0
LTYPE
  2
DOT2
 70
0
  3
Dot (.5) . . . . . . . . . . . . . . . . . . . 
 72
65
 73
2
 40
0.1
 49
0.0
 49
-0.1
  0
LTYPE
  2
DIVIDE
 70
0
  3
Divide __ . . __ . . __ . . __ . . __ . . __
 72
65
 73
6
 40
1.6
 49
1.0
 49
-0.2
 49
0.0
 49
-0.2
 49
0.0
 49
-0.2
  0
LTYPE
  2
DIVIDEX2
 70
0
  3
Divide (2x) ____  . .  ____  . .  ____  . .  ____
 72
65
 73
6
 40
2.6
 49
2.0
 49
-0.2
 49
0.0
 49
-0.2
 49
0.0
 49
-0.2
  0
LTYPE
  2
DIVIDE2
 70
0
  3
Divide(.5x) _ . _ . _ . _ . _ . _ . _ . _
 72
65
 73
6
 40
0.8
 49
0.5
 49
-0.1
 49
0.0
 49
-0.1
 49
0.0
 49
-0.1
  0
LTYPE
  2
DOTTED
 70
0
  3

 72
65
 73
2
 40
1.0
 49
0.0
 49
-1.0
  0
ENDTAB
  0
TABLE
  2
LAYER
 70
5
  0
LAYER
  2
DIMENSIONS
 70
0
 62
1
  6
CONTINUOUS
  0
LAYER
  2
TABLEBACKGROUND
 70
0
 62
1
  6
CONTINUOUS
  0
LAYER
  2
TABLECONTENT
 70
0
 62
1
  6
CONTINUOUS
  0
LAYER
  2
TABLEGRID
 70
0
 62
1
  6
CONTINUOUS
  0
LAYER
  2
VIEWPORTS
 70
0
 62
7
  6
CONTINUOUS
  0
ENDTAB
  0
TABLE
  2
STYLE
 70
12
  0
STYLE
  2
STANDARD
 70
0
 40
0.0
 41
1.0
 42
1.0
 50
0.0
 71
0
  3
arial.ttf
  4

  0
STYLE
  2
ARIAL
 70
0
 40
0.0
 41
1.0
 42
1.0
 50
0.0
 71
0
  3
arial.ttf
  4

  0
STYLE
  2
ARIAL_BOLD
 70
0
 40
0.0
 41
1.0
 42
1.0
 50
0.0
 71
0
  3
arialbd.ttf
  4

  0
STYLE
  2
ARIAL_ITALIC
 70
0
 40
0.0
 41
1.0
 42
1.0
 50
0.0
 71
0
  3
ariali.ttf
  4

  0
STYLE
  2
ARIAL_BOLD_ITALIC
 70
0
 40
0.0
 41
1.0
 42
1.0
 50
0.0
 71
0
  3
arialbi.ttf
  4

  0
STYLE
  2
ARIAL_BLACK
 70
0
 40
0.0
 41
1.0
 42
1.0
 50
0.0
 71
0
  3
ariblk.ttf
  4

  0
STYLE
  2
ISOCPEUR
 70
0
 40
0.0
 41
1.0
 42
1.0
 50
0.0
 71
0
  3
isocpeur.ttf
  4

  0
STYLE
  2
ISOCPEUR_ITALIC
 70
0
 40
0.0
 41
1.0
 42
1.0
 50
0.0
 71
0
  3
isocpeui.ttf
  4

  0
STYLE
  2
TIMES
 70
0
 40
0.0
 41
1.0
 42
1.0
 50
0.0
 71
0
  3
times.ttf
  4

  0
STYLE
  2
TIMES_BOLD
 70
0
 40
0.0
 41
1.0
 42
1.0
 50
0.0
 71
0
  3
timesbd.ttf
  4

  0
STYLE
  2
TIMES_ITALIC
 70
0
 40
0.0
 41
1.0
 42
1.0
 50
0.0
 71
0
  3
timesi.ttf
  4

  0
STYLE
  2
TIMES_BOLD_ITALIC
 70
0
 40
0.0
 41
1.0
 42
1.0
 50
0.0
 71
0
  3
timesbi.ttf
  4

  0
ENDTAB
  0
TABLE
  2
VIEW
 70
0
  0
ENDTAB
  0
TABLE
  2
APPID
 70
1
  0
APPID
  2
DXFWRITE
 70
0
  0
ENDTAB
  0
TABLE
  2
VPORT
 70
0
  0
ENDTAB
  0
TABLE
  2
UCS
 70
0
  0
ENDTAB
  0
ENDSEC
  0
SECTION
  2
BLOCKS
  0
ENDSEC
  0
SECTION
  2
ENTITIES
  0
VIEWPORT
  8
VIEWPORTS
 67
1
 10
0.0
 20
0.0
 30
0.0
 40
1.0
 41
1.0
 68
1
 69
1
1001
ACAD
1000
MVIEW
1002
{
1070
16
1010
0.0
1020
0.0
1030
0.0
1010
0.0
1020
0.0
1030
0.0
1040
0.0
1040
1.0
1040
0.0
1040
0.0
1040
50.0
1040
0.0
1040
0.0
1070
0
1070
100
1070
1
1070
3
1070
0
1070
0
1070
0
1070
0
1040
0.0
1040
0.0
1040
0.0
1040
0.1
1040
0.1
1040
0.1
1040
0.1
1070
0
1002
{
1002
}
1002
}
  0
LINE
 62
5
  8
0
 10
124.00000000000003
 20
66.50000000000001
 30
0.0
 11
111.00000000000001
 21
66.50000000000001
 31
0.0
  0
LINE
 62
5
  8
0
 10
150.0
 20
66.60000000000001
 30
0.0
 11
150.0
 21
66.50000000000001
 31
0.0
  0
LINE
  6
DOTTED
 62
1
  8
0
 10
150.0
 20
66.60000000000001
 30
0.0
 11
85.00000000000001
 21
66.60000000000001
 31
0.0
  0
LINE
 62
5
  8
0
 10
85.00000000000001
 20
66.50000000000001
 30
0.0
 11
85.00000000000001
 21
66.60000000000001
 31
0.0
  0
LINE
 62
5
  8
0
 10
124.00000000000003
 20
46.50000000000001
 30
0.0
 11
124.00000000000003
 21
66.50000000000001
 31
0.0
  0
LINE
  6
DOTTED
 62
1
  8
0
 10
124.00000000000003
 20
46.50000000000001
 30
0.0
 11
111.00000000000001
 21
46.50000000000001
 31
0.0
  0
LINE
 62
5
  8
0
 10
111.00000000000001
 20
66.50000000000001
 30
0.0
 11
111.00000000000001
 21
46.50000000000001
 31
0.0
  0
LINE
  6
DOTTED
 62
1
  8
0
 10
85.00000000000001
 20
66.50000000000001
 30
0.0
 11
106.66666666666669
 21
0.0
 31
0.0
  0
LINE
 62
5
  8
0
 10
128.33333333333337
 20
0.0
 30
0.0
 11
106.66666666666669
 21
0.0
 31
0.0
  0
LINE
  6
DOTTED
 62
1
  8
0
 10
128.33333333333337
 20
0.0
 30
0.0
 11
150.0
 21
66.50000000000001
 31
0.0
  0
LINE
 62
5
  8
0
 10
124.00000000000003
 20
66.50000000000001
 30
0.0
 11
124.00000000000003
 21
46.50000000000001
 31
0.0
  0
LINE
 62
5
  8
0
 10
111.00000000000001
 20
66.50000000000001
 30
0.0
 11
124.00000000000003
 21
66.50000000000001
 31
0.0
  0
LINE
 62
5
  8
0
 10
111.00000000000001
 20
46.50000000000001
 30
0.0
 11
111.00000000000001
 21
66.50000000000001
 31
0.0
  0
LINE
 62
5
  8
0
 10
106.66666666666669
 20
0.0
 30
0.0
 11
85.00000000000001
 21
0.0
 31
0.0
  0
LINE
 62
5
  8
0
 10
85.00000000000001
 20
0.0
 30
0.0
 11
85.00000000000001
 21
66.50000000000001
 31
0.0
  0
LINE
 62
5
  8
0
 10
150.0
 20
66.50000000000001
 30
0.0
 11
150.0
 21
0.0
 31
0.0
  0
LINE
 62
5
  8
0
 10
150.0
 20
0.0
 30
0.0
 11
128.33333333333337
 21
0.0
 31
0.0
  0
LINE
  6
DOTTED
 62
1
  8
0
 10
85.00000000000001
 20
166.60000000000002
 30
0.0
 11
85.00000000000001
 21
66.60000000000001
 31
0.0
  0
LINE
  6
DOTTED
 62
1
  8
0
 10
150.0
 20
166.60000000000002
 30
0.0
 11
150.0
 21
66.60000000000001
 31
0.0
  0
LINE
  6
DOTTED
 62
1
  8
0
 10
131.0
 20
166.60000000000002
 30
0.0
 11
150.0
 21
166.60000000000002
 31
0.0
  0
LINE
 62
5
  8
0
 10
104.00000000000001
 20
166.60000000000002
 30
0.0
 11
131.0
 21
166.60000000000002
 31
0.0
  0
LINE
 62
5
  8
0
 10
85.00000000000001
 20
166.60000000000002
 30
0.0
 11
104.00000000000001
 21
166.60000000000002
 31
0.0
  0
LINE
 62
5
  8
0
 10
85.00000000000001
 20
166.60000000000002
 30
0.0
 11
85.00000000000001
 21
166.60000000000002
 31
0.0
  0
LINE
 62
5
  8
0
 10
150.0
 20
166.60000000000002
 30
0.0
 11
150.0
 21
166.60000000000002
 31
0.0
  0
LINE
 62
5
  8
0
 10
131.0
 20
222.60000000000005
 30
0.0
 11
150.0
 21
222.60000000000005
 31
0.0
  0
LINE
  6
DOTTED
 62
1
  8
0
 10
131.0
 20
222.60000000000005
 30
0.0
 11
131.0
 21
166.60000000000005
 31
0.0
  0
LINE
  6
DOTTED
 62
1
  8
0
 10
150.0
 20
222.60000000000005
 30
0.0
 11
150.0
 21
166.60000000000005
 31
0.0
  0
LINE
 62
5
  8
0
 10
118.00000000000001
 20
222.60000000000005
 30
0.0
 11
131.0
 21
222.60000000000005
 31
0.0
  0
LINE
  6
DOTTED
 62
1
  8
0
 10
118.00000000000001
 20
222.60000000000005
 30
0.0
 11
118.00000000000001
 21
166.60000000000005
 31
0.0
  0
LINE
 62
5
  8
0
 10
131.0
 20
166.60000000000005
 30
0.0
 11
118.00000000000001
 21
166.60000000000005
 31
0.0
  0
LINE
 62
5
  8
0
 10
99.0
 20
222.60000000000005
 30
0.0
 11
118.00000000000001
 21
222.60000000000005
 31
0.0
  0
LINE
 62
5
  8
0
 10
99.0
 20
166.60000000000005
 30
0.0
 11
99.0
 21
222.60000000000005
 31
0.0
  0
LINE
 62
5
  8
0
 10
118.00000000000001
 20
166.60000000000005
 30
0.0
 11
99.0
 21
166.60000000000005
 31
0.0
  0
LINE
  6
DOTTED
 62
1
  8
0
 10
150.0
 20
222.60000000000005
 30
0.0
 11
163.00000000000003
 21
222.60000000000005
 31
0.0
  0
LINE
 62
5
  8
0
 10
163.00000000000003
 20
166.60000000000005
 30
0.0
 11
150.0
 21
166.60000000000005
 31
0.0
  0
LINE
  6
DOTTED
 62
1
  8
0
 10
163.00000000000003
 20
166.60000000000005
 30
0.0
 11
163.00000000000003
 21
222.60000000000005
 31
0.0
  0
LINE
  6
DOTTED
 62
1
  8
0
 10
163.00000000000003
 20
287.6000000000001
 30
0.0
 11
150.0
 21
287.6000000000001
 31
0.0
  0
LINE
  6
DOTTED
 62
1
  8
0
 10
150.0
 20
287.6000000000001
 30
0.0
 11
150.0
 21
222.60000000000005
 31
0.0
  0
LINE
  6
DOTTED
 62
1
  8
0
 10
163.00000000000003
 20
222.60000000000005
 30
0.0
 11
163.00000000000003
 21
287.6000000000001
 31
0.0
  0
LINE
 62
5
  8
0
 10
150.0
 20
343.6000000000001
 30
0.0
 11
163.00000000000003
 21
343.6000000000001
 31
0.0
  0
LINE
  6
DOTTED
 62
1
  8
0
 10
150.0
 20
343.6000000000001
 30
0.0
 11
150.0
 21
287.6000000000001
 31
0.0
  0
LINE
  6
DOTTED
 62
1
  8
0
 10
163.00000000000003
 20
287.6000000000001
 30
0.0
 11
163.00000000000003
 21
343.6000000000001
 31
0.0
  0
LINE
 62
5
  8
0
 10
131.0
 20
343.6000000000001
 30
0.0
 11
150.0
 21
343.6000000000001
 31
0.0
  0
LINE
  6
DOTTED
 62
1
  8
0
 10
131.0
 20
343.6000000000001
 30
0.0
 11
131.0
 21
287.6000000000001
 31
0.0
  0
LINE
 62
5
  8
0
 10
150.0
 20
287.6000000000001
 30
0.0
 11
131.0
 21
287.6000000000001
 31
0.0
  0
LINE
 62
5
  8
0
 10
118.00000000000001
 20
343.6000000000001
 30
0.0
 11
131.0
 21
343.6000000000001
 31
0.0
  0
LINE
  6
DOTTED
 62
1
  8
0
 10
118.00000000000001
 20
343.6000000000001
 30
0.0
 11
118.00000000000001
 21
287.6000000000001
 31
0.0
  0
LINE
 62
5
  8
0
 10
131.0
 20
287.6000000000001
 30
0.0
 11
118.00000000000001
 21
287.6000000000001
 31
0.0
  0
LINE
 62
5
  8
0
 10
99.0
 20
343.6000000000001
 30
0.0
 11
118.00000000000001
 21
343.6000000000001
 31
0.0
  0
LINE
 62
5
  8
0
 10
99.0
 20
287.6000000000001
 30
0.0
 11
99.0
 21
343.6000000000001
 31
0.0
  0
LINE
 62
5
  8
0
 10
118.00000000000001
 20
287.6000000000001
 30
0.0
 11
99.0
 21
287.6000000000001
 31
0.0
  0
LINE
 62
5
  8
0
 10
173.0
 20
287.6000000000001
 30
0.0
 11
163.00000000000003
 21
287.6000000000001
 31
0.0
  0
LINE
 62
5
  8
0
 10
173.0
 20
343.6000000000001
 30
0.0
 11
173.0
 21
287.6000000000001
 31
0.0
  0
LINE
 62
5
  8
0
 10
163.00000000000003
 20
343.6000000000001
 30
0.0
 11
173.0
 21
343.6000000000001
 31
0.0
  0
LINE
 62
5
  8
0
 10
106.00000000000001
 20
287.6000000000001
 30
0.0
 11
150.0
 21
287.6000000000001
 31
0.0
  0
LINE
  6
DOTTED
 62
1
  8
0
 10
106.00000000000001
 20
287.6000000000001
 30
0.0
 11
106.00000000000001
 21
222.60000000000005
 31
0.0
  0
LINE
 62
5
  8
0
 10
150.0
 20
222.60000000000005
 30
0.0
 11
106.00000000000001
 21
222.60000000000005
 31
0.0
  0
LINE
 62
5
  8
0
 10
93.00000000000001
 20
287.6000000000001
 30
0.0
 11
106.00000000000001
 21
287.6000000000001
 31
0.0
  0
LINE
  6
DOTTED
 62
1
  8
0
 10
93.00000000000001
 20
287.6000000000001
 30
0.0
 11
93.00000000000001
 21
222.60000000000005
 31
0.0
  0
LINE
 62
5
  8
0
 10
106.00000000000001
 20
222.60000000000005
 30
0.0
 11
93.00000000000001
 21
222.60000000000005
 31
0.0
  0
LINE
 62
5
  8
0
 10
49.00000000000001
 20
287.6000000000001
 30
0.0
 11
93.00000000000001
 21
287.6000000000001
 31
0.0
  0
LINE
 62
5
  8
0
 10
49.00000000000001
 20
222.60000000000005
 30
0.0
 11
49.00000000000001
 21
287.6000000000001
 31
0.0
  0
LINE
 62
5
  8
0
 10
93.00000000000001
 20
222.60000000000005
 30
0.0
 11
49.00000000000001
 21
222.60000000000005
 31
0.0
  0
LINE
 62
5
  8
0
 10
173.0
 20
222.60000000000005
 30
0.0
 11
163.00000000000003
 21
222.60000000000005
 31
0.0
  0
LINE
 62
5
  8
0
 10
173.0
 20
287.6000000000001
 30
0.0
 11
173.0
 21
222.60000000000005
 31
0.0
  0
LINE
 62
5
  8
0
 10
163.00000000000003
 20
287.6000000000001
 30
0.0
 11
173.0
 21
287.6000000000001
 31
0.0
  0
LINE
 62
5
  8
0
 10
173.0
 20
166.60000000000005
 30
0.0
 11
163.00000000000003
 21
166.60000000000005
 31
0.0
  0
LINE
 62
5
  8
0
 10
173.0
 20
222.60000000000005
 30
0.0
 11
173.0
 21
166.60000000000005
 31
0.0
  0
LINE
 62
5
  8
0
 10
163.00000000000003
 20
222.60000000000005
 30
0.0
 11
173.0
 21
222.60000000000005
 31
0.0
  0
LINE
 62
5
  8
0
 10
65.0
 20
166.60000000000002
 30
0.0
 11
85.00000000000001
 21
166.60000000000002
 31
0.0
  0
LINE
  6
DOTTED
 62
1
  8
0
 10
65.0
 20
166.60000000000002
 30
0.0
 11
65.0
 21
66.60000000000001
 31
0.0
  0
LINE
 62
5
  8
0
 10
85.00000000000001
 20
66.60000000000001
 30
0.0
 11
65.0
 21
66.60000000000001
 31
0.0
  0
LINE
 62
5
  8
0
 10
0.0
 20
166.60000000000002
 30
0.0
 11
65.0
 21
166.60000000000002
 31
0.0
  0
LINE
 62
5
  8
0
 10
0.0
 20
66.60000000000001
 30
0.0
 11
0.0
 21
166.60000000000002
 31
0.0
  0
LINE
 62
5
  8
0
 10
26.000000000000004
 20
66.60000000000001
 30
0.0
 11
0.0
 21
66.60000000000001
 31
0.0
  0
LINE
 62
5
  8
0
 10
39.00000000000001
 20
66.60000000000001
 30
0.0
 11
26.000000000000004
 21
66.60000000000001
 31
0.0
  0
LINE
 62
5
  8
0
 10
65.0
 20
66.60000000000001
 30
0.0
 11
39.00000000000001
 21
66.60000000000001
 31
0.0
  0
LINE
 62
5
  8
0
 10
65.0
 20
66.60000000000001
 30
0.0
 11
65.0
 21
66.60000000000001
 31
0.0
  0
LINE
 62
5
  8
0
 10
0.0
 20
66.60000000000001
 30
0.0
 11
0.0
 21
66.60000000000001
 31
0.0
  0
LINE
 62
5
  8
0
 10
150.0
 20
166.60000000000002
 30
0.0
 11
170.00000000000003
 21
166.60000000000002
 31
0.0
  0
LINE
 62
5
  8
0
 10
170.00000000000003
 20
66.60000000000001
 30
0.0
 11
150.0
 21
66.60000000000001
 31
0.0
  0
LINE
  6
DOTTED
 62
1
  8
0
 10
170.00000000000003
 20
66.60000000000001
 30
0.0
 11
170.00000000000003
 21
166.60000000000002
 31
0.0
  0
LINE
 62
5
  8
0
 10
180.0
 20
66.60000000000001
 30
0.0
 11
170.00000000000003
 21
66.60000000000001
 31
0.0
  0
LINE
 62
5
  8
0
 10
180.0
 20
166.60000000000002
 30
0.0
 11
180.0
 21
66.60000000000001
 31
0.0
  0
LINE
 62
5
  8
0
 10
170.00000000000003
 20
166.60000000000002
 30
0.0
 11
180.0
 21
166.60000000000002
 31
0.0
  0
LINE
 62
5
  8
0
 10
119.66666666666667
 20
51.50000000000001
 30
0.0
 11
115.33333333333334
 21
51.50000000000001
 31
0.0
  0
LINE
 62
5
  8
0
 10
115.33333333333334
 20
51.50000000000001
 30
0.0
 11
115.33333333333334
 21
61.50000000000001
 31
0.0
  0
LINE
 62
5
  8
0
 10
115.33333333333334
 20
61.50000000000001
 30
0.0
 11
119.66666666666669
 21
61.50000000000001
 31
0.0
  0
LINE
 62
5
  8
0
 10
125.50000000000001
 20
86.10000000000001
 30
0.0
 11
121.50000000000001
 21
86.10000000000001
 31
0.0
  0
LINE
 62
5
  8
0
 10
121.50000000000001
 20
86.10000000000001
 30
0.0
 11
121.50000000000001
 21
77.10000000000001
 31
0.0
  0
LINE
 62
5
  8
0
 10
121.50000000000001
 20
77.10000000000001
 30
0.0
 11
125.50000000000001
 21
77.10000000000001
 31
0.0
  0
LINE
 62
5
  8
0
 10
125.50000000000001
 20
77.10000000000001
 30
0.0
 11
125.50000000000001
 21
86.10000000000001
 31
0.0
  0
LINE
 62
5
  8
0
 10
119.75000000000001
 20
109.85000000000001
 30
0.0
 11
92.75000000000001
 21
109.85000000000001
 31
0.0
  0
LINE
 62
5
  8
0
 10
92.75000000000001
 20
109.85000000000001
 30
0.0
 11
92.75000000000001
 21
101.85000000000001
 31
0.0
  0
LINE
 62
5
  8
0
 10
92.75000000000001
 20
101.85000000000001
 30
0.0
 11
119.75000000000001
 21
101.85000000000001
 31
0.0
  0
LINE
 62
5
  8
0
 10
119.75000000000001
 20
101.85000000000001
 30
0.0
 11
119.75000000000001
 21
109.85000000000001
 31
0.0
  0
LINE
 62
5
  8
0
 10
99.47000000000001
 20
94.03000000000002
 30
0.0
 11
96.47000000000001
 21
94.03000000000002
 31
0.0
  0
LINE
 62
5
  8
0
 10
96.47000000000001
 20
94.03000000000002
 30
0.0
 11
96.47000000000001
 21
91.03
 31
0.0
  0
LINE
 62
5
  8
0
 10
96.47000000000001
 20
91.03
 30
0.0
 11
99.47000000000001
 21
91.03
 31
0.0
  0
LINE
 62
5
  8
0
 10
99.47000000000001
 20
91.03
 30
0.0
 11
99.47000000000001
 21
94.03000000000002
 31
0.0
  0
LINE
 62
5
  8
0
 10
98.47000000000001
 20
70.16999999999999
 30
0.0
 11
97.47000000000001
 21
70.16999999999999
 31
0.0
  0
LINE
 62
5
  8
0
 10
97.47000000000001
 20
70.16999999999999
 30
0.0
 11
97.47000000000001
 21
69.17
 31
0.0
  0
LINE
 62
5
  8
0
 10
97.47000000000001
 20
69.17
 30
0.0
 11
98.47000000000001
 21
69.17
 31
0.0
  0
LINE
 62
5
  8
0
 10
98.47000000000001
 20
69.17
 30
0.0
 11
98.47000000000001
 21
70.16999999999999
 31
0.0
  0
LINE
 62
5
  8
0
 10
101.01
 20
93.03000000000002
 30
0.0
 11
100.01
 21
93.03000000000002
 31
0.0
  0
LINE
 62
5
  8
0
 10
100.01
 20
93.03000000000002
 30
0.0
 11
100.01
 21
92.03
 31
0.0
  0
LINE
 62
5
  8
0
 10
100.01
 20
92.03
 30
0.0
 11
101.01
 21
92.03
 31
0.0
  0
LINE
 62
5
  8
0
 10
101.01
 20
92.03
 30
0.0
 11
101.01
 21
93.03000000000002
 31
0.0
  0
LINE
 62
5
  8
0
 10
101.01
 20
70.16999999999999
 30
0.0
 11
100.01
 21
70.16999999999999
 31
0.0
  0
LINE
 62
5
  8
0
 10
100.01
 20
70.16999999999999
 30
0.0
 11
100.01
 21
69.17
 31
0.0
  0
LINE
 62
5
  8
0
 10
100.01
 20
69.17
 30
0.0
 11
101.01
 21
69.17
 31
0.0
  0
LINE
 62
5
  8
0
 10
101.01
 20
69.17
 30
0.0
 11
101.01
 21
70.16999999999999
 31
0.0
  0
LINE
 62
5
  8
0
 10
103.55000000000001
 20
93.03000000000002
 30
0.0
 11
102.55000000000001
 21
93.03000000000002
 31
0.0
  0
LINE
 62
5
  8
0
 10
102.55000000000001
 20
93.03000000000002
 30
0.0
 11
102.55000000000001
 21
92.03
 31
0.0
  0
LINE
 62
5
  8
0
 10
102.55000000000001
 20
92.03
 30
0.0
 11
103.55000000000001
 21
92.03
 31
0.0
  0
LINE
 62
5
  8
0
 10
103.55000000000001
 20
92.03
 30
0.0
 11
103.55000000000001
 21
93.03000000000002
 31
0.0
  0
LINE
 62
5
  8
0
 10
103.55000000000001
 20
70.16999999999999
 30
0.0
 11
102.55000000000001
 21
70.16999999999999
 31
0.0
  0
LINE
 62
5
  8
0
 10
102.55000000000001
 20
70.16999999999999
 30
0.0
 11
102.55000000000001
 21
69.17
 31
0.0
  0
LINE
 62
5
  8
0
 10
102.55000000000001
 20
69.17
 30
0.0
 11
103.55000000000001
 21
69.17
 31
0.0
  0
LINE
 62
5
  8
0
 10
103.55000000000001
 20
69.17
 30
0.0
 11
103.55000000000001
 21
70.16999999999999
 31
0.0
  0
LINE
 62
5
  8
0
 10
106.09000000000002
 20
93.03000000000002
 30
0.0
 11
105.09000000000002
 21
93.03000000000002
 31
0.0
  0
LINE
 62
5
  8
0
 10
105.09000000000002
 20
93.03000000000002
 30
0.0
 11
105.09000000000002
 21
92.03
 31
0.0
  0
LINE
 62
5
  8
0
 10
105.09000000000002
 20
92.03
 30
0.0
 11
106.09000000000002
 21
92.03
 31
0.0
  0
LINE
 62
5
  8
0
 10
106.09000000000002
 20
92.03
 30
0.0
 11
106.09000000000002
 21
93.03000000000002
 31
0.0
  0
LINE
 62
5
  8
0
 10
106.09000000000002
 20
70.16999999999999
 30
0.0
 11
105.09000000000002
 21
70.16999999999999
 31
0.0
  0
LINE
 62
5
  8
0
 10
105.09000000000002
 20
70.16999999999999
 30
0.0
 11
105.09000000000002
 21
69.17
 31
0.0
  0
LINE
 62
5
  8
0
 10
105.09000000000002
 20
69.17
 30
0.0
 11
106.09000000000002
 21
69.17
 31
0.0
  0
LINE
 62
5
  8
0
 10
106.09000000000002
 20
69.17
 30
0.0
 11
106.09000000000002
 21
70.16999999999999
 31
0.0
  0
LINE
 62
5
  8
0
 10
108.63000000000001
 20
93.03000000000002
 30
0.0
 11
107.63000000000001
 21
93.03000000000002
 31
0.0
  0
LINE
 62
5
  8
0
 10
107.63000000000001
 20
93.03000000000002
 30
0.0
 11
107.63000000000001
 21
92.03
 31
0.0
  0
LINE
 62
5
  8
0
 10
107.63000000000001
 20
92.03
 30
0.0
 11
108.63000000000001
 21
92.03
 31
0.0
  0
LINE
 62
5
  8
0
 10
108.63000000000001
 20
92.03
 30
0.0
 11
108.63000000000001
 21
93.03000000000002
 31
0.0
  0
LINE
 62
5
  8
0
 10
108.63000000000001
 20
70.16999999999999
 30
0.0
 11
107.63000000000001
 21
70.16999999999999
 31
0.0
  0
LINE
 62
5
  8
0
 10
107.63000000000001
 20
70.16999999999999
 30
0.0
 11
107.63000000000001
 21
69.17
 31
0.0
  0
LINE
 62
5
  8
0
 10
107.63000000000001
 20
69.17
 30
0.0
 11
108.63000000000001
 21
69.17
 31
0.0
  0
LINE
 62
5
  8
0
 10
108.63000000000001
 20
69.17
 30
0.0
 11
108.63000000000001
 21
70.16999999999999
 31
0.0
  0
LINE
 62
5
  8
0
 10
111.17000000000002
 20
93.03000000000002
 30
0.0
 11
110.17000000000002
 21
93.03000000000002
 31
0.0
  0
LINE
 62
5
  8
0
 10
110.17000000000002
 20
93.03000000000002
 30
0.0
 11
110.17000000000002
 21
92.03
 31
0.0
  0
LINE
 62
5
  8
0
 10
110.17000000000002
 20
92.03
 30
0.0
 11
111.17000000000002
 21
92.03
 31
0.0
  0
LINE
 62
5
  8
0
 10
111.17000000000002
 20
92.03
 30
0.0
 11
111.17000000000002
 21
93.03000000000002
 31
0.0
  0
LINE
 62
5
  8
0
 10
111.17000000000002
 20
70.16999999999999
 30
0.0
 11
110.17000000000002
 21
70.16999999999999
 31
0.0
  0
LINE
 62
5
  8
0
 10
110.17000000000002
 20
70.16999999999999
 30
0.0
 11
110.17000000000002
 21
69.17
 31
0.0
  0
LINE
 62
5
  8
0
 10
110.17000000000002
 20
69.17
 30
0.0
 11
111.17000000000002
 21
69.17
 31
0.0
  0
LINE
 62
5
  8
0
 10
111.17000000000002
 20
69.17
 30
0.0
 11
111.17000000000002
 21
70.16999999999999
 31
0.0
  0
LINE
 62
5
  8
0
 10
113.71000000000002
 20
93.03000000000002
 30
0.0
 11
112.71000000000002
 21
93.03000000000002
 31
0.0
  0
LINE
 62
5
  8
0
 10
112.71000000000002
 20
93.03000000000002
 30
0.0
 11
112.71000000000002
 21
92.03
 31
0.0
  0
LINE
 62
5
  8
0
 10
112.71000000000002
 20
92.03
 30
0.0
 11
113.71000000000002
 21
92.03
 31
0.0
  0
LINE
 62
5
  8
0
 10
113.71000000000002
 20
92.03
 30
0.0
 11
113.71000000000002
 21
93.03000000000002
 31
0.0
  0
LINE
 62
5
  8
0
 10
113.71000000000002
 20
70.16999999999999
 30
0.0
 11
112.71000000000002
 21
70.16999999999999
 31
0.0
  0
LINE
 62
5
  8
0
 10
112.71000000000002
 20
70.16999999999999
 30
0.0
 11
112.71000000000002
 21
69.17
 31
0.0
  0
LINE
 62
5
  8
0
 10
112.71000000000002
 20
69.17
 30
0.0
 11
113.71000000000002
 21
69.17
 31
0.0
  0
LINE
 62
5
  8
0
 10
113.71000000000002
 20
69.17
 30
0.0
 11
113.71000000000002
 21
70.16999999999999
 31
0.0
  0
LINE
 62
5
  8
0
 10
116.25000000000001
 20
93.03
 30
0.0
 11
115.25000000000001
 21
93.03
 31
0.0
  0
LINE
 62
5
  8
0
 10
115.25000000000001
 20
93.03
 30
0.0
 11
115.25000000000001
 21
92.02999999999999
 31
0.0
  0
LINE
 62
5
  8
0
 10
115.25000000000001
 20
92.02999999999999
 30
0.0
 11
116.25000000000001
 21
92.02999999999999
 31
0.0
  0
LINE
 62
5
  8
0
 10
116.25000000000001
 20
92.02999999999999
 30
0.0
 11
116.25000000000001
 21
93.03
 31
0.0
  0
LINE
 62
5
  8
0
 10
116.25000000000001
 20
70.16999999999999
 30
0.0
 11
115.25000000000001
 21
70.16999999999999
 31
0.0
  0
LINE
 62
5
  8
0
 10
115.25000000000001
 20
70.16999999999999
 30
0.0
 11
115.25000000000001
 21
69.17
 31
0.0
  0
LINE
 62
5
  8
0
 10
115.25000000000001
 20
69.17
 30
0.0
 11
116.25000000000001
 21
69.17
 31
0.0
  0
LINE
 62
5
  8
0
 10
116.25000000000001
 20
69.17
 30
0.0
 11
116.25000000000001
 21
70.16999999999999
 31
0.0
  0
LINE
 62
5
  8
0
 10
118.79
 20
93.03
 30
0.0
 11
117.79
 21
93.03
 31
0.0
  0
LINE
 62
5
  8
0
 10
117.79
 20
93.03
 30
0.0
 11
117.79
 21
92.02999999999999
 31
0.0
  0
LINE
 62
5
  8
0
 10
117.79
 20
92.02999999999999
 30
0.0
 11
118.79
 21
92.02999999999999
 31
0.0
  0
LINE
 62
5
  8
0
 10
118.79
 20
92.02999999999999
 30
0.0
 11
118.79
 21
93.03
 31
0.0
  0
LINE
 62
5
  8
0
 10
118.79
 20
70.16999999999999
 30
0.0
 11
117.79
 21
70.16999999999999
 31
0.0
  0
LINE
 62
5
  8
0
 10
117.79
 20
70.16999999999999
 30
0.0
 11
117.79
 21
69.17
 31
0.0
  0
LINE
 62
5
  8
0
 10
117.79
 20
69.17
 30
0.0
 11
118.79
 21
69.17
 31
0.0
  0
LINE
 62
5
  8
0
 10
118.79
 20
69.17
 30
0.0
 11
118.79
 21
70.16999999999999
 31
0.0
  0
LINE
 62
5
  8
0
 10
121.33000000000001
 20
93.03
 30
0.0
 11
120.33000000000001
 21
93.03
 31
0.0
  0
LINE
 62
5
  8
0
 10
120.33000000000001
 20
93.03
 30
0.0
 11
120.33000000000001
 21
92.02999999999999
 31
0.0
  0
LINE
 62
5
  8
0
 10
120.33000000000001
 20
92.02999999999999
 30
0.0
 11
121.33000000000001
 21
92.02999999999999
 31
0.0
  0
LINE
 62
5
  8
0
 10
121.33000000000001
 20
92.02999999999999
 30
0.0
 11
121.33000000000001
 21
93.03
 31
0.0
  0
LINE
 62
5
  8
0
 10
121.33000000000001
 20
70.16999999999999
 30
0.0
 11
120.33000000000001
 21
70.16999999999999
 31
0.0
  0
LINE
 62
5
  8
0
 10
120.33000000000001
 20
70.16999999999999
 30
0.0
 11
120.33000000000001
 21
69.17
 31
0.0
  0
LINE
 62
5
  8
0
 10
120.33000000000001
 20
69.17
 30
0.0
 11
121.33000000000001
 21
69.17
 31
0.0
  0
LINE
 62
5
  8
0
 10
121.33000000000001
 20
69.17
 30
0.0
 11
121.33000000000001
 21
70.16999999999999
 31
0.0
  0
LINE
 62
5
  8
0
 10
123.87000000000002
 20
93.03
 30
0.0
 11
122.87000000000002
 21
93.03
 31
0.0
  0
LINE
 62
5
  8
0
 10
122.87000000000002
 20
93.03
 30
0.0
 11
122.87000000000002
 21
92.02999999999999
 31
0.0
  0
LINE
 62
5
  8
0
 10
122.87000000000002
 20
92.02999999999999
 30
0.0
 11
123.87000000000002
 21
92.02999999999999
 31
0.0
  0
LINE
 62
5
  8
0
 10
123.87000000000002
 20
92.02999999999999
 30
0.0
 11
123.87000000000002
 21
93.03
 31
0.0
  0
LINE
 62
5
  8
0
 10
123.87000000000002
 20
70.16999999999999
 30
0.0
 11
122.87000000000002
 21
70.16999999999999
 31
0.0
  0
LINE
 62
5
  8
0
 10
122.87000000000002
 20
70.16999999999999
 30
0.0
 11
122.87000000000002
 21
69.17
 31
0.0
  0
LINE
 62
5
  8
0
 10
122.87000000000002
 20
69.17
 30
0.0
 11
123.87000000000002
 21
69.17
 31
0.0
  0
LINE
 62
5
  8
0
 10
123.87000000000002
 20
69.17
 30
0.0
 11
123.87000000000002
 21
70.16999999999999
 31
0.0
  0
LINE
 62
5
  8
0
 10
126.41000000000003
 20
93.03
 30
0.0
 11
125.41000000000001
 21
93.03
 31
0.0
  0
LINE
 62
5
  8
0
 10
125.41000000000001
 20
93.03
 30
0.0
 11
125.41000000000001
 21
92.02999999999999
 31
0.0
  0
LINE
 62
5
  8
0
 10
125.41000000000001
 20
92.02999999999999
 30
0.0
 11
126.41000000000003
 21
92.02999999999999
 31
0.0
  0
LINE
 62
5
  8
0
 10
126.41000000000003
 20
92.02999999999999
 30
0.0
 11
126.41000000000003
 21
93.03
 31
0.0
  0
LINE
 62
5
  8
0
 10
126.41000000000003
 20
70.16999999999999
 30
0.0
 11
125.41000000000001
 21
70.16999999999999
 31
0.0
  0
LINE
 62
5
  8
0
 10
125.41000000000001
 20
70.16999999999999
 30
0.0
 11
125.41000000000001
 21
69.17
 31
0.0
  0
LINE
 62
5
  8
0
 10
125.41000000000001
 20
69.17
 30
0.0
 11
126.41000000000003
 21
69.17
 31
0.0
  0
LINE
 62
5
  8
0
 10
126.41000000000003
 20
69.17
 30
0.0
 11
126.41000000000003
 21
70.16999999999999
 31
0.0
  0
LINE
 62
5
  8
0
 10
128.95000000000002
 20
93.03
 30
0.0
 11
127.95000000000002
 21
93.03
 31
0.0
  0
LINE
 62
5
  8
0
 10
127.95000000000002
 20
93.03
 30
0.0
 11
127.95000000000002
 21
92.02999999999999
 31
0.0
  0
LINE
 62
5
  8
0
 10
127.95000000000002
 20
92.02999999999999
 30
0.0
 11
128.95000000000002
 21
92.02999999999999
 31
0.0
  0
LINE
 62
5
  8
0
 10
128.95000000000002
 20
92.02999999999999
 30
0.0
 11
128.95000000000002
 21
93.03
 31
0.0
  0
LINE
 62
5
  8
0
 10
128.95000000000002
 20
70.16999999999999
 30
0.0
 11
127.95000000000002
 21
70.16999999999999
 31
0.0
  0
LINE
 62
5
  8
0
 10
127.95000000000002
 20
70.16999999999999
 30
0.0
 11
127.95000000000002
 21
69.17
 31
0.0
  0
LINE
 62
5
  8
0
 10
127.95000000000002
 20
69.17
 30
0.0
 11
128.95000000000002
 21
69.17
 31
0.0
  0
LINE
 62
5
  8
0
 10
128.95000000000002
 20
69.17
 30
0.0
 11
128.95000000000002
 21
70.16999999999999
 31
0.0
  0
LINE
 62
5
  8
0
 10
131.49000000000004
 20
93.03
 30
0.0
 11
130.49
 21
93.03
 31
0.0
  0
LINE
 62
5
  8
0
 10
130.49
 20
93.03
 30
0.0
 11
130.49
 21
92.02999999999999
 31
0.0
  0
LINE
 62
5
  8
0
 10
130.49
 20
92.02999999999999
 30
0.0
 11
131.49000000000004
 21
92.02999999999999
 31
0.0
  0
LINE
 62
5
  8
0
 10
131.49000000000004
 20
92.02999999999999
 30
0.0
 11
131.49000000000004
 21
93.03
 31
0.0
  0
LINE
 62
5
  8
0
 10
131.49000000000004
 20
70.16999999999999
 30
0.0
 11
130.49
 21
70.16999999999999
 31
0.0
  0
LINE
 62
5
  8
0
 10
130.49
 20
70.16999999999999
 30
0.0
 11
130.49
 21
69.17
 31
0.0
  0
LINE
 62
5
  8
0
 10
130.49
 20
69.17
 30
0.0
 11
131.49000000000004
 21
69.17
 31
0.0
  0
LINE
 62
5
  8
0
 10
131.49000000000004
 20
69.17
 30
0.0
 11
131.49000000000004
 21
70.16999999999999
 31
0.0
  0
LINE
 62
5
  8
0
 10
134.03000000000003
 20
93.03
 30
0.0
 11
133.03000000000003
 21
93.03
 31
0.0
  0
LINE
 62
5
  8
0
 10
133.03000000000003
 20
93.03
 30
0.0
 11
133.03000000000003
 21
92.02999999999999
 31
0.0
  0
LINE
 62
5
  8
0
 10
133.03000000000003
 20
92.02999999999999
 30
0.0
 11
134.03000000000003
 21
92.02999999999999
 31
0.0
  0
LINE
 62
5
  8
0
 10
134.03000000000003
 20
92.02999999999999
 30
0.0
 11
134.03000000000003
 21
93.03
 31
0.0
  0
LINE
 62
5
  8
0
 10
135.03000000000003
 20
71.16999999999999
 30
0.0
 11
132.03
 21
71.16999999999999
 31
0.0
  0
LINE
 62
5
  8
0
 10
132.03
 20
71.16999999999999
 30
0.0
 11
132.03
 21
68.17
 31
0.0
  0
LINE
 62
5
  8
0
 10
132.03
 20
68.17
 30
0.0
 11
135.03000000000003
 21
68.17
 31
0.0
  0
LINE
 62
5
  8
0
 10
135.03000000000003
 20
68.17
 30
0.0
 11
135.03000000000003
 21
71.16999999999999
 31
0.0
  0
LINE
 62
5
  8
0
 10
106.75000000000001
 20
185.01666666666668
 30
0.0
 11
106.75000000000001
 21
204.18333333333337
 31
0.0
  0
LINE
 62
5
  8
0
 10
106.75000000000001
 20
204.18333333333337
 30
0.0
 11
106.25000000000001
 21
204.18333333333337
 31
0.0
  0
LINE
 62
5
  8
0
 10
106.25000000000001
 20
204.18333333333337
 30
0.0
 11
106.25000000000001
 21
185.01666666666668
 31
0.0
  0
LINE
 62
5
  8
0
 10
106.25000000000001
 20
185.01666666666668
 30
0.0
 11
106.75000000000001
 21
185.01666666666668
 31
0.0
  0
LINE
 62
5
  8
0
 10
162.93500000000003
 20
194.60000000000002
 30
0.0
 11
150.065
 21
194.60000000000002
 31
0.0
  0
LINE
 62
5
  8
0
 10
150.065
 20
194.60000000000002
 30
0.0
 11
150.065
 21
171.60000000000002
 31
0.0
  0
LINE
 62
5
  8
0
 10
150.065
 20
171.60000000000002
 30
0.0
 11
162.93500000000003
 21
171.60000000000002
 31
0.0
  0
LINE
 62
5
  8
0
 10
162.93500000000003
 20
171.60000000000002
 30
0.0
 11
162.93500000000003
 21
194.60000000000002
 31
0.0
  0
LINE
 62
5
  8
0
 10
162.93500000000003
 20
338.6000000000001
 30
0.0
 11
150.065
 21
338.6000000000001
 31
0.0
  0
LINE
 62
5
  8
0
 10
150.065
 20
338.6000000000001
 30
0.0
 11
150.065
 21
315.6000000000001
 31
0.0
  0
LINE
 62
5
  8
0
 10
150.065
 20
315.6000000000001
 30
0.0
 11
162.93500000000003
 21
315.6000000000001
 31
0.0
  0
LINE
 62
5
  8
0
 10
162.93500000000003
 20
315.6000000000001
 30
0.0
 11
162.93500000000003
 21
338.6000000000001
 31
0.0
  0
LINE
 62
5
  8
0
 10
106.75000000000001
 20
306.0166666666667
 30
0.0
 11
106.75000000000001
 21
325.1833333333334
 31
0.0
  0
LINE
 62
5
  8
0
 10
106.75000000000001
 20
325.1833333333334
 30
0.0
 11
106.25000000000001
 21
325.1833333333334
 31
0.0
  0
LINE
 62
5
  8
0
 10
106.25000000000001
 20
325.1833333333334
 30
0.0
 11
106.25000000000001
 21
306.0166666666667
 31
0.0
  0
LINE
 62
5
  8
0
 10
106.25000000000001
 20
306.0166666666667
 30
0.0
 11
106.75000000000001
 21
306.0166666666667
 31
0.0
  0
LINE
 62
5
  8
0
 10
170.5
 20
324.9333333333334
 30
0.0
 11
170.5
 21
329.9333333333334
 31
0.0
  0
LINE
 62
5
  8
0
 10
170.5
 20
329.9333333333334
 30
0.0
 11
165.50000000000003
 21
324.9333333333334
 31
0.0
  0
LINE
 62
5
  8
0
 10
165.50000000000003
 20
324.9333333333334
 30
0.0
 11
165.50000000000003
 21
306.2666666666667
 31
0.0
  0
LINE
 62
5
  8
0
 10
165.50000000000003
 20
306.2666666666667
 30
0.0
 11
170.5
 21
301.2666666666667
 31
0.0
  0
LINE
 62
5
  8
0
 10
170.5
 20
301.2666666666667
 30
0.0
 11
170.5
 21
306.2666666666667
 31
0.0
  0
LINE
 62
5
  8
0
 10
149.25000000000003
 20
252.85000000000005
 30
0.0
 11
149.25000000000003
 21
279.8500000000001
 31
0.0
  0
LINE
 62
5
  8
0
 10
149.25000000000003
 20
279.8500000000001
 30
0.0
 11
141.25
 21
279.8500000000001
 31
0.0
  0
LINE
 62
5
  8
0
 10
141.25
 20
279.8500000000001
 30
0.0
 11
141.25
 21
252.85000000000005
 31
0.0
  0
LINE
 62
5
  8
0
 10
141.25
 20
252.85000000000005
 30
0.0
 11
149.25000000000003
 21
252.85000000000005
 31
0.0
  0
LINE
 62
5
  8
0
 10
133.43000000000004
 20
273.13
 30
0.0
 11
133.43000000000004
 21
276.13000000000005
 31
0.0
  0
LINE
 62
5
  8
0
 10
133.43000000000004
 20
276.13000000000005
 30
0.0
 11
130.43000000000004
 21
276.13000000000005
 31
0.0
  0
LINE
 62
5
  8
0
 10
130.43000000000004
 20
276.13000000000005
 30
0.0
 11
130.43000000000004
 21
273.13
 31
0.0
  0
LINE
 62
5
  8
0
 10
130.43000000000004
 20
273.13
 30
0.0
 11
133.43000000000004
 21
273.13
 31
0.0
  0
LINE
 62
5
  8
0
 10
109.57
 20
274.13
 30
0.0
 11
109.57
 21
275.13000000000005
 31
0.0
  0
LINE
 62
5
  8
0
 10
109.57
 20
275.13000000000005
 30
0.0
 11
108.57000000000001
 21
275.13000000000005
 31
0.0
  0
LINE
 62
5
  8
0
 10
108.57000000000001
 20
275.13000000000005
 30
0.0
 11
108.57000000000001
 21
274.13
 31
0.0
  0
LINE
 62
5
  8
0
 10
108.57000000000001
 20
274.13
 30
0.0
 11
109.57
 21
274.13
 31
0.0
  0
LINE
 62
5
  8
0
 10
132.43000000000004
 20
271.59000000000003
 30
0.0
 11
132.43000000000004
 21
272.5900000000001
 31
0.0
  0
LINE
 62
5
  8
0
 10
132.43000000000004
 20
272.5900000000001
 30
0.0
 11
131.43000000000004
 21
272.5900000000001
 31
0.0
  0
LINE
 62
5
  8
0
 10
131.43000000000004
 20
272.5900000000001
 30
0.0
 11
131.43000000000004
 21
271.59000000000003
 31
0.0
  0
LINE
 62
5
  8
0
 10
131.43000000000004
 20
271.59000000000003
 30
0.0
 11
132.43000000000004
 21
271.59000000000003
 31
0.0
  0
LINE
 62
5
  8
0
 10
109.57
 20
271.59000000000003
 30
0.0
 11
109.57
 21
272.5900000000001
 31
0.0
  0
LINE
 62
5
  8
0
 10
109.57
 20
272.5900000000001
 30
0.0
 11
108.57000000000001
 21
272.5900000000001
 31
0.0
  0
LINE
 62
5
  8
0
 10
108.57000000000001
 20
272.5900000000001
 30
0.0
 11
108.57000000000001
 21
271.59000000000003
 31
0.0
  0
LINE
 62
5
  8
0
 10
108.57000000000001
 20
271.59000000000003
 30
0.0
 11
109.57
 21
271.59000000000003
 31
0.0
  0
LINE
 62
5
  8
0
 10
132.43000000000004
 20
269.05000000000007
 30
0.0
 11
132.43000000000004
 21
270.05000000000007
 31
0.0
  0
LINE
 62
5
  8
0
 10
132.43000000000004
 20
270.05000000000007
 30
0.0
 11
131.43000000000004
 21
270.05000000000007
 31
0.0
  0
LINE
 62
5
  8
0
 10
131.43000000000004
 20
270.05000000000007
 30
0.0
 11
131.43000000000004
 21
269.05000000000007
 31
0.0
  0
LINE
 62
5
  8
0
 10
131.43000000000004
 20
269.05000000000007
 30
0.0
 11
132.43000000000004
 21
269.05000000000007
 31
0.0
  0
LINE
 62
5
  8
0
 10
109.57
 20
269.05000000000007
 30
0.0
 11
109.57
 21
270.05000000000007
 31
0.0
  0
LINE
 62
5
  8
0
 10
109.57
 20
270.05000000000007
 30
0.0
 11
108.57000000000001
 21
270.05000000000007
 31
0.0
  0
LINE
 62
5
  8
0
 10
108.57000000000001
 20
270.05000000000007
 30
0.0
 11
108.57000000000001
 21
269.05000000000007
 31
0.0
  0
LINE
 62
5
  8
0
 10
108.57000000000001
 20
269.05000000000007
 30
0.0
 11
109.57
 21
269.05000000000007
 31
0.0
  0
LINE
 62
5
  8
0
 10
132.43000000000004
 20
266.51000000000005
 30
0.0
 11
132.43000000000004
 21
267.51
 31
0.0
  0
LINE
 62
5
  8
0
 10
132.43000000000004
 20
267.51
 30
0.0
 11
131.43000000000004
 21
267.51
 31
0.0
  0
LINE
 62
5
  8
0
 10
131.43000000000004
 20
267.51
 30
0.0
 11
131.43000000000004
 21
266.51000000000005
 31
0.0
  0
LINE
 62
5
  8
0
 10
131.43000000000004
 20
266.51000000000005
 30
0.0
 11
132.43000000000004
 21
266.51000000000005
 31
0.0
  0
LINE
 62
5
  8
0
 10
109.57
 20
266.51000000000005
 30
0.0
 11
109.57
 21
267.51
 31
0.0
  0
LINE
 62
5
  8
0
 10
109.57
 20
267.51
 30
0.0
 11
108.57000000000001
 21
267.51
 31
0.0
  0
LINE
 62
5
  8
0
 10
108.57000000000001
 20
267.51
 30
0.0
 11
108.57000000000001
 21
266.51000000000005
 31
0.0
  0
LINE
 62
5
  8
0
 10
108.57000000000001
 20
266.51000000000005
 30
0.0
 11
109.57
 21
266.51000000000005
 31
0.0
  0
LINE
 62
5
  8
0
 10
132.43000000000004
 20
263.9700000000001
 30
0.0
 11
132.43000000000004
 21
264.9700000000001
 31
0.0
  0
LINE
 62
5
  8
0
 10
132.43000000000004
 20
264.9700000000001
 30
0.0
 11
131.43000000000004
 21
264.9700000000001
 31
0.0
  0
LINE
 62
5
  8
0
 10
131.43000000000004
 20
264.9700000000001
 30
0.0
 11
131.43000000000004
 21
263.9700000000001
 31
0.0
  0
LINE
 62
5
  8
0
 10
131.43000000000004
 20
263.9700000000001
 30
0.0
 11
132.43000000000004
 21
263.9700000000001
 31
0.0
  0
LINE
 62
5
  8
0
 10
109.57
 20
263.9700000000001
 30
0.0
 11
109.57
 21
264.9700000000001
 31
0.0
  0
LINE
 62
5
  8
0
 10
109.57
 20
264.9700000000001
 30
0.0
 11
108.57000000000001
 21
264.9700000000001
 31
0.0
  0
LINE
 62
5
  8
0
 10
108.57000000000001
 20
264.9700000000001
 30
0.0
 11
108.57000000000001
 21
263.9700000000001
 31
0.0
  0
LINE
 62
5
  8
0
 10
108.57000000000001
 20
263.9700000000001
 30
0.0
 11
109.57
 21
263.9700000000001
 31
0.0
  0
LINE
 62
5
  8
0
 10
132.43000000000004
 20
261.43
 30
0.0
 11
132.43000000000004
 21
262.43000000000006
 31
0.0
  0
LINE
 62
5
  8
0
 10
132.43000000000004
 20
262.43000000000006
 30
0.0
 11
131.43000000000004
 21
262.43000000000006
 31
0.0
  0
LINE
 62
5
  8
0
 10
131.43000000000004
 20
262.43000000000006
 30
0.0
 11
131.43000000000004
 21
261.43
 31
0.0
  0
LINE
 62
5
  8
0
 10
131.43000000000004
 20
261.43
 30
0.0
 11
132.43000000000004
 21
261.43
 31
0.0
  0
LINE
 62
5
  8
0
 10
109.57
 20
261.43
 30
0.0
 11
109.57
 21
262.43000000000006
 31
0.0
  0
LINE
 62
5
  8
0
 10
109.57
 20
262.43000000000006
 30
0.0
 11
108.57000000000001
 21
262.43000000000006
 31
0.0
  0
LINE
 62
5
  8
0
 10
108.57000000000001
 20
262.43000000000006
 30
0.0
 11
108.57000000000001
 21
261.43
 31
0.0
  0
LINE
 62
5
  8
0
 10
108.57000000000001
 20
261.43
 30
0.0
 11
109.57
 21
261.43
 31
0.0
  0
LINE
 62
5
  8
0
 10
132.43000000000004
 20
258.89000000000004
 30
0.0
 11
132.43000000000004
 21
259.89000000000004
 31
0.0
  0
LINE
 62
5
  8
0
 10
132.43000000000004
 20
259.89000000000004
 30
0.0
 11
131.43000000000004
 21
259.89000000000004
 31
0.0
  0
LINE
 62
5
  8
0
 10
131.43000000000004
 20
259.89000000000004
 30
0.0
 11
131.43000000000004
 21
258.89000000000004
 31
0.0
  0
LINE
 62
5
  8
0
 10
131.43000000000004
 20
258.89000000000004
 30
0.0
 11
132.43000000000004
 21
258.89000000000004
 31
0.0
  0
LINE
 62
5
  8
0
 10
109.57
 20
258.89000000000004
 30
0.0
 11
109.57
 21
259.89000000000004
 31
0.0
  0
LINE
 62
5
  8
0
 10
109.57
 20
259.89000000000004
 30
0.0
 11
108.57000000000001
 21
259.89000000000004
 31
0.0
  0
LINE
 62
5
  8
0
 10
108.57000000000001
 20
259.89000000000004
 30
0.0
 11
108.57000000000001
 21
258.89000000000004
 31
0.0
  0
LINE
 62
5
  8
0
 10
108.57000000000001
 20
258.89000000000004
 30
0.0
 11
109.57
 21
258.89000000000004
 31
0.0
  0
LINE
 62
5
  8
0
 10
132.43000000000004
 20
256.35
 30
0.0
 11
132.43000000000004
 21
257.3500000000001
 31
0.0
  0
LINE
 62
5
  8
0
 10
132.43000000000004
 20
257.3500000000001
 30
0.0
 11
131.43000000000004
 21
257.3500000000001
 31
0.0
  0
LINE
 62
5
  8
0
 10
131.43000000000004
 20
257.3500000000001
 30
0.0
 11
131.43000000000004
 21
256.35
 31
0.0
  0
LINE
 62
5
  8
0
 10
131.43000000000004
 20
256.35
 30
0.0
 11
132.43000000000004
 21
256.35
 31
0.0
  0
LINE
 62
5
  8
0
 10
109.57
 20
256.35
 30
0.0
 11
109.57
 21
257.3500000000001
 31
0.0
  0
LINE
 62
5
  8
0
 10
109.57
 20
257.3500000000001
 30
0.0
 11
108.57000000000001
 21
257.3500000000001
 31
0.0
  0
LINE
 62
5
  8
0
 10
108.57000000000001
 20
257.3500000000001
 30
0.0
 11
108.57000000000001
 21
256.35
 31
0.0
  0
LINE
 62
5
  8
0
 10
108.57000000000001
 20
256.35
 30
0.0
 11
109.57
 21
256.35
 31
0.0
  0
LINE
 62
5
  8
0
 10
132.43000000000004
 20
253.81000000000003
 30
0.0
 11
132.43000000000004
 21
254.81000000000003
 31
0.0
  0
LINE
 62
5
  8
0
 10
132.43000000000004
 20
254.81000000000003
 30
0.0
 11
131.43000000000004
 21
254.81000000000003
 31
0.0
  0
LINE
 62
5
  8
0
 10
131.43000000000004
 20
254.81000000000003
 30
0.0
 11
131.43000000000004
 21
253.81000000000003
 31
0.0
  0
LINE
 62
5
  8
0
 10
131.43000000000004
 20
253.81000000000003
 30
0.0
 11
132.43000000000004
 21
253.81000000000003
 31
0.0
  0
LINE
 62
5
  8
0
 10
109.57
 20
253.81000000000003
 30
0.0
 11
109.57
 21
254.81000000000003
 31
0.0
  0
LINE
 62
5
  8
0
 10
109.57
 20
254.81000000000003
 30
0.0
 11
108.57000000000001
 21
254.81000000000003
 31
0.0
  0
LINE
 62
5
  8
0
 10
108.57000000000001
 20
254.81000000000003
 30
0.0
 11
108.57000000000001
 21
253.81000000000003
 31
0.0
  0
LINE
 62
5
  8
0
 10
108.57000000000001
 20
253.81000000000003
 30
0.0
 11
109.57
 21
253.81000000000003
 31
0.0
  0
LINE
 62
5
  8
0
 10
132.43000000000004
 20
251.27
 30
0.0
 11
132.43000000000004
 21
252.27
 31
0.0
  0
LINE
 62
5
  8
0
 10
132.43000000000004
 20
252.27
 30
0.0
 11
131.43000000000004
 21
252.27
 31
0.0
  0
LINE
 62
5
  8
0
 10
131.43000000000004
 20
252.27
 30
0.0
 11
131.43000000000004
 21
251.27
 31
0.0
  0
LINE
 62
5
  8
0
 10
131.43000000000004
 20
251.27
 30
0.0
 11
132.43000000000004
 21
251.27
 31
0.0
  0
LINE
 62
5
  8
0
 10
109.57
 20
251.27
 30
0.0
 11
109.57
 21
252.27
 31
0.0
  0
LINE
 62
5
  8
0
 10
109.57
 20
252.27
 30
0.0
 11
108.57000000000001
 21
252.27
 31
0.0
  0
LINE
 62
5
  8
0
 10
108.57000000000001
 20
252.27
 30
0.0
 11
108.57000000000001
 21
251.27
 31
0.0
  0
LINE
 62
5
  8
0
 10
108.57000000000001
 20
251.27
 30
0.0
 11
109.57
 21
251.27
 31
0.0
  0
LINE
 62
5
  8
0
 10
132.43000000000004
 20
248.73000000000005
 30
0.0
 11
132.43000000000004
 21
249.73000000000005
 31
0.0
  0
LINE
 62
5
  8
0
 10
132.43000000000004
 20
249.73000000000005
 30
0.0
 11
131.43000000000004
 21
249.73000000000005
 31
0.0
  0
LINE
 62
5
  8
0
 10
131.43000000000004
 20
249.73000000000005
 30
0.0
 11
131.43000000000004
 21
248.73000000000005
 31
0.0
  0
LINE
 62
5
  8
0
 10
131.43000000000004
 20
248.73000000000005
 30
0.0
 11
132.43000000000004
 21
248.73000000000005
 31
0.0
  0
LINE
 62
5
  8
0
 10
109.57
 20
248.73000000000005
 30
0.0
 11
109.57
 21
249.73000000000005
 31
0.0
  0
LINE
 62
5
  8
0
 10
109.57
 20
249.73000000000005
 30
0.0
 11
108.57000000000001
 21
249.73000000000005
 31
0.0
  0
LINE
 62
5
  8
0
 10
108.57000000000001
 20
249.73000000000005
 30
0.0
 11
108.57000000000001
 21
248.73000000000005
 31
0.0
  0
LINE
 62
5
  8
0
 10
108.57000000000001
 20
248.73000000000005
 30
0.0
 11
109.57
 21
248.73000000000005
 31
0.0
  0
LINE
 62
5
  8
0
 10
132.43000000000004
 20
246.19000000000003
 30
0.0
 11
132.43000000000004
 21
247.19000000000003
 31
0.0
  0
LINE
 62
5
  8
0
 10
132.43000000000004
 20
247.19000000000003
 30
0.0
 11
131.43000000000004
 21
247.19000000000003
 31
0.0
  0
LINE
 62
5
  8
0
 10
131.43000000000004
 20
247.19000000000003
 30
0.0
 11
131.43000000000004
 21
246.19000000000003
 31
0.0
  0
LINE
 62
5
  8
0
 10
131.43000000000004
 20
246.19000000000003
 30
0.0
 11
132.43000000000004
 21
246.19000000000003
 31
0.0
  0
LINE
 62
5
  8
0
 10
109.57
 20
246.19000000000003
 30
0.0
 11
109.57
 21
247.19000000000003
 31
0.0
  0
LINE
 62
5
  8
0
 10
109.57
 20
247.19000000000003
 30
0.0
 11
108.57000000000001
 21
247.19000000000003
 31
0.0
  0
LINE
 62
5
  8
0
 10
108.57000000000001
 20
247.19000000000003
 30
0.0
 11
108.57000000000001
 21
246.19000000000003
 31
0.0
  0
LINE
 62
5
  8
0
 10
108.57000000000001
 20
246.19000000000003
 30
0.0
 11
109.57
 21
246.19000000000003
 31
0.0
  0
LINE
 62
5
  8
0
 10
132.43000000000004
 20
243.65000000000006
 30
0.0
 11
132.43000000000004
 21
244.65000000000006
 31
0.0
  0
LINE
 62
5
  8
0
 10
132.43000000000004
 20
244.65000000000006
 30
0.0
 11
131.43000000000004
 21
244.65000000000006
 31
0.0
  0
LINE
 62
5
  8
0
 10
131.43000000000004
 20
244.65000000000006
 30
0.0
 11
131.43000000000004
 21
243.65000000000006
 31
0.0
  0
LINE
 62
5
  8
0
 10
131.43000000000004
 20
243.65000000000006
 30
0.0
 11
132.43000000000004
 21
243.65000000000006
 31
0.0
  0
LINE
 62
5
  8
0
 10
109.57
 20
243.65000000000006
 30
0.0
 11
109.57
 21
244.65000000000006
 31
0.0
  0
LINE
 62
5
  8
0
 10
109.57
 20
244.65000000000006
 30
0.0
 11
108.57000000000001
 21
244.65000000000006
 31
0.0
  0
LINE
 62
5
  8
0
 10
108.57000000000001
 20
244.65000000000006
 30
0.0
 11
108.57000000000001
 21
243.65000000000006
 31
0.0
  0
LINE
 62
5
  8
0
 10
108.57000000000001
 20
243.65000000000006
 30
0.0
 11
109.57
 21
243.65000000000006
 31
0.0
  0
LINE
 62
5
  8
0
 10
132.43000000000004
 20
241.11000000000004
 30
0.0
 11
132.43000000000004
 21
242.11000000000004
 31
0.0
  0
LINE
 62
5
  8
0
 10
132.43000000000004
 20
242.11000000000004
 30
0.0
 11
131.43000000000004
 21
242.11000000000004
 31
0.0
  0
LINE
 62
5
  8
0
 10
131.43000000000004
 20
242.11000000000004
 30
0.0
 11
131.43000000000004
 21
241.11000000000004
 31
0.0
  0
LINE
 62
5
  8
0
 10
131.43000000000004
 20
241.11000000000004
 30
0.0
 11
132.43000000000004
 21
241.11000000000004
 31
0.0
  0
LINE
 62
5
  8
0
 10
109.57
 20
241.11000000000004
 30
0.0
 11
109.57
 21
242.11000000000004
 31
0.0
  0
LINE
 62
5
  8
0
 10
109.57
 20
242.11000000000004
 30
0.0
 11
108.57000000000001
 21
242.11000000000004
 31
0.0
  0
LINE
 62
5
  8
0
 10
108.57000000000001
 20
242.11000000000004
 30
0.0
 11
108.57000000000001
 21
241.11000000000004
 31
0.0
  0
LINE
 62
5
  8
0
 10
108.57000000000001
 20
241.11000000000004
 30
0.0
 11
109.57
 21
241.11000000000004
 31
0.0
  0
LINE
 62
5
  8
0
 10
132.43000000000004
 20
238.57000000000002
 30
0.0
 11
132.43000000000004
 21
239.57000000000002
 31
0.0
  0
LINE
 62
5
  8
0
 10
132.43000000000004
 20
239.57000000000002
 30
0.0
 11
131.43000000000004
 21
239.57000000000002
 31
0.0
  0
LINE
 62
5
  8
0
 10
131.43000000000004
 20
239.57000000000002
 30
0.0
 11
131.43000000000004
 21
238.57000000000002
 31
0.0
  0
LINE
 62
5
  8
0
 10
131.43000000000004
 20
238.57000000000002
 30
0.0
 11
132.43000000000004
 21
238.57000000000002
 31
0.0
  0
LINE
 62
5
  8
0
 10
110.57000000000001
 20
237.57000000000002
 30
0.0
 11
110.57000000000001
 21
240.57000000000002
 31
0.0
  0
LINE
 62
5
  8
0
 10
110.57000000000001
 20
240.57000000000002
 30
0.0
 11
107.57000000000001
 21
240.57000000000002
 31
0.0
  0
LINE
 62
5
  8
0
 10
107.57000000000001
 20
240.57000000000002
 30
0.0
 11
107.57000000000001
 21
237.57000000000002
 31
0.0
  0
LINE
 62
5
  8
0
 10
107.57000000000001
 20
237.57000000000002
 30
0.0
 11
110.57000000000001
 21
237.57000000000002
 31
0.0
  0
LINE
 62
5
  8
0
 10
56.75000000000001
 20
263.71363636363645
 30
0.0
 11
56.75000000000001
 21
276.03181818181827
 31
0.0
  0
LINE
 62
5
  8
0
 10
56.75000000000001
 20
276.03181818181827
 30
0.0
 11
56.25000000000001
 21
276.03181818181827
 31
0.0
  0
LINE
 62
5
  8
0
 10
56.25000000000001
 20
276.03181818181827
 30
0.0
 11
56.25000000000001
 21
263.71363636363645
 31
0.0
  0
LINE
 62
5
  8
0
 10
56.25000000000001
 20
263.71363636363645
 30
0.0
 11
56.75000000000001
 21
263.71363636363645
 31
0.0
  0
LINE
 62
5
  8
0
 10
56.75000000000001
 20
234.16818181818186
 30
0.0
 11
56.75000000000001
 21
246.48636363636368
 31
0.0
  0
LINE
 62
5
  8
0
 10
56.75000000000001
 20
246.48636363636368
 30
0.0
 11
56.25000000000001
 21
246.48636363636368
 31
0.0
  0
LINE
 62
5
  8
0
 10
56.25000000000001
 20
246.48636363636368
 30
0.0
 11
56.25000000000001
 21
234.16818181818186
 31
0.0
  0
LINE
 62
5
  8
0
 10
56.25000000000001
 20
234.16818181818186
 30
0.0
 11
56.75000000000001
 21
234.16818181818186
 31
0.0
  0
LINE
 62
5
  8
0
 10
170.5
 20
275.78181818181827
 30
0.0
 11
165.50000000000003
 21
275.78181818181827
 31
0.0
  0
LINE
 62
5
  8
0
 10
165.50000000000003
 20
275.78181818181827
 30
0.0
 11
165.50000000000003
 21
263.96363636363645
 31
0.0
  0
LINE
 62
5
  8
0
 10
165.50000000000003
 20
263.96363636363645
 30
0.0
 11
170.5
 21
263.96363636363645
 31
0.0
  0
LINE
 62
5
  8
0
 10
170.5
 20
246.23636363636368
 30
0.0
 11
165.50000000000003
 21
246.23636363636368
 31
0.0
  0
LINE
 62
5
  8
0
 10
165.50000000000003
 20
246.23636363636368
 30
0.0
 11
165.50000000000003
 21
234.41818181818186
 31
0.0
  0
LINE
 62
5
  8
0
 10
165.50000000000003
 20
234.41818181818186
 30
0.0
 11
170.5
 21
234.41818181818186
 31
0.0
  0
LINE
 62
5
  8
0
 10
170.5
 20
203.93333333333334
 30
0.0
 11
170.5
 21
208.93333333333337
 31
0.0
  0
LINE
 62
5
  8
0
 10
170.5
 20
208.93333333333337
 30
0.0
 11
165.50000000000003
 21
203.93333333333334
 31
0.0
  0
LINE
 62
5
  8
0
 10
165.50000000000003
 20
203.93333333333334
 30
0.0
 11
165.50000000000003
 21
185.26666666666668
 31
0.0
  0
LINE
 62
5
  8
0
 10
165.50000000000003
 20
185.26666666666668
 30
0.0
 11
170.5
 21
180.26666666666668
 31
0.0
  0
LINE
 62
5
  8
0
 10
170.5
 20
180.26666666666668
 30
0.0
 11
170.5
 21
185.26666666666668
 31
0.0
  0
LINE
 62
5
  8
0
 10
84.93500000000002
 20
161.60000000000002
 30
0.0
 11
72.06500000000001
 21
161.60000000000002
 31
0.0
  0
LINE
 62
5
  8
0
 10
72.06500000000001
 20
161.60000000000002
 30
0.0
 11
72.06500000000001
 21
138.60000000000002
 31
0.0
  0
LINE
 62
5
  8
0
 10
72.06500000000001
 20
138.60000000000002
 30
0.0
 11
84.93500000000002
 21
138.60000000000002
 31
0.0
  0
LINE
 62
5
  8
0
 10
84.93500000000002
 20
138.60000000000002
 30
0.0
 11
84.93500000000002
 21
161.60000000000002
 31
0.0
  0
LINE
 62
5
  8
0
 10
7.750000000000002
 20
129.98636363636365
 30
0.0
 11
7.750000000000002
 21
148.66818181818184
 31
0.0
  0
LINE
 62
5
  8
0
 10
7.750000000000002
 20
148.66818181818184
 30
0.0
 11
7.25
 21
148.66818181818184
 31
0.0
  0
LINE
 62
5
  8
0
 10
7.25
 20
148.66818181818184
 30
0.0
 11
7.25
 21
129.98636363636365
 31
0.0
  0
LINE
 62
5
  8
0
 10
7.25
 20
129.98636363636365
 30
0.0
 11
7.750000000000002
 21
129.98636363636365
 31
0.0
  0
LINE
 62
5
  8
0
 10
7.750000000000002
 20
84.53181818181818
 30
0.0
 11
7.750000000000002
 21
103.21363636363635
 31
0.0
  0
LINE
 62
5
  8
0
 10
7.750000000000002
 20
103.21363636363635
 30
0.0
 11
7.25
 21
103.21363636363635
 31
0.0
  0
LINE
 62
5
  8
0
 10
7.25
 20
103.21363636363635
 30
0.0
 11
7.25
 21
84.53181818181818
 31
0.0
  0
LINE
 62
5
  8
0
 10
7.25
 20
84.53181818181818
 30
0.0
 11
7.750000000000002
 21
84.53181818181818
 31
0.0
  0
LINE
 62
5
  8
0
 10
34.916666666666664
 20
81.85000000000001
 30
0.0
 11
34.916666666666664
 21
71.35000000000001
 31
0.0
  0
LINE
 62
5
  8
0
 10
34.916666666666664
 20
71.35000000000001
 30
0.0
 11
34.416666666666664
 21
71.35000000000001
 31
0.0
  0
LINE
 62
5
  8
0
 10
34.416666666666664
 20
71.35000000000001
 30
0.0
 11
34.416666666666664
 21
81.85000000000001
 31
0.0
  0
LINE
 62
5
  8
0
 10
34.416666666666664
 20
81.85000000000001
 30
0.0
 11
34.916666666666664
 21
81.85000000000001
 31
0.0
  0
LINE
 62
5
  8
0
 10
150.065
 20
138.60000000000002
 30
0.0
 11
162.93500000000003
 21
138.60000000000002
 31
0.0
  0
LINE
 62
5
  8
0
 10
162.93500000000003
 20
138.60000000000002
 30
0.0
 11
162.93500000000003
 21
161.60000000000002
 31
0.0
  0
LINE
 62
5
  8
0
 10
162.93500000000003
 20
161.60000000000002
 30
0.0
 11
150.065
 21
161.60000000000002
 31
0.0
  0
LINE
 62
5
  8
0
 10
150.065
 20
161.60000000000002
 30
0.0
 11
150.065
 21
138.60000000000002
 31
0.0
  0
LINE
 62
5
  8
0
 10
177.5
 20
148.41818181818184
 30
0.0
 11
177.5
 21
153.41818181818184
 31
0.0
  0
LINE
 62
5
  8
0
 10
177.5
 20
153.41818181818184
 30
0.0
 11
172.50000000000003
 21
148.41818181818184
 31
0.0
  0
LINE
 62
5
  8
0
 10
172.50000000000003
 20
148.41818181818184
 30
0.0
 11
172.50000000000003
 21
130.23636363636365
 31
0.0
  0
LINE
 62
5
  8
0
 10
172.50000000000003
 20
130.23636363636365
 30
0.0
 11
177.5
 21
125.23636363636363
 31
0.0
  0
LINE
 62
5
  8
0
 10
177.5
 20
125.23636363636363
 30
0.0
 11
177.5
 21
130.23636363636365
 31
0.0
  0
LINE
 62
5
  8
0
 10
177.5
 20
102.96363636363635
 30
0.0
 11
177.5
 21
107.96363636363634
 31
0.0
  0
LINE
 62
5
  8
0
 10
177.5
 20
107.96363636363634
 30
0.0
 11
172.50000000000003
 21
102.96363636363635
 31
0.0
  0
LINE
 62
5
  8
0
 10
172.50000000000003
 20
102.96363636363635
 30
0.0
 11
172.50000000000003
 21
84.78181818181818
 31
0.0
  0
LINE
 62
5
  8
0
 10
172.50000000000003
 20
84.78181818181818
 30
0.0
 11
177.5
 21
79.78181818181817
 31
0.0
  0
LINE
 62
5
  8
0
 10
177.5
 20
79.78181818181817
 30
0.0
 11
177.5
 21
84.78181818181818
 31
0.0
  0
LINE
 62
5
  8
0
 10
190.00000000000003
 20
66.55000000000001
 30
0.0
 11
190.00000000000003
 21
66.55000000000001
 31
0.0
  0
LINE
 62
5
  8
0
 10
190.00000000000003
 20
66.55000000000001
 30
0.0
 11
190.00000000000003
 21
66.55000000000001
 31
0.0
  0
LINE
 62
5
  8
0
 10
190.00000000000003
 20
66.55000000000001
 30
0.0
 11
190.00000000000003
 21
66.55000000000001
 31
0.0
  0
LINE
 62
5
  8
0
 10
190.00000000000003
 20
66.55000000000001
 30
0.0
 11
190.00000000000003
 21
66.55000000000001
 31
0.0
  0
LINE
 62
5
  8
0
 10
320.00000000000006
 20
66.55000000000001
 30
0.0
 11
319.26130043570834
 21
57.163932097586134
 31
0.0
  0
LINE
 62
5
  8
0
 10
319.26130043570834
 20
75.93606790241387
 30
0.0
 11
320.00000000000006
 21
66.55000000000001
 31
0.0
  0
LINE
 62
5
  8
0
 10
317.0633909777093
 20
85.09101966249686
 30
0.0
 11
319.26130043570834
 21
75.93606790241387
 31
0.0
  0
LINE
 62
5
  8
0
 10
313.4603914513021
 20
93.78942998437282
 30
0.0
 11
317.0633909777093
 21
85.09101966249686
 31
0.0
  0
LINE
 62
5
  8
0
 10
308.54101966249686
 20
101.8171151375484
 30
0.0
 11
313.4603914513021
 21
93.78942998437282
 31
0.0
  0
LINE
 62
5
  8
0
 10
302.42640687119285
 20
108.97640687119286
 30
0.0
 11
308.54101966249686
 21
101.8171151375484
 31
0.0
  0
LINE
 62
5
  8
0
 10
295.2671151375484
 20
115.09101966249686
 30
0.0
 11
302.42640687119285
 21
108.97640687119286
 31
0.0
  0
LINE
 62
5
  8
0
 10
287.2394299843728
 20
120.01039145130208
 30
0.0
 11
295.2671151375484
 21
115.09101966249686
 31
0.0
  0
LINE
 62
5
  8
0
 10
278.5410196624969
 20
123.61339097770922
 30
0.0
 11
287.2394299843728
 21
120.01039145130208
 31
0.0
  0
LINE
 62
5
  8
0
 10
269.3860679024139
 20
125.81130043570828
 30
0.0
 11
278.5410196624969
 21
123.61339097770922
 31
0.0
  0
LINE
 62
5
  8
0
 10
260.0
 20
126.55000000000001
 30
0.0
 11
269.3860679024139
 21
125.81130043570828
 31
0.0
  0
LINE
 62
5
  8
0
 10
250.61393209758617
 20
125.81130043570828
 30
0.0
 11
260.0
 21
126.55000000000001
 31
0.0
  0
LINE
 62
5
  8
0
 10
241.45898033750322
 20
123.61339097770923
 30
0.0
 11
250.61393209758617
 21
125.81130043570828
 31
0.0
  0
LINE
 62
5
  8
0
 10
232.76057001562722
 20
120.01039145130208
 30
0.0
 11
241.45898033750322
 21
123.61339097770923
 31
0.0
  0
LINE
 62
5
  8
0
 10
224.73288486245164
 20
115.09101966249686
 30
0.0
 11
232.76057001562722
 21
120.01039145130208
 31
0.0
  0
LINE
 62
5
  8
0
 10
217.57359312880718
 20
108.97640687119286
 30
0.0
 11
224.73288486245164
 21
115.09101966249686
 31
0.0
  0
LINE
 62
5
  8
0
 10
211.4589803375032
 20
101.8171151375484
 30
0.0
 11
217.57359312880718
 21
108.97640687119286
 31
0.0
  0
LINE
 62
5
  8
0
 10
206.53960854869794
 20
93.78942998437283
 30
0.0
 11
211.4589803375032
 21
101.8171151375484
 31
0.0
  0
LINE
 62
5
  8
0
 10
202.9366090222908
 20
85.09101966249686
 30
0.0
 11
206.53960854869794
 21
93.78942998437283
 31
0.0
  0
LINE
 62
5
  8
0
 10
200.73869956429178
 20
75.93606790241387
 30
0.0
 11
202.9366090222908
 21
85.09101966249686
 31
0.0
  0
LINE
 62
5
  8
0
 10
200.0
 20
66.55000000000003
 30
0.0
 11
200.73869956429178
 21
75.93606790241387
 31
0.0
  0
LINE
 62
5
  8
0
 10
200.73869956429175
 20
57.16393209758616
 30
0.0
 11
200.0
 21
66.55000000000003
 31
0.0
  0
LINE
 62
5
  8
0
 10
202.9366090222908
 20
48.00898033750317
 30
0.0
 11
200.73869956429175
 21
57.16393209758616
 31
0.0
  0
LINE
 62
5
  8
0
 10
206.53960854869794
 20
39.310570015627206
 30
0.0
 11
202.9366090222908
 21
48.00898033750317
 31
0.0
  0
LINE
 62
5
  8
0
 10
211.45898033750316
 20
31.28288486245162
 30
0.0
 11
206.53960854869794
 21
39.310570015627206
 31
0.0
  0
LINE
 62
5
  8
0
 10
217.57359312880718
 20
24.123593128807155
 30
0.0
 11
211.45898033750316
 21
31.28288486245162
 31
0.0
  0
LINE
 62
5
  8
0
 10
224.73288486245164
 20
18.008980337503157
 30
0.0
 11
217.57359312880718
 21
24.123593128807155
 31
0.0
  0
LINE
 62
5
  8
0
 10
232.76057001562722
 20
13.089608548697933
 30
0.0
 11
224.73288486245164
 21
18.008980337503157
 31
0.0
  0
LINE
 62
5
  8
0
 10
241.45898033750316
 20
9.486609022290786
 30
0.0
 11
232.76057001562722
 21
13.089608548697933
 31
0.0
  0
LINE
 62
5
  8
0
 10
250.61393209758617
 20
7.288699564291741
 30
0.0
 11
241.45898033750316
 21
9.486609022290786
 31
0.0
  0
LINE
 62
5
  8
0
 10
260.0
 20
6.549999999999998
 30
0.0
 11
250.61393209758617
 21
7.288699564291741
 31
0.0
  0
LINE
 62
5
  8
0
 10
269.3860679024139
 20
7.288699564291734
 30
0.0
 11
260.0
 21
6.549999999999998
 31
0.0
  0
LINE
 62
5
  8
0
 10
278.54101966249686
 20
9.486609022290779
 30
0.0
 11
269.3860679024139
 21
7.288699564291734
 31
0.0
  0
LINE
 62
5
  8
0
 10
287.2394299843728
 20
13.08960854869792
 30
0.0
 11
278.54101966249686
 21
9.486609022290779
 31
0.0
  0
LINE
 62
5
  8
0
 10
295.2671151375484
 20
18.00898033750315
 30
0.0
 11
287.2394299843728
 21
13.08960854869792
 31
0.0
  0
LINE
 62
5
  8
0
 10
302.42640687119285
 20
24.12359312880714
 30
0.0
 11
295.2671151375484
 21
18.00898033750315
 31
0.0
  0
LINE
 62
5
  8
0
 10
308.54101966249686
 20
31.2828848624516
 30
0.0
 11
302.42640687119285
 21
24.12359312880714
 31
0.0
  0
LINE
 62
5
  8
0
 10
313.4603914513021
 20
39.310570015627185
 30
0.0
 11
308.54101966249686
 21
31.2828848624516
 31
0.0
  0
LINE
 62
5
  8
0
 10
317.0633909777093
 20
48.00898033750315
 30
0.0
 11
313.4603914513021
 21
39.310570015627185
 31
0.0
  0
LINE
 62
5
  8
0
 10
319.26130043570834
 20
57.163932097586134
 30
0.0
 11
317.0633909777093
 21
48.00898033750315
 31
0.0
  0
LINE
 62
5
  8
0
 10
330.00000000000006
 20
66.55000000000001
 30
0.0
 11
330.00000000000006
 21
66.55000000000001
 31
0.0
  0
LINE
 62
5
  8
0
 10
330.00000000000006
 20
66.55000000000001
 30
0.0
 11
330.00000000000006
 21
66.55000000000001
 31
0.0
  0
LINE
 62
5
  8
0
 10
330.00000000000006
 20
66.55000000000001
 30
0.0
 11
330.00000000000006
 21
66.55000000000001
 31
0.0
  0
LINE
 62
5
  8
0
 10
330.00000000000006
 20
66.55000000000001
 30
0.0
 11
330.00000000000006
 21
66.55000000000001
 31
0.0
  0
LINE
 62
5
  8
0
 10
460.00000000000006
 20
66.55000000000001
 30
0.0
 11
459.26130043570834
 21
57.163932097586134
 31
0.0
  0
LINE
 62
5
  8
0
 10
459.26130043570834
 20
75.93606790241387
 30
0.0
 11
460.00000000000006
 21
66.55000000000001
 31
0.0
  0
LINE
 62
5
  8
0
 10
457.0633909777093
 20
85.09101966249686
 30
0.0
 11
459.26130043570834
 21
75.93606790241387
 31
0.0
  0
LINE
 62
5
  8
0
 10
453.46039145130214
 20
93.78942998437282
 30
0.0
 11
457.0633909777093
 21
85.09101966249686
 31
0.0
  0
LINE
 62
5
  8
0
 10
448.5410196624969
 20
101.8171151375484
 30
0.0
 11
453.46039145130214
 21
93.78942998437282
 31
0.0
  0
LINE
 62
5
  8
0
 10
442.4264068711929
 20
108.97640687119286
 30
0.0
 11
448.5410196624969
 21
101.8171151375484
 31
0.0
  0
LINE
 62
5
  8
0
 10
435.26711513754844
 20
115.09101966249686
 30
0.0
 11
442.4264068711929
 21
108.97640687119286
 31
0.0
  0
LINE
 62
5
  8
0
 10
427.23942998437286
 20
120.01039145130208
 30
0.0
 11
435.26711513754844
 21
115.09101966249686
 31
0.0
  0
LINE
 62
5
  8
0
 10
418.5410196624969
 20
123.61339097770922
 30
0.0
 11
427.23942998437286
 21
120.01039145130208
 31
0.0
  0
LINE
 62
5
  8
0
 10
409.3860679024139
 20
125.81130043570828
 30
0.0
 11
418.5410196624969
 21
123.61339097770922
 31
0.0
  0
LINE
 62
5
  8
0
 10
400.0
 20
126.55000000000001
 30
0.0
 11
409.3860679024139
 21
125.81130043570828
 31
0.0
  0
LINE
 62
5
  8
0
 10
390.6139320975862
 20
125.81130043570828
 30
0.0
 11
400.0
 21
126.55000000000001
 31
0.0
  0
LINE
 62
5
  8
0
 10
381.4589803375032
 20
123.61339097770923
 30
0.0
 11
390.6139320975862
 21
125.81130043570828
 31
0.0
  0
LINE
 62
5
  8
0
 10
372.7605700156272
 20
120.01039145130208
 30
0.0
 11
381.4589803375032
 21
123.61339097770923
 31
0.0
  0
LINE
 62
5
  8
0
 10
364.73288486245167
 20
115.09101966249686
 30
0.0
 11
372.7605700156272
 21
120.01039145130208
 31
0.0
  0
LINE
 62
5
  8
0
 10
357.5735931288072
 20
108.97640687119286
 30
0.0
 11
364.73288486245167
 21
115.09101966249686
 31
0.0
  0
LINE
 62
5
  8
0
 10
351.45898033750314
 20
101.8171151375484
 30
0.0
 11
357.5735931288072
 21
108.97640687119286
 31
0.0
  0
LINE
 62
5
  8
0
 10
346.53960854869797
 20
93.78942998437283
 30
0.0
 11
351.45898033750314
 21
101.8171151375484
 31
0.0
  0
LINE
 62
5
  8
0
 10
342.93660902229084
 20
85.09101966249686
 30
0.0
 11
346.53960854869797
 21
93.78942998437283
 31
0.0
  0
LINE
 62
5
  8
0
 10
340.7386995642918
 20
75.93606790241387
 30
0.0
 11
342.93660902229084
 21
85.09101966249686
 31
0.0
  0
LINE
 62
5
  8
0
 10
340.00000000000006
 20
66.55000000000003
 30
0.0
 11
340.7386995642918
 21
75.93606790241387
 31
0.0
  0
LINE
 62
5
  8
0
 10
340.7386995642918
 20
57.16393209758616
 30
0.0
 11
340.00000000000006
 21
66.55000000000003
 31
0.0
  0
LINE
 62
5
  8
0
 10
342.93660902229084
 20
48.00898033750317
 30
0.0
 11
340.7386995642918
 21
57.16393209758616
 31
0.0
  0
LINE
 62
5
  8
0
 10
346.53960854869797
 20
39.310570015627206
 30
0.0
 11
342.93660902229084
 21
48.00898033750317
 31
0.0
  0
LINE
 62
5
  8
0
 10
351.45898033750314
 20
31.28288486245162
 30
0.0
 11
346.53960854869797
 21
39.310570015627206
 31
0.0
  0
LINE
 62
5
  8
0
 10
357.5735931288072
 20
24.123593128807155
 30
0.0
 11
351.45898033750314
 21
31.28288486245162
 31
0.0
  0
LINE
 62
5
  8
0
 10
364.73288486245167
 20
18.008980337503157
 30
0.0
 11
357.5735931288072
 21
24.123593128807155
 31
0.0
  0
LINE
 62
5
  8
0
 10
372.7605700156272
 20
13.089608548697933
 30
0.0
 11
364.73288486245167
 21
18.008980337503157
 31
0.0
  0
LINE
 62
5
  8
0
 10
381.4589803375032
 20
9.486609022290786
 30
0.0
 11
372.7605700156272
 21
13.089608548697933
 31
0.0
  0
LINE
 62
5
  8
0
 10
390.6139320975862
 20
7.288699564291741
 30
0.0
 11
381.4589803375032
 21
9.486609022290786
 31
0.0
  0
LINE
 62
5
  8
0
 10
400.0
 20
6.549999999999998
 30
0.0
 11
390.6139320975862
 21
7.288699564291741
 31
0.0
  0
LINE
 62
5
  8
0
 10
409.3860679024139
 20
7.288699564291734
 30
0.0
 11
400.0
 21
6.549999999999998
 31
0.0
  0
LINE
 62
5
  8
0
 10
418.5410196624968
 20
9.486609022290779
 30
0.0
 11
409.3860679024139
 21
7.288699564291734
 31
0.0
  0
LINE
 62
5
  8
0
 10
427.23942998437286
 20
13.08960854869792
 30
0.0
 11
418.5410196624968
 21
9.486609022290779
 31
0.0
  0
LINE
 62
5
  8
0
 10
435.26711513754844
 20
18.00898033750315
 30
0.0
 11
427.23942998437286
 21
13.08960854869792
 31
0.0
  0
LINE
 62
5
  8
0
 10
442.4264068711929
 20
24.12359312880714
 30
0.0
 11
435.26711513754844
 21
18.00898033750315
 31
0.0
  0
LINE
 62
5
  8
0
 10
448.5410196624969
 20
31.2828848624516
 30
0.0
 11
442.4264068711929
 21
24.12359312880714
 31
0.0
  0
LINE
 62
5
  8
0
 10
453.46039145130214
 20
39.310570015627185
 30
0.0
 11
448.5410196624969
 21
31.2828848624516
 31
0.0
  0
LINE
 62
5
  8
0
 10
457.0633909777093
 20
48.00898033750315
 30
0.0
 11
453.46039145130214
 21
39.310570015627185
 31
0.0
  0
LINE
 62
5
  8
0
 10
459.26130043570834
 20
57.163932097586134
 30
0.0
 11
457.0633909777093
 21
48.00898033750315
 31
0.0
  0
ENDSEC
  0
EOF
