<?xml version="1.0" encoding="utf-8" ?>
<svg xmlns="http://www.w3.org/2000/svg" xmlns:ev="http://www.w3.org/2001/xml-events" xmlns:xlink="http://www.w3.org/1999/xlink" baseProfile="full" height="343.600000mm" version="1.1" viewBox="0.000000 0.000000 460.000000 343.600000" width="460.000000mm">
  <defs/>
  <line stroke="#000000" x1="124.00000000000003" x2="111.00000000000001" y1="66.50000000000001" y2="66.50000000000001"/>
  <line stroke="#000000" x1="150.0" x2="150.0" y1="66.60000000000001" y2="66.50000000000001"/>
  <line opacity="0.5" stroke="#0000ff" x1="150.0" x2="85.00000000000001" y1="66.60000000000001" y2="66.60000000000001"/>
  <line stroke="#000000" x1="85.00000000000001" x2="85.00000000000001" y1="66.50000000000001" y2="66.60000000000001"/>
  <line stroke="#000000" x1="124.00000000000003" x2="124.00000000000003" y1="46.50000000000001" y2="66.50000000000001"/>
  <line opacity="0.5" stroke="#0000ff" x1="124.00000000000003" x2="111.00000000000001" y1="46.50000000000001" y2="46.50000000000001"/>
  <line stroke="#000000" x1="111.00000000000001" x2="111.00000000000001" y1="66.50000000000001" y2="46.50000000000001"/>
  <line opacity="0.75" stroke="#ff0000" x1="85.00000000000001" x2="106.66666666666669" y1="66.50000000000001" y2="0.0"/>
  <line stroke="#000000" x1="128.33333333333337" x2="106.66666666666669" y1="0.0" y2="0.0"/>
  <line opacity="0.75" stroke="#ff0000" x1="128.33333333333337" x2="150.0" y1="0.0" y2="66.50000000000001"/>
  <line stroke="#000000" x1="124.00000000000003" x2="124.00000000000003" y1="66.50000000000001" y2="46.50000000000001"/>
  <line stroke="#000000" x1="111.00000000000001" x2="124.00000000000003" y1="66.50000000000001" y2="66.50000000000001"/>
  <line stroke="#000000" x1="111.00000000000001" x2="111.00000000000001" y1="46.50000000000001" y2="66.50000000000001"/>
  <line stroke="#000000" x1="106.66666666666669" x2="85.00000000000001" y1="0.0" y2="0.0"/>
  <line stroke="#000000" x1="85.00000000000001" x2="85.00000000000001" y1="0.0" y2="66.50000000000001"/>
  <line stroke="#000000" x1="150.0" x2="150.0" y1="66.50000000000001" y2="0.0"/>
  <line stroke="#000000" x1="150.0" x2="128.33333333333337" y1="0.0" y2="0.0"/>
  <line opacity="0.5" stroke="#0000ff" x1="85.00000000000001" x2="85.00000000000001" y1="166.60000000000002" y2="66.60000000000001"/>
  <line opacity="0.5" stroke="#0000ff" x1="150.0" x2="150.0" y1="166.60000000000002" y2="66.60000000000001"/>
  <line opacity="1.0" stroke="#0000ff" x1="131.0" x2="150.0" y1="166.60000000000002" y2="166.60000000000002"/>
  <line stroke="#000000" x1="104.00000000000001" x2="131.0" y1="166.60000000000002" y2="166.60000000000002"/>
  <line stroke="#000000" x1="85.00000000000001" x2="104.00000000000001" y1="166.60000000000002" y2="166.60000000000002"/>
  <line stroke="#000000" x1="85.00000000000001" x2="85.00000000000001" y1="166.60000000000002" y2="166.60000000000002"/>
  <line stroke="#000000" x1="150.0" x2="150.0" y1="166.60000000000002" y2="166.60000000000002"/>
  <line stroke="#000000" x1="131.0" x2="150.0" y1="222.60000000000005" y2="222.60000000000005"/>
  <line opacity="0.5" stroke="#ff0000" x1="131.0" x2="131.0" y1="222.60000000000005" y2="166.60000000000005"/>
  <line opacity="0.5" stroke="#ff0000" x1="150.0" x2="150.0" y1="222.60000000000005" y2="166.60000000000005"/>
  <line stroke="#000000" x1="118.00000000000001" x2="131.0" y1="222.60000000000005" y2="222.60000000000005"/>
  <line opacity="0.5" stroke="#ff0000" x1="118.00000000000001" x2="118.00000000000001" y1="222.60000000000005" y2="166.60000000000005"/>
  <line stroke="#000000" x1="131.0" x2="118.00000000000001" y1="166.60000000000005" y2="166.60000000000005"/>
  <line stroke="#000000" x1="99.0" x2="118.00000000000001" y1="222.60000000000005" y2="222.60000000000005"/>
  <line stroke="#000000" x1="99.0" x2="99.0" y1="166.60000000000005" y2="222.60000000000005"/>
  <line stroke="#000000" x1="118.00000000000001" x2="99.0" y1="166.60000000000005" y2="166.60000000000005"/>
  <line opacity="0.5" stroke="#ff0000" x1="150.0" x2="163.00000000000003" y1="222.60000000000005" y2="222.60000000000005"/>
  <line stroke="#000000" x1="163.00000000000003" x2="150.0" y1="166.60000000000005" y2="166.60000000000005"/>
  <line opacity="0.5" stroke="#ff0000" x1="163.00000000000003" x2="163.00000000000003" y1="166.60000000000005" y2="222.60000000000005"/>
  <line opacity="0.5" stroke="#ff0000" x1="163.00000000000003" x2="150.0" y1="287.6000000000001" y2="287.6000000000001"/>
  <line opacity="0.5" stroke="#0000ff" x1="150.0" x2="150.0" y1="287.6000000000001" y2="222.60000000000005"/>
  <line opacity="0.5" stroke="#0000ff" x1="163.00000000000003" x2="163.00000000000003" y1="222.60000000000005" y2="287.6000000000001"/>
  <line stroke="#000000" x1="150.0" x2="163.00000000000003" y1="343.6000000000001" y2="343.6000000000001"/>
  <line opacity="0.5" stroke="#ff0000" x1="150.0" x2="150.0" y1="343.6000000000001" y2="287.6000000000001"/>
  <line opacity="0.5" stroke="#ff0000" x1="163.00000000000003" x2="163.00000000000003" y1="287.6000000000001" y2="343.6000000000001"/>
  <line stroke="#000000" x1="131.0" x2="150.0" y1="343.6000000000001" y2="343.6000000000001"/>
  <line opacity="0.5" stroke="#ff0000" x1="131.0" x2="131.0" y1="343.6000000000001" y2="287.6000000000001"/>
  <line stroke="#000000" x1="150.0" x2="131.0" y1="287.6000000000001" y2="287.6000000000001"/>
  <line stroke="#000000" x1="118.00000000000001" x2="131.0" y1="343.6000000000001" y2="343.6000000000001"/>
  <line opacity="0.5" stroke="#ff0000" x1="118.00000000000001" x2="118.00000000000001" y1="343.6000000000001" y2="287.6000000000001"/>
  <line stroke="#000000" x1="131.0" x2="118.00000000000001" y1="287.6000000000001" y2="287.6000000000001"/>
  <line stroke="#000000" x1="99.0" x2="118.00000000000001" y1="343.6000000000001" y2="343.6000000000001"/>
  <line stroke="#000000" x1="99.0" x2="99.0" y1="287.6000000000001" y2="343.6000000000001"/>
  <line stroke="#000000" x1="118.00000000000001" x2="99.0" y1="287.6000000000001" y2="287.6000000000001"/>
  <line stroke="#000000" x1="173.0" x2="163.00000000000003" y1="287.6000000000001" y2="287.6000000000001"/>
  <line stroke="#000000" x1="173.0" x2="173.0" y1="343.6000000000001" y2="287.6000000000001"/>
  <line stroke="#000000" x1="163.00000000000003" x2="173.0" y1="343.6000000000001" y2="343.6000000000001"/>
  <line stroke="#000000" x1="106.00000000000001" x2="150.0" y1="287.6000000000001" y2="287.6000000000001"/>
  <line opacity="0.5" stroke="#0000ff" x1="106.00000000000001" x2="106.00000000000001" y1="287.6000000000001" y2="222.60000000000005"/>
  <line stroke="#000000" x1="150.0" x2="106.00000000000001" y1="222.60000000000005" y2="222.60000000000005"/>
  <line stroke="#000000" x1="93.00000000000001" x2="106.00000000000001" y1="287.6000000000001" y2="287.6000000000001"/>
  <line opacity="0.5" stroke="#0000ff" x1="93.00000000000001" x2="93.00000000000001" y1="287.6000000000001" y2="222.60000000000005"/>
  <line stroke="#000000" x1="106.00000000000001" x2="93.00000000000001" y1="222.60000000000005" y2="222.60000000000005"/>
  <line stroke="#000000" x1="49.00000000000001" x2="93.00000000000001" y1="287.6000000000001" y2="287.6000000000001"/>
  <line stroke="#000000" x1="49.00000000000001" x2="49.00000000000001" y1="222.60000000000005" y2="287.6000000000001"/>
  <line stroke="#000000" x1="93.00000000000001" x2="49.00000000000001" y1="222.60000000000005" y2="222.60000000000005"/>
  <line stroke="#000000" x1="173.0" x2="163.00000000000003" y1="222.60000000000005" y2="222.60000000000005"/>
  <line stroke="#000000" x1="173.0" x2="173.0" y1="287.6000000000001" y2="222.60000000000005"/>
  <line stroke="#000000" x1="163.00000000000003" x2="173.0" y1="287.6000000000001" y2="287.6000000000001"/>
  <line stroke="#000000" x1="173.0" x2="163.00000000000003" y1="166.60000000000005" y2="166.60000000000005"/>
  <line stroke="#000000" x1="173.0" x2="173.0" y1="222.60000000000005" y2="166.60000000000005"/>
  <line stroke="#000000" x1="163.00000000000003" x2="173.0" y1="222.60000000000005" y2="222.60000000000005"/>
  <line stroke="#000000" x1="65.0" x2="85.00000000000001" y1="166.60000000000002" y2="166.60000000000002"/>
  <line opacity="0.5" stroke="#0000ff" x1="65.0" x2="65.0" y1="166.60000000000002" y2="66.60000000000001"/>
  <line stroke="#000000" x1="85.00000000000001" x2="65.0" y1="66.60000000000001" y2="66.60000000000001"/>
  <line stroke="#000000" x1="0.0" x2="65.0" y1="166.60000000000002" y2="166.60000000000002"/>
  <line stroke="#000000" x1="0.0" x2="0.0" y1="66.60000000000001" y2="166.60000000000002"/>
  <line stroke="#000000" x1="26.000000000000004" x2="0.0" y1="66.60000000000001" y2="66.60000000000001"/>
  <line stroke="#000000" x1="39.00000000000001" x2="26.000000000000004" y1="66.60000000000001" y2="66.60000000000001"/>
  <line stroke="#000000" x1="65.0" x2="39.00000000000001" y1="66.60000000000001" y2="66.60000000000001"/>
  <line stroke="#000000" x1="65.0" x2="65.0" y1="66.60000000000001" y2="66.60000000000001"/>
  <line stroke="#000000" x1="0.0" x2="0.0" y1="66.60000000000001" y2="66.60000000000001"/>
  <line stroke="#000000" x1="150.0" x2="170.00000000000003" y1="166.60000000000002" y2="166.60000000000002"/>
  <line stroke="#000000" x1="170.00000000000003" x2="150.0" y1="66.60000000000001" y2="66.60000000000001"/>
  <line opacity="0.5" stroke="#0000ff" x1="170.00000000000003" x2="170.00000000000003" y1="66.60000000000001" y2="166.60000000000002"/>
  <line stroke="#000000" x1="180.0" x2="170.00000000000003" y1="66.60000000000001" y2="66.60000000000001"/>
  <line stroke="#000000" x1="180.0" x2="180.0" y1="166.60000000000002" y2="66.60000000000001"/>
  <line stroke="#000000" x1="170.00000000000003" x2="180.0" y1="166.60000000000002" y2="166.60000000000002"/>
  <line stroke="#888888" x1="119.66666666666667" x2="115.33333333333334" y1="51.50000000000001" y2="51.50000000000001"/>
  <line stroke="#888888" x1="115.33333333333334" x2="115.33333333333334" y1="51.50000000000001" y2="61.50000000000001"/>
  <line stroke="#888888" x1="115.33333333333334" x2="119.66666666666669" y1="61.50000000000001" y2="61.50000000000001"/>
  <line stroke="#888888" x1="125.50000000000001" x2="121.50000000000001" y1="86.10000000000001" y2="86.10000000000001"/>
  <line stroke="#888888" x1="121.50000000000001" x2="121.50000000000001" y1="86.10000000000001" y2="77.10000000000001"/>
  <line stroke="#888888" x1="121.50000000000001" x2="125.50000000000001" y1="77.10000000000001" y2="77.10000000000001"/>
  <line stroke="#888888" x1="125.50000000000001" x2="125.50000000000001" y1="77.10000000000001" y2="86.10000000000001"/>
  <line stroke="#888888" x1="119.75000000000001" x2="92.75000000000001" y1="109.85000000000001" y2="109.85000000000001"/>
  <line stroke="#888888" x1="92.75000000000001" x2="92.75000000000001" y1="109.85000000000001" y2="101.85000000000001"/>
  <line stroke="#888888" x1="92.75000000000001" x2="119.75000000000001" y1="101.85000000000001" y2="101.85000000000001"/>
  <line stroke="#888888" x1="119.75000000000001" x2="119.75000000000001" y1="101.85000000000001" y2="109.85000000000001"/>
  <line stroke="#888888" x1="99.47000000000001" x2="96.47000000000001" y1="94.03000000000002" y2="94.03000000000002"/>
  <line stroke="#888888" x1="96.47000000000001" x2="96.47000000000001" y1="94.03000000000002" y2="91.03"/>
  <line stroke="#888888" x1="96.47000000000001" x2="99.47000000000001" y1="91.03" y2="91.03"/>
  <line stroke="#888888" x1="99.47000000000001" x2="99.47000000000001" y1="91.03" y2="94.03000000000002"/>
  <line stroke="#888888" x1="98.47000000000001" x2="97.47000000000001" y1="70.16999999999999" y2="70.16999999999999"/>
  <line stroke="#888888" x1="97.47000000000001" x2="97.47000000000001" y1="70.16999999999999" y2="69.17"/>
  <line stroke="#888888" x1="97.47000000000001" x2="98.47000000000001" y1="69.17" y2="69.17"/>
  <line stroke="#888888" x1="98.47000000000001" x2="98.47000000000001" y1="69.17" y2="70.16999999999999"/>
  <line stroke="#888888" x1="101.01" x2="100.01" y1="93.03000000000002" y2="93.03000000000002"/>
  <line stroke="#888888" x1="100.01" x2="100.01" y1="93.03000000000002" y2="92.03"/>
  <line stroke="#888888" x1="100.01" x2="101.01" y1="92.03" y2="92.03"/>
  <line stroke="#888888" x1="101.01" x2="101.01" y1="92.03" y2="93.03000000000002"/>
  <line stroke="#888888" x1="101.01" x2="100.01" y1="70.16999999999999" y2="70.16999999999999"/>
  <line stroke="#888888" x1="100.01" x2="100.01" y1="70.16999999999999" y2="69.17"/>
  <line stroke="#888888" x1="100.01" x2="101.01" y1="69.17" y2="69.17"/>
  <line stroke="#888888" x1="101.01" x2="101.01" y1="69.17" y2="70.16999999999999"/>
  <line stroke="#888888" x1="103.55000000000001" x2="102.55000000000001" y1="93.03000000000002" y2="93.03000000000002"/>
  <line stroke="#888888" x1="102.55000000000001" x2="102.55000000000001" y1="93.03000000000002" y2="92.03"/>
  <line stroke="#888888" x1="102.55000000000001" x2="103.55000000000001" y1="92.03" y2="92.03"/>
  <line stroke="#888888" x1="103.55000000000001" x2="103.55000000000001" y1="92.03" y2="93.03000000000002"/>
  <line stroke="#888888" x1="103.55000000000001" x2="102.55000000000001" y1="70.16999999999999" y2="70.16999999999999"/>
  <line stroke="#888888" x1="102.55000000000001" x2="102.55000000000001" y1="70.16999999999999" y2="69.17"/>
  <line stroke="#888888" x1="102.55000000000001" x2="103.55000000000001" y1="69.17" y2="69.17"/>
  <line stroke="#888888" x1="103.55000000000001" x2="103.55000000000001" y1="69.17" y2="70.16999999999999"/>
  <line stroke="#888888" x1="106.09000000000002" x2="105.09000000000002" y1="93.03000000000002" y2="93.03000000000002"/>
  <line stroke="#888888" x1="105.09000000000002" x2="105.09000000000002" y1="93.03000000000002" y2="92.03"/>
  <line stroke="#888888" x1="105.09000000000002" x2="106.09000000000002" y1="92.03" y2="92.03"/>
  <line stroke="#888888" x1="106.09000000000002" x2="106.09000000000002" y1="92.03" y2="93.03000000000002"/>
  <line stroke="#888888" x1="106.09000000000002" x2="105.09000000000002" y1="70.16999999999999" y2="70.16999999999999"/>
  <line stroke="#888888" x1="105.09000000000002" x2="105.09000000000002" y1="70.16999999999999" y2="69.17"/>
  <line stroke="#888888" x1="105.09000000000002" x2="106.09000000000002" y1="69.17" y2="69.17"/>
  <line stroke="#888888" x1="106.09000000000002" x2="106.09000000000002" y1="69.17" y2="70.16999999999999"/>
  <line stroke="#888888" x1="108.63000000000001" x2="107.63000000000001" y1="93.03000000000002" y2="93.03000000000002"/>
  <line stroke="#888888" x1="107.63000000000001" x2="107.63000000000001" y1="93.03000000000002" y2="92.03"/>
  <line stroke="#888888" x1="107.63000000000001" x2="108.63000000000001" y1="92.03" y2="92.03"/>
  <line stroke="#888888" x1="108.63000000000001" x2="108.63000000000001" y1="92.03" y2="93.03000000000002"/>
  <line stroke="#888888" x1="108.63000000000001" x2="107.63000000000001" y1="70.16999999999999" y2="70.16999999999999"/>
  <line stroke="#888888" x1="107.63000000000001" x2="107.63000000000001" y1="70.16999999999999" y2="69.17"/>
  <line stroke="#888888" x1="107.63000000000001" x2="108.63000000000001" y1="69.17" y2="69.17"/>
  <line stroke="#888888" x1="108.63000000000001" x2="108.63000000000001" y1="69.17" y2="70.16999999999999"/>
  <line stroke="#888888" x1="111.17000000000002" x2="110.17000000000002" y1="93.03000000000002" y2="93.03000000000002"/>
  <line stroke="#888888" x1="110.17000000000002" x2="110.17000000000002" y1="93.03000000000002" y2="92.03"/>
  <line stroke="#888888" x1="110.17000000000002" x2="111.17000000000002" y1="92.03" y2="92.03"/>
  <line stroke="#888888" x1="111.17000000000002" x2="111.17000000000002" y1="92.03" y2="93.03000000000002"/>
  <line stroke="#888888" x1="111.17000000000002" x2="110.17000000000002" y1="70.16999999999999" y2="70.16999999999999"/>
  <line stroke="#888888" x1="110.17000000000002" x2="110.17000000000002" y1="70.16999999999999" y2="69.17"/>
  <line stroke="#888888" x1="110.17000000000002" x2="111.17000000000002" y1="69.17" y2="69.17"/>
  <line stroke="#888888" x1="111.17000000000002" x2="111.17000000000002" y1="69.17" y2="70.16999999999999"/>
  <line stroke="#888888" x1="113.71000000000002" x2="112.71000000000002" y1="93.03000000000002" y2="93.03000000000002"/>
  <line stroke="#888888" x1="112.71000000000002" x2="112.71000000000002" y1="93.03000000000002" y2="92.03"/>
  <line stroke="#888888" x1="112.71000000000002" x2="113.71000000000002" y1="92.03" y2="92.03"/>
  <line stroke="#888888" x1="113.71000000000002" x2="113.71000000000002" y1="92.03" y2="93.03000000000002"/>
  <line stroke="#888888" x1="113.71000000000002" x2="112.71000000000002" y1="70.16999999999999" y2="70.16999999999999"/>
  <line stroke="#888888" x1="112.71000000000002" x2="112.71000000000002" y1="70.16999999999999" y2="69.17"/>
  <line stroke="#888888" x1="112.71000000000002" x2="113.71000000000002" y1="69.17" y2="69.17"/>
  <line stroke="#888888" x1="113.71000000000002" x2="113.71000000000002" y1="69.17" y2="70.16999999999999"/>
  <line stroke="#888888" x1="116.25000000000001" x2="115.25000000000001" y1="93.03" y2="93.03"/>
  <line stroke="#888888" x1="115.25000000000001" x2="115.25000000000001" y1="93.03" y2="92.02999999999999"/>
  <line stroke="#888888" x1="115.25000000000001" x2="116.25000000000001" y1="92.02999999999999" y2="92.02999999999999"/>
  <line stroke="#888888" x1="116.25000000000001" x2="116.25000000000001" y1="92.02999999999999" y2="93.03"/>
  <line stroke="#888888" x1="116.25000000000001" x2="115.25000000000001" y1="70.16999999999999" y2="70.16999999999999"/>
  <line stroke="#888888" x1="115.25000000000001" x2="115.25000000000001" y1="70.16999999999999" y2="69.17"/>
  <line stroke="#888888" x1="115.25000000000001" x2="116.25000000000001" y1="69.17" y2="69.17"/>
  <line stroke="#888888" x1="116.25000000000001" x2="116.25000000000001" y1="69.17" y2="70.16999999999999"/>
  <line stroke="#888888" x1="118.79" x2="117.79" y1="93.03" y2="93.03"/>
  <line stroke="#888888" x1="117.79" x2="117.79" y1="93.03" y2="92.02999999999999"/>
  <line stroke="#888888" x1="117.79" x2="118.79" y1="92.02999999999999" y2="92.02999999999999"/>
  <line stroke="#888888" x1="118.79" x2="118.79" y1="92.02999999999999" y2="93.03"/>
  <line stroke="#888888" x1="118.79" x2="117.79" y1="70.16999999999999" y2="70.16999999999999"/>
  <line stroke="#888888" x1="117.79" x2="117.79" y1="70.16999999999999" y2="69.17"/>
  <line stroke="#888888" x1="117.79" x2="118.79" y1="69.17" y2="69.17"/>
  <line stroke="#888888" x1="118.79" x2="118.79" y1="69.17" y2="70.16999999999999"/>
  <line stroke="#888888" x1="121.33000000000001" x2="120.33000000000001" y1="93.03" y2="93.03"/>
  <line stroke="#888888" x1="120.33000000000001" x2="120.33000000000001" y1="93.03" y2="92.02999999999999"/>
  <line stroke="#888888" x1="120.33000000000001" x2="121.33000000000001" y1="92.02999999999999" y2="92.02999999999999"/>
  <line stroke="#888888" x1="121.33000000000001" x2="121.33000000000001" y1="92.02999999999999" y2="93.03"/>
  <line stroke="#888888" x1="121.33000000000001" x2="120.33000000000001" y1="70.16999999999999" y2="70.16999999999999"/>
  <line stroke="#888888" x1="120.33000000000001" x2="120.33000000000001" y1="70.16999999999999" y2="69.17"/>
  <line stroke="#888888" x1="120.33000000000001" x2="121.33000000000001" y1="69.17" y2="69.17"/>
  <line stroke="#888888" x1="121.33000000000001" x2="121.33000000000001" y1="69.17" y2="70.16999999999999"/>
  <line stroke="#888888" x1="123.87000000000002" x2="122.87000000000002" y1="93.03" y2="93.03"/>
  <line stroke="#888888" x1="122.87000000000002" x2="122.87000000000002" y1="93.03" y2="92.02999999999999"/>
  <line stroke="#888888" x1="122.87000000000002" x2="123.87000000000002" y1="92.02999999999999" y2="92.02999999999999"/>
  <line stroke="#888888" x1="123.87000000000002" x2="123.87000000000002" y1="92.02999999999999" y2="93.03"/>
  <line stroke="#888888" x1="123.87000000000002" x2="122.87000000000002" y1="70.16999999999999" y2="70.16999999999999"/>
  <line stroke="#888888" x1="122.87000000000002" x2="122.87000000000002" y1="70.16999999999999" y2="69.17"/>
  <line stroke="#888888" x1="122.87000000000002" x2="123.87000000000002" y1="69.17" y2="69.17"/>
  <line stroke="#888888" x1="123.87000000000002" x2="123.87000000000002" y1="69.17" y2="70.16999999999999"/>
  <line stroke="#888888" x1="126.41000000000003" x2="125.41000000000001" y1="93.03" y2="93.03"/>
  <line stroke="#888888" x1="125.41000000000001" x2="125.41000000000001" y1="93.03" y2="92.02999999999999"/>
  <line stroke="#888888" x1="125.41000000000001" x2="126.41000000000003" y1="92.02999999999999" y2="92.02999999999999"/>
  <line stroke="#888888" x1="126.41000000000003" x2="126.41000000000003" y1="92.02999999999999" y2="93.03"/>
  <line stroke="#888888" x1="126.41000000000003" x2="125.41000000000001" y1="70.16999999999999" y2="70.16999999999999"/>
  <line stroke="#888888" x1="125.41000000000001" x2="125.41000000000001" y1="70.16999999999999" y2="69.17"/>
  <line stroke="#888888" x1="125.41000000000001" x2="126.41000000000003" y1="69.17" y2="69.17"/>
  <line stroke="#888888" x1="126.41000000000003" x2="126.41000000000003" y1="69.17" y2="70.16999999999999"/>
  <line stroke="#888888" x1="128.95000000000002" x2="127.95000000000002" y1="93.03" y2="93.03"/>
  <line stroke="#888888" x1="127.95000000000002" x2="127.95000000000002" y1="93.03" y2="92.02999999999999"/>
  <line stroke="#888888" x1="127.95000000000002" x2="128.95000000000002" y1="92.02999999999999" y2="92.02999999999999"/>
  <line stroke="#888888" x1="128.95000000000002" x2="128.95000000000002" y1="92.02999999999999" y2="93.03"/>
  <line stroke="#888888" x1="128.95000000000002" x2="127.95000000000002" y1="70.16999999999999" y2="70.16999999999999"/>
  <line stroke="#888888" x1="127.95000000000002" x2="127.95000000000002" y1="70.16999999999999" y2="69.17"/>
  <line stroke="#888888" x1="127.95000000000002" x2="128.95000000000002" y1="69.17" y2="69.17"/>
  <line stroke="#888888" x1="128.95000000000002" x2="128.95000000000002" y1="69.17" y2="70.16999999999999"/>
  <line stroke="#888888" x1="131.49000000000004" x2="130.49" y1="93.03" y2="93.03"/>
  <line stroke="#888888" x1="130.49" x2="130.49" y1="93.03" y2="92.02999999999999"/>
  <line stroke="#888888" x1="130.49" x2="131.49000000000004" y1="92.02999999999999" y2="92.02999999999999"/>
  <line stroke="#888888" x1="131.49000000000004" x2="131.49000000000004" y1="92.02999999999999" y2="93.03"/>
  <line stroke="#888888" x1="131.49000000000004" x2="130.49" y1="70.16999999999999" y2="70.16999999999999"/>
  <line stroke="#888888" x1="130.49" x2="130.49" y1="70.16999999999999" y2="69.17"/>
  <line stroke="#888888" x1="130.49" x2="131.49000000000004" y1="69.17" y2="69.17"/>
  <line stroke="#888888" x1="131.49000000000004" x2="131.49000000000004" y1="69.17" y2="70.16999999999999"/>
  <line stroke="#888888" x1="134.03000000000003" x2="133.03000000000003" y1="93.03" y2="93.03"/>
  <line stroke="#888888" x1="133.03000000000003" x2="133.03000000000003" y1="93.03" y2="92.02999999999999"/>
  <line stroke="#888888" x1="133.03000000000003" x2="134.03000000000003" y1="92.02999999999999" y2="92.02999999999999"/>
  <line stroke="#888888" x1="134.03000000000003" x2="134.03000000000003" y1="92.02999999999999" y2="93.03"/>
  <line stroke="#888888" x1="135.03000000000003" x2="132.03" y1="71.16999999999999" y2="71.16999999999999"/>
  <line stroke="#888888" x1="132.03" x2="132.03" y1="71.16999999999999" y2="68.17"/>
  <line stroke="#888888" x1="132.03" x2="135.03000000000003" y1="68.17" y2="68.17"/>
  <line stroke="#888888" x1="135.03000000000003" x2="135.03000000000003" y1="68.17" y2="71.16999999999999"/>
  <line stroke="#888888" x1="106.75000000000001" x2="106.75000000000001" y1="185.01666666666668" y2="204.18333333333337"/>
  <line stroke="#888888" x1="106.75000000000001" x2="106.25000000000001" y1="204.18333333333337" y2="204.18333333333337"/>
  <line stroke="#888888" x1="106.25000000000001" x2="106.25000000000001" y1="204.18333333333337" y2="185.01666666666668"/>
  <line stroke="#888888" x1="106.25000000000001" x2="106.75000000000001" y1="185.01666666666668" y2="185.01666666666668"/>
  <line stroke="#888888" x1="162.93500000000003" x2="150.065" y1="194.60000000000002" y2="194.60000000000002"/>
  <line stroke="#888888" x1="150.065" x2="150.065" y1="194.60000000000002" y2="171.60000000000002"/>
  <line stroke="#888888" x1="150.065" x2="162.93500000000003" y1="171.60000000000002" y2="171.60000000000002"/>
  <line stroke="#888888" x1="162.93500000000003" x2="162.93500000000003" y1="171.60000000000002" y2="194.60000000000002"/>
  <line stroke="#888888" x1="162.93500000000003" x2="150.065" y1="338.6000000000001" y2="338.6000000000001"/>
  <line stroke="#888888" x1="150.065" x2="150.065" y1="338.6000000000001" y2="315.6000000000001"/>
  <line stroke="#888888" x1="150.065" x2="162.93500000000003" y1="315.6000000000001" y2="315.6000000000001"/>
  <line stroke="#888888" x1="162.93500000000003" x2="162.93500000000003" y1="315.6000000000001" y2="338.6000000000001"/>
  <line stroke="#888888" x1="106.75000000000001" x2="106.75000000000001" y1="306.0166666666667" y2="325.1833333333334"/>
  <line stroke="#888888" x1="106.75000000000001" x2="106.25000000000001" y1="325.1833333333334" y2="325.1833333333334"/>
  <line stroke="#888888" x1="106.25000000000001" x2="106.25000000000001" y1="325.1833333333334" y2="306.0166666666667"/>
  <line stroke="#888888" x1="106.25000000000001" x2="106.75000000000001" y1="306.0166666666667" y2="306.0166666666667"/>
  <line stroke="#888888" x1="170.5" x2="170.5" y1="324.9333333333334" y2="329.9333333333334"/>
  <line stroke="#888888" x1="170.5" x2="165.50000000000003" y1="329.9333333333334" y2="324.9333333333334"/>
  <line stroke="#888888" x1="165.50000000000003" x2="165.50000000000003" y1="324.9333333333334" y2="306.2666666666667"/>
  <line stroke="#888888" x1="165.50000000000003" x2="170.5" y1="306.2666666666667" y2="301.2666666666667"/>
  <line stroke="#888888" x1="170.5" x2="170.5" y1="301.2666666666667" y2="306.2666666666667"/>
  <line stroke="#888888" x1="149.25000000000003" x2="149.25000000000003" y1="252.85000000000005" y2="279.8500000000001"/>
  <line stroke="#888888" x1="149.25000000000003" x2="141.25" y1="279.8500000000001" y2="279.8500000000001"/>
  <line stroke="#888888" x1="141.25" x2="141.25" y1="279.8500000000001" y2="252.85000000000005"/>
  <line stroke="#888888" x1="141.25" x2="149.25000000000003" y1="252.85000000000005" y2="252.85000000000005"/>
  <line stroke="#888888" x1="133.43000000000004" x2="133.43000000000004" y1="273.13" y2="276.13000000000005"/>
  <line stroke="#888888" x1="133.43000000000004" x2="130.43000000000004" y1="276.13000000000005" y2="276.13000000000005"/>
  <line stroke="#888888" x1="130.43000000000004" x2="130.43000000000004" y1="276.13000000000005" y2="273.13"/>
  <line stroke="#888888" x1="130.43000000000004" x2="133.43000000000004" y1="273.13" y2="273.13"/>
  <line stroke="#888888" x1="109.57" x2="109.57" y1="274.13" y2="275.13000000000005"/>
  <line stroke="#888888" x1="109.57" x2="108.57000000000001" y1="275.13000000000005" y2="275.13000000000005"/>
  <line stroke="#888888" x1="108.57000000000001" x2="108.57000000000001" y1="275.13000000000005" y2="274.13"/>
  <line stroke="#888888" x1="108.57000000000001" x2="109.57" y1="274.13" y2="274.13"/>
  <line stroke="#888888" x1="132.43000000000004" x2="132.43000000000004" y1="271.59000000000003" y2="272.5900000000001"/>
  <line stroke="#888888" x1="132.43000000000004" x2="131.43000000000004" y1="272.5900000000001" y2="272.5900000000001"/>
  <line stroke="#888888" x1="131.43000000000004" x2="131.43000000000004" y1="272.5900000000001" y2="271.59000000000003"/>
  <line stroke="#888888" x1="131.43000000000004" x2="132.43000000000004" y1="271.59000000000003" y2="271.59000000000003"/>
  <line stroke="#888888" x1="109.57" x2="109.57" y1="271.59000000000003" y2="272.5900000000001"/>
  <line stroke="#888888" x1="109.57" x2="108.57000000000001" y1="272.5900000000001" y2="272.5900000000001"/>
  <line stroke="#888888" x1="108.57000000000001" x2="108.57000000000001" y1="272.5900000000001" y2="271.59000000000003"/>
  <line stroke="#888888" x1="108.57000000000001" x2="109.57" y1="271.59000000000003" y2="271.59000000000003"/>
  <line stroke="#888888" x1="132.43000000000004" x2="132.43000000000004" y1="269.05000000000007" y2="270.05000000000007"/>
  <line stroke="#888888" x1="132.43000000000004" x2="131.43000000000004" y1="270.05000000000007" y2="270.05000000000007"/>
  <line stroke="#888888" x1="131.43000000000004" x2="131.43000000000004" y1="270.05000000000007" y2="269.05000000000007"/>
  <line stroke="#888888" x1="131.43000000000004" x2="132.43000000000004" y1="269.05000000000007" y2="269.05000000000007"/>
  <line stroke="#888888" x1="109.57" x2="109.57" y1="269.05000000000007" y2="270.05000000000007"/>
  <line stroke="#888888" x1="109.57" x2="108.57000000000001" y1="270.05000000000007" y2="270.05000000000007"/>
  <line stroke="#888888" x1="108.57000000000001" x2="108.57000000000001" y1="270.05000000000007" y2="269.05000000000007"/>
  <line stroke="#888888" x1="108.57000000000001" x2="109.57" y1="269.05000000000007" y2="269.05000000000007"/>
  <line stroke="#888888" x1="132.43000000000004" x2="132.43000000000004" y1="266.51000000000005" y2="267.51"/>
  <line stroke="#888888" x1="132.43000000000004" x2="131.43000000000004" y1="267.51" y2="267.51"/>
  <line stroke="#888888" x1="131.43000000000004" x2="131.43000000000004" y1="267.51" y2="266.51000000000005"/>
  <line stroke="#888888" x1="131.43000000000004" x2="132.43000000000004" y1="266.51000000000005" y2="266.51000000000005"/>
  <line stroke="#888888" x1="109.57" x2="109.57" y1="266.51000000000005" y2="267.51"/>
  <line stroke="#888888" x1="109.57" x2="108.57000000000001" y1="267.51" y2="267.51"/>
  <line stroke="#888888" x1="108.57000000000001" x2="108.57000000000001" y1="267.51" y2="266.51000000000005"/>
  <line stroke="#888888" x1="108.57000000000001" x2="109.57" y1="266.51000000000005" y2="266.51000000000005"/>
  <line stroke="#888888" x1="132.43000000000004" x2="132.43000000000004" y1="263.9700000000001" y2="264.9700000000001"/>
  <line stroke="#888888" x1="132.43000000000004" x2="131.43000000000004" y1="264.9700000000001" y2="264.9700000000001"/>
  <line stroke="#888888" x1="131.43000000000004" x2="131.43000000000004" y1="264.9700000000001" y2="263.9700000000001"/>
  <line stroke="#888888" x1="131.43000000000004" x2="132.43000000000004" y1="263.9700000000001" y2="263.9700000000001"/>
  <line stroke="#888888" x1="109.57" x2="109.57" y1="263.9700000000001" y2="264.9700000000001"/>
  <line stroke="#888888" x1="109.57" x2="108.57000000000001" y1="264.9700000000001" y2="264.9700000000001"/>
  <line stroke="#888888" x1="108.57000000000001" x2="108.57000000000001" y1="264.9700000000001" y2="263.9700000000001"/>
  <line stroke="#888888" x1="108.57000000000001" x2="109.57" y1="263.9700000000001" y2="263.9700000000001"/>
  <line stroke="#888888" x1="132.43000000000004" x2="132.43000000000004" y1="261.43" y2="262.43000000000006"/>
  <line stroke="#888888" x1="132.43000000000004" x2="131.43000000000004" y1="262.43000000000006" y2="262.43000000000006"/>
  <line stroke="#888888" x1="131.43000000000004" x2="131.43000000000004" y1="262.43000000000006" y2="261.43"/>
  <line stroke="#888888" x1="131.43000000000004" x2="132.43000000000004" y1="261.43" y2="261.43"/>
  <line stroke="#888888" x1="109.57" x2="109.57" y1="261.43" y2="262.43000000000006"/>
  <line stroke="#888888" x1="109.57" x2="108.57000000000001" y1="262.43000000000006" y2="262.43000000000006"/>
  <line stroke="#888888" x1="108.57000000000001" x2="108.57000000000001" y1="262.43000000000006" y2="261.43"/>
  <line stroke="#888888" x1="108.57000000000001" x2="109.57" y1="261.43" y2="261.43"/>
  <line stroke="#888888" x1="132.43000000000004" x2="132.43000000000004" y1="258.89000000000004" y2="259.89000000000004"/>
  <line stroke="#888888" x1="132.43000000000004" x2="131.43000000000004" y1="259.89000000000004" y2="259.89000000000004"/>
  <line stroke="#888888" x1="131.43000000000004" x2="131.43000000000004" y1="259.89000000000004" y2="258.89000000000004"/>
  <line stroke="#888888" x1="131.43000000000004" x2="132.43000000000004" y1="258.89000000000004" y2="258.89000000000004"/>
  <line stroke="#888888" x1="109.57" x2="109.57" y1="258.89000000000004" y2="259.89000000000004"/>
  <line stroke="#888888" x1="109.57" x2="108.57000000000001" y1="259.89000000000004" y2="259.89000000000004"/>
  <line stroke="#888888" x1="108.57000000000001" x2="108.57000000000001" y1="259.89000000000004" y2="258.89000000000004"/>
  <line stroke="#888888" x1="108.57000000000001" x2="109.57" y1="258.89000000000004" y2="258.89000000000004"/>
  <line stroke="#888888" x1="132.43000000000004" x2="132.43000000000004" y1="256.35" y2="257.3500000000001"/>
  <line stroke="#888888" x1="132.43000000000004" x2="131.43000000000004" y1="257.3500000000001" y2="257.3500000000001"/>
  <line stroke="#888888" x1="131.43000000000004" x2="131.43000000000004" y1="257.3500000000001" y2="256.35"/>
  <line stroke="#888888" x1="131.43000000000004" x2="132.43000000000004" y1="256.35" y2="256.35"/>
  <line stroke="#888888" x1="109.57" x2="109.57" y1="256.35" y2="257.3500000000001"/>
  <line stroke="#888888" x1="109.57" x2="108.57000000000001" y1="257.3500000000001" y2="257.3500000000001"/>
  <line stroke="#888888" x1="108.57000000000001" x2="108.57000000000001" y1="257.3500000000001" y2="256.35"/>
  <line stroke="#888888" x1="108.57000000000001" x2="109.57" y1="256.35" y2="256.35"/>
  <line stroke="#888888" x1="132.43000000000004" x2="132.43000000000004" y1="253.81000000000003" y2="254.81000000000003"/>
  <line stroke="#888888" x1="132.43000000000004" x2="131.43000000000004" y1="254.81000000000003" y2="254.81000000000003"/>
  <line stroke="#888888" x1="131.43000000000004" x2="131.43000000000004" y1="254.81000000000003" y2="253.81000000000003"/>
  <line stroke="#888888" x1="131.43000000000004" x2="132.43000000000004" y1="253.81000000000003" y2="253.81000000000003"/>
  <line stroke="#888888" x1="109.57" x2="109.57" y1="253.81000000000003" y2="254.81000000000003"/>
  <line stroke="#888888" x1="109.57" x2="108.57000000000001" y1="254.81000000000003" y2="254.81000000000003"/>
  <line stroke="#888888" x1="108.57000000000001" x2="108.57000000000001" y1="254.81000000000003" y2="253.81000000000003"/>
  <line stroke="#888888" x1="108.57000000000001" x2="109.57" y1="253.81000000000003" y2="253.81000000000003"/>
  <line stroke="#888888" x1="132.43000000000004" x2="132.43000000000004" y1="251.27" y2="252.27"/>
  <line stroke="#888888" x1="132.43000000000004" x2="131.43000000000004" y1="252.27" y2="252.27"/>
  <line stroke="#888888" x1="131.43000000000004" x2="131.43000000000004" y1="252.27" y2="251.27"/>
  <line stroke="#888888" x1="131.43000000000004" x2="132.43000000000004" y1="251.27" y2="251.27"/>
  <line stroke="#888888" x1="109.57" x2="109.57" y1="251.27" y2="252.27"/>
  <line stroke="#888888" x1="109.57" x2="108.57000000000001" y1="252.27" y2="252.27"/>
  <line stroke="#888888" x1="108.57000000000001" x2="108.57000000000001" y1="252.27" y2="251.27"/>
  <line stroke="#888888" x1="108.57000000000001" x2="109.57" y1="251.27" y2="251.27"/>
  <line stroke="#888888" x1="132.43000000000004" x2="132.43000000000004" y1="248.73000000000005" y2="249.73000000000005"/>
  <line stroke="#888888" x1="132.43000000000004" x2="131.43000000000004" y1="249.73000000000005" y2="249.73000000000005"/>
  <line stroke="#888888" x1="131.43000000000004" x2="131.43000000000004" y1="249.73000000000005" y2="248.73000000000005"/>
  <line stroke="#888888" x1="131.43000000000004" x2="132.43000000000004" y1="248.73000000000005" y2="248.73000000000005"/>
  <line stroke="#888888" x1="109.57" x2="109.57" y1="248.73000000000005" y2="249.73000000000005"/>
  <line stroke="#888888" x1="109.57" x2="108.57000000000001" y1="249.73000000000005" y2="249.73000000000005"/>
  <line stroke="#888888" x1="108.57000000000001" x2="108.57000000000001" y1="249.73000000000005" y2="248.73000000000005"/>
  <line stroke="#888888" x1="108.57000000000001" x2="109.57" y1="248.73000000000005" y2="248.73000000000005"/>
  <line stroke="#888888" x1="132.43000000000004" x2="132.43000000000004" y1="246.19000000000003" y2="247.19000000000003"/>
  <line stroke="#888888" x1="132.43000000000004" x2="131.43000000000004" y1="247.19000000000003" y2="247.19000000000003"/>
  <line stroke="#888888" x1="131.43000000000004" x2="131.43000000000004" y1="247.19000000000003" y2="246.19000000000003"/>
  <line stroke="#888888" x1="131.43000000000004" x2="132.43000000000004" y1="246.19000000000003" y2="246.19000000000003"/>
  <line stroke="#888888" x1="109.57" x2="109.57" y1="246.19000000000003" y2="247.19000000000003"/>
  <line stroke="#888888" x1="109.57" x2="108.57000000000001" y1="247.19000000000003" y2="247.19000000000003"/>
  <line stroke="#888888" x1="108.57000000000001" x2="108.57000000000001" y1="247.19000000000003" y2="246.19000000000003"/>
  <line stroke="#888888" x1="108.57000000000001" x2="109.57" y1="246.19000000000003" y2="246.19000000000003"/>
  <line stroke="#888888" x1="132.43000000000004" x2="132.43000000000004" y1="243.65000000000006" y2="244.65000000000006"/>
  <line stroke="#888888" x1="132.43000000000004" x2="131.43000000000004" y1="244.65000000000006" y2="244.65000000000006"/>
  <line stroke="#888888" x1="131.43000000000004" x2="131.43000000000004" y1="244.65000000000006" y2="243.65000000000006"/>
  <line stroke="#888888" x1="131.43000000000004" x2="132.43000000000004" y1="243.65000000000006" y2="243.65000000000006"/>
  <line stroke="#888888" x1="109.57" x2="109.57" y1="243.65000000000006" y2="244.65000000000006"/>
  <line stroke="#888888" x1="109.57" x2="108.57000000000001" y1="244.65000000000006" y2="244.65000000000006"/>
  <line stroke="#888888" x1="108.57000000000001" x2="108.57000000000001" y1="244.65000000000006" y2="243.65000000000006"/>
  <line stroke="#888888" x1="108.57000000000001" x2="109.57" y1="243.65000000000006" y2="243.65000000000006"/>
  <line stroke="#888888" x1="132.43000000000004" x2="132.43000000000004" y1="241.11000000000004" y2="242.11000000000004"/>
  <line stroke="#888888" x1="132.43000000000004" x2="131.43000000000004" y1="242.11000000000004" y2="242.11000000000004"/>
  <line stroke="#888888" x1="131.43000000000004" x2="131.43000000000004" y1="242.11000000000004" y2="241.11000000000004"/>
  <line stroke="#888888" x1="131.43000000000004" x2="132.43000000000004" y1="241.11000000000004" y2="241.11000000000004"/>
  <line stroke="#888888" x1="109.57" x2="109.57" y1="241.11000000000004" y2="242.11000000000004"/>
  <line stroke="#888888" x1="109.57" x2="108.57000000000001" y1="242.11000000000004" y2="242.11000000000004"/>
  <line stroke="#888888" x1="108.57000000000001" x2="108.57000000000001" y1="242.11000000000004" y2="241.11000000000004"/>
  <line stroke="#888888" x1="108.57000000000001" x2="109.57" y1="241.11000000000004" y2="241.11000000000004"/>
  <line stroke="#888888" x1="132.43000000000004" x2="132.43000000000004" y1="238.57000000000002" y2="239.57000000000002"/>
  <line stroke="#888888" x1="132.43000000000004" x2="131.43000000000004" y1="239.57000000000002" y2="239.57000000000002"/>
  <line stroke="#888888" x1="131.43000000000004" x2="131.43000000000004" y1="239.57000000000002" y2="238.57000000000002"/>
  <line stroke="#888888" x1="131.43000000000004" x2="132.43000000000004" y1="238.57000000000002" y2="238.57000000000002"/>
  <line stroke="#888888" x1="110.57000000000001" x2="110.57000000000001" y1="237.57000000000002" y2="240.57000000000002"/>
  <line stroke="#888888" x1="110.57000000000001" x2="107.57000000000001" y1="240.57000000000002" y2="240.57000000000002"/>
  <line stroke="#888888" x1="107.57000000000001" x2="107.57000000000001" y1="240.57000000000002" y2="237.57000000000002"/>
  <line stroke="#888888" x1="107.57000000000001" x2="110.57000000000001" y1="237.57000000000002" y2="237.57000000000002"/>
  <line stroke="#888888" x1="56.75000000000001" x2="56.75000000000001" y1="263.71363636363645" y2="276.03181818181827"/>
  <line stroke="#888888" x1="56.75000000000001" x2="56.25000000000001" y1="276.03181818181827" y2="276.03181818181827"/>
  <line stroke="#888888" x1="56.25000000000001" x2="56.25000000000001" y1="276.03181818181827" y2="263.71363636363645"/>
  <line stroke="#888888" x1="56.25000000000001" x2="56.75000000000001" y1="263.71363636363645" y2="263.71363636363645"/>
  <line stroke="#888888" x1="56.75000000000001" x2="56.75000000000001" y1="234.16818181818186" y2="246.48636363636368"/>
  <line stroke="#888888" x1="56.75000000000001" x2="56.25000000000001" y1="246.48636363636368" y2="246.48636363636368"/>
  <line stroke="#888888" x1="56.25000000000001" x2="56.25000000000001" y1="246.48636363636368" y2="234.16818181818186"/>
  <line stroke="#888888" x1="56.25000000000001" x2="56.75000000000001" y1="234.16818181818186" y2="234.16818181818186"/>
  <line stroke="#888888" x1="170.5" x2="165.50000000000003" y1="275.78181818181827" y2="275.78181818181827"/>
  <line stroke="#888888" x1="165.50000000000003" x2="165.50000000000003" y1="275.78181818181827" y2="263.96363636363645"/>
  <line stroke="#888888" x1="165.50000000000003" x2="170.5" y1="263.96363636363645" y2="263.96363636363645"/>
  <line stroke="#888888" x1="170.5" x2="165.50000000000003" y1="246.23636363636368" y2="246.23636363636368"/>
  <line stroke="#888888" x1="165.50000000000003" x2="165.50000000000003" y1="246.23636363636368" y2="234.41818181818186"/>
  <line stroke="#888888" x1="165.50000000000003" x2="170.5" y1="234.41818181818186" y2="234.41818181818186"/>
  <line stroke="#888888" x1="170.5" x2="170.5" y1="203.93333333333334" y2="208.93333333333337"/>
  <line stroke="#888888" x1="170.5" x2="165.50000000000003" y1="208.93333333333337" y2="203.93333333333334"/>
  <line stroke="#888888" x1="165.50000000000003" x2="165.50000000000003" y1="203.93333333333334" y2="185.26666666666668"/>
  <line stroke="#888888" x1="165.50000000000003" x2="170.5" y1="185.26666666666668" y2="180.26666666666668"/>
  <line stroke="#888888" x1="170.5" x2="170.5" y1="180.26666666666668" y2="185.26666666666668"/>
  <line stroke="#888888" x1="84.93500000000002" x2="72.06500000000001" y1="161.60000000000002" y2="161.60000000000002"/>
  <line stroke="#888888" x1="72.06500000000001" x2="72.06500000000001" y1="161.60000000000002" y2="138.60000000000002"/>
  <line stroke="#888888" x1="72.06500000000001" x2="84.93500000000002" y1="138.60000000000002" y2="138.60000000000002"/>
  <line stroke="#888888" x1="84.93500000000002" x2="84.93500000000002" y1="138.60000000000002" y2="161.60000000000002"/>
  <line stroke="#888888" x1="7.750000000000002" x2="7.750000000000002" y1="129.98636363636365" y2="148.66818181818184"/>
  <line stroke="#888888" x1="7.750000000000002" x2="7.25" y1="148.66818181818184" y2="148.66818181818184"/>
  <line stroke="#888888" x1="7.25" x2="7.25" y1="148.66818181818184" y2="129.98636363636365"/>
  <line stroke="#888888" x1="7.25" x2="7.750000000000002" y1="129.98636363636365" y2="129.98636363636365"/>
  <line stroke="#888888" x1="7.750000000000002" x2="7.750000000000002" y1="84.53181818181818" y2="103.21363636363635"/>
  <line stroke="#888888" x1="7.750000000000002" x2="7.25" y1="103.21363636363635" y2="103.21363636363635"/>
  <line stroke="#888888" x1="7.25" x2="7.25" y1="103.21363636363635" y2="84.53181818181818"/>
  <line stroke="#888888" x1="7.25" x2="7.750000000000002" y1="84.53181818181818" y2="84.53181818181818"/>
  <line stroke="#888888" x1="34.916666666666664" x2="34.916666666666664" y1="81.85000000000001" y2="71.35000000000001"/>
  <line stroke="#888888" x1="34.916666666666664" x2="34.416666666666664" y1="71.35000000000001" y2="71.35000000000001"/>
  <line stroke="#888888" x1="34.416666666666664" x2="34.416666666666664" y1="71.35000000000001" y2="81.85000000000001"/>
  <line stroke="#888888" x1="34.416666666666664" x2="34.916666666666664" y1="81.85000000000001" y2="81.85000000000001"/>
  <line stroke="#888888" x1="150.065" x2="162.93500000000003" y1="138.60000000000002" y2="138.60000000000002"/>
  <line stroke="#888888" x1="162.93500000000003" x2="162.93500000000003" y1="138.60000000000002" y2="161.60000000000002"/>
  <line stroke="#888888" x1="162.93500000000003" x2="150.065" y1="161.60000000000002" y2="161.60000000000002"/>
  <line stroke="#888888" x1="150.065" x2="150.065" y1="161.60000000000002" y2="138.60000000000002"/>
  <line stroke="#888888" x1="177.5" x2="177.5" y1="148.41818181818184" y2="153.41818181818184"/>
  <line stroke="#888888" x1="177.5" x2="172.50000000000003" y1="153.41818181818184" y2="148.41818181818184"/>
  <line stroke="#888888" x1="172.50000000000003" x2="172.50000000000003" y1="148.41818181818184" y2="130.23636363636365"/>
  <line stroke="#888888" x1="172.50000000000003" x2="177.5" y1="130.23636363636365" y2="125.23636363636363"/>
  <line stroke="#888888" x1="177.5" x2="177.5" y1="125.23636363636363" y2="130.23636363636365"/>
  <line stroke="#888888" x1="177.5" x2="177.5" y1="102.96363636363635" y2="107.96363636363634"/>
  <line stroke="#888888" x1="177.5" x2="172.50000000000003" y1="107.96363636363634" y2="102.96363636363635"/>
  <line stroke="#888888" x1="172.50000000000003" x2="172.50000000000003" y1="102.96363636363635" y2="84.78181818181818"/>
  <line stroke="#888888" x1="172.50000000000003" x2="177.5" y1="84.78181818181818" y2="79.78181818181817"/>
  <line stroke="#888888" x1="177.5" x2="177.5" y1="79.78181818181817" y2="84.78181818181818"/>
  <line stroke="#000000" x1="190.00000000000003" x2="190.00000000000003" y1="66.55000000000001" y2="66.55000000000001"/>
  <line stroke="#000000" x1="190.00000000000003" x2="190.00000000000003" y1="66.55000000000001" y2="66.55000000000001"/>
  <line stroke="#000000" x1="190.00000000000003" x2="190.00000000000003" y1="66.55000000000001" y2="66.55000000000001"/>
  <line stroke="#000000" x1="190.00000000000003" x2="190.00000000000003" y1="66.55000000000001" y2="66.55000000000001"/>
  <line stroke="#000000" x1="320.00000000000006" x2="319.26130043570834" y1="66.55000000000001" y2="57.163932097586134"/>
  <line stroke="#000000" x1="319.26130043570834" x2="320.00000000000006" y1="75.93606790241387" y2="66.55000000000001"/>
  <line stroke="#000000" x1="317.0633909777093" x2="319.26130043570834" y1="85.09101966249686" y2="75.93606790241387"/>
  <line stroke="#000000" x1="313.4603914513021" x2="317.0633909777093" y1="93.78942998437282" y2="85.09101966249686"/>
  <line stroke="#000000" x1="308.54101966249686" x2="313.4603914513021" y1="101.8171151375484" y2="93.78942998437282"/>
  <line stroke="#000000" x1="302.42640687119285" x2="308.54101966249686" y1="108.97640687119286" y2="101.8171151375484"/>
  <line stroke="#000000" x1="295.2671151375484" x2="302.42640687119285" y1="115.09101966249686" y2="108.97640687119286"/>
  <line stroke="#000000" x1="287.2394299843728" x2="295.2671151375484" y1="120.01039145130208" y2="115.09101966249686"/>
  <line stroke="#000000" x1="278.5410196624969" x2="287.2394299843728" y1="123.61339097770922" y2="120.01039145130208"/>
  <line stroke="#000000" x1="269.3860679024139" x2="278.5410196624969" y1="125.81130043570828" y2="123.61339097770922"/>
  <line stroke="#000000" x1="260.0" x2="269.3860679024139" y1="126.55000000000001" y2="125.81130043570828"/>
  <line stroke="#000000" x1="250.61393209758617" x2="260.0" y1="125.81130043570828" y2="126.55000000000001"/>
  <line stroke="#000000" x1="241.45898033750322" x2="250.61393209758617" y1="123.61339097770923" y2="125.81130043570828"/>
  <line stroke="#000000" x1="232.76057001562722" x2="241.45898033750322" y1="120.01039145130208" y2="123.61339097770923"/>
  <line stroke="#000000" x1="224.73288486245164" x2="232.76057001562722" y1="115.09101966249686" y2="120.01039145130208"/>
  <line stroke="#000000" x1="217.57359312880718" x2="224.73288486245164" y1="108.97640687119286" y2="115.09101966249686"/>
  <line stroke="#000000" x1="211.4589803375032" x2="217.57359312880718" y1="101.8171151375484" y2="108.97640687119286"/>
  <line stroke="#000000" x1="206.53960854869794" x2="211.4589803375032" y1="93.78942998437283" y2="101.8171151375484"/>
  <line stroke="#000000" x1="202.9366090222908" x2="206.53960854869794" y1="85.09101966249686" y2="93.78942998437283"/>
  <line stroke="#000000" x1="200.73869956429178" x2="202.9366090222908" y1="75.93606790241387" y2="85.09101966249686"/>
  <line stroke="#000000" x1="200.0" x2="200.73869956429178" y1="66.55000000000003" y2="75.93606790241387"/>
  <line stroke="#000000" x1="200.73869956429175" x2="200.0" y1="57.16393209758616" y2="66.55000000000003"/>
  <line stroke="#000000" x1="202.9366090222908" x2="200.73869956429175" y1="48.00898033750317" y2="57.16393209758616"/>
  <line stroke="#000000" x1="206.53960854869794" x2="202.9366090222908" y1="39.310570015627206" y2="48.00898033750317"/>
  <line stroke="#000000" x1="211.45898033750316" x2="206.53960854869794" y1="31.28288486245162" y2="39.310570015627206"/>
  <line stroke="#000000" x1="217.57359312880718" x2="211.45898033750316" y1="24.123593128807155" y2="31.28288486245162"/>
  <line stroke="#000000" x1="224.73288486245164" x2="217.57359312880718" y1="18.008980337503157" y2="24.123593128807155"/>
  <line stroke="#000000" x1="232.76057001562722" x2="224.73288486245164" y1="13.089608548697933" y2="18.008980337503157"/>
  <line stroke="#000000" x1="241.45898033750316" x2="232.76057001562722" y1="9.486609022290786" y2="13.089608548697933"/>
  <line stroke="#000000" x1="250.61393209758617" x2="241.45898033750316" y1="7.288699564291741" y2="9.486609022290786"/>
  <line stroke="#000000" x1="260.0" x2="250.61393209758617" y1="6.549999999999998" y2="7.288699564291741"/>
  <line stroke="#000000" x1="269.3860679024139" x2="260.0" y1="7.288699564291734" y2="6.549999999999998"/>
  <line stroke="#000000" x1="278.54101966249686" x2="269.3860679024139" y1="9.486609022290779" y2="7.288699564291734"/>
  <line stroke="#000000" x1="287.2394299843728" x2="278.54101966249686" y1="13.08960854869792" y2="9.486609022290779"/>
  <line stroke="#000000" x1="295.2671151375484" x2="287.2394299843728" y1="18.00898033750315" y2="13.08960854869792"/>
  <line stroke="#000000" x1="302.42640687119285" x2="295.2671151375484" y1="24.12359312880714" y2="18.00898033750315"/>
  <line stroke="#000000" x1="308.54101966249686" x2="302.42640687119285" y1="31.2828848624516" y2="24.12359312880714"/>
  <line stroke="#000000" x1="313.4603914513021" x2="308.54101966249686" y1="39.310570015627185" y2="31.2828848624516"/>
  <line stroke="#000000" x1="317.0633909777093" x2="313.4603914513021" y1="48.00898033750315" y2="39.310570015627185"/>
  <line stroke="#000000" x1="319.26130043570834" x2="317.0633909777093" y1="57.163932097586134" y2="48.00898033750315"/>
  <line stroke="#000000" x1="330.00000000000006" x2="330.00000000000006" y1="66.55000000000001" y2="66.55000000000001"/>
  <line stroke="#000000" x1="330.00000000000006" x2="330.00000000000006" y1="66.55000000000001" y2="66.55000000000001"/>
  <line stroke="#000000" x1="330.00000000000006" x2="330.00000000000006" y1="66.55000000000001" y2="66.55000000000001"/>
  <line stroke="#000000" x1="330.00000000000006" x2="330.00000000000006" y1="66.55000000000001" y2="66.55000000000001"/>
  <line stroke="#000000" x1="460.00000000000006" x2="459.26130043570834" y1="66.55000000000001" y2="57.163932097586134"/>
  <line stroke="#000000" x1="459.26130043570834" x2="460.00000000000006" y1="75.93606790241387" y2="66.55000000000001"/>
  <line stroke="#000000" x1="457.0633909777093" x2="459.26130043570834" y1="85.09101966249686" y2="75.93606790241387"/>
  <line stroke="#000000" x1="453.46039145130214" x2="457.0633909777093" y1="93.78942998437282" y2="85.09101966249686"/>
  <line stroke="#000000" x1="448.5410196624969" x2="453.46039145130214" y1="101.8171151375484" y2="93.78942998437282"/>
  <line stroke="#000000" x1="442.4264068711929" x2="448.5410196624969" y1="108.97640687119286" y2="101.8171151375484"/>
  <line stroke="#000000" x1="435.26711513754844" x2="442.4264068711929" y1="115.09101966249686" y2="108.97640687119286"/>
  <line stroke="#000000" x1="427.23942998437286" x2="435.26711513754844" y1="120.01039145130208" y2="115.09101966249686"/>
  <line stroke="#000000" x1="418.5410196624969" x2="427.23942998437286" y1="123.61339097770922" y2="120.01039145130208"/>
  <line stroke="#000000" x1="409.3860679024139" x2="418.5410196624969" y1="125.81130043570828" y2="123.61339097770922"/>
  <line stroke="#000000" x1="400.0" x2="409.3860679024139" y1="126.55000000000001" y2="125.81130043570828"/>
  <line stroke="#000000" x1="390.6139320975862" x2="400.0" y1="125.81130043570828" y2="126.55000000000001"/>
  <line stroke="#000000" x1="381.4589803375032" x2="390.6139320975862" y1="123.61339097770923" y2="125.81130043570828"/>
  <line stroke="#000000" x1="372.7605700156272" x2="381.4589803375032" y1="120.01039145130208" y2="123.61339097770923"/>
  <line stroke="#000000" x1="364.73288486245167" x2="372.7605700156272" y1="115.09101966249686" y2="120.01039145130208"/>
  <line stroke="#000000" x1="357.5735931288072" x2="364.73288486245167" y1="108.97640687119286" y2="115.09101966249686"/>
  <line stroke="#000000" x1="351.45898033750314" x2="357.5735931288072" y1="101.8171151375484" y2="108.97640687119286"/>
  <line stroke="#000000" x1="346.53960854869797" x2="351.45898033750314" y1="93.78942998437283" y2="101.8171151375484"/>
  <line stroke="#000000" x1="342.93660902229084" x2="346.53960854869797" y1="85.09101966249686" y2="93.78942998437283"/>
  <line stroke="#000000" x1="340.7386995642918" x2="342.93660902229084" y1="75.93606790241387" y2="85.09101966249686"/>
  <line stroke="#000000" x1="340.00000000000006" x2="340.7386995642918" y1="66.55000000000003" y2="75.93606790241387"/>
  <line stroke="#000000" x1="340.7386995642918" x2="340.00000000000006" y1="57.16393209758616" y2="66.55000000000003"/>
  <line stroke="#000000" x1="342.93660902229084" x2="340.7386995642918" y1="48.00898033750317" y2="57.16393209758616"/>
  <line stroke="#000000" x1="346.53960854869797" x2="342.93660902229084" y1="39.310570015627206" y2="48.00898033750317"/>
  <line stroke="#000000" x1="351.45898033750314" x2="346.53960854869797" y1="31.28288486245162" y2="39.310570015627206"/>
  <line stroke="#000000" x1="357.5735931288072" x2="351.45898033750314" y1="24.123593128807155" y2="31.28288486245162"/>
  <line stroke="#000000" x1="364.73288486245167" x2="357.5735931288072" y1="18.008980337503157" y2="24.123593128807155"/>
  <line stroke="#000000" x1="372.7605700156272" x2="364.73288486245167" y1="13.089608548697933" y2="18.008980337503157"/>
  <line stroke="#000000" x1="381.4589803375032" x2="372.7605700156272" y1="9.486609022290786" y2="13.089608548697933"/>
  <line stroke="#000000" x1="390.6139320975862" x2="381.4589803375032" y1="7.288699564291741" y2="9.486609022290786"/>
  <line stroke="#000000" x1="400.0" x2="390.6139320975862" y1="6.549999999999998" y2="7.288699564291741"/>
  <line stroke="#000000" x1="409.3860679024139" x2="400.0" y1="7.288699564291734" y2="6.549999999999998"/>
  <line stroke="#000000" x1="418.5410196624968" x2="409.3860679024139" y1="9.486609022290779" y2="7.288699564291734"/>
  <line stroke="#000000" x1="427.23942998437286" x2="418.5410196624968" y1="13.08960854869792" y2="9.486609022290779"/>
  <line stroke="#000000" x1="435.26711513754844" x2="427.23942998437286" y1="18.00898033750315" y2="13.08960854869792"/>
  <line stroke="#000000" x1="442.4264068711929" x2="435.26711513754844" y1="24.12359312880714" y2="18.00898033750315"/>
  <line stroke="#000000" x1="448.5410196624969" x2="442.4264068711929" y1="31.2828848624516" y2="24.12359312880714"/>
  <line stroke="#000000" x1="453.46039145130214" x2="448.5410196624969" y1="39.310570015627185" y2="31.2828848624516"/>
  <line stroke="#000000" x1="457.0633909777093" x2="453.46039145130214" y1="48.00898033750315" y2="39.310570015627185"/>
  <line stroke="#000000" x1="459.26130043570834" x2="457.0633909777093" y1="57.163932097586134" y2="48.00898033750315"/>
</svg>
