<?xml version="1.0" encoding="utf-8" ?>
<svg xmlns="http://www.w3.org/2000/svg" xmlns:ev="http://www.w3.org/2001/xml-events" xmlns:xlink="http://www.w3.org/1999/xlink" baseProfile="full" height="613.600000mm" version="1.1" viewBox="0.000000 0.000000 340.000000 613.600000" width="340.000000mm">
  <defs/>
  <line stroke="#000000" x1="124.00000000000003" x2="111.00000000000001" y1="36.5" y2="36.5"/>
  <line stroke="#000000" x1="150.0" x2="150.0" y1="36.599999999999994" y2="36.5"/>
  <line stroke="#0000ff" stroke-dasharray="2 6" stroke-dashoffset="5" x1="150.0" x2="85.00000000000001" y1="36.599999999999994" y2="36.599999999999994"/>
  <line stroke="#000000" x1="85.00000000000001" x2="85.00000000000001" y1="36.5" y2="36.599999999999994"/>
  <line stroke="#000000" x1="124.00000000000003" x2="124.00000000000003" y1="16.5" y2="36.5"/>
  <line stroke="#0000ff" stroke-dasharray="2 6" stroke-dashoffset="5" x1="124.00000000000003" x2="111.00000000000001" y1="16.5" y2="16.5"/>
  <line stroke="#000000" x1="111.00000000000001" x2="111.00000000000001" y1="36.5" y2="16.5"/>
  <line stroke="#ff0000" stroke-dasharray="2 6" stroke-dashoffset="5" x1="85.00000000000001" x2="106.66666666666669" y1="36.5" y2="0.0"/>
  <line stroke="#000000" x1="128.33333333333337" x2="106.66666666666669" y1="0.0" y2="0.0"/>
  <line stroke="#ff0000" stroke-dasharray="2 6" stroke-dashoffset="5" x1="128.33333333333337" x2="150.0" y1="0.0" y2="36.5"/>
  <line stroke="#000000" x1="124.00000000000003" x2="124.00000000000003" y1="36.5" y2="16.5"/>
  <line stroke="#000000" x1="111.00000000000001" x2="124.00000000000003" y1="36.5" y2="36.5"/>
  <line stroke="#000000" x1="111.00000000000001" x2="111.00000000000001" y1="16.5" y2="36.5"/>
  <line stroke="#000000" x1="106.66666666666669" x2="85.00000000000001" y1="0.0" y2="0.0"/>
  <line stroke="#000000" x1="85.00000000000001" x2="85.00000000000001" y1="0.0" y2="36.5"/>
  <line stroke="#000000" x1="150.0" x2="150.0" y1="36.49999999999999" y2="0.0"/>
  <line stroke="#000000" x1="150.0" x2="128.33333333333334" y1="0.0" y2="0.0"/>
  <line stroke="#0000ff" stroke-dasharray="2 6" stroke-dashoffset="5" x1="85.00000000000001" x2="85.00000000000001" y1="236.60000000000005" y2="36.599999999999994"/>
  <line stroke="#0000ff" stroke-dasharray="2 6" stroke-dashoffset="5" x1="150.0" x2="150.0" y1="236.60000000000005" y2="36.599999999999994"/>
  <line stroke="#0000ff" stroke-dasharray="2 6" stroke-dashoffset="5" x1="131.0" x2="150.0" y1="236.60000000000005" y2="236.60000000000005"/>
  <line stroke="#000000" x1="104.00000000000001" x2="131.0" y1="236.60000000000005" y2="236.60000000000005"/>
  <line stroke="#000000" x1="85.00000000000001" x2="104.00000000000001" y1="236.60000000000005" y2="236.60000000000005"/>
  <line stroke="#000000" x1="85.00000000000001" x2="85.00000000000001" y1="236.60000000000005" y2="236.60000000000005"/>
  <line stroke="#000000" x1="150.0" x2="150.0" y1="236.60000000000005" y2="236.60000000000005"/>
  <line stroke="#000000" x1="131.0" x2="150.0" y1="392.6000000000001" y2="392.6000000000001"/>
  <line stroke="#ff0000" stroke-dasharray="2 6" stroke-dashoffset="5" x1="131.0" x2="131.0" y1="392.6000000000001" y2="236.60000000000005"/>
  <line stroke="#ff0000" stroke-dasharray="2 6" stroke-dashoffset="5" x1="150.0" x2="150.0" y1="392.6000000000001" y2="236.60000000000005"/>
  <line stroke="#000000" x1="118.00000000000001" x2="131.0" y1="392.6000000000001" y2="392.6000000000001"/>
  <line stroke="#ff0000" stroke-dasharray="2 6" stroke-dashoffset="5" x1="118.00000000000001" x2="118.00000000000001" y1="392.6000000000001" y2="236.60000000000005"/>
  <line stroke="#000000" x1="131.0" x2="118.00000000000001" y1="236.60000000000005" y2="236.60000000000005"/>
  <line stroke="#000000" x1="99.0" x2="118.00000000000001" y1="392.6000000000001" y2="392.6000000000001"/>
  <line stroke="#000000" x1="99.0" x2="99.0" y1="236.60000000000005" y2="392.6000000000001"/>
  <line stroke="#000000" x1="118.00000000000001" x2="99.0" y1="236.60000000000005" y2="236.60000000000005"/>
  <line stroke="#ff0000" stroke-dasharray="2 6" stroke-dashoffset="5" x1="150.0" x2="163.00000000000003" y1="392.6000000000001" y2="392.6000000000001"/>
  <line stroke="#000000" x1="163.00000000000003" x2="150.0" y1="236.60000000000005" y2="236.60000000000005"/>
  <line stroke="#ff0000" stroke-dasharray="2 6" stroke-dashoffset="5" x1="163.00000000000003" x2="163.00000000000003" y1="236.60000000000005" y2="392.6000000000001"/>
  <line stroke="#ff0000" stroke-dasharray="2 6" stroke-dashoffset="5" x1="163.00000000000003" x2="150.0" y1="457.6000000000001" y2="457.6000000000001"/>
  <line stroke="#0000ff" stroke-dasharray="2 6" stroke-dashoffset="5" x1="150.0" x2="150.0" y1="457.6000000000001" y2="392.6000000000001"/>
  <line stroke="#0000ff" stroke-dasharray="2 6" stroke-dashoffset="5" x1="163.00000000000003" x2="163.00000000000003" y1="392.6000000000001" y2="457.6000000000001"/>
  <line stroke="#000000" x1="150.0" x2="163.00000000000003" y1="613.5999999999999" y2="613.5999999999999"/>
  <line stroke="#ff0000" stroke-dasharray="2 6" stroke-dashoffset="5" x1="150.0" x2="150.0" y1="613.5999999999999" y2="457.6000000000001"/>
  <line stroke="#ff0000" stroke-dasharray="2 6" stroke-dashoffset="5" x1="163.00000000000003" x2="163.00000000000003" y1="457.6000000000001" y2="613.5999999999999"/>
  <line stroke="#000000" x1="131.0" x2="150.0" y1="613.5999999999999" y2="613.5999999999999"/>
  <line stroke="#ff0000" stroke-dasharray="2 6" stroke-dashoffset="5" x1="131.0" x2="131.0" y1="613.5999999999999" y2="457.6"/>
  <line stroke="#000000" x1="150.0" x2="131.0" y1="457.6" y2="457.6"/>
  <line stroke="#000000" x1="118.00000000000001" x2="131.0" y1="613.5999999999999" y2="613.5999999999999"/>
  <line stroke="#ff0000" stroke-dasharray="2 6" stroke-dashoffset="5" x1="118.00000000000001" x2="118.00000000000001" y1="613.5999999999999" y2="457.6"/>
  <line stroke="#000000" x1="131.0" x2="118.00000000000001" y1="457.6" y2="457.6"/>
  <line stroke="#000000" x1="99.0" x2="118.00000000000001" y1="613.5999999999999" y2="613.5999999999999"/>
  <line stroke="#000000" x1="99.0" x2="99.0" y1="457.6" y2="613.5999999999999"/>
  <line stroke="#000000" x1="118.00000000000001" x2="99.0" y1="457.6" y2="457.6"/>
  <line stroke="#000000" x1="173.0" x2="163.00000000000003" y1="457.6" y2="457.6"/>
  <line stroke="#000000" x1="173.0" x2="173.0" y1="613.5999999999999" y2="457.6"/>
  <line stroke="#000000" x1="163.00000000000003" x2="173.0" y1="613.5999999999999" y2="613.5999999999999"/>
  <line stroke="#000000" x1="106.00000000000001" x2="150.0" y1="457.6000000000001" y2="457.6000000000001"/>
  <line stroke="#0000ff" stroke-dasharray="2 6" stroke-dashoffset="5" x1="106.00000000000001" x2="106.00000000000001" y1="457.6000000000001" y2="392.6000000000001"/>
  <line stroke="#000000" x1="150.0" x2="106.00000000000001" y1="392.6000000000001" y2="392.6000000000001"/>
  <line stroke="#000000" x1="93.00000000000001" x2="106.00000000000001" y1="457.6000000000001" y2="457.6000000000001"/>
  <line stroke="#0000ff" stroke-dasharray="2 6" stroke-dashoffset="5" x1="93.00000000000001" x2="93.00000000000001" y1="457.6000000000001" y2="392.6000000000001"/>
  <line stroke="#000000" x1="106.00000000000001" x2="93.00000000000001" y1="392.6000000000001" y2="392.6000000000001"/>
  <line stroke="#000000" x1="49.00000000000001" x2="93.00000000000001" y1="457.6000000000001" y2="457.6000000000001"/>
  <line stroke="#000000" x1="49.00000000000001" x2="49.00000000000001" y1="392.6000000000001" y2="457.6000000000001"/>
  <line stroke="#000000" x1="93.00000000000001" x2="49.00000000000001" y1="392.6000000000001" y2="392.6000000000001"/>
  <line stroke="#000000" x1="173.0" x2="163.00000000000003" y1="392.6000000000001" y2="392.6000000000001"/>
  <line stroke="#000000" x1="173.0" x2="173.0" y1="457.6000000000001" y2="392.6000000000001"/>
  <line stroke="#000000" x1="163.00000000000003" x2="173.0" y1="457.6000000000001" y2="457.6000000000001"/>
  <line stroke="#000000" x1="173.0" x2="163.00000000000003" y1="236.60000000000005" y2="236.60000000000005"/>
  <line stroke="#000000" x1="173.0" x2="173.0" y1="392.6000000000001" y2="236.60000000000005"/>
  <line stroke="#000000" x1="163.00000000000003" x2="173.0" y1="392.6000000000001" y2="392.6000000000001"/>
  <line stroke="#000000" x1="65.0" x2="85.00000000000001" y1="236.60000000000005" y2="236.60000000000005"/>
  <line stroke="#0000ff" stroke-dasharray="2 6" stroke-dashoffset="5" x1="65.0" x2="65.0" y1="236.60000000000005" y2="36.60000000000001"/>
  <line stroke="#000000" x1="85.00000000000001" x2="65.0" y1="36.60000000000001" y2="36.60000000000001"/>
  <line stroke="#000000" x1="0.0" x2="65.0" y1="236.60000000000005" y2="236.60000000000005"/>
  <line stroke="#000000" x1="0.0" x2="0.0" y1="36.60000000000001" y2="236.60000000000005"/>
  <line stroke="#000000" x1="26.000000000000004" x2="0.0" y1="36.60000000000001" y2="36.60000000000001"/>
  <line stroke="#000000" x1="39.00000000000001" x2="26.000000000000004" y1="36.60000000000001" y2="36.60000000000001"/>
  <line stroke="#000000" x1="65.0" x2="39.00000000000001" y1="36.60000000000001" y2="36.60000000000001"/>
  <line stroke="#000000" x1="65.0" x2="65.0" y1="36.60000000000001" y2="36.60000000000001"/>
  <line stroke="#000000" x1="0.0" x2="0.0" y1="36.60000000000001" y2="36.60000000000001"/>
  <line stroke="#000000" x1="150.0" x2="170.00000000000003" y1="236.60000000000005" y2="236.60000000000005"/>
  <line stroke="#000000" x1="170.00000000000003" x2="150.0" y1="36.599999999999994" y2="36.599999999999994"/>
  <line stroke="#0000ff" stroke-dasharray="2 6" stroke-dashoffset="5" x1="170.00000000000003" x2="170.00000000000003" y1="36.599999999999994" y2="236.60000000000005"/>
  <line stroke="#000000" x1="180.0" x2="170.00000000000003" y1="36.60000000000001" y2="36.60000000000001"/>
  <line stroke="#000000" x1="180.0" x2="180.0" y1="236.60000000000005" y2="36.60000000000001"/>
  <line stroke="#000000" x1="170.00000000000003" x2="180.0" y1="236.60000000000005" y2="236.60000000000005"/>
  <line stroke="#888888" x1="119.66666666666667" x2="115.33333333333334" y1="21.5" y2="21.5"/>
  <line stroke="#888888" x1="115.33333333333334" x2="115.33333333333334" y1="21.5" y2="31.5"/>
  <line stroke="#888888" x1="115.33333333333334" x2="119.66666666666669" y1="31.5" y2="31.5"/>
  <line stroke="#888888" x1="125.50000000000001" x2="121.50000000000001" y1="56.1" y2="56.1"/>
  <line stroke="#888888" x1="121.50000000000001" x2="121.50000000000001" y1="56.1" y2="47.1"/>
  <line stroke="#888888" x1="121.50000000000001" x2="125.50000000000001" y1="47.1" y2="47.1"/>
  <line stroke="#888888" x1="125.50000000000001" x2="125.50000000000001" y1="47.1" y2="56.1"/>
  <line stroke="#888888" x1="119.75000000000001" x2="92.75000000000001" y1="79.85" y2="79.85"/>
  <line stroke="#888888" x1="92.75000000000001" x2="92.75000000000001" y1="79.85" y2="71.85"/>
  <line stroke="#888888" x1="92.75000000000001" x2="119.75000000000001" y1="71.85" y2="71.85"/>
  <line stroke="#888888" x1="119.75000000000001" x2="119.75000000000001" y1="71.85" y2="79.85"/>
  <line stroke="#888888" x1="99.47000000000001" x2="96.47000000000001" y1="64.03000000000002" y2="64.03000000000002"/>
  <line stroke="#888888" x1="96.47000000000001" x2="96.47000000000001" y1="64.03000000000002" y2="61.03000000000001"/>
  <line stroke="#888888" x1="96.47000000000001" x2="99.47000000000001" y1="61.03000000000001" y2="61.03000000000001"/>
  <line stroke="#888888" x1="99.47000000000001" x2="99.47000000000001" y1="61.03000000000001" y2="64.03000000000002"/>
  <line stroke="#888888" x1="98.47000000000001" x2="97.47000000000001" y1="40.169999999999995" y2="40.169999999999995"/>
  <line stroke="#888888" x1="97.47000000000001" x2="97.47000000000001" y1="40.169999999999995" y2="39.16999999999999"/>
  <line stroke="#888888" x1="97.47000000000001" x2="98.47000000000001" y1="39.16999999999999" y2="39.16999999999999"/>
  <line stroke="#888888" x1="98.47000000000001" x2="98.47000000000001" y1="39.16999999999999" y2="40.169999999999995"/>
  <line stroke="#888888" x1="101.01" x2="100.01" y1="63.03000000000001" y2="63.03000000000001"/>
  <line stroke="#888888" x1="100.01" x2="100.01" y1="63.03000000000001" y2="62.03000000000001"/>
  <line stroke="#888888" x1="100.01" x2="101.01" y1="62.03000000000001" y2="62.03000000000001"/>
  <line stroke="#888888" x1="101.01" x2="101.01" y1="62.03000000000001" y2="63.03000000000001"/>
  <line stroke="#888888" x1="101.01" x2="100.01" y1="40.169999999999995" y2="40.169999999999995"/>
  <line stroke="#888888" x1="100.01" x2="100.01" y1="40.169999999999995" y2="39.16999999999999"/>
  <line stroke="#888888" x1="100.01" x2="101.01" y1="39.16999999999999" y2="39.16999999999999"/>
  <line stroke="#888888" x1="101.01" x2="101.01" y1="39.16999999999999" y2="40.169999999999995"/>
  <line stroke="#888888" x1="103.55000000000001" x2="102.55000000000001" y1="63.03000000000001" y2="63.03000000000001"/>
  <line stroke="#888888" x1="102.55000000000001" x2="102.55000000000001" y1="63.03000000000001" y2="62.03000000000001"/>
  <line stroke="#888888" x1="102.55000000000001" x2="103.55000000000001" y1="62.03000000000001" y2="62.03000000000001"/>
  <line stroke="#888888" x1="103.55000000000001" x2="103.55000000000001" y1="62.03000000000001" y2="63.03000000000001"/>
  <line stroke="#888888" x1="103.55000000000001" x2="102.55000000000001" y1="40.169999999999995" y2="40.169999999999995"/>
  <line stroke="#888888" x1="102.55000000000001" x2="102.55000000000001" y1="40.169999999999995" y2="39.16999999999999"/>
  <line stroke="#888888" x1="102.55000000000001" x2="103.55000000000001" y1="39.16999999999999" y2="39.16999999999999"/>
  <line stroke="#888888" x1="103.55000000000001" x2="103.55000000000001" y1="39.16999999999999" y2="40.169999999999995"/>
  <line stroke="#888888" x1="106.09000000000002" x2="105.09000000000002" y1="63.03000000000001" y2="63.03000000000001"/>
  <line stroke="#888888" x1="105.09000000000002" x2="105.09000000000002" y1="63.03000000000001" y2="62.03000000000001"/>
  <line stroke="#888888" x1="105.09000000000002" x2="106.09000000000002" y1="62.03000000000001" y2="62.03000000000001"/>
  <line stroke="#888888" x1="106.09000000000002" x2="106.09000000000002" y1="62.03000000000001" y2="63.03000000000001"/>
  <line stroke="#888888" x1="106.09000000000002" x2="105.09000000000002" y1="40.169999999999995" y2="40.169999999999995"/>
  <line stroke="#888888" x1="105.09000000000002" x2="105.09000000000002" y1="40.169999999999995" y2="39.16999999999999"/>
  <line stroke="#888888" x1="105.09000000000002" x2="106.09000000000002" y1="39.16999999999999" y2="39.16999999999999"/>
  <line stroke="#888888" x1="106.09000000000002" x2="106.09000000000002" y1="39.16999999999999" y2="40.169999999999995"/>
  <line stroke="#888888" x1="108.63000000000001" x2="107.63000000000001" y1="63.03000000000001" y2="63.03000000000001"/>
  <line stroke="#888888" x1="107.63000000000001" x2="107.63000000000001" y1="63.03000000000001" y2="62.03000000000001"/>
  <line stroke="#888888" x1="107.63000000000001" x2="108.63000000000001" y1="62.03000000000001" y2="62.03000000000001"/>
  <line stroke="#888888" x1="108.63000000000001" x2="108.63000000000001" y1="62.03000000000001" y2="63.03000000000001"/>
  <line stroke="#888888" x1="108.63000000000001" x2="107.63000000000001" y1="40.169999999999995" y2="40.169999999999995"/>
  <line stroke="#888888" x1="107.63000000000001" x2="107.63000000000001" y1="40.169999999999995" y2="39.16999999999999"/>
  <line stroke="#888888" x1="107.63000000000001" x2="108.63000000000001" y1="39.16999999999999" y2="39.16999999999999"/>
  <line stroke="#888888" x1="108.63000000000001" x2="108.63000000000001" y1="39.16999999999999" y2="40.169999999999995"/>
  <line stroke="#888888" x1="111.17000000000002" x2="110.17000000000002" y1="63.03000000000001" y2="63.03000000000001"/>
  <line stroke="#888888" x1="110.17000000000002" x2="110.17000000000002" y1="63.03000000000001" y2="62.03000000000001"/>
  <line stroke="#888888" x1="110.17000000000002" x2="111.17000000000002" y1="62.03000000000001" y2="62.03000000000001"/>
  <line stroke="#888888" x1="111.17000000000002" x2="111.17000000000002" y1="62.03000000000001" y2="63.03000000000001"/>
  <line stroke="#888888" x1="111.17000000000002" x2="110.17000000000002" y1="40.169999999999995" y2="40.169999999999995"/>
  <line stroke="#888888" x1="110.17000000000002" x2="110.17000000000002" y1="40.169999999999995" y2="39.16999999999999"/>
  <line stroke="#888888" x1="110.17000000000002" x2="111.17000000000002" y1="39.16999999999999" y2="39.16999999999999"/>
  <line stroke="#888888" x1="111.17000000000002" x2="111.17000000000002" y1="39.16999999999999" y2="40.169999999999995"/>
  <line stroke="#888888" x1="113.71000000000002" x2="112.71000000000002" y1="63.03000000000001" y2="63.03000000000001"/>
  <line stroke="#888888" x1="112.71000000000002" x2="112.71000000000002" y1="63.03000000000001" y2="62.03000000000001"/>
  <line stroke="#888888" x1="112.71000000000002" x2="113.71000000000002" y1="62.03000000000001" y2="62.03000000000001"/>
  <line stroke="#888888" x1="113.71000000000002" x2="113.71000000000002" y1="62.03000000000001" y2="63.03000000000001"/>
  <line stroke="#888888" x1="113.71000000000002" x2="112.71000000000002" y1="40.169999999999995" y2="40.169999999999995"/>
  <line stroke="#888888" x1="112.71000000000002" x2="112.71000000000002" y1="40.169999999999995" y2="39.16999999999999"/>
  <line stroke="#888888" x1="112.71000000000002" x2="113.71000000000002" y1="39.16999999999999" y2="39.16999999999999"/>
  <line stroke="#888888" x1="113.71000000000002" x2="113.71000000000002" y1="39.16999999999999" y2="40.169999999999995"/>
  <line stroke="#888888" x1="116.25000000000001" x2="115.25000000000001" y1="63.029999999999994" y2="63.029999999999994"/>
  <line stroke="#888888" x1="115.25000000000001" x2="115.25000000000001" y1="63.029999999999994" y2="62.029999999999994"/>
  <line stroke="#888888" x1="115.25000000000001" x2="116.25000000000001" y1="62.029999999999994" y2="62.029999999999994"/>
  <line stroke="#888888" x1="116.25000000000001" x2="116.25000000000001" y1="62.029999999999994" y2="63.029999999999994"/>
  <line stroke="#888888" x1="116.25000000000001" x2="115.25000000000001" y1="40.169999999999995" y2="40.169999999999995"/>
  <line stroke="#888888" x1="115.25000000000001" x2="115.25000000000001" y1="40.169999999999995" y2="39.16999999999999"/>
  <line stroke="#888888" x1="115.25000000000001" x2="116.25000000000001" y1="39.16999999999999" y2="39.16999999999999"/>
  <line stroke="#888888" x1="116.25000000000001" x2="116.25000000000001" y1="39.16999999999999" y2="40.169999999999995"/>
  <line stroke="#888888" x1="118.79" x2="117.79" y1="63.029999999999994" y2="63.029999999999994"/>
  <line stroke="#888888" x1="117.79" x2="117.79" y1="63.029999999999994" y2="62.029999999999994"/>
  <line stroke="#888888" x1="117.79" x2="118.79" y1="62.029999999999994" y2="62.029999999999994"/>
  <line stroke="#888888" x1="118.79" x2="118.79" y1="62.029999999999994" y2="63.029999999999994"/>
  <line stroke="#888888" x1="118.79" x2="117.79" y1="40.169999999999995" y2="40.169999999999995"/>
  <line stroke="#888888" x1="117.79" x2="117.79" y1="40.169999999999995" y2="39.16999999999999"/>
  <line stroke="#888888" x1="117.79" x2="118.79" y1="39.16999999999999" y2="39.16999999999999"/>
  <line stroke="#888888" x1="118.79" x2="118.79" y1="39.16999999999999" y2="40.169999999999995"/>
  <line stroke="#888888" x1="121.33000000000001" x2="120.33000000000001" y1="63.029999999999994" y2="63.029999999999994"/>
  <line stroke="#888888" x1="120.33000000000001" x2="120.33000000000001" y1="63.029999999999994" y2="62.029999999999994"/>
  <line stroke="#888888" x1="120.33000000000001" x2="121.33000000000001" y1="62.029999999999994" y2="62.029999999999994"/>
  <line stroke="#888888" x1="121.33000000000001" x2="121.33000000000001" y1="62.029999999999994" y2="63.029999999999994"/>
  <line stroke="#888888" x1="121.33000000000001" x2="120.33000000000001" y1="40.169999999999995" y2="40.169999999999995"/>
  <line stroke="#888888" x1="120.33000000000001" x2="120.33000000000001" y1="40.169999999999995" y2="39.16999999999999"/>
  <line stroke="#888888" x1="120.33000000000001" x2="121.33000000000001" y1="39.16999999999999" y2="39.16999999999999"/>
  <line stroke="#888888" x1="121.33000000000001" x2="121.33000000000001" y1="39.16999999999999" y2="40.169999999999995"/>
  <line stroke="#888888" x1="123.87000000000002" x2="122.87000000000002" y1="63.029999999999994" y2="63.029999999999994"/>
  <line stroke="#888888" x1="122.87000000000002" x2="122.87000000000002" y1="63.029999999999994" y2="62.029999999999994"/>
  <line stroke="#888888" x1="122.87000000000002" x2="123.87000000000002" y1="62.029999999999994" y2="62.029999999999994"/>
  <line stroke="#888888" x1="123.87000000000002" x2="123.87000000000002" y1="62.029999999999994" y2="63.029999999999994"/>
  <line stroke="#888888" x1="123.87000000000002" x2="122.87000000000002" y1="40.169999999999995" y2="40.169999999999995"/>
  <line stroke="#888888" x1="122.87000000000002" x2="122.87000000000002" y1="40.169999999999995" y2="39.16999999999999"/>
  <line stroke="#888888" x1="122.87000000000002" x2="123.87000000000002" y1="39.16999999999999" y2="39.16999999999999"/>
  <line stroke="#888888" x1="123.87000000000002" x2="123.87000000000002" y1="39.16999999999999" y2="40.169999999999995"/>
  <line stroke="#888888" x1="126.41000000000003" x2="125.41000000000001" y1="63.029999999999994" y2="63.029999999999994"/>
  <line stroke="#888888" x1="125.41000000000001" x2="125.41000000000001" y1="63.029999999999994" y2="62.029999999999994"/>
  <line stroke="#888888" x1="125.41000000000001" x2="126.41000000000003" y1="62.029999999999994" y2="62.029999999999994"/>
  <line stroke="#888888" x1="126.41000000000003" x2="126.41000000000003" y1="62.029999999999994" y2="63.029999999999994"/>
  <line stroke="#888888" x1="126.41000000000003" x2="125.41000000000001" y1="40.169999999999995" y2="40.169999999999995"/>
  <line stroke="#888888" x1="125.41000000000001" x2="125.41000000000001" y1="40.169999999999995" y2="39.16999999999999"/>
  <line stroke="#888888" x1="125.41000000000001" x2="126.41000000000003" y1="39.16999999999999" y2="39.16999999999999"/>
  <line stroke="#888888" x1="126.41000000000003" x2="126.41000000000003" y1="39.16999999999999" y2="40.169999999999995"/>
  <line stroke="#888888" x1="128.95000000000002" x2="127.95000000000002" y1="63.029999999999994" y2="63.029999999999994"/>
  <line stroke="#888888" x1="127.95000000000002" x2="127.95000000000002" y1="63.029999999999994" y2="62.029999999999994"/>
  <line stroke="#888888" x1="127.95000000000002" x2="128.95000000000002" y1="62.029999999999994" y2="62.029999999999994"/>
  <line stroke="#888888" x1="128.95000000000002" x2="128.95000000000002" y1="62.029999999999994" y2="63.029999999999994"/>
  <line stroke="#888888" x1="128.95000000000002" x2="127.95000000000002" y1="40.169999999999995" y2="40.169999999999995"/>
  <line stroke="#888888" x1="127.95000000000002" x2="127.95000000000002" y1="40.169999999999995" y2="39.16999999999999"/>
  <line stroke="#888888" x1="127.95000000000002" x2="128.95000000000002" y1="39.16999999999999" y2="39.16999999999999"/>
  <line stroke="#888888" x1="128.95000000000002" x2="128.95000000000002" y1="39.16999999999999" y2="40.169999999999995"/>
  <line stroke="#888888" x1="131.49000000000004" x2="130.49" y1="63.029999999999994" y2="63.029999999999994"/>
  <line stroke="#888888" x1="130.49" x2="130.49" y1="63.029999999999994" y2="62.029999999999994"/>
  <line stroke="#888888" x1="130.49" x2="131.49000000000004" y1="62.029999999999994" y2="62.029999999999994"/>
  <line stroke="#888888" x1="131.49000000000004" x2="131.49000000000004" y1="62.029999999999994" y2="63.029999999999994"/>
  <line stroke="#888888" x1="131.49000000000004" x2="130.49" y1="40.169999999999995" y2="40.169999999999995"/>
  <line stroke="#888888" x1="130.49" x2="130.49" y1="40.169999999999995" y2="39.16999999999999"/>
  <line stroke="#888888" x1="130.49" x2="131.49000000000004" y1="39.16999999999999" y2="39.16999999999999"/>
  <line stroke="#888888" x1="131.49000000000004" x2="131.49000000000004" y1="39.16999999999999" y2="40.169999999999995"/>
  <line stroke="#888888" x1="134.03000000000003" x2="133.03000000000003" y1="63.029999999999994" y2="63.029999999999994"/>
  <line stroke="#888888" x1="133.03000000000003" x2="133.03000000000003" y1="63.029999999999994" y2="62.029999999999994"/>
  <line stroke="#888888" x1="133.03000000000003" x2="134.03000000000003" y1="62.029999999999994" y2="62.029999999999994"/>
  <line stroke="#888888" x1="134.03000000000003" x2="134.03000000000003" y1="62.029999999999994" y2="63.029999999999994"/>
  <line stroke="#888888" x1="135.03000000000003" x2="132.03" y1="41.169999999999995" y2="41.169999999999995"/>
  <line stroke="#888888" x1="132.03" x2="132.03" y1="41.169999999999995" y2="38.16999999999999"/>
  <line stroke="#888888" x1="132.03" x2="135.03000000000003" y1="38.16999999999999" y2="38.16999999999999"/>
  <line stroke="#888888" x1="135.03000000000003" x2="135.03000000000003" y1="38.16999999999999" y2="41.169999999999995"/>
  <line stroke="#888888" x1="106.75000000000001" x2="106.75000000000001" y1="353.35" y2="373.3500000000001"/>
  <line stroke="#888888" x1="106.75000000000001" x2="106.25000000000001" y1="373.3500000000001" y2="373.3500000000001"/>
  <line stroke="#888888" x1="106.25000000000001" x2="106.25000000000001" y1="373.3500000000001" y2="353.35"/>
  <line stroke="#888888" x1="106.25000000000001" x2="106.75000000000001" y1="353.35" y2="353.35"/>
  <line stroke="#888888" x1="106.75000000000001" x2="106.75000000000001" y1="304.6" y2="324.6000000000001"/>
  <line stroke="#888888" x1="106.75000000000001" x2="106.25000000000001" y1="324.6000000000001" y2="324.6000000000001"/>
  <line stroke="#888888" x1="106.25000000000001" x2="106.25000000000001" y1="324.6000000000001" y2="304.6"/>
  <line stroke="#888888" x1="106.25000000000001" x2="106.75000000000001" y1="304.6" y2="304.6"/>
  <line stroke="#888888" x1="106.75" x2="106.75000000000001" y1="255.85000000000005" y2="275.85"/>
  <line stroke="#888888" x1="106.75000000000001" x2="106.25000000000001" y1="275.85" y2="275.85"/>
  <line stroke="#888888" x1="106.25000000000001" x2="106.25" y1="275.85" y2="255.85000000000005"/>
  <line stroke="#888888" x1="106.25" x2="106.75" y1="255.85000000000005" y2="255.85000000000005"/>
  <line stroke="#888888" x1="162.93500000000003" x2="150.065" y1="264.6000000000001" y2="264.6000000000001"/>
  <line stroke="#888888" x1="150.065" x2="150.065" y1="264.6000000000001" y2="241.60000000000005"/>
  <line stroke="#888888" x1="150.065" x2="162.93500000000003" y1="241.60000000000005" y2="241.60000000000005"/>
  <line stroke="#888888" x1="162.93500000000003" x2="162.93500000000003" y1="241.60000000000005" y2="264.6000000000001"/>
  <line stroke="#888888" x1="162.93500000000003" x2="150.065" y1="608.6" y2="608.6"/>
  <line stroke="#888888" x1="150.065" x2="150.065" y1="608.6" y2="585.5999999999999"/>
  <line stroke="#888888" x1="150.065" x2="162.93500000000003" y1="585.5999999999999" y2="585.5999999999999"/>
  <line stroke="#888888" x1="162.93500000000003" x2="162.93500000000003" y1="585.5999999999999" y2="608.6"/>
  <line stroke="#888888" x1="106.75000000000001" x2="106.75000000000001" y1="574.3499999999999" y2="594.35"/>
  <line stroke="#888888" x1="106.75000000000001" x2="106.25000000000001" y1="594.35" y2="594.35"/>
  <line stroke="#888888" x1="106.25000000000001" x2="106.25000000000001" y1="594.35" y2="574.3499999999999"/>
  <line stroke="#888888" x1="106.25000000000001" x2="106.75000000000001" y1="574.3499999999999" y2="574.3499999999999"/>
  <line stroke="#888888" x1="106.75000000000001" x2="106.75000000000001" y1="525.6" y2="545.6"/>
  <line stroke="#888888" x1="106.75000000000001" x2="106.25000000000001" y1="545.6" y2="545.6"/>
  <line stroke="#888888" x1="106.25000000000001" x2="106.25000000000001" y1="545.6" y2="525.6"/>
  <line stroke="#888888" x1="106.25000000000001" x2="106.75000000000001" y1="525.6" y2="525.6"/>
  <line stroke="#888888" x1="106.75" x2="106.75000000000001" y1="476.85" y2="496.85"/>
  <line stroke="#888888" x1="106.75000000000001" x2="106.25000000000001" y1="496.85" y2="496.85"/>
  <line stroke="#888888" x1="106.25000000000001" x2="106.25" y1="496.85" y2="476.85"/>
  <line stroke="#888888" x1="106.25" x2="106.75" y1="476.85" y2="476.85"/>
  <line stroke="#888888" x1="170.5" x2="170.5" y1="594.0999999999999" y2="599.1"/>
  <line stroke="#888888" x1="170.5" x2="165.50000000000003" y1="599.1" y2="594.0999999999999"/>
  <line stroke="#888888" x1="165.50000000000003" x2="165.50000000000003" y1="594.0999999999999" y2="574.6"/>
  <line stroke="#888888" x1="165.50000000000003" x2="170.5" y1="574.6" y2="569.5999999999999"/>
  <line stroke="#888888" x1="170.5" x2="170.5" y1="569.5999999999999" y2="574.6"/>
  <line stroke="#888888" x1="170.5" x2="170.5" y1="545.3499999999999" y2="550.35"/>
  <line stroke="#888888" x1="170.5" x2="165.50000000000003" y1="550.35" y2="545.3499999999999"/>
  <line stroke="#888888" x1="165.50000000000003" x2="165.50000000000003" y1="545.3499999999999" y2="525.85"/>
  <line stroke="#888888" x1="165.50000000000003" x2="170.5" y1="525.85" y2="520.85"/>
  <line stroke="#888888" x1="170.5" x2="170.5" y1="520.85" y2="525.85"/>
  <line stroke="#888888" x1="170.5" x2="170.5" y1="496.6" y2="501.6"/>
  <line stroke="#888888" x1="170.5" x2="165.50000000000003" y1="501.6" y2="496.6"/>
  <line stroke="#888888" x1="165.50000000000003" x2="165.50000000000003" y1="496.6" y2="477.09999999999997"/>
  <line stroke="#888888" x1="165.50000000000003" x2="170.5" y1="477.09999999999997" y2="472.1"/>
  <line stroke="#888888" x1="170.5" x2="170.5" y1="472.1" y2="477.09999999999997"/>
  <line stroke="#888888" x1="149.25000000000003" x2="149.25000000000003" y1="422.8500000000001" y2="449.8500000000001"/>
  <line stroke="#888888" x1="149.25000000000003" x2="141.25" y1="449.8500000000001" y2="449.8500000000001"/>
  <line stroke="#888888" x1="141.25" x2="141.25" y1="449.8500000000001" y2="422.8500000000001"/>
  <line stroke="#888888" x1="141.25" x2="149.25000000000003" y1="422.8500000000001" y2="422.8500000000001"/>
  <line stroke="#888888" x1="133.43000000000004" x2="133.43000000000004" y1="443.1300000000001" y2="446.1300000000001"/>
  <line stroke="#888888" x1="133.43000000000004" x2="130.43000000000004" y1="446.1300000000001" y2="446.1300000000001"/>
  <line stroke="#888888" x1="130.43000000000004" x2="130.43000000000004" y1="446.1300000000001" y2="443.1300000000001"/>
  <line stroke="#888888" x1="130.43000000000004" x2="133.43000000000004" y1="443.1300000000001" y2="443.1300000000001"/>
  <line stroke="#888888" x1="109.57" x2="109.57" y1="444.1300000000001" y2="445.1300000000001"/>
  <line stroke="#888888" x1="109.57" x2="108.57000000000001" y1="445.1300000000001" y2="445.1300000000001"/>
  <line stroke="#888888" x1="108.57000000000001" x2="108.57000000000001" y1="445.1300000000001" y2="444.1300000000001"/>
  <line stroke="#888888" x1="108.57000000000001" x2="109.57" y1="444.1300000000001" y2="444.1300000000001"/>
  <line stroke="#888888" x1="132.43000000000004" x2="132.43000000000004" y1="441.5900000000001" y2="442.5900000000001"/>
  <line stroke="#888888" x1="132.43000000000004" x2="131.43000000000004" y1="442.5900000000001" y2="442.5900000000001"/>
  <line stroke="#888888" x1="131.43000000000004" x2="131.43000000000004" y1="442.5900000000001" y2="441.5900000000001"/>
  <line stroke="#888888" x1="131.43000000000004" x2="132.43000000000004" y1="441.5900000000001" y2="441.5900000000001"/>
  <line stroke="#888888" x1="109.57" x2="109.57" y1="441.5900000000001" y2="442.5900000000001"/>
  <line stroke="#888888" x1="109.57" x2="108.57000000000001" y1="442.5900000000001" y2="442.5900000000001"/>
  <line stroke="#888888" x1="108.57000000000001" x2="108.57000000000001" y1="442.5900000000001" y2="441.5900000000001"/>
  <line stroke="#888888" x1="108.57000000000001" x2="109.57" y1="441.5900000000001" y2="441.5900000000001"/>
  <line stroke="#888888" x1="132.43000000000004" x2="132.43000000000004" y1="439.05000000000007" y2="440.05000000000007"/>
  <line stroke="#888888" x1="132.43000000000004" x2="131.43000000000004" y1="440.05000000000007" y2="440.05000000000007"/>
  <line stroke="#888888" x1="131.43000000000004" x2="131.43000000000004" y1="440.05000000000007" y2="439.05000000000007"/>
  <line stroke="#888888" x1="131.43000000000004" x2="132.43000000000004" y1="439.05000000000007" y2="439.05000000000007"/>
  <line stroke="#888888" x1="109.57" x2="109.57" y1="439.05000000000007" y2="440.05000000000007"/>
  <line stroke="#888888" x1="109.57" x2="108.57000000000001" y1="440.05000000000007" y2="440.05000000000007"/>
  <line stroke="#888888" x1="108.57000000000001" x2="108.57000000000001" y1="440.05000000000007" y2="439.05000000000007"/>
  <line stroke="#888888" x1="108.57000000000001" x2="109.57" y1="439.05000000000007" y2="439.05000000000007"/>
  <line stroke="#888888" x1="132.43000000000004" x2="132.43000000000004" y1="436.5100000000001" y2="437.5100000000001"/>
  <line stroke="#888888" x1="132.43000000000004" x2="131.43000000000004" y1="437.5100000000001" y2="437.5100000000001"/>
  <line stroke="#888888" x1="131.43000000000004" x2="131.43000000000004" y1="437.5100000000001" y2="436.5100000000001"/>
  <line stroke="#888888" x1="131.43000000000004" x2="132.43000000000004" y1="436.5100000000001" y2="436.5100000000001"/>
  <line stroke="#888888" x1="109.57" x2="109.57" y1="436.5100000000001" y2="437.5100000000001"/>
  <line stroke="#888888" x1="109.57" x2="108.57000000000001" y1="437.5100000000001" y2="437.5100000000001"/>
  <line stroke="#888888" x1="108.57000000000001" x2="108.57000000000001" y1="437.5100000000001" y2="436.5100000000001"/>
  <line stroke="#888888" x1="108.57000000000001" x2="109.57" y1="436.5100000000001" y2="436.5100000000001"/>
  <line stroke="#888888" x1="132.43000000000004" x2="132.43000000000004" y1="433.9700000000001" y2="434.9700000000001"/>
  <line stroke="#888888" x1="132.43000000000004" x2="131.43000000000004" y1="434.9700000000001" y2="434.9700000000001"/>
  <line stroke="#888888" x1="131.43000000000004" x2="131.43000000000004" y1="434.9700000000001" y2="433.9700000000001"/>
  <line stroke="#888888" x1="131.43000000000004" x2="132.43000000000004" y1="433.9700000000001" y2="433.9700000000001"/>
  <line stroke="#888888" x1="109.57" x2="109.57" y1="433.9700000000001" y2="434.9700000000001"/>
  <line stroke="#888888" x1="109.57" x2="108.57000000000001" y1="434.9700000000001" y2="434.9700000000001"/>
  <line stroke="#888888" x1="108.57000000000001" x2="108.57000000000001" y1="434.9700000000001" y2="433.9700000000001"/>
  <line stroke="#888888" x1="108.57000000000001" x2="109.57" y1="433.9700000000001" y2="433.9700000000001"/>
  <line stroke="#888888" x1="132.43000000000004" x2="132.43000000000004" y1="431.43000000000006" y2="432.43000000000006"/>
  <line stroke="#888888" x1="132.43000000000004" x2="131.43000000000004" y1="432.43000000000006" y2="432.43000000000006"/>
  <line stroke="#888888" x1="131.43000000000004" x2="131.43000000000004" y1="432.43000000000006" y2="431.43000000000006"/>
  <line stroke="#888888" x1="131.43000000000004" x2="132.43000000000004" y1="431.43000000000006" y2="431.43000000000006"/>
  <line stroke="#888888" x1="109.57" x2="109.57" y1="431.43000000000006" y2="432.43000000000006"/>
  <line stroke="#888888" x1="109.57" x2="108.57000000000001" y1="432.43000000000006" y2="432.43000000000006"/>
  <line stroke="#888888" x1="108.57000000000001" x2="108.57000000000001" y1="432.43000000000006" y2="431.43000000000006"/>
  <line stroke="#888888" x1="108.57000000000001" x2="109.57" y1="431.43000000000006" y2="431.43000000000006"/>
  <line stroke="#888888" x1="132.43000000000004" x2="132.43000000000004" y1="428.8900000000001" y2="429.8900000000001"/>
  <line stroke="#888888" x1="132.43000000000004" x2="131.43000000000004" y1="429.8900000000001" y2="429.8900000000001"/>
  <line stroke="#888888" x1="131.43000000000004" x2="131.43000000000004" y1="429.8900000000001" y2="428.8900000000001"/>
  <line stroke="#888888" x1="131.43000000000004" x2="132.43000000000004" y1="428.8900000000001" y2="428.8900000000001"/>
  <line stroke="#888888" x1="109.57" x2="109.57" y1="428.8900000000001" y2="429.8900000000001"/>
  <line stroke="#888888" x1="109.57" x2="108.57000000000001" y1="429.8900000000001" y2="429.8900000000001"/>
  <line stroke="#888888" x1="108.57000000000001" x2="108.57000000000001" y1="429.8900000000001" y2="428.8900000000001"/>
  <line stroke="#888888" x1="108.57000000000001" x2="109.57" y1="428.8900000000001" y2="428.8900000000001"/>
  <line stroke="#888888" x1="132.43000000000004" x2="132.43000000000004" y1="426.3500000000001" y2="427.3500000000001"/>
  <line stroke="#888888" x1="132.43000000000004" x2="131.43000000000004" y1="427.3500000000001" y2="427.3500000000001"/>
  <line stroke="#888888" x1="131.43000000000004" x2="131.43000000000004" y1="427.3500000000001" y2="426.3500000000001"/>
  <line stroke="#888888" x1="131.43000000000004" x2="132.43000000000004" y1="426.3500000000001" y2="426.3500000000001"/>
  <line stroke="#888888" x1="109.57" x2="109.57" y1="426.3500000000001" y2="427.3500000000001"/>
  <line stroke="#888888" x1="109.57" x2="108.57000000000001" y1="427.3500000000001" y2="427.3500000000001"/>
  <line stroke="#888888" x1="108.57000000000001" x2="108.57000000000001" y1="427.3500000000001" y2="426.3500000000001"/>
  <line stroke="#888888" x1="108.57000000000001" x2="109.57" y1="426.3500000000001" y2="426.3500000000001"/>
  <line stroke="#888888" x1="132.43000000000004" x2="132.43000000000004" y1="423.81000000000006" y2="424.81000000000006"/>
  <line stroke="#888888" x1="132.43000000000004" x2="131.43000000000004" y1="424.81000000000006" y2="424.81000000000006"/>
  <line stroke="#888888" x1="131.43000000000004" x2="131.43000000000004" y1="424.81000000000006" y2="423.81000000000006"/>
  <line stroke="#888888" x1="131.43000000000004" x2="132.43000000000004" y1="423.81000000000006" y2="423.81000000000006"/>
  <line stroke="#888888" x1="109.57" x2="109.57" y1="423.81000000000006" y2="424.81000000000006"/>
  <line stroke="#888888" x1="109.57" x2="108.57000000000001" y1="424.81000000000006" y2="424.81000000000006"/>
  <line stroke="#888888" x1="108.57000000000001" x2="108.57000000000001" y1="424.81000000000006" y2="423.81000000000006"/>
  <line stroke="#888888" x1="108.57000000000001" x2="109.57" y1="423.81000000000006" y2="423.81000000000006"/>
  <line stroke="#888888" x1="132.43000000000004" x2="132.43000000000004" y1="421.2700000000001" y2="422.2700000000001"/>
  <line stroke="#888888" x1="132.43000000000004" x2="131.43000000000004" y1="422.2700000000001" y2="422.2700000000001"/>
  <line stroke="#888888" x1="131.43000000000004" x2="131.43000000000004" y1="422.2700000000001" y2="421.2700000000001"/>
  <line stroke="#888888" x1="131.43000000000004" x2="132.43000000000004" y1="421.2700000000001" y2="421.2700000000001"/>
  <line stroke="#888888" x1="109.57" x2="109.57" y1="421.2700000000001" y2="422.2700000000001"/>
  <line stroke="#888888" x1="109.57" x2="108.57000000000001" y1="422.2700000000001" y2="422.2700000000001"/>
  <line stroke="#888888" x1="108.57000000000001" x2="108.57000000000001" y1="422.2700000000001" y2="421.2700000000001"/>
  <line stroke="#888888" x1="108.57000000000001" x2="109.57" y1="421.2700000000001" y2="421.2700000000001"/>
  <line stroke="#888888" x1="132.43000000000004" x2="132.43000000000004" y1="418.7300000000001" y2="419.7300000000001"/>
  <line stroke="#888888" x1="132.43000000000004" x2="131.43000000000004" y1="419.7300000000001" y2="419.7300000000001"/>
  <line stroke="#888888" x1="131.43000000000004" x2="131.43000000000004" y1="419.7300000000001" y2="418.7300000000001"/>
  <line stroke="#888888" x1="131.43000000000004" x2="132.43000000000004" y1="418.7300000000001" y2="418.7300000000001"/>
  <line stroke="#888888" x1="109.57" x2="109.57" y1="418.7300000000001" y2="419.7300000000001"/>
  <line stroke="#888888" x1="109.57" x2="108.57000000000001" y1="419.7300000000001" y2="419.7300000000001"/>
  <line stroke="#888888" x1="108.57000000000001" x2="108.57000000000001" y1="419.7300000000001" y2="418.7300000000001"/>
  <line stroke="#888888" x1="108.57000000000001" x2="109.57" y1="418.7300000000001" y2="418.7300000000001"/>
  <line stroke="#888888" x1="132.43000000000004" x2="132.43000000000004" y1="416.19" y2="417.19000000000005"/>
  <line stroke="#888888" x1="132.43000000000004" x2="131.43000000000004" y1="417.19000000000005" y2="417.19000000000005"/>
  <line stroke="#888888" x1="131.43000000000004" x2="131.43000000000004" y1="417.19000000000005" y2="416.19"/>
  <line stroke="#888888" x1="131.43000000000004" x2="132.43000000000004" y1="416.19" y2="416.19"/>
  <line stroke="#888888" x1="109.57" x2="109.57" y1="416.19" y2="417.19000000000005"/>
  <line stroke="#888888" x1="109.57" x2="108.57000000000001" y1="417.19000000000005" y2="417.19000000000005"/>
  <line stroke="#888888" x1="108.57000000000001" x2="108.57000000000001" y1="417.19000000000005" y2="416.19"/>
  <line stroke="#888888" x1="108.57000000000001" x2="109.57" y1="416.19" y2="416.19"/>
  <line stroke="#888888" x1="132.43000000000004" x2="132.43000000000004" y1="413.6500000000001" y2="414.65000000000003"/>
  <line stroke="#888888" x1="132.43000000000004" x2="131.43000000000004" y1="414.65000000000003" y2="414.65000000000003"/>
  <line stroke="#888888" x1="131.43000000000004" x2="131.43000000000004" y1="414.65000000000003" y2="413.6500000000001"/>
  <line stroke="#888888" x1="131.43000000000004" x2="132.43000000000004" y1="413.6500000000001" y2="413.6500000000001"/>
  <line stroke="#888888" x1="109.57" x2="109.57" y1="413.6500000000001" y2="414.65000000000003"/>
  <line stroke="#888888" x1="109.57" x2="108.57000000000001" y1="414.65000000000003" y2="414.65000000000003"/>
  <line stroke="#888888" x1="108.57000000000001" x2="108.57000000000001" y1="414.65000000000003" y2="413.6500000000001"/>
  <line stroke="#888888" x1="108.57000000000001" x2="109.57" y1="413.6500000000001" y2="413.6500000000001"/>
  <line stroke="#888888" x1="132.43000000000004" x2="132.43000000000004" y1="411.11000000000007" y2="412.11000000000007"/>
  <line stroke="#888888" x1="132.43000000000004" x2="131.43000000000004" y1="412.11000000000007" y2="412.11000000000007"/>
  <line stroke="#888888" x1="131.43000000000004" x2="131.43000000000004" y1="412.11000000000007" y2="411.11000000000007"/>
  <line stroke="#888888" x1="131.43000000000004" x2="132.43000000000004" y1="411.11000000000007" y2="411.11000000000007"/>
  <line stroke="#888888" x1="109.57" x2="109.57" y1="411.11000000000007" y2="412.11000000000007"/>
  <line stroke="#888888" x1="109.57" x2="108.57000000000001" y1="412.11000000000007" y2="412.11000000000007"/>
  <line stroke="#888888" x1="108.57000000000001" x2="108.57000000000001" y1="412.11000000000007" y2="411.11000000000007"/>
  <line stroke="#888888" x1="108.57000000000001" x2="109.57" y1="411.11000000000007" y2="411.11000000000007"/>
  <line stroke="#888888" x1="132.43000000000004" x2="132.43000000000004" y1="408.57000000000005" y2="409.57000000000005"/>
  <line stroke="#888888" x1="132.43000000000004" x2="131.43000000000004" y1="409.57000000000005" y2="409.57000000000005"/>
  <line stroke="#888888" x1="131.43000000000004" x2="131.43000000000004" y1="409.57000000000005" y2="408.57000000000005"/>
  <line stroke="#888888" x1="131.43000000000004" x2="132.43000000000004" y1="408.57000000000005" y2="408.57000000000005"/>
  <line stroke="#888888" x1="110.57000000000001" x2="110.57000000000001" y1="407.57" y2="410.57000000000005"/>
  <line stroke="#888888" x1="110.57000000000001" x2="107.57000000000001" y1="410.57000000000005" y2="410.57000000000005"/>
  <line stroke="#888888" x1="107.57000000000001" x2="107.57000000000001" y1="410.57000000000005" y2="407.57"/>
  <line stroke="#888888" x1="107.57000000000001" x2="110.57000000000001" y1="407.57" y2="407.57"/>
  <line stroke="#888888" x1="56.75000000000001" x2="56.75000000000001" y1="433.71363636363645" y2="446.03181818181827"/>
  <line stroke="#888888" x1="56.75000000000001" x2="56.25000000000001" y1="446.03181818181827" y2="446.03181818181827"/>
  <line stroke="#888888" x1="56.25000000000001" x2="56.25000000000001" y1="446.03181818181827" y2="433.71363636363645"/>
  <line stroke="#888888" x1="56.25000000000001" x2="56.75000000000001" y1="433.71363636363645" y2="433.71363636363645"/>
  <line stroke="#888888" x1="56.75000000000001" x2="56.75000000000001" y1="404.1681818181819" y2="416.4863636363637"/>
  <line stroke="#888888" x1="56.75000000000001" x2="56.25000000000001" y1="416.4863636363637" y2="416.4863636363637"/>
  <line stroke="#888888" x1="56.25000000000001" x2="56.25000000000001" y1="416.4863636363637" y2="404.1681818181819"/>
  <line stroke="#888888" x1="56.25000000000001" x2="56.75000000000001" y1="404.1681818181819" y2="404.1681818181819"/>
  <line stroke="#888888" x1="170.5" x2="165.50000000000003" y1="445.78181818181827" y2="445.78181818181827"/>
  <line stroke="#888888" x1="165.50000000000003" x2="165.50000000000003" y1="445.78181818181827" y2="433.96363636363645"/>
  <line stroke="#888888" x1="165.50000000000003" x2="170.5" y1="433.96363636363645" y2="433.96363636363645"/>
  <line stroke="#888888" x1="170.5" x2="165.50000000000003" y1="416.2363636363637" y2="416.2363636363637"/>
  <line stroke="#888888" x1="165.50000000000003" x2="165.50000000000003" y1="416.2363636363637" y2="404.4181818181819"/>
  <line stroke="#888888" x1="165.50000000000003" x2="170.5" y1="404.4181818181819" y2="404.4181818181819"/>
  <line stroke="#888888" x1="170.5" x2="170.5" y1="373.1000000000001" y2="378.1000000000001"/>
  <line stroke="#888888" x1="170.5" x2="165.50000000000003" y1="378.1000000000001" y2="373.1000000000001"/>
  <line stroke="#888888" x1="165.50000000000003" x2="165.50000000000003" y1="373.1000000000001" y2="353.6"/>
  <line stroke="#888888" x1="165.50000000000003" x2="170.5" y1="353.6" y2="348.6000000000001"/>
  <line stroke="#888888" x1="170.5" x2="170.5" y1="348.6000000000001" y2="353.6"/>
  <line stroke="#888888" x1="170.5" x2="170.5" y1="324.3500000000001" y2="329.3500000000001"/>
  <line stroke="#888888" x1="170.5" x2="165.50000000000003" y1="329.3500000000001" y2="324.3500000000001"/>
  <line stroke="#888888" x1="165.50000000000003" x2="165.50000000000003" y1="324.3500000000001" y2="304.8500000000001"/>
  <line stroke="#888888" x1="165.50000000000003" x2="170.5" y1="304.8500000000001" y2="299.85"/>
  <line stroke="#888888" x1="170.5" x2="170.5" y1="299.85" y2="304.8500000000001"/>
  <line stroke="#888888" x1="170.5" x2="170.5" y1="275.6" y2="280.6"/>
  <line stroke="#888888" x1="170.5" x2="165.50000000000003" y1="280.6" y2="275.6"/>
  <line stroke="#888888" x1="165.50000000000003" x2="165.50000000000003" y1="275.6" y2="256.1000000000001"/>
  <line stroke="#888888" x1="165.50000000000003" x2="170.5" y1="256.1000000000001" y2="251.10000000000005"/>
  <line stroke="#888888" x1="170.5" x2="170.5" y1="251.10000000000005" y2="256.1000000000001"/>
  <line stroke="#888888" x1="84.93500000000002" x2="72.06500000000001" y1="231.60000000000005" y2="231.60000000000005"/>
  <line stroke="#888888" x1="72.06500000000001" x2="72.06500000000001" y1="231.60000000000005" y2="208.60000000000005"/>
  <line stroke="#888888" x1="72.06500000000001" x2="84.93500000000002" y1="208.60000000000005" y2="208.60000000000005"/>
  <line stroke="#888888" x1="84.93500000000002" x2="84.93500000000002" y1="208.60000000000005" y2="231.60000000000005"/>
  <line stroke="#888888" x1="7.750000000000002" x2="7.750000000000002" y1="198.25476190476192" y2="217.80238095238101"/>
  <line stroke="#888888" x1="7.750000000000002" x2="7.25" y1="217.80238095238101" y2="217.80238095238101"/>
  <line stroke="#888888" x1="7.25" x2="7.25" y1="217.80238095238101" y2="198.25476190476192"/>
  <line stroke="#888888" x1="7.25" x2="7.750000000000002" y1="198.25476190476192" y2="198.25476190476192"/>
  <line stroke="#888888" x1="7.750000000000002" x2="7.750000000000002" y1="150.63571428571433" y2="170.18333333333337"/>
  <line stroke="#888888" x1="7.750000000000002" x2="7.25" y1="170.18333333333337" y2="170.18333333333337"/>
  <line stroke="#888888" x1="7.25" x2="7.25" y1="170.18333333333337" y2="150.63571428571433"/>
  <line stroke="#888888" x1="7.25" x2="7.750000000000002" y1="150.63571428571433" y2="150.63571428571433"/>
  <line stroke="#888888" x1="7.749999999999987" x2="7.750000000000002" y1="103.01666666666668" y2="122.56428571428573"/>
  <line stroke="#888888" x1="7.750000000000002" x2="7.25" y1="122.56428571428573" y2="122.56428571428573"/>
  <line stroke="#888888" x1="7.25" x2="7.249999999999987" y1="122.56428571428573" y2="103.01666666666668"/>
  <line stroke="#888888" x1="7.249999999999987" x2="7.749999999999987" y1="103.01666666666668" y2="103.01666666666668"/>
  <line stroke="#888888" x1="7.749999999999987" x2="7.750000000000002" y1="55.397619047619045" y2="74.9452380952381"/>
  <line stroke="#888888" x1="7.750000000000002" x2="7.25" y1="74.9452380952381" y2="74.9452380952381"/>
  <line stroke="#888888" x1="7.25" x2="7.249999999999987" y1="74.9452380952381" y2="55.397619047619045"/>
  <line stroke="#888888" x1="7.249999999999987" x2="7.749999999999987" y1="55.397619047619045" y2="55.397619047619045"/>
  <line stroke="#888888" x1="34.916666666666664" x2="34.916666666666664" y1="51.850000000000016" y2="41.350000000000016"/>
  <line stroke="#888888" x1="34.916666666666664" x2="34.416666666666664" y1="41.350000000000016" y2="41.350000000000016"/>
  <line stroke="#888888" x1="34.416666666666664" x2="34.416666666666664" y1="41.350000000000016" y2="51.850000000000016"/>
  <line stroke="#888888" x1="34.416666666666664" x2="34.916666666666664" y1="51.850000000000016" y2="51.850000000000016"/>
  <line stroke="#888888" x1="150.065" x2="162.93500000000003" y1="208.60000000000005" y2="208.60000000000005"/>
  <line stroke="#888888" x1="162.93500000000003" x2="162.93500000000003" y1="208.60000000000005" y2="231.60000000000005"/>
  <line stroke="#888888" x1="162.93500000000003" x2="150.065" y1="231.60000000000005" y2="231.60000000000005"/>
  <line stroke="#888888" x1="150.065" x2="150.065" y1="231.60000000000005" y2="208.60000000000005"/>
  <line stroke="#888888" x1="177.5" x2="177.5" y1="217.55238095238101" y2="222.55238095238101"/>
  <line stroke="#888888" x1="177.5" x2="172.50000000000003" y1="222.55238095238101" y2="217.55238095238101"/>
  <line stroke="#888888" x1="172.50000000000003" x2="172.50000000000003" y1="217.55238095238101" y2="198.50476190476192"/>
  <line stroke="#888888" x1="172.50000000000003" x2="177.5" y1="198.50476190476192" y2="193.50476190476192"/>
  <line stroke="#888888" x1="177.5" x2="177.5" y1="193.50476190476192" y2="198.50476190476192"/>
  <line stroke="#888888" x1="177.5" x2="177.5" y1="169.93333333333334" y2="174.93333333333337"/>
  <line stroke="#888888" x1="177.5" x2="172.50000000000003" y1="174.93333333333337" y2="169.93333333333334"/>
  <line stroke="#888888" x1="172.50000000000003" x2="172.50000000000003" y1="169.93333333333334" y2="150.88571428571433"/>
  <line stroke="#888888" x1="172.50000000000003" x2="177.5" y1="150.88571428571433" y2="145.88571428571433"/>
  <line stroke="#888888" x1="177.5" x2="177.5" y1="145.88571428571433" y2="150.88571428571433"/>
  <line stroke="#888888" x1="177.5" x2="177.5" y1="122.31428571428573" y2="127.31428571428573"/>
  <line stroke="#888888" x1="177.5" x2="172.50000000000003" y1="127.31428571428573" y2="122.31428571428573"/>
  <line stroke="#888888" x1="172.50000000000003" x2="172.50000000000003" y1="122.31428571428573" y2="103.26666666666668"/>
  <line stroke="#888888" x1="172.50000000000003" x2="177.5" y1="103.26666666666668" y2="98.26666666666668"/>
  <line stroke="#888888" x1="177.5" x2="177.5" y1="98.26666666666668" y2="103.26666666666668"/>
  <line stroke="#888888" x1="177.5" x2="177.5" y1="74.6952380952381" y2="79.6952380952381"/>
  <line stroke="#888888" x1="177.5" x2="172.50000000000003" y1="79.6952380952381" y2="74.6952380952381"/>
  <line stroke="#888888" x1="172.50000000000003" x2="172.50000000000003" y1="74.6952380952381" y2="55.64761904761905"/>
  <line stroke="#888888" x1="172.50000000000003" x2="177.5" y1="55.64761904761905" y2="50.64761904761905"/>
  <line stroke="#888888" x1="177.5" x2="177.5" y1="50.64761904761905" y2="55.64761904761905"/>
  <line stroke="#000000" x1="190.00000000000003" x2="190.00000000000003" y1="36.55" y2="36.55"/>
  <line stroke="#000000" x1="190.00000000000003" x2="190.00000000000003" y1="36.55" y2="36.55"/>
  <line stroke="#000000" x1="190.00000000000003" x2="190.00000000000003" y1="36.55" y2="36.55"/>
  <line stroke="#000000" x1="190.00000000000003" x2="190.00000000000003" y1="36.55" y2="36.55"/>
  <line stroke="#000000" x1="260.0" x2="259.6306502178541" y1="36.55" y2="31.85696604879307"/>
  <line stroke="#000000" x1="259.6306502178541" x2="260.0" y1="41.24303395120693" y2="36.55"/>
  <line stroke="#000000" x1="258.5316954888546" x2="259.6306502178541" y1="45.82050983124843" y2="41.24303395120693"/>
  <line stroke="#000000" x1="256.7301957256511" x2="258.5316954888546" y1="50.16971499218641" y2="45.82050983124843"/>
  <line stroke="#000000" x1="254.27050983124846" x2="256.7301957256511" y1="54.18355756877419" y2="50.16971499218641"/>
  <line stroke="#000000" x1="251.21320343559645" x2="254.27050983124846" y1="57.763203435596424" y2="54.18355756877419"/>
  <line stroke="#000000" x1="247.63355756877422" x2="251.21320343559645" y1="60.82050983124843" y2="57.763203435596424"/>
  <line stroke="#000000" x1="243.61971499218643" x2="247.63355756877422" y1="63.28019572565103" y2="60.82050983124843"/>
  <line stroke="#000000" x1="239.27050983124846" x2="243.61971499218643" y1="65.0816954888546" y2="63.28019572565103"/>
  <line stroke="#000000" x1="234.69303395120696" x2="239.27050983124846" y1="66.18065021785414" y2="65.0816954888546"/>
  <line stroke="#000000" x1="230.00000000000003" x2="234.69303395120696" y1="66.55000000000001" y2="66.18065021785414"/>
  <line stroke="#000000" x1="225.3069660487931" x2="230.00000000000003" y1="66.18065021785414" y2="66.55000000000001"/>
  <line stroke="#000000" x1="220.7294901687516" x2="225.3069660487931" y1="65.0816954888546" y2="66.18065021785414"/>
  <line stroke="#000000" x1="216.38028500781363" x2="220.7294901687516" y1="63.28019572565104" y2="65.0816954888546"/>
  <line stroke="#000000" x1="212.36644243122583" x2="216.38028500781363" y1="60.82050983124843" y2="63.28019572565104"/>
  <line stroke="#000000" x1="208.7867965644036" x2="212.36644243122583" y1="57.763203435596424" y2="60.82050983124843"/>
  <line stroke="#000000" x1="205.7294901687516" x2="208.7867965644036" y1="54.18355756877419" y2="57.763203435596424"/>
  <line stroke="#000000" x1="203.26980427434899" x2="205.7294901687516" y1="50.169714992186414" y2="54.18355756877419"/>
  <line stroke="#000000" x1="201.46830451114542" x2="203.26980427434899" y1="45.82050983124843" y2="50.169714992186414"/>
  <line stroke="#000000" x1="200.3693497821459" x2="201.46830451114542" y1="41.24303395120693" y2="45.82050983124843"/>
  <line stroke="#000000" x1="200.0" x2="200.3693497821459" y1="36.550000000000004" y2="41.24303395120693"/>
  <line stroke="#000000" x1="200.3693497821459" x2="200.0" y1="31.85696604879308" y2="36.550000000000004"/>
  <line stroke="#000000" x1="201.46830451114542" x2="200.3693497821459" y1="27.279490168751583" y2="31.85696604879308"/>
  <line stroke="#000000" x1="203.26980427434899" x2="201.46830451114542" y1="22.930285007813605" y2="27.279490168751583"/>
  <line stroke="#000000" x1="205.7294901687516" x2="203.26980427434899" y1="18.916442431225807" y2="22.930285007813605"/>
  <line stroke="#000000" x1="208.7867965644036" x2="205.7294901687516" y1="15.336796564403576" y2="18.916442431225807"/>
  <line stroke="#000000" x1="212.36644243122583" x2="208.7867965644036" y1="12.279490168751575" y2="15.336796564403576"/>
  <line stroke="#000000" x1="216.38028500781363" x2="212.36644243122583" y1="9.819804274348966" y2="12.279490168751575"/>
  <line stroke="#000000" x1="220.7294901687516" x2="216.38028500781363" y1="8.018304511145391" y2="9.819804274348966"/>
  <line stroke="#000000" x1="225.3069660487931" x2="220.7294901687516" y1="6.919349782145869" y2="8.018304511145391"/>
  <line stroke="#000000" x1="230.00000000000003" x2="225.3069660487931" y1="6.549999999999998" y2="6.919349782145869"/>
  <line stroke="#000000" x1="234.69303395120696" x2="230.00000000000003" y1="6.919349782145866" y2="6.549999999999998"/>
  <line stroke="#000000" x1="239.27050983124843" x2="234.69303395120696" y1="8.01830451114539" y2="6.919349782145866"/>
  <line stroke="#000000" x1="243.61971499218643" x2="239.27050983124843" y1="9.819804274348959" y2="8.01830451114539"/>
  <line stroke="#000000" x1="247.63355756877422" x2="243.61971499218643" y1="12.279490168751572" y2="9.819804274348959"/>
  <line stroke="#000000" x1="251.21320343559645" x2="247.63355756877422" y1="15.336796564403569" y2="12.279490168751572"/>
  <line stroke="#000000" x1="254.27050983124846" x2="251.21320343559645" y1="18.916442431225796" y2="15.336796564403569"/>
  <line stroke="#000000" x1="256.7301957256511" x2="254.27050983124846" y1="22.930285007813588" y2="18.916442431225796"/>
  <line stroke="#000000" x1="258.5316954888546" x2="256.7301957256511" y1="27.279490168751572" y2="22.930285007813588"/>
  <line stroke="#000000" x1="259.6306502178541" x2="258.5316954888546" y1="31.85696604879307" y2="27.279490168751572"/>
  <line stroke="#000000" x1="270.00000000000006" x2="270.00000000000006" y1="36.55" y2="36.55"/>
  <line stroke="#000000" x1="270.00000000000006" x2="270.00000000000006" y1="36.55" y2="36.55"/>
  <line stroke="#000000" x1="270.00000000000006" x2="270.00000000000006" y1="36.55" y2="36.55"/>
  <line stroke="#000000" x1="270.00000000000006" x2="270.00000000000006" y1="36.55" y2="36.55"/>
  <line stroke="#000000" x1="340.00000000000006" x2="339.63065021785417" y1="36.55" y2="31.85696604879307"/>
  <line stroke="#000000" x1="339.63065021785417" x2="340.00000000000006" y1="41.24303395120693" y2="36.55"/>
  <line stroke="#000000" x1="338.53169548885467" x2="339.63065021785417" y1="45.82050983124843" y2="41.24303395120693"/>
  <line stroke="#000000" x1="336.730195725651" x2="338.53169548885467" y1="50.16971499218641" y2="45.82050983124843"/>
  <line stroke="#000000" x1="334.27050983124843" x2="336.730195725651" y1="54.18355756877419" y2="50.16971499218641"/>
  <line stroke="#000000" x1="331.2132034355965" x2="334.27050983124843" y1="57.763203435596424" y2="54.18355756877419"/>
  <line stroke="#000000" x1="327.6335575687743" x2="331.2132034355965" y1="60.82050983124843" y2="57.763203435596424"/>
  <line stroke="#000000" x1="323.61971499218646" x2="327.6335575687743" y1="63.28019572565103" y2="60.82050983124843"/>
  <line stroke="#000000" x1="319.2705098312485" x2="323.61971499218646" y1="65.0816954888546" y2="63.28019572565103"/>
  <line stroke="#000000" x1="314.693033951207" x2="319.2705098312485" y1="66.18065021785414" y2="65.0816954888546"/>
  <line stroke="#000000" x1="310.0" x2="314.693033951207" y1="66.55000000000001" y2="66.18065021785414"/>
  <line stroke="#000000" x1="305.3069660487931" x2="310.0" y1="66.18065021785414" y2="66.55000000000001"/>
  <line stroke="#000000" x1="300.7294901687516" x2="305.3069660487931" y1="65.0816954888546" y2="66.18065021785414"/>
  <line stroke="#000000" x1="296.38028500781365" x2="300.7294901687516" y1="63.28019572565104" y2="65.0816954888546"/>
  <line stroke="#000000" x1="292.3664424312259" x2="296.38028500781365" y1="60.82050983124843" y2="63.28019572565104"/>
  <line stroke="#000000" x1="288.78679656440363" x2="292.3664424312259" y1="57.763203435596424" y2="60.82050983124843"/>
  <line stroke="#000000" x1="285.7294901687516" x2="288.78679656440363" y1="54.18355756877419" y2="57.763203435596424"/>
  <line stroke="#000000" x1="283.26980427434904" x2="285.7294901687516" y1="50.169714992186414" y2="54.18355756877419"/>
  <line stroke="#000000" x1="281.4683045111454" x2="283.26980427434904" y1="45.82050983124843" y2="50.169714992186414"/>
  <line stroke="#000000" x1="280.36934978214595" x2="281.4683045111454" y1="41.24303395120693" y2="45.82050983124843"/>
  <line stroke="#000000" x1="280.00000000000006" x2="280.36934978214595" y1="36.550000000000004" y2="41.24303395120693"/>
  <line stroke="#000000" x1="280.36934978214595" x2="280.00000000000006" y1="31.85696604879308" y2="36.550000000000004"/>
  <line stroke="#000000" x1="281.4683045111454" x2="280.36934978214595" y1="27.279490168751583" y2="31.85696604879308"/>
  <line stroke="#000000" x1="283.26980427434904" x2="281.4683045111454" y1="22.930285007813605" y2="27.279490168751583"/>
  <line stroke="#000000" x1="285.7294901687516" x2="283.26980427434904" y1="18.916442431225807" y2="22.930285007813605"/>
  <line stroke="#000000" x1="288.78679656440363" x2="285.7294901687516" y1="15.336796564403576" y2="18.916442431225807"/>
  <line stroke="#000000" x1="292.36644243122583" x2="288.78679656440363" y1="12.279490168751575" y2="15.336796564403576"/>
  <line stroke="#000000" x1="296.38028500781365" x2="292.36644243122583" y1="9.819804274348966" y2="12.279490168751575"/>
  <line stroke="#000000" x1="300.7294901687516" x2="296.38028500781365" y1="8.018304511145391" y2="9.819804274348966"/>
  <line stroke="#000000" x1="305.3069660487931" x2="300.7294901687516" y1="6.919349782145869" y2="8.018304511145391"/>
  <line stroke="#000000" x1="310.0" x2="305.3069660487931" y1="6.549999999999998" y2="6.919349782145869"/>
  <line stroke="#000000" x1="314.693033951207" x2="310.0" y1="6.919349782145866" y2="6.549999999999998"/>
  <line stroke="#000000" x1="319.2705098312485" x2="314.693033951207" y1="8.01830451114539" y2="6.919349782145866"/>
  <line stroke="#000000" x1="323.61971499218646" x2="319.2705098312485" y1="9.819804274348959" y2="8.01830451114539"/>
  <line stroke="#000000" x1="327.6335575687742" x2="323.61971499218646" y1="12.279490168751572" y2="9.819804274348959"/>
  <line stroke="#000000" x1="331.2132034355965" x2="327.6335575687742" y1="15.336796564403569" y2="12.279490168751572"/>
  <line stroke="#000000" x1="334.27050983124843" x2="331.2132034355965" y1="18.916442431225796" y2="15.336796564403569"/>
  <line stroke="#000000" x1="336.730195725651" x2="334.27050983124843" y1="22.930285007813588" y2="18.916442431225796"/>
  <line stroke="#000000" x1="338.53169548885467" x2="336.730195725651" y1="27.279490168751572" y2="22.930285007813588"/>
  <line stroke="#000000" x1="339.63065021785417" x2="338.53169548885467" y1="31.85696604879307" y2="27.279490168751572"/>
</svg>
