<?xml version="1.0" encoding="utf-8" ?>
<svg xmlns="http://www.w3.org/2000/svg" xmlns:ev="http://www.w3.org/2001/xml-events" xmlns:xlink="http://www.w3.org/1999/xlink" baseProfile="full" height="708.600000mm" version="1.1" viewBox="0.000000 0.000000 590.000000 708.600000" width="590.000000mm">
  <defs/>
  <line stroke="#000000" x1="228.00000000000003" x2="202.00000000000003" y1="66.50000000000001" y2="66.50000000000001"/>
  <line stroke="#000000" x1="280.00000000000006" x2="280.00000000000006" y1="66.60000000000001" y2="66.50000000000001"/>
  <line stroke="#0000ff" stroke-dasharray="2 6" stroke-dashoffset="5" x1="280.00000000000006" x2="150.0" y1="66.60000000000001" y2="66.60000000000001"/>
  <line stroke="#000000" x1="150.0" x2="150.0" y1="66.50000000000001" y2="66.60000000000001"/>
  <line stroke="#000000" x1="228.00000000000003" x2="228.00000000000003" y1="46.50000000000001" y2="66.50000000000001"/>
  <line stroke="#0000ff" stroke-dasharray="2 6" stroke-dashoffset="5" x1="228.00000000000003" x2="202.00000000000003" y1="46.50000000000001" y2="46.50000000000001"/>
  <line stroke="#000000" x1="202.00000000000003" x2="202.00000000000003" y1="66.50000000000001" y2="46.50000000000001"/>
  <line stroke="#ff0000" stroke-dasharray="2 6" stroke-dashoffset="5" x1="150.0" x2="193.33333333333334" y1="66.50000000000001" y2="0.0"/>
  <line stroke="#000000" x1="236.66666666666666" x2="193.33333333333334" y1="0.0" y2="0.0"/>
  <line stroke="#ff0000" stroke-dasharray="2 6" stroke-dashoffset="5" x1="236.66666666666666" x2="280.00000000000006" y1="0.0" y2="66.50000000000001"/>
  <line stroke="#000000" x1="228.00000000000003" x2="228.00000000000003" y1="66.50000000000001" y2="46.50000000000001"/>
  <line stroke="#000000" x1="202.00000000000003" x2="228.00000000000003" y1="66.50000000000001" y2="66.50000000000001"/>
  <line stroke="#000000" x1="202.00000000000003" x2="202.00000000000003" y1="46.50000000000001" y2="66.50000000000001"/>
  <line stroke="#000000" x1="193.33333333333334" x2="150.0" y1="0.0" y2="0.0"/>
  <line stroke="#000000" x1="150.0" x2="150.0" y1="0.0" y2="66.50000000000001"/>
  <line stroke="#000000" x1="280.00000000000006" x2="280.00000000000006" y1="66.50000000000001" y2="0.0"/>
  <line stroke="#000000" x1="280.00000000000006" x2="236.66666666666666" y1="0.0" y2="0.0"/>
  <line stroke="#0000ff" stroke-dasharray="2 6" stroke-dashoffset="5" x1="150.0" x2="150.0" y1="266.6000000000001" y2="66.60000000000001"/>
  <line stroke="#0000ff" stroke-dasharray="2 6" stroke-dashoffset="5" x1="280.00000000000006" x2="280.00000000000006" y1="266.6000000000001" y2="66.60000000000001"/>
  <line stroke="#0000ff" stroke-dasharray="2 6" stroke-dashoffset="5" x1="261.00000000000006" x2="280.00000000000006" y1="266.6000000000001" y2="266.6000000000001"/>
  <line stroke="#000000" x1="169.00000000000003" x2="261.00000000000006" y1="266.6000000000001" y2="266.6000000000001"/>
  <line stroke="#000000" x1="150.0" x2="169.00000000000003" y1="266.6000000000001" y2="266.6000000000001"/>
  <line stroke="#000000" x1="150.0" x2="150.0" y1="266.6000000000001" y2="266.6000000000001"/>
  <line stroke="#000000" x1="280.00000000000006" x2="280.00000000000006" y1="266.6000000000001" y2="266.6000000000001"/>
  <line stroke="#000000" x1="261.00000000000006" x2="280.00000000000006" y1="422.6000000000001" y2="422.6000000000001"/>
  <line stroke="#ff0000" stroke-dasharray="2 6" stroke-dashoffset="5" x1="261.00000000000006" x2="261.00000000000006" y1="422.6000000000001" y2="266.6000000000001"/>
  <line stroke="#ff0000" stroke-dasharray="2 6" stroke-dashoffset="5" x1="280.00000000000006" x2="280.00000000000006" y1="422.6000000000001" y2="266.6000000000001"/>
  <line stroke="#000000" x1="248.00000000000006" x2="261.00000000000006" y1="422.6000000000001" y2="422.6000000000001"/>
  <line stroke="#ff0000" stroke-dasharray="2 6" stroke-dashoffset="5" x1="248.00000000000006" x2="248.00000000000006" y1="422.6000000000001" y2="266.6000000000001"/>
  <line stroke="#000000" x1="261.00000000000006" x2="248.00000000000006" y1="266.6000000000001" y2="266.6000000000001"/>
  <line stroke="#000000" x1="229.00000000000003" x2="248.00000000000006" y1="422.6000000000001" y2="422.6000000000001"/>
  <line stroke="#000000" x1="229.00000000000003" x2="229.00000000000003" y1="266.6000000000001" y2="422.6000000000001"/>
  <line stroke="#000000" x1="248.00000000000006" x2="229.00000000000003" y1="266.6000000000001" y2="266.6000000000001"/>
  <line stroke="#ff0000" stroke-dasharray="2 6" stroke-dashoffset="5" x1="280.00000000000006" x2="293.00000000000006" y1="422.6000000000001" y2="422.6000000000001"/>
  <line stroke="#000000" x1="293.00000000000006" x2="280.00000000000006" y1="266.6000000000001" y2="266.6000000000001"/>
  <line stroke="#ff0000" stroke-dasharray="2 6" stroke-dashoffset="5" x1="293.00000000000006" x2="293.00000000000006" y1="266.6000000000001" y2="422.6000000000001"/>
  <line stroke="#ff0000" stroke-dasharray="2 6" stroke-dashoffset="5" x1="293.00000000000006" x2="280.00000000000006" y1="552.6000000000001" y2="552.6000000000001"/>
  <line stroke="#0000ff" stroke-dasharray="2 6" stroke-dashoffset="5" x1="280.00000000000006" x2="280.00000000000006" y1="552.6000000000001" y2="422.6000000000001"/>
  <line stroke="#0000ff" stroke-dasharray="2 6" stroke-dashoffset="5" x1="293.00000000000006" x2="293.00000000000006" y1="422.6000000000001" y2="552.6000000000001"/>
  <line stroke="#000000" x1="280.00000000000006" x2="293.00000000000006" y1="708.6" y2="708.6"/>
  <line stroke="#ff0000" stroke-dasharray="2 6" stroke-dashoffset="5" x1="280.00000000000006" x2="280.00000000000006" y1="708.6" y2="552.6"/>
  <line stroke="#ff0000" stroke-dasharray="2 6" stroke-dashoffset="5" x1="293.00000000000006" x2="293.00000000000006" y1="552.6" y2="708.6"/>
  <line stroke="#000000" x1="261.00000000000006" x2="280.00000000000006" y1="708.6" y2="708.6"/>
  <line stroke="#ff0000" stroke-dasharray="2 6" stroke-dashoffset="5" x1="261.00000000000006" x2="261.00000000000006" y1="708.6" y2="552.6"/>
  <line stroke="#000000" x1="280.00000000000006" x2="261.00000000000006" y1="552.6" y2="552.6"/>
  <line stroke="#000000" x1="248.00000000000006" x2="261.00000000000006" y1="708.6" y2="708.6"/>
  <line stroke="#ff0000" stroke-dasharray="2 6" stroke-dashoffset="5" x1="248.00000000000006" x2="248.00000000000006" y1="708.6" y2="552.6"/>
  <line stroke="#000000" x1="261.00000000000006" x2="248.00000000000006" y1="552.6" y2="552.6"/>
  <line stroke="#000000" x1="229.00000000000003" x2="248.00000000000006" y1="708.6" y2="708.6"/>
  <line stroke="#000000" x1="229.00000000000003" x2="229.00000000000003" y1="552.6" y2="708.6"/>
  <line stroke="#000000" x1="248.00000000000006" x2="229.00000000000003" y1="552.6" y2="552.6"/>
  <line stroke="#000000" x1="303.00000000000006" x2="293.00000000000006" y1="552.6" y2="552.6"/>
  <line stroke="#000000" x1="303.00000000000006" x2="303.00000000000006" y1="708.6" y2="552.6"/>
  <line stroke="#000000" x1="293.00000000000006" x2="303.00000000000006" y1="708.6" y2="708.6"/>
  <line stroke="#000000" x1="236.00000000000003" x2="280.00000000000006" y1="552.6000000000001" y2="552.6000000000001"/>
  <line stroke="#0000ff" stroke-dasharray="2 6" stroke-dashoffset="5" x1="236.00000000000003" x2="236.00000000000003" y1="552.6000000000001" y2="422.6000000000001"/>
  <line stroke="#000000" x1="280.00000000000006" x2="236.00000000000003" y1="422.6000000000001" y2="422.6000000000001"/>
  <line stroke="#000000" x1="223.0" x2="236.00000000000003" y1="552.6000000000001" y2="552.6000000000001"/>
  <line stroke="#0000ff" stroke-dasharray="2 6" stroke-dashoffset="5" x1="223.0" x2="223.0" y1="552.6000000000001" y2="422.6000000000001"/>
  <line stroke="#000000" x1="236.00000000000003" x2="223.0" y1="422.6000000000001" y2="422.6000000000001"/>
  <line stroke="#000000" x1="179.00000000000003" x2="223.0" y1="552.6000000000001" y2="552.6000000000001"/>
  <line stroke="#000000" x1="179.00000000000003" x2="179.00000000000003" y1="422.6000000000001" y2="552.6000000000001"/>
  <line stroke="#000000" x1="223.0" x2="179.00000000000003" y1="422.6000000000001" y2="422.6000000000001"/>
  <line stroke="#000000" x1="303.00000000000006" x2="293.00000000000006" y1="422.6000000000001" y2="422.6000000000001"/>
  <line stroke="#000000" x1="303.00000000000006" x2="303.00000000000006" y1="552.6000000000001" y2="422.6000000000001"/>
  <line stroke="#000000" x1="293.00000000000006" x2="303.00000000000006" y1="552.6000000000001" y2="552.6000000000001"/>
  <line stroke="#000000" x1="303.00000000000006" x2="293.00000000000006" y1="266.6000000000001" y2="266.6000000000001"/>
  <line stroke="#000000" x1="303.00000000000006" x2="303.00000000000006" y1="422.6000000000001" y2="266.6000000000001"/>
  <line stroke="#000000" x1="293.00000000000006" x2="303.00000000000006" y1="422.6000000000001" y2="422.6000000000001"/>
  <line stroke="#000000" x1="130.0" x2="150.0" y1="266.6000000000001" y2="266.6000000000001"/>
  <line stroke="#0000ff" stroke-dasharray="2 6" stroke-dashoffset="5" x1="130.0" x2="130.0" y1="266.6000000000001" y2="66.60000000000002"/>
  <line stroke="#000000" x1="150.0" x2="130.0" y1="66.60000000000002" y2="66.60000000000002"/>
  <line stroke="#000000" x1="0.0" x2="130.0" y1="266.6000000000001" y2="266.6000000000001"/>
  <line stroke="#000000" x1="0.0" x2="0.0" y1="66.60000000000002" y2="266.6000000000001"/>
  <line stroke="#000000" x1="52.00000000000001" x2="0.0" y1="66.60000000000002" y2="66.60000000000002"/>
  <line stroke="#000000" x1="78.00000000000001" x2="52.00000000000001" y1="66.60000000000002" y2="66.60000000000002"/>
  <line stroke="#000000" x1="130.0" x2="78.00000000000001" y1="66.60000000000002" y2="66.60000000000002"/>
  <line stroke="#000000" x1="130.0" x2="130.0" y1="66.60000000000002" y2="66.60000000000002"/>
  <line stroke="#000000" x1="0.0" x2="0.0" y1="66.60000000000002" y2="66.60000000000002"/>
  <line stroke="#000000" x1="280.00000000000006" x2="300.0" y1="266.6000000000001" y2="266.6000000000001"/>
  <line stroke="#000000" x1="300.0" x2="280.00000000000006" y1="66.60000000000001" y2="66.60000000000001"/>
  <line stroke="#0000ff" stroke-dasharray="2 6" stroke-dashoffset="5" x1="300.0" x2="300.0" y1="66.60000000000001" y2="266.6000000000001"/>
  <line stroke="#000000" x1="310.0" x2="300.0" y1="66.60000000000002" y2="66.60000000000002"/>
  <line stroke="#000000" x1="310.0" x2="310.0" y1="266.6000000000001" y2="66.60000000000002"/>
  <line stroke="#000000" x1="300.0" x2="310.0" y1="266.6000000000001" y2="266.6000000000001"/>
  <line stroke="#888888" x1="219.33333333333334" x2="210.66666666666669" y1="51.50000000000001" y2="51.50000000000001"/>
  <line stroke="#888888" x1="210.66666666666669" x2="210.66666666666669" y1="51.50000000000001" y2="61.50000000000001"/>
  <line stroke="#888888" x1="210.66666666666669" x2="219.33333333333337" y1="61.50000000000001" y2="61.50000000000001"/>
  <line stroke="#888888" x1="223.0" x2="219.00000000000003" y1="86.10000000000001" y2="86.10000000000001"/>
  <line stroke="#888888" x1="219.00000000000003" x2="219.00000000000003" y1="86.10000000000001" y2="77.10000000000001"/>
  <line stroke="#888888" x1="219.00000000000003" x2="223.0" y1="77.10000000000001" y2="77.10000000000001"/>
  <line stroke="#888888" x1="223.0" x2="223.0" y1="77.10000000000001" y2="86.10000000000001"/>
  <line stroke="#888888" x1="249.75000000000003" x2="222.75000000000003" y1="109.85000000000001" y2="109.85000000000001"/>
  <line stroke="#888888" x1="222.75000000000003" x2="222.75000000000003" y1="109.85000000000001" y2="101.85000000000001"/>
  <line stroke="#888888" x1="222.75000000000003" x2="249.75000000000003" y1="101.85000000000001" y2="101.85000000000001"/>
  <line stroke="#888888" x1="249.75000000000003" x2="249.75000000000003" y1="101.85000000000001" y2="109.85000000000001"/>
  <line stroke="#888888" x1="229.47000000000003" x2="226.47" y1="94.03" y2="94.03"/>
  <line stroke="#888888" x1="226.47" x2="226.47" y1="94.03" y2="91.02999999999999"/>
  <line stroke="#888888" x1="226.47" x2="229.47000000000003" y1="91.02999999999999" y2="91.02999999999999"/>
  <line stroke="#888888" x1="229.47000000000003" x2="229.47000000000003" y1="91.02999999999999" y2="94.03"/>
  <line stroke="#888888" x1="228.47000000000003" x2="227.47000000000003" y1="70.16999999999999" y2="70.16999999999999"/>
  <line stroke="#888888" x1="227.47000000000003" x2="227.47000000000003" y1="70.16999999999999" y2="69.17"/>
  <line stroke="#888888" x1="227.47000000000003" x2="228.47000000000003" y1="69.17" y2="69.17"/>
  <line stroke="#888888" x1="228.47000000000003" x2="228.47000000000003" y1="69.17" y2="70.16999999999999"/>
  <line stroke="#888888" x1="231.01000000000002" x2="230.01000000000002" y1="93.03" y2="93.03"/>
  <line stroke="#888888" x1="230.01000000000002" x2="230.01000000000002" y1="93.03" y2="92.02999999999999"/>
  <line stroke="#888888" x1="230.01000000000002" x2="231.01000000000002" y1="92.02999999999999" y2="92.02999999999999"/>
  <line stroke="#888888" x1="231.01000000000002" x2="231.01000000000002" y1="92.02999999999999" y2="93.03"/>
  <line stroke="#888888" x1="231.01000000000002" x2="230.01000000000002" y1="70.16999999999999" y2="70.16999999999999"/>
  <line stroke="#888888" x1="230.01000000000002" x2="230.01000000000002" y1="70.16999999999999" y2="69.17"/>
  <line stroke="#888888" x1="230.01000000000002" x2="231.01000000000002" y1="69.17" y2="69.17"/>
  <line stroke="#888888" x1="231.01000000000002" x2="231.01000000000002" y1="69.17" y2="70.16999999999999"/>
  <line stroke="#888888" x1="233.55000000000004" x2="232.55000000000004" y1="93.03" y2="93.03"/>
  <line stroke="#888888" x1="232.55000000000004" x2="232.55000000000004" y1="93.03" y2="92.02999999999999"/>
  <line stroke="#888888" x1="232.55000000000004" x2="233.55000000000004" y1="92.02999999999999" y2="92.02999999999999"/>
  <line stroke="#888888" x1="233.55000000000004" x2="233.55000000000004" y1="92.02999999999999" y2="93.03"/>
  <line stroke="#888888" x1="233.55000000000004" x2="232.55000000000004" y1="70.16999999999999" y2="70.16999999999999"/>
  <line stroke="#888888" x1="232.55000000000004" x2="232.55000000000004" y1="70.16999999999999" y2="69.17"/>
  <line stroke="#888888" x1="232.55000000000004" x2="233.55000000000004" y1="69.17" y2="69.17"/>
  <line stroke="#888888" x1="233.55000000000004" x2="233.55000000000004" y1="69.17" y2="70.16999999999999"/>
  <line stroke="#888888" x1="236.09000000000003" x2="235.09000000000003" y1="93.03" y2="93.03"/>
  <line stroke="#888888" x1="235.09000000000003" x2="235.09000000000003" y1="93.03" y2="92.02999999999999"/>
  <line stroke="#888888" x1="235.09000000000003" x2="236.09000000000003" y1="92.02999999999999" y2="92.02999999999999"/>
  <line stroke="#888888" x1="236.09000000000003" x2="236.09000000000003" y1="92.02999999999999" y2="93.03"/>
  <line stroke="#888888" x1="236.09000000000003" x2="235.09000000000003" y1="70.16999999999999" y2="70.16999999999999"/>
  <line stroke="#888888" x1="235.09000000000003" x2="235.09000000000003" y1="70.16999999999999" y2="69.17"/>
  <line stroke="#888888" x1="235.09000000000003" x2="236.09000000000003" y1="69.17" y2="69.17"/>
  <line stroke="#888888" x1="236.09000000000003" x2="236.09000000000003" y1="69.17" y2="70.16999999999999"/>
  <line stroke="#888888" x1="238.63000000000002" x2="237.63000000000002" y1="93.03" y2="93.03"/>
  <line stroke="#888888" x1="237.63000000000002" x2="237.63000000000002" y1="93.03" y2="92.02999999999999"/>
  <line stroke="#888888" x1="237.63000000000002" x2="238.63000000000002" y1="92.02999999999999" y2="92.02999999999999"/>
  <line stroke="#888888" x1="238.63000000000002" x2="238.63000000000002" y1="92.02999999999999" y2="93.03"/>
  <line stroke="#888888" x1="238.63000000000002" x2="237.63000000000002" y1="70.16999999999999" y2="70.16999999999999"/>
  <line stroke="#888888" x1="237.63000000000002" x2="237.63000000000002" y1="70.16999999999999" y2="69.17"/>
  <line stroke="#888888" x1="237.63000000000002" x2="238.63000000000002" y1="69.17" y2="69.17"/>
  <line stroke="#888888" x1="238.63000000000002" x2="238.63000000000002" y1="69.17" y2="70.16999999999999"/>
  <line stroke="#888888" x1="241.17000000000004" x2="240.17000000000004" y1="93.03" y2="93.03"/>
  <line stroke="#888888" x1="240.17000000000004" x2="240.17000000000004" y1="93.03" y2="92.02999999999999"/>
  <line stroke="#888888" x1="240.17000000000004" x2="241.17000000000004" y1="92.02999999999999" y2="92.02999999999999"/>
  <line stroke="#888888" x1="241.17000000000004" x2="241.17000000000004" y1="92.02999999999999" y2="93.03"/>
  <line stroke="#888888" x1="241.17000000000004" x2="240.17000000000004" y1="70.16999999999999" y2="70.16999999999999"/>
  <line stroke="#888888" x1="240.17000000000004" x2="240.17000000000004" y1="70.16999999999999" y2="69.17"/>
  <line stroke="#888888" x1="240.17000000000004" x2="241.17000000000004" y1="69.17" y2="69.17"/>
  <line stroke="#888888" x1="241.17000000000004" x2="241.17000000000004" y1="69.17" y2="70.16999999999999"/>
  <line stroke="#888888" x1="243.71000000000004" x2="242.71000000000004" y1="93.03" y2="93.03"/>
  <line stroke="#888888" x1="242.71000000000004" x2="242.71000000000004" y1="93.03" y2="92.02999999999999"/>
  <line stroke="#888888" x1="242.71000000000004" x2="243.71000000000004" y1="92.02999999999999" y2="92.02999999999999"/>
  <line stroke="#888888" x1="243.71000000000004" x2="243.71000000000004" y1="92.02999999999999" y2="93.03"/>
  <line stroke="#888888" x1="243.71000000000004" x2="242.71000000000004" y1="70.16999999999999" y2="70.16999999999999"/>
  <line stroke="#888888" x1="242.71000000000004" x2="242.71000000000004" y1="70.16999999999999" y2="69.17"/>
  <line stroke="#888888" x1="242.71000000000004" x2="243.71000000000004" y1="69.17" y2="69.17"/>
  <line stroke="#888888" x1="243.71000000000004" x2="243.71000000000004" y1="69.17" y2="70.16999999999999"/>
  <line stroke="#888888" x1="246.25000000000003" x2="245.25000000000003" y1="93.03" y2="93.03"/>
  <line stroke="#888888" x1="245.25000000000003" x2="245.25000000000003" y1="93.03" y2="92.02999999999999"/>
  <line stroke="#888888" x1="245.25000000000003" x2="246.25000000000003" y1="92.02999999999999" y2="92.02999999999999"/>
  <line stroke="#888888" x1="246.25000000000003" x2="246.25000000000003" y1="92.02999999999999" y2="93.03"/>
  <line stroke="#888888" x1="246.25000000000003" x2="245.25000000000003" y1="70.16999999999999" y2="70.16999999999999"/>
  <line stroke="#888888" x1="245.25000000000003" x2="245.25000000000003" y1="70.16999999999999" y2="69.17"/>
  <line stroke="#888888" x1="245.25000000000003" x2="246.25000000000003" y1="69.17" y2="69.17"/>
  <line stroke="#888888" x1="246.25000000000003" x2="246.25000000000003" y1="69.17" y2="70.16999999999999"/>
  <line stroke="#888888" x1="248.79000000000002" x2="247.79000000000002" y1="93.03" y2="93.03"/>
  <line stroke="#888888" x1="247.79000000000002" x2="247.79000000000002" y1="93.03" y2="92.02999999999999"/>
  <line stroke="#888888" x1="247.79000000000002" x2="248.79000000000002" y1="92.02999999999999" y2="92.02999999999999"/>
  <line stroke="#888888" x1="248.79000000000002" x2="248.79000000000002" y1="92.02999999999999" y2="93.03"/>
  <line stroke="#888888" x1="248.79000000000002" x2="247.79000000000002" y1="70.16999999999999" y2="70.16999999999999"/>
  <line stroke="#888888" x1="247.79000000000002" x2="247.79000000000002" y1="70.16999999999999" y2="69.17"/>
  <line stroke="#888888" x1="247.79000000000002" x2="248.79000000000002" y1="69.17" y2="69.17"/>
  <line stroke="#888888" x1="248.79000000000002" x2="248.79000000000002" y1="69.17" y2="70.16999999999999"/>
  <line stroke="#888888" x1="251.33" x2="250.33" y1="93.03" y2="93.03"/>
  <line stroke="#888888" x1="250.33" x2="250.33" y1="93.03" y2="92.02999999999999"/>
  <line stroke="#888888" x1="250.33" x2="251.33" y1="92.02999999999999" y2="92.02999999999999"/>
  <line stroke="#888888" x1="251.33" x2="251.33" y1="92.02999999999999" y2="93.03"/>
  <line stroke="#888888" x1="251.33" x2="250.33" y1="70.16999999999999" y2="70.16999999999999"/>
  <line stroke="#888888" x1="250.33" x2="250.33" y1="70.16999999999999" y2="69.17"/>
  <line stroke="#888888" x1="250.33" x2="251.33" y1="69.17" y2="69.17"/>
  <line stroke="#888888" x1="251.33" x2="251.33" y1="69.17" y2="70.16999999999999"/>
  <line stroke="#888888" x1="253.87000000000003" x2="252.87000000000003" y1="93.03" y2="93.03"/>
  <line stroke="#888888" x1="252.87000000000003" x2="252.87000000000003" y1="93.03" y2="92.02999999999999"/>
  <line stroke="#888888" x1="252.87000000000003" x2="253.87000000000003" y1="92.02999999999999" y2="92.02999999999999"/>
  <line stroke="#888888" x1="253.87000000000003" x2="253.87000000000003" y1="92.02999999999999" y2="93.03"/>
  <line stroke="#888888" x1="253.87000000000003" x2="252.87000000000003" y1="70.16999999999999" y2="70.16999999999999"/>
  <line stroke="#888888" x1="252.87000000000003" x2="252.87000000000003" y1="70.16999999999999" y2="69.17"/>
  <line stroke="#888888" x1="252.87000000000003" x2="253.87000000000003" y1="69.17" y2="69.17"/>
  <line stroke="#888888" x1="253.87000000000003" x2="253.87000000000003" y1="69.17" y2="70.16999999999999"/>
  <line stroke="#888888" x1="256.40999999999997" x2="255.41000000000003" y1="93.03" y2="93.03"/>
  <line stroke="#888888" x1="255.41000000000003" x2="255.41000000000003" y1="93.03" y2="92.02999999999999"/>
  <line stroke="#888888" x1="255.41000000000003" x2="256.40999999999997" y1="92.02999999999999" y2="92.02999999999999"/>
  <line stroke="#888888" x1="256.40999999999997" x2="256.40999999999997" y1="92.02999999999999" y2="93.03"/>
  <line stroke="#888888" x1="256.40999999999997" x2="255.41000000000003" y1="70.16999999999999" y2="70.16999999999999"/>
  <line stroke="#888888" x1="255.41000000000003" x2="255.41000000000003" y1="70.16999999999999" y2="69.17"/>
  <line stroke="#888888" x1="255.41000000000003" x2="256.40999999999997" y1="69.17" y2="69.17"/>
  <line stroke="#888888" x1="256.40999999999997" x2="256.40999999999997" y1="69.17" y2="70.16999999999999"/>
  <line stroke="#888888" x1="258.95000000000005" x2="257.95" y1="93.03" y2="93.03"/>
  <line stroke="#888888" x1="257.95" x2="257.95" y1="93.03" y2="92.02999999999999"/>
  <line stroke="#888888" x1="257.95" x2="258.95000000000005" y1="92.02999999999999" y2="92.02999999999999"/>
  <line stroke="#888888" x1="258.95000000000005" x2="258.95000000000005" y1="92.02999999999999" y2="93.03"/>
  <line stroke="#888888" x1="258.95000000000005" x2="257.95" y1="70.16999999999999" y2="70.16999999999999"/>
  <line stroke="#888888" x1="257.95" x2="257.95" y1="70.16999999999999" y2="69.17"/>
  <line stroke="#888888" x1="257.95" x2="258.95000000000005" y1="69.17" y2="69.17"/>
  <line stroke="#888888" x1="258.95000000000005" x2="258.95000000000005" y1="69.17" y2="70.16999999999999"/>
  <line stroke="#888888" x1="261.49" x2="260.49000000000007" y1="93.03" y2="93.03"/>
  <line stroke="#888888" x1="260.49000000000007" x2="260.49000000000007" y1="93.03" y2="92.02999999999999"/>
  <line stroke="#888888" x1="260.49000000000007" x2="261.49" y1="92.02999999999999" y2="92.02999999999999"/>
  <line stroke="#888888" x1="261.49" x2="261.49" y1="92.02999999999999" y2="93.03"/>
  <line stroke="#888888" x1="261.49" x2="260.49000000000007" y1="70.16999999999999" y2="70.16999999999999"/>
  <line stroke="#888888" x1="260.49000000000007" x2="260.49000000000007" y1="70.16999999999999" y2="69.17"/>
  <line stroke="#888888" x1="260.49000000000007" x2="261.49" y1="69.17" y2="69.17"/>
  <line stroke="#888888" x1="261.49" x2="261.49" y1="69.17" y2="70.16999999999999"/>
  <line stroke="#888888" x1="264.03000000000003" x2="263.03" y1="93.03" y2="93.03"/>
  <line stroke="#888888" x1="263.03" x2="263.03" y1="93.03" y2="92.02999999999999"/>
  <line stroke="#888888" x1="263.03" x2="264.03000000000003" y1="92.02999999999999" y2="92.02999999999999"/>
  <line stroke="#888888" x1="264.03000000000003" x2="264.03000000000003" y1="92.02999999999999" y2="93.03"/>
  <line stroke="#888888" x1="265.03000000000003" x2="262.03000000000003" y1="71.16999999999999" y2="71.16999999999999"/>
  <line stroke="#888888" x1="262.03000000000003" x2="262.03000000000003" y1="71.16999999999999" y2="68.17"/>
  <line stroke="#888888" x1="262.03000000000003" x2="265.03000000000003" y1="68.17" y2="68.17"/>
  <line stroke="#888888" x1="265.03000000000003" x2="265.03000000000003" y1="68.17" y2="71.16999999999999"/>
  <line stroke="#888888" x1="236.75000000000003" x2="236.75000000000003" y1="383.3500000000001" y2="403.3500000000001"/>
  <line stroke="#888888" x1="236.75000000000003" x2="236.25000000000003" y1="403.3500000000001" y2="403.3500000000001"/>
  <line stroke="#888888" x1="236.25000000000003" x2="236.25000000000003" y1="403.3500000000001" y2="383.3500000000001"/>
  <line stroke="#888888" x1="236.25000000000003" x2="236.75000000000003" y1="383.3500000000001" y2="383.3500000000001"/>
  <line stroke="#888888" x1="236.75000000000003" x2="236.75000000000003" y1="334.6000000000001" y2="354.6000000000001"/>
  <line stroke="#888888" x1="236.75000000000003" x2="236.25000000000003" y1="354.6000000000001" y2="354.6000000000001"/>
  <line stroke="#888888" x1="236.25000000000003" x2="236.25000000000003" y1="354.6000000000001" y2="334.6000000000001"/>
  <line stroke="#888888" x1="236.25000000000003" x2="236.75000000000003" y1="334.6000000000001" y2="334.6000000000001"/>
  <line stroke="#888888" x1="236.75000000000003" x2="236.75000000000003" y1="285.85" y2="305.8500000000001"/>
  <line stroke="#888888" x1="236.75000000000003" x2="236.25000000000003" y1="305.8500000000001" y2="305.8500000000001"/>
  <line stroke="#888888" x1="236.25000000000003" x2="236.25000000000003" y1="305.8500000000001" y2="285.85"/>
  <line stroke="#888888" x1="236.25000000000003" x2="236.75000000000003" y1="285.85" y2="285.85"/>
  <line stroke="#888888" x1="292.93500000000006" x2="280.06500000000005" y1="294.6" y2="294.6"/>
  <line stroke="#888888" x1="280.06500000000005" x2="280.06500000000005" y1="294.6" y2="271.6"/>
  <line stroke="#888888" x1="280.06500000000005" x2="292.93500000000006" y1="271.6" y2="271.6"/>
  <line stroke="#888888" x1="292.93500000000006" x2="292.93500000000006" y1="271.6" y2="294.6"/>
  <line stroke="#888888" x1="292.93500000000006" x2="280.06500000000005" y1="703.5999999999999" y2="703.5999999999999"/>
  <line stroke="#888888" x1="280.06500000000005" x2="280.06500000000005" y1="703.5999999999999" y2="680.6"/>
  <line stroke="#888888" x1="280.06500000000005" x2="292.93500000000006" y1="680.6" y2="680.6"/>
  <line stroke="#888888" x1="292.93500000000006" x2="292.93500000000006" y1="680.6" y2="703.5999999999999"/>
  <line stroke="#888888" x1="236.75000000000003" x2="236.75000000000003" y1="669.35" y2="689.35"/>
  <line stroke="#888888" x1="236.75000000000003" x2="236.25000000000003" y1="689.35" y2="689.35"/>
  <line stroke="#888888" x1="236.25000000000003" x2="236.25000000000003" y1="689.35" y2="669.35"/>
  <line stroke="#888888" x1="236.25000000000003" x2="236.75000000000003" y1="669.35" y2="669.35"/>
  <line stroke="#888888" x1="236.75000000000003" x2="236.75000000000003" y1="620.6" y2="640.5999999999999"/>
  <line stroke="#888888" x1="236.75000000000003" x2="236.25000000000003" y1="640.5999999999999" y2="640.5999999999999"/>
  <line stroke="#888888" x1="236.25000000000003" x2="236.25000000000003" y1="640.5999999999999" y2="620.6"/>
  <line stroke="#888888" x1="236.25000000000003" x2="236.75000000000003" y1="620.6" y2="620.6"/>
  <line stroke="#888888" x1="236.75000000000003" x2="236.75000000000003" y1="571.8499999999999" y2="591.8499999999999"/>
  <line stroke="#888888" x1="236.75000000000003" x2="236.25000000000003" y1="591.8499999999999" y2="591.8499999999999"/>
  <line stroke="#888888" x1="236.25000000000003" x2="236.25000000000003" y1="591.8499999999999" y2="571.8499999999999"/>
  <line stroke="#888888" x1="236.25000000000003" x2="236.75000000000003" y1="571.8499999999999" y2="571.8499999999999"/>
  <line stroke="#888888" x1="300.5" x2="300.5" y1="689.1" y2="694.1"/>
  <line stroke="#888888" x1="300.5" x2="295.5" y1="694.1" y2="689.1"/>
  <line stroke="#888888" x1="295.5" x2="295.5" y1="689.1" y2="669.5999999999999"/>
  <line stroke="#888888" x1="295.5" x2="300.5" y1="669.5999999999999" y2="664.6"/>
  <line stroke="#888888" x1="300.5" x2="300.5" y1="664.6" y2="669.5999999999999"/>
  <line stroke="#888888" x1="300.5" x2="300.5" y1="640.35" y2="645.3499999999999"/>
  <line stroke="#888888" x1="300.5" x2="295.5" y1="645.3499999999999" y2="640.35"/>
  <line stroke="#888888" x1="295.5" x2="295.5" y1="640.35" y2="620.85"/>
  <line stroke="#888888" x1="295.5" x2="300.5" y1="620.85" y2="615.85"/>
  <line stroke="#888888" x1="300.5" x2="300.5" y1="615.85" y2="620.85"/>
  <line stroke="#888888" x1="300.5" x2="300.5" y1="591.6" y2="596.5999999999999"/>
  <line stroke="#888888" x1="300.5" x2="295.5" y1="596.5999999999999" y2="591.6"/>
  <line stroke="#888888" x1="295.5" x2="295.5" y1="591.6" y2="572.1"/>
  <line stroke="#888888" x1="295.5" x2="300.5" y1="572.1" y2="567.0999999999999"/>
  <line stroke="#888888" x1="300.5" x2="300.5" y1="567.0999999999999" y2="572.1"/>
  <line stroke="#888888" x1="279.25000000000006" x2="279.25000000000006" y1="452.8500000000001" y2="479.8500000000001"/>
  <line stroke="#888888" x1="279.25000000000006" x2="271.25000000000006" y1="479.8500000000001" y2="479.8500000000001"/>
  <line stroke="#888888" x1="271.25000000000006" x2="271.25000000000006" y1="479.8500000000001" y2="452.8500000000001"/>
  <line stroke="#888888" x1="271.25000000000006" x2="279.25000000000006" y1="452.8500000000001" y2="452.8500000000001"/>
  <line stroke="#888888" x1="263.43000000000006" x2="263.43000000000006" y1="473.13000000000005" y2="476.1300000000001"/>
  <line stroke="#888888" x1="263.43000000000006" x2="260.43000000000006" y1="476.1300000000001" y2="476.1300000000001"/>
  <line stroke="#888888" x1="260.43000000000006" x2="260.43000000000006" y1="476.1300000000001" y2="473.13000000000005"/>
  <line stroke="#888888" x1="260.43000000000006" x2="263.43000000000006" y1="473.13000000000005" y2="473.13000000000005"/>
  <line stroke="#888888" x1="239.57000000000002" x2="239.57000000000002" y1="474.1300000000001" y2="475.1300000000001"/>
  <line stroke="#888888" x1="239.57000000000002" x2="238.57000000000002" y1="475.1300000000001" y2="475.1300000000001"/>
  <line stroke="#888888" x1="238.57000000000002" x2="238.57000000000002" y1="475.1300000000001" y2="474.1300000000001"/>
  <line stroke="#888888" x1="238.57000000000002" x2="239.57000000000002" y1="474.1300000000001" y2="474.1300000000001"/>
  <line stroke="#888888" x1="262.43000000000006" x2="262.43000000000006" y1="471.5900000000001" y2="472.5900000000001"/>
  <line stroke="#888888" x1="262.43000000000006" x2="261.43" y1="472.5900000000001" y2="472.5900000000001"/>
  <line stroke="#888888" x1="261.43" x2="261.43" y1="472.5900000000001" y2="471.5900000000001"/>
  <line stroke="#888888" x1="261.43" x2="262.43000000000006" y1="471.5900000000001" y2="471.5900000000001"/>
  <line stroke="#888888" x1="239.57000000000002" x2="239.57000000000002" y1="471.5900000000001" y2="472.5900000000001"/>
  <line stroke="#888888" x1="239.57000000000002" x2="238.57000000000002" y1="472.5900000000001" y2="472.5900000000001"/>
  <line stroke="#888888" x1="238.57000000000002" x2="238.57000000000002" y1="472.5900000000001" y2="471.5900000000001"/>
  <line stroke="#888888" x1="238.57000000000002" x2="239.57000000000002" y1="471.5900000000001" y2="471.5900000000001"/>
  <line stroke="#888888" x1="262.43000000000006" x2="262.43000000000006" y1="469.05000000000007" y2="470.05000000000007"/>
  <line stroke="#888888" x1="262.43000000000006" x2="261.43" y1="470.05000000000007" y2="470.05000000000007"/>
  <line stroke="#888888" x1="261.43" x2="261.43" y1="470.05000000000007" y2="469.05000000000007"/>
  <line stroke="#888888" x1="261.43" x2="262.43000000000006" y1="469.05000000000007" y2="469.05000000000007"/>
  <line stroke="#888888" x1="239.57000000000002" x2="239.57000000000002" y1="469.05000000000007" y2="470.05000000000007"/>
  <line stroke="#888888" x1="239.57000000000002" x2="238.57000000000002" y1="470.05000000000007" y2="470.05000000000007"/>
  <line stroke="#888888" x1="238.57000000000002" x2="238.57000000000002" y1="470.05000000000007" y2="469.05000000000007"/>
  <line stroke="#888888" x1="238.57000000000002" x2="239.57000000000002" y1="469.05000000000007" y2="469.05000000000007"/>
  <line stroke="#888888" x1="262.43000000000006" x2="262.43000000000006" y1="466.5100000000001" y2="467.5100000000001"/>
  <line stroke="#888888" x1="262.43000000000006" x2="261.43" y1="467.5100000000001" y2="467.5100000000001"/>
  <line stroke="#888888" x1="261.43" x2="261.43" y1="467.5100000000001" y2="466.5100000000001"/>
  <line stroke="#888888" x1="261.43" x2="262.43000000000006" y1="466.5100000000001" y2="466.5100000000001"/>
  <line stroke="#888888" x1="239.57000000000002" x2="239.57000000000002" y1="466.5100000000001" y2="467.5100000000001"/>
  <line stroke="#888888" x1="239.57000000000002" x2="238.57000000000002" y1="467.5100000000001" y2="467.5100000000001"/>
  <line stroke="#888888" x1="238.57000000000002" x2="238.57000000000002" y1="467.5100000000001" y2="466.5100000000001"/>
  <line stroke="#888888" x1="238.57000000000002" x2="239.57000000000002" y1="466.5100000000001" y2="466.5100000000001"/>
  <line stroke="#888888" x1="262.43000000000006" x2="262.43000000000006" y1="463.9700000000001" y2="464.9700000000001"/>
  <line stroke="#888888" x1="262.43000000000006" x2="261.43" y1="464.9700000000001" y2="464.9700000000001"/>
  <line stroke="#888888" x1="261.43" x2="261.43" y1="464.9700000000001" y2="463.9700000000001"/>
  <line stroke="#888888" x1="261.43" x2="262.43000000000006" y1="463.9700000000001" y2="463.9700000000001"/>
  <line stroke="#888888" x1="239.57000000000002" x2="239.57000000000002" y1="463.9700000000001" y2="464.9700000000001"/>
  <line stroke="#888888" x1="239.57000000000002" x2="238.57000000000002" y1="464.9700000000001" y2="464.9700000000001"/>
  <line stroke="#888888" x1="238.57000000000002" x2="238.57000000000002" y1="464.9700000000001" y2="463.9700000000001"/>
  <line stroke="#888888" x1="238.57000000000002" x2="239.57000000000002" y1="463.9700000000001" y2="463.9700000000001"/>
  <line stroke="#888888" x1="262.43000000000006" x2="262.43000000000006" y1="461.43" y2="462.43000000000006"/>
  <line stroke="#888888" x1="262.43000000000006" x2="261.43" y1="462.43000000000006" y2="462.43000000000006"/>
  <line stroke="#888888" x1="261.43" x2="261.43" y1="462.43000000000006" y2="461.43"/>
  <line stroke="#888888" x1="261.43" x2="262.43000000000006" y1="461.43" y2="461.43"/>
  <line stroke="#888888" x1="239.57000000000002" x2="239.57000000000002" y1="461.43" y2="462.43000000000006"/>
  <line stroke="#888888" x1="239.57000000000002" x2="238.57000000000002" y1="462.43000000000006" y2="462.43000000000006"/>
  <line stroke="#888888" x1="238.57000000000002" x2="238.57000000000002" y1="462.43000000000006" y2="461.43"/>
  <line stroke="#888888" x1="238.57000000000002" x2="239.57000000000002" y1="461.43" y2="461.43"/>
  <line stroke="#888888" x1="262.43000000000006" x2="262.43000000000006" y1="458.8900000000001" y2="459.89000000000004"/>
  <line stroke="#888888" x1="262.43000000000006" x2="261.43" y1="459.89000000000004" y2="459.89000000000004"/>
  <line stroke="#888888" x1="261.43" x2="261.43" y1="459.89000000000004" y2="458.8900000000001"/>
  <line stroke="#888888" x1="261.43" x2="262.43000000000006" y1="458.8900000000001" y2="458.8900000000001"/>
  <line stroke="#888888" x1="239.57000000000002" x2="239.57000000000002" y1="458.8900000000001" y2="459.89000000000004"/>
  <line stroke="#888888" x1="239.57000000000002" x2="238.57000000000002" y1="459.89000000000004" y2="459.89000000000004"/>
  <line stroke="#888888" x1="238.57000000000002" x2="238.57000000000002" y1="459.89000000000004" y2="458.8900000000001"/>
  <line stroke="#888888" x1="238.57000000000002" x2="239.57000000000002" y1="458.8900000000001" y2="458.8900000000001"/>
  <line stroke="#888888" x1="262.43000000000006" x2="262.43000000000006" y1="456.3500000000001" y2="457.3500000000001"/>
  <line stroke="#888888" x1="262.43000000000006" x2="261.43" y1="457.3500000000001" y2="457.3500000000001"/>
  <line stroke="#888888" x1="261.43" x2="261.43" y1="457.3500000000001" y2="456.3500000000001"/>
  <line stroke="#888888" x1="261.43" x2="262.43000000000006" y1="456.3500000000001" y2="456.3500000000001"/>
  <line stroke="#888888" x1="239.57000000000002" x2="239.57000000000002" y1="456.3500000000001" y2="457.3500000000001"/>
  <line stroke="#888888" x1="239.57000000000002" x2="238.57000000000002" y1="457.3500000000001" y2="457.3500000000001"/>
  <line stroke="#888888" x1="238.57000000000002" x2="238.57000000000002" y1="457.3500000000001" y2="456.3500000000001"/>
  <line stroke="#888888" x1="238.57000000000002" x2="239.57000000000002" y1="456.3500000000001" y2="456.3500000000001"/>
  <line stroke="#888888" x1="262.43000000000006" x2="262.43000000000006" y1="453.81000000000006" y2="454.81000000000006"/>
  <line stroke="#888888" x1="262.43000000000006" x2="261.43" y1="454.81000000000006" y2="454.81000000000006"/>
  <line stroke="#888888" x1="261.43" x2="261.43" y1="454.81000000000006" y2="453.81000000000006"/>
  <line stroke="#888888" x1="261.43" x2="262.43000000000006" y1="453.81000000000006" y2="453.81000000000006"/>
  <line stroke="#888888" x1="239.57000000000002" x2="239.57000000000002" y1="453.81000000000006" y2="454.81000000000006"/>
  <line stroke="#888888" x1="239.57000000000002" x2="238.57000000000002" y1="454.81000000000006" y2="454.81000000000006"/>
  <line stroke="#888888" x1="238.57000000000002" x2="238.57000000000002" y1="454.81000000000006" y2="453.81000000000006"/>
  <line stroke="#888888" x1="238.57000000000002" x2="239.57000000000002" y1="453.81000000000006" y2="453.81000000000006"/>
  <line stroke="#888888" x1="262.43000000000006" x2="262.43000000000006" y1="451.2700000000001" y2="452.2700000000001"/>
  <line stroke="#888888" x1="262.43000000000006" x2="261.43" y1="452.2700000000001" y2="452.2700000000001"/>
  <line stroke="#888888" x1="261.43" x2="261.43" y1="452.2700000000001" y2="451.2700000000001"/>
  <line stroke="#888888" x1="261.43" x2="262.43000000000006" y1="451.2700000000001" y2="451.2700000000001"/>
  <line stroke="#888888" x1="239.57000000000002" x2="239.57000000000002" y1="451.2700000000001" y2="452.2700000000001"/>
  <line stroke="#888888" x1="239.57000000000002" x2="238.57000000000002" y1="452.2700000000001" y2="452.2700000000001"/>
  <line stroke="#888888" x1="238.57000000000002" x2="238.57000000000002" y1="452.2700000000001" y2="451.2700000000001"/>
  <line stroke="#888888" x1="238.57000000000002" x2="239.57000000000002" y1="451.2700000000001" y2="451.2700000000001"/>
  <line stroke="#888888" x1="262.43000000000006" x2="262.43000000000006" y1="448.7300000000001" y2="449.73"/>
  <line stroke="#888888" x1="262.43000000000006" x2="261.43" y1="449.73" y2="449.73"/>
  <line stroke="#888888" x1="261.43" x2="261.43" y1="449.73" y2="448.7300000000001"/>
  <line stroke="#888888" x1="261.43" x2="262.43000000000006" y1="448.7300000000001" y2="448.7300000000001"/>
  <line stroke="#888888" x1="239.57000000000002" x2="239.57000000000002" y1="448.7300000000001" y2="449.73"/>
  <line stroke="#888888" x1="239.57000000000002" x2="238.57000000000002" y1="449.73" y2="449.73"/>
  <line stroke="#888888" x1="238.57000000000002" x2="238.57000000000002" y1="449.73" y2="448.7300000000001"/>
  <line stroke="#888888" x1="238.57000000000002" x2="239.57000000000002" y1="448.7300000000001" y2="448.7300000000001"/>
  <line stroke="#888888" x1="262.43000000000006" x2="262.43000000000006" y1="446.19000000000005" y2="447.19000000000005"/>
  <line stroke="#888888" x1="262.43000000000006" x2="261.43" y1="447.19000000000005" y2="447.19000000000005"/>
  <line stroke="#888888" x1="261.43" x2="261.43" y1="447.19000000000005" y2="446.19000000000005"/>
  <line stroke="#888888" x1="261.43" x2="262.43000000000006" y1="446.19000000000005" y2="446.19000000000005"/>
  <line stroke="#888888" x1="239.57000000000002" x2="239.57000000000002" y1="446.19000000000005" y2="447.19000000000005"/>
  <line stroke="#888888" x1="239.57000000000002" x2="238.57000000000002" y1="447.19000000000005" y2="447.19000000000005"/>
  <line stroke="#888888" x1="238.57000000000002" x2="238.57000000000002" y1="447.19000000000005" y2="446.19000000000005"/>
  <line stroke="#888888" x1="238.57000000000002" x2="239.57000000000002" y1="446.19000000000005" y2="446.19000000000005"/>
  <line stroke="#888888" x1="262.43000000000006" x2="262.43000000000006" y1="443.6500000000001" y2="444.6500000000001"/>
  <line stroke="#888888" x1="262.43000000000006" x2="261.43" y1="444.6500000000001" y2="444.6500000000001"/>
  <line stroke="#888888" x1="261.43" x2="261.43" y1="444.6500000000001" y2="443.6500000000001"/>
  <line stroke="#888888" x1="261.43" x2="262.43000000000006" y1="443.6500000000001" y2="443.6500000000001"/>
  <line stroke="#888888" x1="239.57000000000002" x2="239.57000000000002" y1="443.6500000000001" y2="444.6500000000001"/>
  <line stroke="#888888" x1="239.57000000000002" x2="238.57000000000002" y1="444.6500000000001" y2="444.6500000000001"/>
  <line stroke="#888888" x1="238.57000000000002" x2="238.57000000000002" y1="444.6500000000001" y2="443.6500000000001"/>
  <line stroke="#888888" x1="238.57000000000002" x2="239.57000000000002" y1="443.6500000000001" y2="443.6500000000001"/>
  <line stroke="#888888" x1="262.43000000000006" x2="262.43000000000006" y1="441.11000000000007" y2="442.11000000000007"/>
  <line stroke="#888888" x1="262.43000000000006" x2="261.43" y1="442.11000000000007" y2="442.11000000000007"/>
  <line stroke="#888888" x1="261.43" x2="261.43" y1="442.11000000000007" y2="441.11000000000007"/>
  <line stroke="#888888" x1="261.43" x2="262.43000000000006" y1="441.11000000000007" y2="441.11000000000007"/>
  <line stroke="#888888" x1="239.57000000000002" x2="239.57000000000002" y1="441.11000000000007" y2="442.11000000000007"/>
  <line stroke="#888888" x1="239.57000000000002" x2="238.57000000000002" y1="442.11000000000007" y2="442.11000000000007"/>
  <line stroke="#888888" x1="238.57000000000002" x2="238.57000000000002" y1="442.11000000000007" y2="441.11000000000007"/>
  <line stroke="#888888" x1="238.57000000000002" x2="239.57000000000002" y1="441.11000000000007" y2="441.11000000000007"/>
  <line stroke="#888888" x1="262.43000000000006" x2="262.43000000000006" y1="438.57000000000005" y2="439.57"/>
  <line stroke="#888888" x1="262.43000000000006" x2="261.43" y1="439.57" y2="439.57"/>
  <line stroke="#888888" x1="261.43" x2="261.43" y1="439.57" y2="438.57000000000005"/>
  <line stroke="#888888" x1="261.43" x2="262.43000000000006" y1="438.57000000000005" y2="438.57000000000005"/>
  <line stroke="#888888" x1="240.57000000000002" x2="240.57000000000002" y1="437.57000000000005" y2="440.57000000000005"/>
  <line stroke="#888888" x1="240.57000000000002" x2="237.57000000000002" y1="440.57000000000005" y2="440.57000000000005"/>
  <line stroke="#888888" x1="237.57000000000002" x2="237.57000000000002" y1="440.57000000000005" y2="437.57000000000005"/>
  <line stroke="#888888" x1="237.57000000000002" x2="240.57000000000002" y1="437.57000000000005" y2="437.57000000000005"/>
  <line stroke="#888888" x1="186.75" x2="186.75" y1="519.8500000000001" y2="536.6"/>
  <line stroke="#888888" x1="186.75" x2="186.25000000000003" y1="536.6" y2="536.6"/>
  <line stroke="#888888" x1="186.25000000000003" x2="186.25000000000003" y1="536.6" y2="519.8500000000001"/>
  <line stroke="#888888" x1="186.25000000000003" x2="186.75" y1="519.8500000000001" y2="519.8500000000001"/>
  <line stroke="#888888" x1="186.75" x2="186.75" y1="479.2250000000001" y2="495.9750000000001"/>
  <line stroke="#888888" x1="186.75" x2="186.25000000000003" y1="495.9750000000001" y2="495.9750000000001"/>
  <line stroke="#888888" x1="186.25000000000003" x2="186.25000000000003" y1="495.9750000000001" y2="479.2250000000001"/>
  <line stroke="#888888" x1="186.25000000000003" x2="186.75" y1="479.2250000000001" y2="479.2250000000001"/>
  <line stroke="#888888" x1="186.75" x2="186.75" y1="438.6000000000001" y2="455.3500000000001"/>
  <line stroke="#888888" x1="186.75" x2="186.25000000000003" y1="455.3500000000001" y2="455.3500000000001"/>
  <line stroke="#888888" x1="186.25000000000003" x2="186.25000000000003" y1="455.3500000000001" y2="438.6000000000001"/>
  <line stroke="#888888" x1="186.25000000000003" x2="186.75" y1="438.6000000000001" y2="438.6000000000001"/>
  <line stroke="#888888" x1="300.5" x2="300.5" y1="536.35" y2="541.35"/>
  <line stroke="#888888" x1="300.5" x2="295.5" y1="541.35" y2="536.35"/>
  <line stroke="#888888" x1="295.5" x2="295.5" y1="536.35" y2="520.1000000000001"/>
  <line stroke="#888888" x1="295.5" x2="300.5" y1="520.1000000000001" y2="515.1"/>
  <line stroke="#888888" x1="300.5" x2="300.5" y1="515.1" y2="520.1000000000001"/>
  <line stroke="#888888" x1="300.5" x2="300.5" y1="495.7250000000001" y2="500.7250000000001"/>
  <line stroke="#888888" x1="300.5" x2="295.5" y1="500.7250000000001" y2="495.7250000000001"/>
  <line stroke="#888888" x1="295.5" x2="295.5" y1="495.7250000000001" y2="479.4750000000001"/>
  <line stroke="#888888" x1="295.5" x2="300.5" y1="479.4750000000001" y2="474.475"/>
  <line stroke="#888888" x1="300.5" x2="300.5" y1="474.475" y2="479.4750000000001"/>
  <line stroke="#888888" x1="300.5" x2="300.5" y1="455.1000000000001" y2="460.1000000000001"/>
  <line stroke="#888888" x1="300.5" x2="295.5" y1="460.1000000000001" y2="455.1000000000001"/>
  <line stroke="#888888" x1="295.5" x2="295.5" y1="455.1000000000001" y2="438.8500000000001"/>
  <line stroke="#888888" x1="295.5" x2="300.5" y1="438.8500000000001" y2="433.8500000000001"/>
  <line stroke="#888888" x1="300.5" x2="300.5" y1="433.8500000000001" y2="438.8500000000001"/>
  <line stroke="#888888" x1="300.5" x2="300.5" y1="403.1000000000001" y2="408.1000000000001"/>
  <line stroke="#888888" x1="300.5" x2="295.5" y1="408.1000000000001" y2="403.1000000000001"/>
  <line stroke="#888888" x1="295.5" x2="295.5" y1="403.1000000000001" y2="383.6000000000001"/>
  <line stroke="#888888" x1="295.5" x2="300.5" y1="383.6000000000001" y2="378.6000000000001"/>
  <line stroke="#888888" x1="300.5" x2="300.5" y1="378.6000000000001" y2="383.6000000000001"/>
  <line stroke="#888888" x1="300.5" x2="300.5" y1="354.35" y2="359.3500000000001"/>
  <line stroke="#888888" x1="300.5" x2="295.5" y1="359.3500000000001" y2="354.35"/>
  <line stroke="#888888" x1="295.5" x2="295.5" y1="354.35" y2="334.8500000000001"/>
  <line stroke="#888888" x1="295.5" x2="300.5" y1="334.8500000000001" y2="329.8500000000001"/>
  <line stroke="#888888" x1="300.5" x2="300.5" y1="329.8500000000001" y2="334.8500000000001"/>
  <line stroke="#888888" x1="300.5" x2="300.5" y1="305.6000000000001" y2="310.6000000000001"/>
  <line stroke="#888888" x1="300.5" x2="295.5" y1="310.6000000000001" y2="305.6000000000001"/>
  <line stroke="#888888" x1="295.5" x2="295.5" y1="305.6000000000001" y2="286.1"/>
  <line stroke="#888888" x1="295.5" x2="300.5" y1="286.1" y2="281.1"/>
  <line stroke="#888888" x1="300.5" x2="300.5" y1="281.1" y2="286.1"/>
  <line stroke="#888888" x1="149.935" x2="137.065" y1="261.6" y2="261.6"/>
  <line stroke="#888888" x1="137.065" x2="137.065" y1="261.6" y2="238.60000000000005"/>
  <line stroke="#888888" x1="137.065" x2="149.935" y1="238.60000000000005" y2="238.60000000000005"/>
  <line stroke="#888888" x1="149.935" x2="149.935" y1="238.60000000000005" y2="261.6"/>
  <line stroke="#888888" x1="7.750000000000002" x2="7.750000000000002" y1="228.25476190476192" y2="247.80238095238101"/>
  <line stroke="#888888" x1="7.750000000000002" x2="7.25" y1="247.80238095238101" y2="247.80238095238101"/>
  <line stroke="#888888" x1="7.25" x2="7.25" y1="247.80238095238101" y2="228.25476190476192"/>
  <line stroke="#888888" x1="7.25" x2="7.750000000000002" y1="228.25476190476192" y2="228.25476190476192"/>
  <line stroke="#888888" x1="7.750000000000002" x2="7.750000000000002" y1="180.63571428571433" y2="200.18333333333337"/>
  <line stroke="#888888" x1="7.750000000000002" x2="7.25" y1="200.18333333333337" y2="200.18333333333337"/>
  <line stroke="#888888" x1="7.25" x2="7.25" y1="200.18333333333337" y2="180.63571428571433"/>
  <line stroke="#888888" x1="7.25" x2="7.750000000000002" y1="180.63571428571433" y2="180.63571428571433"/>
  <line stroke="#888888" x1="7.750000000000002" x2="7.750000000000002" y1="133.01666666666668" y2="152.56428571428575"/>
  <line stroke="#888888" x1="7.750000000000002" x2="7.25" y1="152.56428571428575" y2="152.56428571428575"/>
  <line stroke="#888888" x1="7.25" x2="7.25" y1="152.56428571428575" y2="133.01666666666668"/>
  <line stroke="#888888" x1="7.25" x2="7.750000000000002" y1="133.01666666666668" y2="133.01666666666668"/>
  <line stroke="#888888" x1="7.750000000000002" x2="7.750000000000002" y1="85.39761904761905" y2="104.94523809523808"/>
  <line stroke="#888888" x1="7.750000000000002" x2="7.25" y1="104.94523809523808" y2="104.94523809523808"/>
  <line stroke="#888888" x1="7.25" x2="7.25" y1="104.94523809523808" y2="85.39761904761905"/>
  <line stroke="#888888" x1="7.25" x2="7.750000000000002" y1="85.39761904761905" y2="85.39761904761905"/>
  <line stroke="#888888" x1="69.58333333333331" x2="69.58333333333331" y1="81.85000000000002" y2="71.35000000000002"/>
  <line stroke="#888888" x1="69.58333333333331" x2="69.08333333333333" y1="71.35000000000002" y2="71.35000000000002"/>
  <line stroke="#888888" x1="69.08333333333333" x2="69.08333333333333" y1="71.35000000000002" y2="81.85000000000002"/>
  <line stroke="#888888" x1="69.08333333333333" x2="69.58333333333331" y1="81.85000000000002" y2="81.85000000000002"/>
  <line stroke="#888888" x1="280.06500000000005" x2="292.93500000000006" y1="238.60000000000005" y2="238.60000000000005"/>
  <line stroke="#888888" x1="292.93500000000006" x2="292.93500000000006" y1="238.60000000000005" y2="261.6"/>
  <line stroke="#888888" x1="292.93500000000006" x2="280.06500000000005" y1="261.6" y2="261.6"/>
  <line stroke="#888888" x1="280.06500000000005" x2="280.06500000000005" y1="261.6" y2="238.60000000000005"/>
  <line stroke="#888888" x1="307.50000000000006" x2="307.50000000000006" y1="247.55238095238101" y2="252.55238095238101"/>
  <line stroke="#888888" x1="307.50000000000006" x2="302.50000000000006" y1="252.55238095238101" y2="247.55238095238101"/>
  <line stroke="#888888" x1="302.50000000000006" x2="302.50000000000006" y1="247.55238095238101" y2="228.50476190476192"/>
  <line stroke="#888888" x1="302.50000000000006" x2="307.50000000000006" y1="228.50476190476192" y2="223.50476190476192"/>
  <line stroke="#888888" x1="307.50000000000006" x2="307.50000000000006" y1="223.50476190476192" y2="228.50476190476192"/>
  <line stroke="#888888" x1="307.50000000000006" x2="307.50000000000006" y1="199.93333333333337" y2="204.93333333333337"/>
  <line stroke="#888888" x1="307.50000000000006" x2="302.50000000000006" y1="204.93333333333337" y2="199.93333333333337"/>
  <line stroke="#888888" x1="302.50000000000006" x2="302.50000000000006" y1="199.93333333333337" y2="180.8857142857143"/>
  <line stroke="#888888" x1="302.50000000000006" x2="307.50000000000006" y1="180.8857142857143" y2="175.88571428571433"/>
  <line stroke="#888888" x1="307.50000000000006" x2="307.50000000000006" y1="175.88571428571433" y2="180.8857142857143"/>
  <line stroke="#888888" x1="307.50000000000006" x2="307.50000000000006" y1="152.31428571428575" y2="157.31428571428575"/>
  <line stroke="#888888" x1="307.50000000000006" x2="302.50000000000006" y1="157.31428571428575" y2="152.31428571428575"/>
  <line stroke="#888888" x1="302.50000000000006" x2="302.50000000000006" y1="152.31428571428575" y2="133.26666666666668"/>
  <line stroke="#888888" x1="302.50000000000006" x2="307.50000000000006" y1="133.26666666666668" y2="128.26666666666668"/>
  <line stroke="#888888" x1="307.50000000000006" x2="307.50000000000006" y1="128.26666666666668" y2="133.26666666666668"/>
  <line stroke="#888888" x1="307.50000000000006" x2="307.50000000000006" y1="104.6952380952381" y2="109.6952380952381"/>
  <line stroke="#888888" x1="307.50000000000006" x2="302.50000000000006" y1="109.6952380952381" y2="104.6952380952381"/>
  <line stroke="#888888" x1="302.50000000000006" x2="302.50000000000006" y1="104.6952380952381" y2="85.64761904761905"/>
  <line stroke="#888888" x1="302.50000000000006" x2="307.50000000000006" y1="85.64761904761905" y2="80.64761904761906"/>
  <line stroke="#888888" x1="307.50000000000006" x2="307.50000000000006" y1="80.64761904761906" y2="85.64761904761905"/>
  <line stroke="#000000" x1="320.00000000000006" x2="320.00000000000006" y1="66.55000000000001" y2="66.55000000000001"/>
  <line stroke="#000000" x1="320.00000000000006" x2="320.00000000000006" y1="66.55000000000001" y2="66.55000000000001"/>
  <line stroke="#000000" x1="320.00000000000006" x2="320.00000000000006" y1="66.55000000000001" y2="66.55000000000001"/>
  <line stroke="#000000" x1="320.00000000000006" x2="320.00000000000006" y1="66.55000000000001" y2="66.55000000000001"/>
  <line stroke="#000000" x1="450.00000000000006" x2="449.26130043570834" y1="66.55000000000001" y2="57.163932097586134"/>
  <line stroke="#000000" x1="449.26130043570834" x2="450.00000000000006" y1="75.93606790241387" y2="66.55000000000001"/>
  <line stroke="#000000" x1="447.0633909777093" x2="449.26130043570834" y1="85.09101966249686" y2="75.93606790241387"/>
  <line stroke="#000000" x1="443.46039145130214" x2="447.0633909777093" y1="93.78942998437282" y2="85.09101966249686"/>
  <line stroke="#000000" x1="438.5410196624969" x2="443.46039145130214" y1="101.8171151375484" y2="93.78942998437282"/>
  <line stroke="#000000" x1="432.4264068711929" x2="438.5410196624969" y1="108.97640687119286" y2="101.8171151375484"/>
  <line stroke="#000000" x1="425.26711513754844" x2="432.4264068711929" y1="115.09101966249686" y2="108.97640687119286"/>
  <line stroke="#000000" x1="417.23942998437286" x2="425.26711513754844" y1="120.01039145130208" y2="115.09101966249686"/>
  <line stroke="#000000" x1="408.5410196624969" x2="417.23942998437286" y1="123.61339097770922" y2="120.01039145130208"/>
  <line stroke="#000000" x1="399.38606790241386" x2="408.5410196624969" y1="125.81130043570828" y2="123.61339097770922"/>
  <line stroke="#000000" x1="390.00000000000006" x2="399.38606790241386" y1="126.55000000000001" y2="125.81130043570828"/>
  <line stroke="#000000" x1="380.6139320975862" x2="390.00000000000006" y1="125.81130043570828" y2="126.55000000000001"/>
  <line stroke="#000000" x1="371.4589803375032" x2="380.6139320975862" y1="123.61339097770923" y2="125.81130043570828"/>
  <line stroke="#000000" x1="362.76057001562725" x2="371.4589803375032" y1="120.01039145130208" y2="123.61339097770923"/>
  <line stroke="#000000" x1="354.7328848624516" x2="362.76057001562725" y1="115.09101966249686" y2="120.01039145130208"/>
  <line stroke="#000000" x1="347.57359312880715" x2="354.7328848624516" y1="108.97640687119286" y2="115.09101966249686"/>
  <line stroke="#000000" x1="341.45898033750314" x2="347.57359312880715" y1="101.8171151375484" y2="108.97640687119286"/>
  <line stroke="#000000" x1="336.5396085486979" x2="341.45898033750314" y1="93.78942998437283" y2="101.8171151375484"/>
  <line stroke="#000000" x1="332.93660902229084" x2="336.5396085486979" y1="85.09101966249686" y2="93.78942998437283"/>
  <line stroke="#000000" x1="330.7386995642918" x2="332.93660902229084" y1="75.93606790241387" y2="85.09101966249686"/>
  <line stroke="#000000" x1="330.00000000000006" x2="330.7386995642918" y1="66.55000000000003" y2="75.93606790241387"/>
  <line stroke="#000000" x1="330.7386995642918" x2="330.00000000000006" y1="57.16393209758616" y2="66.55000000000003"/>
  <line stroke="#000000" x1="332.93660902229084" x2="330.7386995642918" y1="48.00898033750317" y2="57.16393209758616"/>
  <line stroke="#000000" x1="336.5396085486979" x2="332.93660902229084" y1="39.310570015627206" y2="48.00898033750317"/>
  <line stroke="#000000" x1="341.45898033750314" x2="336.5396085486979" y1="31.28288486245162" y2="39.310570015627206"/>
  <line stroke="#000000" x1="347.57359312880715" x2="341.45898033750314" y1="24.123593128807155" y2="31.28288486245162"/>
  <line stroke="#000000" x1="354.7328848624516" x2="347.57359312880715" y1="18.008980337503157" y2="24.123593128807155"/>
  <line stroke="#000000" x1="362.76057001562725" x2="354.7328848624516" y1="13.089608548697933" y2="18.008980337503157"/>
  <line stroke="#000000" x1="371.4589803375032" x2="362.76057001562725" y1="9.486609022290786" y2="13.089608548697933"/>
  <line stroke="#000000" x1="380.6139320975862" x2="371.4589803375032" y1="7.288699564291741" y2="9.486609022290786"/>
  <line stroke="#000000" x1="390.00000000000006" x2="380.6139320975862" y1="6.549999999999998" y2="7.288699564291741"/>
  <line stroke="#000000" x1="399.38606790241386" x2="390.00000000000006" y1="7.288699564291734" y2="6.549999999999998"/>
  <line stroke="#000000" x1="408.54101966249686" x2="399.38606790241386" y1="9.486609022290779" y2="7.288699564291734"/>
  <line stroke="#000000" x1="417.23942998437286" x2="408.54101966249686" y1="13.08960854869792" y2="9.486609022290779"/>
  <line stroke="#000000" x1="425.26711513754844" x2="417.23942998437286" y1="18.00898033750315" y2="13.08960854869792"/>
  <line stroke="#000000" x1="432.4264068711929" x2="425.26711513754844" y1="24.12359312880714" y2="18.00898033750315"/>
  <line stroke="#000000" x1="438.5410196624969" x2="432.4264068711929" y1="31.2828848624516" y2="24.12359312880714"/>
  <line stroke="#000000" x1="443.46039145130214" x2="438.5410196624969" y1="39.310570015627185" y2="31.2828848624516"/>
  <line stroke="#000000" x1="447.0633909777093" x2="443.46039145130214" y1="48.00898033750315" y2="39.310570015627185"/>
  <line stroke="#000000" x1="449.26130043570834" x2="447.0633909777093" y1="57.163932097586134" y2="48.00898033750315"/>
  <line stroke="#000000" x1="460.00000000000006" x2="460.00000000000006" y1="66.55000000000001" y2="66.55000000000001"/>
  <line stroke="#000000" x1="460.00000000000006" x2="460.00000000000006" y1="66.55000000000001" y2="66.55000000000001"/>
  <line stroke="#000000" x1="460.00000000000006" x2="460.00000000000006" y1="66.55000000000001" y2="66.55000000000001"/>
  <line stroke="#000000" x1="460.00000000000006" x2="460.00000000000006" y1="66.55000000000001" y2="66.55000000000001"/>
  <line stroke="#000000" x1="590.0" x2="589.2613004357082" y1="66.55000000000001" y2="57.163932097586134"/>
  <line stroke="#000000" x1="589.2613004357082" x2="590.0" y1="75.93606790241387" y2="66.55000000000001"/>
  <line stroke="#000000" x1="587.0633909777093" x2="589.2613004357082" y1="85.09101966249686" y2="75.93606790241387"/>
  <line stroke="#000000" x1="583.460391451302" x2="587.0633909777093" y1="93.78942998437282" y2="85.09101966249686"/>
  <line stroke="#000000" x1="578.5410196624969" x2="583.460391451302" y1="101.8171151375484" y2="93.78942998437282"/>
  <line stroke="#000000" x1="572.426406871193" x2="578.5410196624969" y1="108.97640687119286" y2="101.8171151375484"/>
  <line stroke="#000000" x1="565.2671151375486" x2="572.426406871193" y1="115.09101966249686" y2="108.97640687119286"/>
  <line stroke="#000000" x1="557.2394299843729" x2="565.2671151375486" y1="120.01039145130208" y2="115.09101966249686"/>
  <line stroke="#000000" x1="548.5410196624969" x2="557.2394299843729" y1="123.61339097770922" y2="120.01039145130208"/>
  <line stroke="#000000" x1="539.386067902414" x2="548.5410196624969" y1="125.81130043570828" y2="123.61339097770922"/>
  <line stroke="#000000" x1="530.0000000000001" x2="539.386067902414" y1="126.55000000000001" y2="125.81130043570828"/>
  <line stroke="#000000" x1="520.6139320975861" x2="530.0000000000001" y1="125.81130043570828" y2="126.55000000000001"/>
  <line stroke="#000000" x1="511.4589803375032" x2="520.6139320975861" y1="123.61339097770923" y2="125.81130043570828"/>
  <line stroke="#000000" x1="502.76057001562725" x2="511.4589803375032" y1="120.01039145130208" y2="123.61339097770923"/>
  <line stroke="#000000" x1="494.73288486245167" x2="502.76057001562725" y1="115.09101966249686" y2="120.01039145130208"/>
  <line stroke="#000000" x1="487.5735931288072" x2="494.73288486245167" y1="108.97640687119286" y2="115.09101966249686"/>
  <line stroke="#000000" x1="481.4589803375032" x2="487.5735931288072" y1="101.8171151375484" y2="108.97640687119286"/>
  <line stroke="#000000" x1="476.53960854869797" x2="481.4589803375032" y1="93.78942998437283" y2="101.8171151375484"/>
  <line stroke="#000000" x1="472.93660902229084" x2="476.53960854869797" y1="85.09101966249686" y2="93.78942998437283"/>
  <line stroke="#000000" x1="470.7386995642918" x2="472.93660902229084" y1="75.93606790241387" y2="85.09101966249686"/>
  <line stroke="#000000" x1="470.00000000000006" x2="470.7386995642918" y1="66.55000000000003" y2="75.93606790241387"/>
  <line stroke="#000000" x1="470.7386995642918" x2="470.00000000000006" y1="57.16393209758616" y2="66.55000000000003"/>
  <line stroke="#000000" x1="472.93660902229084" x2="470.7386995642918" y1="48.00898033750317" y2="57.16393209758616"/>
  <line stroke="#000000" x1="476.53960854869797" x2="472.93660902229084" y1="39.310570015627206" y2="48.00898033750317"/>
  <line stroke="#000000" x1="481.4589803375032" x2="476.53960854869797" y1="31.28288486245162" y2="39.310570015627206"/>
  <line stroke="#000000" x1="487.5735931288072" x2="481.4589803375032" y1="24.123593128807155" y2="31.28288486245162"/>
  <line stroke="#000000" x1="494.73288486245167" x2="487.5735931288072" y1="18.008980337503157" y2="24.123593128807155"/>
  <line stroke="#000000" x1="502.76057001562725" x2="494.73288486245167" y1="13.089608548697933" y2="18.008980337503157"/>
  <line stroke="#000000" x1="511.4589803375032" x2="502.76057001562725" y1="9.486609022290786" y2="13.089608548697933"/>
  <line stroke="#000000" x1="520.6139320975861" x2="511.4589803375032" y1="7.288699564291741" y2="9.486609022290786"/>
  <line stroke="#000000" x1="530.0000000000001" x2="520.6139320975861" y1="6.549999999999998" y2="7.288699564291741"/>
  <line stroke="#000000" x1="539.386067902414" x2="530.0000000000001" y1="7.288699564291734" y2="6.549999999999998"/>
  <line stroke="#000000" x1="548.5410196624969" x2="539.386067902414" y1="9.486609022290779" y2="7.288699564291734"/>
  <line stroke="#000000" x1="557.2394299843729" x2="548.5410196624969" y1="13.08960854869792" y2="9.486609022290779"/>
  <line stroke="#000000" x1="565.2671151375484" x2="557.2394299843729" y1="18.00898033750315" y2="13.08960854869792"/>
  <line stroke="#000000" x1="572.426406871193" x2="565.2671151375484" y1="24.12359312880714" y2="18.00898033750315"/>
  <line stroke="#000000" x1="578.5410196624969" x2="572.426406871193" y1="31.2828848624516" y2="24.12359312880714"/>
  <line stroke="#000000" x1="583.460391451302" x2="578.5410196624969" y1="39.310570015627185" y2="31.2828848624516"/>
  <line stroke="#000000" x1="587.0633909777093" x2="583.460391451302" y1="48.00898033750315" y2="39.310570015627185"/>
  <line stroke="#000000" x1="589.2613004357082" x2="587.0633909777093" y1="57.163932097586134" y2="48.00898033750315"/>
</svg>
