  0
SECTION
  2
HEADER
  9
$ACADVER
  1
AC1009
  9
$INSBASE
 10
0.0
 20
0.0
 30
0.0
  9
$EXTMIN
 10
0.0
 20
0.0
 30
0.0
  9
$EXTMAX
 10
100.0
 20
100.0
 30
0.0
  9
$UNITMODE
 70
0
  9
$AUNITS
 70
0
  9
$ANGBASE
 50
0.0
  9
$ANGDIR
 70
0
  0
ENDSEC
  0
SECTION
  2
TABLES
  0
TABLE
  2
LTYPE
 70
20
  0
LTYPE
  2
CONTINUOUS
 70
0
  3
Solid
 72
65
 73
0
 40
0.0
  0
LTYPE
  2
CENTER
 70
0
  3
Center ____ _ ____ _ ____ _ ____ _ ____ _ ____
 72
65
 73
4
 40
2.0
 49
1.25
 49
-0.25
 49
0.25
 49
-0.25
  0
LTYPE
  2
CENTERX2
 70
0
  3
Center (2x) ________  __  ________  __  ________
 72
65
 73
4
 40
3.5
 49
2.5
 49
-0.25
 49
0.5
 49
-0.25
  0
LTYPE
  2
CENTER2
 70
0
  3
Center (.5x) ____ _ ____ _ ____ _ ____ _ ____
 72
65
 73
4
 40
1.0
 49
0.625
 49
-0.125
 49
0.125
 49
-0.125
  0
LTYPE
  2
DASHED
 70
0
  3
Dashed __ __ __ __ __ __ __ __ __ __ __ __ __ _
 72
65
 73
2
 40
0.6
 49
0.5
 49
-0.1
  0
LTYPE
  2
DASHEDX2
 70
0
  3
Dashed (2x) ____  ____  ____  ____  ____  ____
 72
65
 73
2
 40
1.2
 49
1.0
 49
-0.2
  0
LTYPE
  2
DASHED2
 70
0
  3
Dashed (.5x) _ _ _ _ _ _ _ _ _ _ _ _ _ _
 72
65
 73
2
 40
0.3
 49
0.25
 49
-0.05
  0
LTYPE
  2
PHANTOM
 70
0
  3
Phantom ______  __  __  ______  __  __  ______
 72
65
 73
6
 40
2.5
 49
1.25
 49
-0.25
 49
0.25
 49
-0.25
 49
0.25
 49
-0.25
  0
LTYPE
  2
PHANTOMX2
 70
0
  3
Phantom (2x)____________    ____    ____    ____________
 72
65
 73
6
 40
4.25
 49
2.5
 49
-0.25
 49
0.5
 49
-0.25
 49
0.5
 49
-0.25
  0
LTYPE
  2
PHANTOM2
 70
0
  3
Phantom (.5x) ___ _ _ ___ _ _ ___ _ _ ___ _ _ ___
 72
65
 73
6
 40
1.25
 49
0.625
 49
-0.125
 49
0.125
 49
-0.125
 49
0.125
 49
-0.125
  0
LTYPE
  2
DASHDOT
 70
0
  3
Dash dot __ . __ . __ . __ . __ . __ . __ . __
 72
65
 73
4
 40
1.4
 49
1.0
 49
-0.2
 49
0.0
 49
-0.2
  0
LTYPE
  2
DASHDOTX2
 70
0
  3
Dash dot (2x) ____  .  ____  .  ____  .  ____
 72
65
 73
4
 40
2.4
 49
2.0
 49
-0.2
 49
0.0
 49
-0.2
  0
LTYPE
  2
DASHDOT2
 70
0
  3
Dash dot (.5x) _ . _ . _ . _ . _ . _ . _ . _
 72
65
 73
4
 40
0.7
 49
0.5
 49
-0.1
 49
0.0
 49
-0.1
  0
LTYPE
  2
DOT
 70
0
  3
Dot .  .  .  .  .  .  .  .  .  .  .  .  .  .  .  .
 72
65
 73
2
 40
0.2
 49
0.0
 49
-0.2
  0
LTYPE
  2
DOTX2
 70
0
  3
Dot (2x) .    .    .    .    .    .    .    . 
 72
65
 73
2
 40
0.4
 49
0.0
 49
-0.4
  0
LTYPE
  2
DOT2
 70
0
  3
Dot (.5) . . . . . . . . . . . . . . . . . . . 
 72
65
 73
2
 40
0.1
 49
0.0
 49
-0.1
  0
LTYPE
  2
DIVIDE
 70
0
  3
Divide __ . . __ . . __ . . __ . . __ . . __
 72
65
 73
6
 40
1.6
 49
1.0
 49
-0.2
 49
0.0
 49
-0.2
 49
0.0
 49
-0.2
  0
LTYPE
  2
DIVIDEX2
 70
0
  3
Divide (2x) ____  . .  ____  . .  ____  . .  ____
 72
65
 73
6
 40
2.6
 49
2.0
 49
-0.2
 49
0.0
 49
-0.2
 49
0.0
 49
-0.2
  0
LTYPE
  2
DIVIDE2
 70
0
  3
Divide(.5x) _ . _ . _ . _ . _ . _ . _ . _
 72
65
 73
6
 40
0.8
 49
0.5
 49
-0.1
 49
0.0
 49
-0.1
 49
0.0
 49
-0.1
  0
LTYPE
  2
DOTTED
 70
0
  3

 72
65
 73
2
 40
1.0
 49
0.0
 49
-1.0
  0
ENDTAB
  0
TABLE
  2
LAYER
 70
5
  0
LAYER
  2
DIMENSIONS
 70
0
 62
1
  6
CONTINUOUS
  0
LAYER
  2
TABLEBACKGROUND
 70
0
 62
1
  6
CONTINUOUS
  0
LAYER
  2
TABLECONTENT
 70
0
 62
1
  6
CONTINUOUS
  0
LAYER
  2
TABLEGRID
 70
0
 62
1
  6
CONTINUOUS
  0
LAYER
  2
VIEWPORTS
 70
0
 62
7
  6
CONTINUOUS
  0
ENDTAB
  0
TABLE
  2
STYLE
 70
12
  0
STYLE
  2
STANDARD
 70
0
 40
0.0
 41
1.0
 42
1.0
 50
0.0
 71
0
  3
arial.ttf
  4

  0
STYLE
  2
ARIAL
 70
0
 40
0.0
 41
1.0
 42
1.0
 50
0.0
 71
0
  3
arial.ttf
  4

  0
STYLE
  2
ARIAL_BOLD
 70
0
 40
0.0
 41
1.0
 42
1.0
 50
0.0
 71
0
  3
arialbd.ttf
  4

  0
STYLE
  2
ARIAL_ITALIC
 70
0
 40
0.0
 41
1.0
 42
1.0
 50
0.0
 71
0
  3
ariali.ttf
  4

  0
STYLE
  2
ARIAL_BOLD_ITALIC
 70
0
 40
0.0
 41
1.0
 42
1.0
 50
0.0
 71
0
  3
arialbi.ttf
  4

  0
STYLE
  2
ARIAL_BLACK
 70
0
 40
0.0
 41
1.0
 42
1.0
 50
0.0
 71
0
  3
ariblk.ttf
  4

  0
STYLE
  2
ISOCPEUR
 70
0
 40
0.0
 41
1.0
 42
1.0
 50
0.0
 71
0
  3
isocpeur.ttf
  4

  0
STYLE
  2
ISOCPEUR_ITALIC
 70
0
 40
0.0
 41
1.0
 42
1.0
 50
0.0
 71
0
  3
isocpeui.ttf
  4

  0
STYLE
  2
TIMES
 70
0
 40
0.0
 41
1.0
 42
1.0
 50
0.0
 71
0
  3
times.ttf
  4

  0
STYLE
  2
TIMES_BOLD
 70
0
 40
0.0
 41
1.0
 42
1.0
 50
0.0
 71
0
  3
timesbd.ttf
  4

  0
STYLE
  2
TIMES_ITALIC
 70
0
 40
0.0
 41
1.0
 42
1.0
 50
0.0
 71
0
  3
timesi.ttf
  4

  0
STYLE
  2
TIMES_BOLD_ITALIC
 70
0
 40
0.0
 41
1.0
 42
1.0
 50
0.0
 71
0
  3
timesbi.ttf
  4

  0
ENDTAB
  0
TABLE
  2
VIEW
 70
0
  0
ENDTAB
  0
TABLE
  2
APPID
 70
1
  0
APPID
  2
DXFWRITE
 70
0
  0
ENDTAB
  0
TABLE
  2
VPORT
 70
0
  0
ENDTAB
  0
TABLE
  2
UCS
 70
0
  0
ENDTAB
  0
ENDSEC
  0
SECTION
  2
BLOCKS
  0
ENDSEC
  0
SECTION
  2
ENTITIES
  0
VIEWPORT
  8
VIEWPORTS
 67
1
 10
0.0
 20
0.0
 30
0.0
 40
1.0
 41
1.0
 68
1
 69
1
1001
ACAD
1000
MVIEW
1002
{
1070
16
1010
0.0
1020
0.0
1030
0.0
1010
0.0
1020
0.0
1030
0.0
1040
0.0
1040
1.0
1040
0.0
1040
0.0
1040
50.0
1040
0.0
1040
0.0
1070
0
1070
100
1070
1
1070
3
1070
0
1070
0
1070
0
1070
0
1040
0.0
1040
0.0
1040
0.0
1040
0.1
1040
0.1
1040
0.1
1040
0.1
1070
0
1002
{
1002
}
1002
}
  0
LINE
 62
5
  8
0
 10
228.00000000000003
 20
66.50000000000001
 30
0.0
 11
202.00000000000003
 21
66.50000000000001
 31
0.0
  0
LINE
 62
5
  8
0
 10
280.00000000000006
 20
66.60000000000001
 30
0.0
 11
280.00000000000006
 21
66.50000000000001
 31
0.0
  0
LINE
  6
DOTTED
 62
1
  8
0
 10
280.00000000000006
 20
66.60000000000001
 30
0.0
 11
150.0
 21
66.60000000000001
 31
0.0
  0
LINE
 62
5
  8
0
 10
150.0
 20
66.50000000000001
 30
0.0
 11
150.0
 21
66.60000000000001
 31
0.0
  0
LINE
 62
5
  8
0
 10
228.00000000000003
 20
46.50000000000001
 30
0.0
 11
228.00000000000003
 21
66.50000000000001
 31
0.0
  0
LINE
  6
DOTTED
 62
1
  8
0
 10
228.00000000000003
 20
46.50000000000001
 30
0.0
 11
202.00000000000003
 21
46.50000000000001
 31
0.0
  0
LINE
 62
5
  8
0
 10
202.00000000000003
 20
66.50000000000001
 30
0.0
 11
202.00000000000003
 21
46.50000000000001
 31
0.0
  0
LINE
  6
DOTTED
 62
3
  8
0
 10
150.0
 20
66.50000000000001
 30
0.0
 11
193.33333333333334
 21
0.0
 31
0.0
  0
LINE
 62
5
  8
0
 10
236.66666666666666
 20
0.0
 30
0.0
 11
193.33333333333334
 21
0.0
 31
0.0
  0
LINE
  6
DOTTED
 62
3
  8
0
 10
236.66666666666666
 20
0.0
 30
0.0
 11
280.00000000000006
 21
66.50000000000001
 31
0.0
  0
LINE
 62
5
  8
0
 10
228.00000000000003
 20
66.50000000000001
 30
0.0
 11
228.00000000000003
 21
46.50000000000001
 31
0.0
  0
LINE
 62
5
  8
0
 10
202.00000000000003
 20
66.50000000000001
 30
0.0
 11
228.00000000000003
 21
66.50000000000001
 31
0.0
  0
LINE
 62
5
  8
0
 10
202.00000000000003
 20
46.50000000000001
 30
0.0
 11
202.00000000000003
 21
66.50000000000001
 31
0.0
  0
LINE
 62
5
  8
0
 10
193.33333333333334
 20
0.0
 30
0.0
 11
150.0
 21
0.0
 31
0.0
  0
LINE
 62
5
  8
0
 10
150.0
 20
0.0
 30
0.0
 11
150.0
 21
66.50000000000001
 31
0.0
  0
LINE
 62
5
  8
0
 10
280.00000000000006
 20
66.50000000000001
 30
0.0
 11
280.00000000000006
 21
0.0
 31
0.0
  0
LINE
 62
5
  8
0
 10
280.00000000000006
 20
0.0
 30
0.0
 11
236.66666666666666
 21
0.0
 31
0.0
  0
LINE
  6
DOTTED
 62
1
  8
0
 10
150.0
 20
266.6000000000001
 30
0.0
 11
150.0
 21
66.60000000000001
 31
0.0
  0
LINE
  6
DOTTED
 62
1
  8
0
 10
280.00000000000006
 20
266.6000000000001
 30
0.0
 11
280.00000000000006
 21
66.60000000000001
 31
0.0
  0
LINE
  6
DOTTED
 62
1
  8
0
 10
261.00000000000006
 20
266.6000000000001
 30
0.0
 11
280.00000000000006
 21
266.6000000000001
 31
0.0
  0
LINE
 62
5
  8
0
 10
169.00000000000003
 20
266.6000000000001
 30
0.0
 11
261.00000000000006
 21
266.6000000000001
 31
0.0
  0
LINE
 62
5
  8
0
 10
150.0
 20
266.6000000000001
 30
0.0
 11
169.00000000000003
 21
266.6000000000001
 31
0.0
  0
LINE
 62
5
  8
0
 10
150.0
 20
266.6000000000001
 30
0.0
 11
150.0
 21
266.6000000000001
 31
0.0
  0
LINE
 62
5
  8
0
 10
280.00000000000006
 20
266.6000000000001
 30
0.0
 11
280.00000000000006
 21
266.6000000000001
 31
0.0
  0
LINE
 62
5
  8
0
 10
261.00000000000006
 20
422.6000000000001
 30
0.0
 11
280.00000000000006
 21
422.6000000000001
 31
0.0
  0
LINE
  6
DOTTED
 62
3
  8
0
 10
261.00000000000006
 20
422.6000000000001
 30
0.0
 11
261.00000000000006
 21
266.6000000000001
 31
0.0
  0
LINE
  6
DOTTED
 62
3
  8
0
 10
280.00000000000006
 20
422.6000000000001
 30
0.0
 11
280.00000000000006
 21
266.6000000000001
 31
0.0
  0
LINE
 62
5
  8
0
 10
248.00000000000006
 20
422.6000000000001
 30
0.0
 11
261.00000000000006
 21
422.6000000000001
 31
0.0
  0
LINE
  6
DOTTED
 62
3
  8
0
 10
248.00000000000006
 20
422.6000000000001
 30
0.0
 11
248.00000000000006
 21
266.6000000000001
 31
0.0
  0
LINE
 62
5
  8
0
 10
261.00000000000006
 20
266.6000000000001
 30
0.0
 11
248.00000000000006
 21
266.6000000000001
 31
0.0
  0
LINE
 62
5
  8
0
 10
229.00000000000003
 20
422.6000000000001
 30
0.0
 11
248.00000000000006
 21
422.6000000000001
 31
0.0
  0
LINE
 62
5
  8
0
 10
229.00000000000003
 20
266.6000000000001
 30
0.0
 11
229.00000000000003
 21
422.6000000000001
 31
0.0
  0
LINE
 62
5
  8
0
 10
248.00000000000006
 20
266.6000000000001
 30
0.0
 11
229.00000000000003
 21
266.6000000000001
 31
0.0
  0
LINE
  6
DOTTED
 62
3
  8
0
 10
280.00000000000006
 20
422.6000000000001
 30
0.0
 11
293.00000000000006
 21
422.6000000000001
 31
0.0
  0
LINE
 62
5
  8
0
 10
293.00000000000006
 20
266.6000000000001
 30
0.0
 11
280.00000000000006
 21
266.6000000000001
 31
0.0
  0
LINE
  6
DOTTED
 62
3
  8
0
 10
293.00000000000006
 20
266.6000000000001
 30
0.0
 11
293.00000000000006
 21
422.6000000000001
 31
0.0
  0
LINE
  6
DOTTED
 62
3
  8
0
 10
293.00000000000006
 20
552.6000000000001
 30
0.0
 11
280.00000000000006
 21
552.6000000000001
 31
0.0
  0
LINE
  6
DOTTED
 62
1
  8
0
 10
280.00000000000006
 20
552.6000000000001
 30
0.0
 11
280.00000000000006
 21
422.6000000000001
 31
0.0
  0
LINE
  6
DOTTED
 62
1
  8
0
 10
293.00000000000006
 20
422.6000000000001
 30
0.0
 11
293.00000000000006
 21
552.6000000000001
 31
0.0
  0
LINE
 62
5
  8
0
 10
280.00000000000006
 20
708.6
 30
0.0
 11
293.00000000000006
 21
708.6
 31
0.0
  0
LINE
  6
DOTTED
 62
3
  8
0
 10
280.00000000000006
 20
708.6
 30
0.0
 11
280.00000000000006
 21
552.6
 31
0.0
  0
LINE
  6
DOTTED
 62
3
  8
0
 10
293.00000000000006
 20
552.6
 30
0.0
 11
293.00000000000006
 21
708.6
 31
0.0
  0
LINE
 62
5
  8
0
 10
261.00000000000006
 20
708.6
 30
0.0
 11
280.00000000000006
 21
708.6
 31
0.0
  0
LINE
  6
DOTTED
 62
3
  8
0
 10
261.00000000000006
 20
708.6
 30
0.0
 11
261.00000000000006
 21
552.6
 31
0.0
  0
LINE
 62
5
  8
0
 10
280.00000000000006
 20
552.6
 30
0.0
 11
261.00000000000006
 21
552.6
 31
0.0
  0
LINE
 62
5
  8
0
 10
248.00000000000006
 20
708.6
 30
0.0
 11
261.00000000000006
 21
708.6
 31
0.0
  0
LINE
  6
DOTTED
 62
3
  8
0
 10
248.00000000000006
 20
708.6
 30
0.0
 11
248.00000000000006
 21
552.6
 31
0.0
  0
LINE
 62
5
  8
0
 10
261.00000000000006
 20
552.6
 30
0.0
 11
248.00000000000006
 21
552.6
 31
0.0
  0
LINE
 62
5
  8
0
 10
229.00000000000003
 20
708.6
 30
0.0
 11
248.00000000000006
 21
708.6
 31
0.0
  0
LINE
 62
5
  8
0
 10
229.00000000000003
 20
552.6
 30
0.0
 11
229.00000000000003
 21
708.6
 31
0.0
  0
LINE
 62
5
  8
0
 10
248.00000000000006
 20
552.6
 30
0.0
 11
229.00000000000003
 21
552.6
 31
0.0
  0
LINE
 62
5
  8
0
 10
303.00000000000006
 20
552.6
 30
0.0
 11
293.00000000000006
 21
552.6
 31
0.0
  0
LINE
 62
5
  8
0
 10
303.00000000000006
 20
708.6
 30
0.0
 11
303.00000000000006
 21
552.6
 31
0.0
  0
LINE
 62
5
  8
0
 10
293.00000000000006
 20
708.6
 30
0.0
 11
303.00000000000006
 21
708.6
 31
0.0
  0
LINE
 62
5
  8
0
 10
236.00000000000003
 20
552.6000000000001
 30
0.0
 11
280.00000000000006
 21
552.6000000000001
 31
0.0
  0
LINE
  6
DOTTED
 62
1
  8
0
 10
236.00000000000003
 20
552.6000000000001
 30
0.0
 11
236.00000000000003
 21
422.6000000000001
 31
0.0
  0
LINE
 62
5
  8
0
 10
280.00000000000006
 20
422.6000000000001
 30
0.0
 11
236.00000000000003
 21
422.6000000000001
 31
0.0
  0
LINE
 62
5
  8
0
 10
223.0
 20
552.6000000000001
 30
0.0
 11
236.00000000000003
 21
552.6000000000001
 31
0.0
  0
LINE
  6
DOTTED
 62
1
  8
0
 10
223.0
 20
552.6000000000001
 30
0.0
 11
223.0
 21
422.6000000000001
 31
0.0
  0
LINE
 62
5
  8
0
 10
236.00000000000003
 20
422.6000000000001
 30
0.0
 11
223.0
 21
422.6000000000001
 31
0.0
  0
LINE
 62
5
  8
0
 10
179.00000000000003
 20
552.6000000000001
 30
0.0
 11
223.0
 21
552.6000000000001
 31
0.0
  0
LINE
 62
5
  8
0
 10
179.00000000000003
 20
422.6000000000001
 30
0.0
 11
179.00000000000003
 21
552.6000000000001
 31
0.0
  0
LINE
 62
5
  8
0
 10
223.0
 20
422.6000000000001
 30
0.0
 11
179.00000000000003
 21
422.6000000000001
 31
0.0
  0
LINE
 62
5
  8
0
 10
303.00000000000006
 20
422.6000000000001
 30
0.0
 11
293.00000000000006
 21
422.6000000000001
 31
0.0
  0
LINE
 62
5
  8
0
 10
303.00000000000006
 20
552.6000000000001
 30
0.0
 11
303.00000000000006
 21
422.6000000000001
 31
0.0
  0
LINE
 62
5
  8
0
 10
293.00000000000006
 20
552.6000000000001
 30
0.0
 11
303.00000000000006
 21
552.6000000000001
 31
0.0
  0
LINE
 62
5
  8
0
 10
303.00000000000006
 20
266.6000000000001
 30
0.0
 11
293.00000000000006
 21
266.6000000000001
 31
0.0
  0
LINE
 62
5
  8
0
 10
303.00000000000006
 20
422.6000000000001
 30
0.0
 11
303.00000000000006
 21
266.6000000000001
 31
0.0
  0
LINE
 62
5
  8
0
 10
293.00000000000006
 20
422.6000000000001
 30
0.0
 11
303.00000000000006
 21
422.6000000000001
 31
0.0
  0
LINE
 62
5
  8
0
 10
130.0
 20
266.6000000000001
 30
0.0
 11
150.0
 21
266.6000000000001
 31
0.0
  0
LINE
  6
DOTTED
 62
1
  8
0
 10
130.0
 20
266.6000000000001
 30
0.0
 11
130.0
 21
66.60000000000002
 31
0.0
  0
LINE
 62
5
  8
0
 10
150.0
 20
66.60000000000002
 30
0.0
 11
130.0
 21
66.60000000000002
 31
0.0
  0
LINE
 62
5
  8
0
 10
0.0
 20
266.6000000000001
 30
0.0
 11
130.0
 21
266.6000000000001
 31
0.0
  0
LINE
 62
5
  8
0
 10
0.0
 20
66.60000000000002
 30
0.0
 11
0.0
 21
266.6000000000001
 31
0.0
  0
LINE
 62
5
  8
0
 10
52.00000000000001
 20
66.60000000000002
 30
0.0
 11
0.0
 21
66.60000000000002
 31
0.0
  0
LINE
 62
5
  8
0
 10
78.00000000000001
 20
66.60000000000002
 30
0.0
 11
52.00000000000001
 21
66.60000000000002
 31
0.0
  0
LINE
 62
5
  8
0
 10
130.0
 20
66.60000000000002
 30
0.0
 11
78.00000000000001
 21
66.60000000000002
 31
0.0
  0
LINE
 62
5
  8
0
 10
130.0
 20
66.60000000000002
 30
0.0
 11
130.0
 21
66.60000000000002
 31
0.0
  0
LINE
 62
5
  8
0
 10
0.0
 20
66.60000000000002
 30
0.0
 11
0.0
 21
66.60000000000002
 31
0.0
  0
LINE
 62
5
  8
0
 10
280.00000000000006
 20
266.6000000000001
 30
0.0
 11
300.0
 21
266.6000000000001
 31
0.0
  0
LINE
 62
5
  8
0
 10
300.0
 20
66.60000000000001
 30
0.0
 11
280.00000000000006
 21
66.60000000000001
 31
0.0
  0
LINE
  6
DOTTED
 62
1
  8
0
 10
300.0
 20
66.60000000000001
 30
0.0
 11
300.0
 21
266.6000000000001
 31
0.0
  0
LINE
 62
5
  8
0
 10
310.0
 20
66.60000000000002
 30
0.0
 11
300.0
 21
66.60000000000002
 31
0.0
  0
LINE
 62
5
  8
0
 10
310.0
 20
266.6000000000001
 30
0.0
 11
310.0
 21
66.60000000000002
 31
0.0
  0
LINE
 62
5
  8
0
 10
300.0
 20
266.6000000000001
 30
0.0
 11
310.0
 21
266.6000000000001
 31
0.0
  0
LINE
 62
5
  8
0
 10
219.33333333333334
 20
51.50000000000001
 30
0.0
 11
210.66666666666669
 21
51.50000000000001
 31
0.0
  0
LINE
 62
5
  8
0
 10
210.66666666666669
 20
51.50000000000001
 30
0.0
 11
210.66666666666669
 21
61.50000000000001
 31
0.0
  0
LINE
 62
5
  8
0
 10
210.66666666666669
 20
61.50000000000001
 30
0.0
 11
219.33333333333337
 21
61.50000000000001
 31
0.0
  0
LINE
 62
5
  8
0
 10
223.0
 20
86.10000000000001
 30
0.0
 11
219.00000000000003
 21
86.10000000000001
 31
0.0
  0
LINE
 62
5
  8
0
 10
219.00000000000003
 20
86.10000000000001
 30
0.0
 11
219.00000000000003
 21
77.10000000000001
 31
0.0
  0
LINE
 62
5
  8
0
 10
219.00000000000003
 20
77.10000000000001
 30
0.0
 11
223.0
 21
77.10000000000001
 31
0.0
  0
LINE
 62
5
  8
0
 10
223.0
 20
77.10000000000001
 30
0.0
 11
223.0
 21
86.10000000000001
 31
0.0
  0
LINE
 62
5
  8
0
 10
249.75000000000003
 20
109.85000000000001
 30
0.0
 11
222.75000000000003
 21
109.85000000000001
 31
0.0
  0
LINE
 62
5
  8
0
 10
222.75000000000003
 20
109.85000000000001
 30
0.0
 11
222.75000000000003
 21
101.85000000000001
 31
0.0
  0
LINE
 62
5
  8
0
 10
222.75000000000003
 20
101.85000000000001
 30
0.0
 11
249.75000000000003
 21
101.85000000000001
 31
0.0
  0
LINE
 62
5
  8
0
 10
249.75000000000003
 20
101.85000000000001
 30
0.0
 11
249.75000000000003
 21
109.85000000000001
 31
0.0
  0
LINE
 62
5
  8
0
 10
229.47000000000003
 20
94.03
 30
0.0
 11
226.47
 21
94.03
 31
0.0
  0
LINE
 62
5
  8
0
 10
226.47
 20
94.03
 30
0.0
 11
226.47
 21
91.02999999999999
 31
0.0
  0
LINE
 62
5
  8
0
 10
226.47
 20
91.02999999999999
 30
0.0
 11
229.47000000000003
 21
91.02999999999999
 31
0.0
  0
LINE
 62
5
  8
0
 10
229.47000000000003
 20
91.02999999999999
 30
0.0
 11
229.47000000000003
 21
94.03
 31
0.0
  0
LINE
 62
5
  8
0
 10
228.47000000000003
 20
70.16999999999999
 30
0.0
 11
227.47000000000003
 21
70.16999999999999
 31
0.0
  0
LINE
 62
5
  8
0
 10
227.47000000000003
 20
70.16999999999999
 30
0.0
 11
227.47000000000003
 21
69.17
 31
0.0
  0
LINE
 62
5
  8
0
 10
227.47000000000003
 20
69.17
 30
0.0
 11
228.47000000000003
 21
69.17
 31
0.0
  0
LINE
 62
5
  8
0
 10
228.47000000000003
 20
69.17
 30
0.0
 11
228.47000000000003
 21
70.16999999999999
 31
0.0
  0
LINE
 62
5
  8
0
 10
231.01000000000002
 20
93.03
 30
0.0
 11
230.01000000000002
 21
93.03
 31
0.0
  0
LINE
 62
5
  8
0
 10
230.01000000000002
 20
93.03
 30
0.0
 11
230.01000000000002
 21
92.02999999999999
 31
0.0
  0
LINE
 62
5
  8
0
 10
230.01000000000002
 20
92.02999999999999
 30
0.0
 11
231.01000000000002
 21
92.02999999999999
 31
0.0
  0
LINE
 62
5
  8
0
 10
231.01000000000002
 20
92.02999999999999
 30
0.0
 11
231.01000000000002
 21
93.03
 31
0.0
  0
LINE
 62
5
  8
0
 10
231.01000000000002
 20
70.16999999999999
 30
0.0
 11
230.01000000000002
 21
70.16999999999999
 31
0.0
  0
LINE
 62
5
  8
0
 10
230.01000000000002
 20
70.16999999999999
 30
0.0
 11
230.01000000000002
 21
69.17
 31
0.0
  0
LINE
 62
5
  8
0
 10
230.01000000000002
 20
69.17
 30
0.0
 11
231.01000000000002
 21
69.17
 31
0.0
  0
LINE
 62
5
  8
0
 10
231.01000000000002
 20
69.17
 30
0.0
 11
231.01000000000002
 21
70.16999999999999
 31
0.0
  0
LINE
 62
5
  8
0
 10
233.55000000000004
 20
93.03
 30
0.0
 11
232.55000000000004
 21
93.03
 31
0.0
  0
LINE
 62
5
  8
0
 10
232.55000000000004
 20
93.03
 30
0.0
 11
232.55000000000004
 21
92.02999999999999
 31
0.0
  0
LINE
 62
5
  8
0
 10
232.55000000000004
 20
92.02999999999999
 30
0.0
 11
233.55000000000004
 21
92.02999999999999
 31
0.0
  0
LINE
 62
5
  8
0
 10
233.55000000000004
 20
92.02999999999999
 30
0.0
 11
233.55000000000004
 21
93.03
 31
0.0
  0
LINE
 62
5
  8
0
 10
233.55000000000004
 20
70.16999999999999
 30
0.0
 11
232.55000000000004
 21
70.16999999999999
 31
0.0
  0
LINE
 62
5
  8
0
 10
232.55000000000004
 20
70.16999999999999
 30
0.0
 11
232.55000000000004
 21
69.17
 31
0.0
  0
LINE
 62
5
  8
0
 10
232.55000000000004
 20
69.17
 30
0.0
 11
233.55000000000004
 21
69.17
 31
0.0
  0
LINE
 62
5
  8
0
 10
233.55000000000004
 20
69.17
 30
0.0
 11
233.55000000000004
 21
70.16999999999999
 31
0.0
  0
LINE
 62
5
  8
0
 10
236.09000000000003
 20
93.03
 30
0.0
 11
235.09000000000003
 21
93.03
 31
0.0
  0
LINE
 62
5
  8
0
 10
235.09000000000003
 20
93.03
 30
0.0
 11
235.09000000000003
 21
92.02999999999999
 31
0.0
  0
LINE
 62
5
  8
0
 10
235.09000000000003
 20
92.02999999999999
 30
0.0
 11
236.09000000000003
 21
92.02999999999999
 31
0.0
  0
LINE
 62
5
  8
0
 10
236.09000000000003
 20
92.02999999999999
 30
0.0
 11
236.09000000000003
 21
93.03
 31
0.0
  0
LINE
 62
5
  8
0
 10
236.09000000000003
 20
70.16999999999999
 30
0.0
 11
235.09000000000003
 21
70.16999999999999
 31
0.0
  0
LINE
 62
5
  8
0
 10
235.09000000000003
 20
70.16999999999999
 30
0.0
 11
235.09000000000003
 21
69.17
 31
0.0
  0
LINE
 62
5
  8
0
 10
235.09000000000003
 20
69.17
 30
0.0
 11
236.09000000000003
 21
69.17
 31
0.0
  0
LINE
 62
5
  8
0
 10
236.09000000000003
 20
69.17
 30
0.0
 11
236.09000000000003
 21
70.16999999999999
 31
0.0
  0
LINE
 62
5
  8
0
 10
238.63000000000002
 20
93.03
 30
0.0
 11
237.63000000000002
 21
93.03
 31
0.0
  0
LINE
 62
5
  8
0
 10
237.63000000000002
 20
93.03
 30
0.0
 11
237.63000000000002
 21
92.02999999999999
 31
0.0
  0
LINE
 62
5
  8
0
 10
237.63000000000002
 20
92.02999999999999
 30
0.0
 11
238.63000000000002
 21
92.02999999999999
 31
0.0
  0
LINE
 62
5
  8
0
 10
238.63000000000002
 20
92.02999999999999
 30
0.0
 11
238.63000000000002
 21
93.03
 31
0.0
  0
LINE
 62
5
  8
0
 10
238.63000000000002
 20
70.16999999999999
 30
0.0
 11
237.63000000000002
 21
70.16999999999999
 31
0.0
  0
LINE
 62
5
  8
0
 10
237.63000000000002
 20
70.16999999999999
 30
0.0
 11
237.63000000000002
 21
69.17
 31
0.0
  0
LINE
 62
5
  8
0
 10
237.63000000000002
 20
69.17
 30
0.0
 11
238.63000000000002
 21
69.17
 31
0.0
  0
LINE
 62
5
  8
0
 10
238.63000000000002
 20
69.17
 30
0.0
 11
238.63000000000002
 21
70.16999999999999
 31
0.0
  0
LINE
 62
5
  8
0
 10
241.17000000000004
 20
93.03
 30
0.0
 11
240.17000000000004
 21
93.03
 31
0.0
  0
LINE
 62
5
  8
0
 10
240.17000000000004
 20
93.03
 30
0.0
 11
240.17000000000004
 21
92.02999999999999
 31
0.0
  0
LINE
 62
5
  8
0
 10
240.17000000000004
 20
92.02999999999999
 30
0.0
 11
241.17000000000004
 21
92.02999999999999
 31
0.0
  0
LINE
 62
5
  8
0
 10
241.17000000000004
 20
92.02999999999999
 30
0.0
 11
241.17000000000004
 21
93.03
 31
0.0
  0
LINE
 62
5
  8
0
 10
241.17000000000004
 20
70.16999999999999
 30
0.0
 11
240.17000000000004
 21
70.16999999999999
 31
0.0
  0
LINE
 62
5
  8
0
 10
240.17000000000004
 20
70.16999999999999
 30
0.0
 11
240.17000000000004
 21
69.17
 31
0.0
  0
LINE
 62
5
  8
0
 10
240.17000000000004
 20
69.17
 30
0.0
 11
241.17000000000004
 21
69.17
 31
0.0
  0
LINE
 62
5
  8
0
 10
241.17000000000004
 20
69.17
 30
0.0
 11
241.17000000000004
 21
70.16999999999999
 31
0.0
  0
LINE
 62
5
  8
0
 10
243.71000000000004
 20
93.03
 30
0.0
 11
242.71000000000004
 21
93.03
 31
0.0
  0
LINE
 62
5
  8
0
 10
242.71000000000004
 20
93.03
 30
0.0
 11
242.71000000000004
 21
92.02999999999999
 31
0.0
  0
LINE
 62
5
  8
0
 10
242.71000000000004
 20
92.02999999999999
 30
0.0
 11
243.71000000000004
 21
92.02999999999999
 31
0.0
  0
LINE
 62
5
  8
0
 10
243.71000000000004
 20
92.02999999999999
 30
0.0
 11
243.71000000000004
 21
93.03
 31
0.0
  0
LINE
 62
5
  8
0
 10
243.71000000000004
 20
70.16999999999999
 30
0.0
 11
242.71000000000004
 21
70.16999999999999
 31
0.0
  0
LINE
 62
5
  8
0
 10
242.71000000000004
 20
70.16999999999999
 30
0.0
 11
242.71000000000004
 21
69.17
 31
0.0
  0
LINE
 62
5
  8
0
 10
242.71000000000004
 20
69.17
 30
0.0
 11
243.71000000000004
 21
69.17
 31
0.0
  0
LINE
 62
5
  8
0
 10
243.71000000000004
 20
69.17
 30
0.0
 11
243.71000000000004
 21
70.16999999999999
 31
0.0
  0
LINE
 62
5
  8
0
 10
246.25000000000003
 20
93.03
 30
0.0
 11
245.25000000000003
 21
93.03
 31
0.0
  0
LINE
 62
5
  8
0
 10
245.25000000000003
 20
93.03
 30
0.0
 11
245.25000000000003
 21
92.02999999999999
 31
0.0
  0
LINE
 62
5
  8
0
 10
245.25000000000003
 20
92.02999999999999
 30
0.0
 11
246.25000000000003
 21
92.02999999999999
 31
0.0
  0
LINE
 62
5
  8
0
 10
246.25000000000003
 20
92.02999999999999
 30
0.0
 11
246.25000000000003
 21
93.03
 31
0.0
  0
LINE
 62
5
  8
0
 10
246.25000000000003
 20
70.16999999999999
 30
0.0
 11
245.25000000000003
 21
70.16999999999999
 31
0.0
  0
LINE
 62
5
  8
0
 10
245.25000000000003
 20
70.16999999999999
 30
0.0
 11
245.25000000000003
 21
69.17
 31
0.0
  0
LINE
 62
5
  8
0
 10
245.25000000000003
 20
69.17
 30
0.0
 11
246.25000000000003
 21
69.17
 31
0.0
  0
LINE
 62
5
  8
0
 10
246.25000000000003
 20
69.17
 30
0.0
 11
246.25000000000003
 21
70.16999999999999
 31
0.0
  0
LINE
 62
5
  8
0
 10
248.79000000000002
 20
93.03
 30
0.0
 11
247.79000000000002
 21
93.03
 31
0.0
  0
LINE
 62
5
  8
0
 10
247.79000000000002
 20
93.03
 30
0.0
 11
247.79000000000002
 21
92.02999999999999
 31
0.0
  0
LINE
 62
5
  8
0
 10
247.79000000000002
 20
92.02999999999999
 30
0.0
 11
248.79000000000002
 21
92.02999999999999
 31
0.0
  0
LINE
 62
5
  8
0
 10
248.79000000000002
 20
92.02999999999999
 30
0.0
 11
248.79000000000002
 21
93.03
 31
0.0
  0
LINE
 62
5
  8
0
 10
248.79000000000002
 20
70.16999999999999
 30
0.0
 11
247.79000000000002
 21
70.16999999999999
 31
0.0
  0
LINE
 62
5
  8
0
 10
247.79000000000002
 20
70.16999999999999
 30
0.0
 11
247.79000000000002
 21
69.17
 31
0.0
  0
LINE
 62
5
  8
0
 10
247.79000000000002
 20
69.17
 30
0.0
 11
248.79000000000002
 21
69.17
 31
0.0
  0
LINE
 62
5
  8
0
 10
248.79000000000002
 20
69.17
 30
0.0
 11
248.79000000000002
 21
70.16999999999999
 31
0.0
  0
LINE
 62
5
  8
0
 10
251.33
 20
93.03
 30
0.0
 11
250.33
 21
93.03
 31
0.0
  0
LINE
 62
5
  8
0
 10
250.33
 20
93.03
 30
0.0
 11
250.33
 21
92.02999999999999
 31
0.0
  0
LINE
 62
5
  8
0
 10
250.33
 20
92.02999999999999
 30
0.0
 11
251.33
 21
92.02999999999999
 31
0.0
  0
LINE
 62
5
  8
0
 10
251.33
 20
92.02999999999999
 30
0.0
 11
251.33
 21
93.03
 31
0.0
  0
LINE
 62
5
  8
0
 10
251.33
 20
70.16999999999999
 30
0.0
 11
250.33
 21
70.16999999999999
 31
0.0
  0
LINE
 62
5
  8
0
 10
250.33
 20
70.16999999999999
 30
0.0
 11
250.33
 21
69.17
 31
0.0
  0
LINE
 62
5
  8
0
 10
250.33
 20
69.17
 30
0.0
 11
251.33
 21
69.17
 31
0.0
  0
LINE
 62
5
  8
0
 10
251.33
 20
69.17
 30
0.0
 11
251.33
 21
70.16999999999999
 31
0.0
  0
LINE
 62
5
  8
0
 10
253.87000000000003
 20
93.03
 30
0.0
 11
252.87000000000003
 21
93.03
 31
0.0
  0
LINE
 62
5
  8
0
 10
252.87000000000003
 20
93.03
 30
0.0
 11
252.87000000000003
 21
92.02999999999999
 31
0.0
  0
LINE
 62
5
  8
0
 10
252.87000000000003
 20
92.02999999999999
 30
0.0
 11
253.87000000000003
 21
92.02999999999999
 31
0.0
  0
LINE
 62
5
  8
0
 10
253.87000000000003
 20
92.02999999999999
 30
0.0
 11
253.87000000000003
 21
93.03
 31
0.0
  0
LINE
 62
5
  8
0
 10
253.87000000000003
 20
70.16999999999999
 30
0.0
 11
252.87000000000003
 21
70.16999999999999
 31
0.0
  0
LINE
 62
5
  8
0
 10
252.87000000000003
 20
70.16999999999999
 30
0.0
 11
252.87000000000003
 21
69.17
 31
0.0
  0
LINE
 62
5
  8
0
 10
252.87000000000003
 20
69.17
 30
0.0
 11
253.87000000000003
 21
69.17
 31
0.0
  0
LINE
 62
5
  8
0
 10
253.87000000000003
 20
69.17
 30
0.0
 11
253.87000000000003
 21
70.16999999999999
 31
0.0
  0
LINE
 62
5
  8
0
 10
256.40999999999997
 20
93.03
 30
0.0
 11
255.41000000000003
 21
93.03
 31
0.0
  0
LINE
 62
5
  8
0
 10
255.41000000000003
 20
93.03
 30
0.0
 11
255.41000000000003
 21
92.02999999999999
 31
0.0
  0
LINE
 62
5
  8
0
 10
255.41000000000003
 20
92.02999999999999
 30
0.0
 11
256.40999999999997
 21
92.02999999999999
 31
0.0
  0
LINE
 62
5
  8
0
 10
256.40999999999997
 20
92.02999999999999
 30
0.0
 11
256.40999999999997
 21
93.03
 31
0.0
  0
LINE
 62
5
  8
0
 10
256.40999999999997
 20
70.16999999999999
 30
0.0
 11
255.41000000000003
 21
70.16999999999999
 31
0.0
  0
LINE
 62
5
  8
0
 10
255.41000000000003
 20
70.16999999999999
 30
0.0
 11
255.41000000000003
 21
69.17
 31
0.0
  0
LINE
 62
5
  8
0
 10
255.41000000000003
 20
69.17
 30
0.0
 11
256.40999999999997
 21
69.17
 31
0.0
  0
LINE
 62
5
  8
0
 10
256.40999999999997
 20
69.17
 30
0.0
 11
256.40999999999997
 21
70.16999999999999
 31
0.0
  0
LINE
 62
5
  8
0
 10
258.95000000000005
 20
93.03
 30
0.0
 11
257.95
 21
93.03
 31
0.0
  0
LINE
 62
5
  8
0
 10
257.95
 20
93.03
 30
0.0
 11
257.95
 21
92.02999999999999
 31
0.0
  0
LINE
 62
5
  8
0
 10
257.95
 20
92.02999999999999
 30
0.0
 11
258.95000000000005
 21
92.02999999999999
 31
0.0
  0
LINE
 62
5
  8
0
 10
258.95000000000005
 20
92.02999999999999
 30
0.0
 11
258.95000000000005
 21
93.03
 31
0.0
  0
LINE
 62
5
  8
0
 10
258.95000000000005
 20
70.16999999999999
 30
0.0
 11
257.95
 21
70.16999999999999
 31
0.0
  0
LINE
 62
5
  8
0
 10
257.95
 20
70.16999999999999
 30
0.0
 11
257.95
 21
69.17
 31
0.0
  0
LINE
 62
5
  8
0
 10
257.95
 20
69.17
 30
0.0
 11
258.95000000000005
 21
69.17
 31
0.0
  0
LINE
 62
5
  8
0
 10
258.95000000000005
 20
69.17
 30
0.0
 11
258.95000000000005
 21
70.16999999999999
 31
0.0
  0
LINE
 62
5
  8
0
 10
261.49
 20
93.03
 30
0.0
 11
260.49000000000007
 21
93.03
 31
0.0
  0
LINE
 62
5
  8
0
 10
260.49000000000007
 20
93.03
 30
0.0
 11
260.49000000000007
 21
92.02999999999999
 31
0.0
  0
LINE
 62
5
  8
0
 10
260.49000000000007
 20
92.02999999999999
 30
0.0
 11
261.49
 21
92.02999999999999
 31
0.0
  0
LINE
 62
5
  8
0
 10
261.49
 20
92.02999999999999
 30
0.0
 11
261.49
 21
93.03
 31
0.0
  0
LINE
 62
5
  8
0
 10
261.49
 20
70.16999999999999
 30
0.0
 11
260.49000000000007
 21
70.16999999999999
 31
0.0
  0
LINE
 62
5
  8
0
 10
260.49000000000007
 20
70.16999999999999
 30
0.0
 11
260.49000000000007
 21
69.17
 31
0.0
  0
LINE
 62
5
  8
0
 10
260.49000000000007
 20
69.17
 30
0.0
 11
261.49
 21
69.17
 31
0.0
  0
LINE
 62
5
  8
0
 10
261.49
 20
69.17
 30
0.0
 11
261.49
 21
70.16999999999999
 31
0.0
  0
LINE
 62
5
  8
0
 10
264.03000000000003
 20
93.03
 30
0.0
 11
263.03
 21
93.03
 31
0.0
  0
LINE
 62
5
  8
0
 10
263.03
 20
93.03
 30
0.0
 11
263.03
 21
92.02999999999999
 31
0.0
  0
LINE
 62
5
  8
0
 10
263.03
 20
92.02999999999999
 30
0.0
 11
264.03000000000003
 21
92.02999999999999
 31
0.0
  0
LINE
 62
5
  8
0
 10
264.03000000000003
 20
92.02999999999999
 30
0.0
 11
264.03000000000003
 21
93.03
 31
0.0
  0
LINE
 62
5
  8
0
 10
265.03000000000003
 20
71.16999999999999
 30
0.0
 11
262.03000000000003
 21
71.16999999999999
 31
0.0
  0
LINE
 62
5
  8
0
 10
262.03000000000003
 20
71.16999999999999
 30
0.0
 11
262.03000000000003
 21
68.17
 31
0.0
  0
LINE
 62
5
  8
0
 10
262.03000000000003
 20
68.17
 30
0.0
 11
265.03000000000003
 21
68.17
 31
0.0
  0
LINE
 62
5
  8
0
 10
265.03000000000003
 20
68.17
 30
0.0
 11
265.03000000000003
 21
71.16999999999999
 31
0.0
  0
LINE
 62
5
  8
0
 10
236.75000000000003
 20
383.3500000000001
 30
0.0
 11
236.75000000000003
 21
403.3500000000001
 31
0.0
  0
LINE
 62
5
  8
0
 10
236.75000000000003
 20
403.3500000000001
 30
0.0
 11
236.25000000000003
 21
403.3500000000001
 31
0.0
  0
LINE
 62
5
  8
0
 10
236.25000000000003
 20
403.3500000000001
 30
0.0
 11
236.25000000000003
 21
383.3500000000001
 31
0.0
  0
LINE
 62
5
  8
0
 10
236.25000000000003
 20
383.3500000000001
 30
0.0
 11
236.75000000000003
 21
383.3500000000001
 31
0.0
  0
LINE
 62
5
  8
0
 10
236.75000000000003
 20
334.6000000000001
 30
0.0
 11
236.75000000000003
 21
354.6000000000001
 31
0.0
  0
LINE
 62
5
  8
0
 10
236.75000000000003
 20
354.6000000000001
 30
0.0
 11
236.25000000000003
 21
354.6000000000001
 31
0.0
  0
LINE
 62
5
  8
0
 10
236.25000000000003
 20
354.6000000000001
 30
0.0
 11
236.25000000000003
 21
334.6000000000001
 31
0.0
  0
LINE
 62
5
  8
0
 10
236.25000000000003
 20
334.6000000000001
 30
0.0
 11
236.75000000000003
 21
334.6000000000001
 31
0.0
  0
LINE
 62
5
  8
0
 10
236.75000000000003
 20
285.85
 30
0.0
 11
236.75000000000003
 21
305.8500000000001
 31
0.0
  0
LINE
 62
5
  8
0
 10
236.75000000000003
 20
305.8500000000001
 30
0.0
 11
236.25000000000003
 21
305.8500000000001
 31
0.0
  0
LINE
 62
5
  8
0
 10
236.25000000000003
 20
305.8500000000001
 30
0.0
 11
236.25000000000003
 21
285.85
 31
0.0
  0
LINE
 62
5
  8
0
 10
236.25000000000003
 20
285.85
 30
0.0
 11
236.75000000000003
 21
285.85
 31
0.0
  0
LINE
 62
5
  8
0
 10
292.93500000000006
 20
294.6
 30
0.0
 11
280.06500000000005
 21
294.6
 31
0.0
  0
LINE
 62
5
  8
0
 10
280.06500000000005
 20
294.6
 30
0.0
 11
280.06500000000005
 21
271.6
 31
0.0
  0
LINE
 62
5
  8
0
 10
280.06500000000005
 20
271.6
 30
0.0
 11
292.93500000000006
 21
271.6
 31
0.0
  0
LINE
 62
5
  8
0
 10
292.93500000000006
 20
271.6
 30
0.0
 11
292.93500000000006
 21
294.6
 31
0.0
  0
LINE
 62
5
  8
0
 10
292.93500000000006
 20
703.5999999999999
 30
0.0
 11
280.06500000000005
 21
703.5999999999999
 31
0.0
  0
LINE
 62
5
  8
0
 10
280.06500000000005
 20
703.5999999999999
 30
0.0
 11
280.06500000000005
 21
680.6
 31
0.0
  0
LINE
 62
5
  8
0
 10
280.06500000000005
 20
680.6
 30
0.0
 11
292.93500000000006
 21
680.6
 31
0.0
  0
LINE
 62
5
  8
0
 10
292.93500000000006
 20
680.6
 30
0.0
 11
292.93500000000006
 21
703.5999999999999
 31
0.0
  0
LINE
 62
5
  8
0
 10
236.75000000000003
 20
669.35
 30
0.0
 11
236.75000000000003
 21
689.35
 31
0.0
  0
LINE
 62
5
  8
0
 10
236.75000000000003
 20
689.35
 30
0.0
 11
236.25000000000003
 21
689.35
 31
0.0
  0
LINE
 62
5
  8
0
 10
236.25000000000003
 20
689.35
 30
0.0
 11
236.25000000000003
 21
669.35
 31
0.0
  0
LINE
 62
5
  8
0
 10
236.25000000000003
 20
669.35
 30
0.0
 11
236.75000000000003
 21
669.35
 31
0.0
  0
LINE
 62
5
  8
0
 10
236.75000000000003
 20
620.6
 30
0.0
 11
236.75000000000003
 21
640.5999999999999
 31
0.0
  0
LINE
 62
5
  8
0
 10
236.75000000000003
 20
640.5999999999999
 30
0.0
 11
236.25000000000003
 21
640.5999999999999
 31
0.0
  0
LINE
 62
5
  8
0
 10
236.25000000000003
 20
640.5999999999999
 30
0.0
 11
236.25000000000003
 21
620.6
 31
0.0
  0
LINE
 62
5
  8
0
 10
236.25000000000003
 20
620.6
 30
0.0
 11
236.75000000000003
 21
620.6
 31
0.0
  0
LINE
 62
5
  8
0
 10
236.75000000000003
 20
571.8499999999999
 30
0.0
 11
236.75000000000003
 21
591.8499999999999
 31
0.0
  0
LINE
 62
5
  8
0
 10
236.75000000000003
 20
591.8499999999999
 30
0.0
 11
236.25000000000003
 21
591.8499999999999
 31
0.0
  0
LINE
 62
5
  8
0
 10
236.25000000000003
 20
591.8499999999999
 30
0.0
 11
236.25000000000003
 21
571.8499999999999
 31
0.0
  0
LINE
 62
5
  8
0
 10
236.25000000000003
 20
571.8499999999999
 30
0.0
 11
236.75000000000003
 21
571.8499999999999
 31
0.0
  0
LINE
 62
5
  8
0
 10
300.5
 20
689.1
 30
0.0
 11
300.5
 21
694.1
 31
0.0
  0
LINE
 62
5
  8
0
 10
300.5
 20
694.1
 30
0.0
 11
295.5
 21
689.1
 31
0.0
  0
LINE
 62
5
  8
0
 10
295.5
 20
689.1
 30
0.0
 11
295.5
 21
669.5999999999999
 31
0.0
  0
LINE
 62
5
  8
0
 10
295.5
 20
669.5999999999999
 30
0.0
 11
300.5
 21
664.6
 31
0.0
  0
LINE
 62
5
  8
0
 10
300.5
 20
664.6
 30
0.0
 11
300.5
 21
669.5999999999999
 31
0.0
  0
LINE
 62
5
  8
0
 10
300.5
 20
640.35
 30
0.0
 11
300.5
 21
645.3499999999999
 31
0.0
  0
LINE
 62
5
  8
0
 10
300.5
 20
645.3499999999999
 30
0.0
 11
295.5
 21
640.35
 31
0.0
  0
LINE
 62
5
  8
0
 10
295.5
 20
640.35
 30
0.0
 11
295.5
 21
620.85
 31
0.0
  0
LINE
 62
5
  8
0
 10
295.5
 20
620.85
 30
0.0
 11
300.5
 21
615.85
 31
0.0
  0
LINE
 62
5
  8
0
 10
300.5
 20
615.85
 30
0.0
 11
300.5
 21
620.85
 31
0.0
  0
LINE
 62
5
  8
0
 10
300.5
 20
591.6
 30
0.0
 11
300.5
 21
596.5999999999999
 31
0.0
  0
LINE
 62
5
  8
0
 10
300.5
 20
596.5999999999999
 30
0.0
 11
295.5
 21
591.6
 31
0.0
  0
LINE
 62
5
  8
0
 10
295.5
 20
591.6
 30
0.0
 11
295.5
 21
572.1
 31
0.0
  0
LINE
 62
5
  8
0
 10
295.5
 20
572.1
 30
0.0
 11
300.5
 21
567.0999999999999
 31
0.0
  0
LINE
 62
5
  8
0
 10
300.5
 20
567.0999999999999
 30
0.0
 11
300.5
 21
572.1
 31
0.0
  0
LINE
 62
5
  8
0
 10
279.25000000000006
 20
452.8500000000001
 30
0.0
 11
279.25000000000006
 21
479.8500000000001
 31
0.0
  0
LINE
 62
5
  8
0
 10
279.25000000000006
 20
479.8500000000001
 30
0.0
 11
271.25000000000006
 21
479.8500000000001
 31
0.0
  0
LINE
 62
5
  8
0
 10
271.25000000000006
 20
479.8500000000001
 30
0.0
 11
271.25000000000006
 21
452.8500000000001
 31
0.0
  0
LINE
 62
5
  8
0
 10
271.25000000000006
 20
452.8500000000001
 30
0.0
 11
279.25000000000006
 21
452.8500000000001
 31
0.0
  0
LINE
 62
5
  8
0
 10
263.43000000000006
 20
473.13000000000005
 30
0.0
 11
263.43000000000006
 21
476.1300000000001
 31
0.0
  0
LINE
 62
5
  8
0
 10
263.43000000000006
 20
476.1300000000001
 30
0.0
 11
260.43000000000006
 21
476.1300000000001
 31
0.0
  0
LINE
 62
5
  8
0
 10
260.43000000000006
 20
476.1300000000001
 30
0.0
 11
260.43000000000006
 21
473.13000000000005
 31
0.0
  0
LINE
 62
5
  8
0
 10
260.43000000000006
 20
473.13000000000005
 30
0.0
 11
263.43000000000006
 21
473.13000000000005
 31
0.0
  0
LINE
 62
5
  8
0
 10
239.57000000000002
 20
474.1300000000001
 30
0.0
 11
239.57000000000002
 21
475.1300000000001
 31
0.0
  0
LINE
 62
5
  8
0
 10
239.57000000000002
 20
475.1300000000001
 30
0.0
 11
238.57000000000002
 21
475.1300000000001
 31
0.0
  0
LINE
 62
5
  8
0
 10
238.57000000000002
 20
475.1300000000001
 30
0.0
 11
238.57000000000002
 21
474.1300000000001
 31
0.0
  0
LINE
 62
5
  8
0
 10
238.57000000000002
 20
474.1300000000001
 30
0.0
 11
239.57000000000002
 21
474.1300000000001
 31
0.0
  0
LINE
 62
5
  8
0
 10
262.43000000000006
 20
471.5900000000001
 30
0.0
 11
262.43000000000006
 21
472.5900000000001
 31
0.0
  0
LINE
 62
5
  8
0
 10
262.43000000000006
 20
472.5900000000001
 30
0.0
 11
261.43
 21
472.5900000000001
 31
0.0
  0
LINE
 62
5
  8
0
 10
261.43
 20
472.5900000000001
 30
0.0
 11
261.43
 21
471.5900000000001
 31
0.0
  0
LINE
 62
5
  8
0
 10
261.43
 20
471.5900000000001
 30
0.0
 11
262.43000000000006
 21
471.5900000000001
 31
0.0
  0
LINE
 62
5
  8
0
 10
239.57000000000002
 20
471.5900000000001
 30
0.0
 11
239.57000000000002
 21
472.5900000000001
 31
0.0
  0
LINE
 62
5
  8
0
 10
239.57000000000002
 20
472.5900000000001
 30
0.0
 11
238.57000000000002
 21
472.5900000000001
 31
0.0
  0
LINE
 62
5
  8
0
 10
238.57000000000002
 20
472.5900000000001
 30
0.0
 11
238.57000000000002
 21
471.5900000000001
 31
0.0
  0
LINE
 62
5
  8
0
 10
238.57000000000002
 20
471.5900000000001
 30
0.0
 11
239.57000000000002
 21
471.5900000000001
 31
0.0
  0
LINE
 62
5
  8
0
 10
262.43000000000006
 20
469.05000000000007
 30
0.0
 11
262.43000000000006
 21
470.05000000000007
 31
0.0
  0
LINE
 62
5
  8
0
 10
262.43000000000006
 20
470.05000000000007
 30
0.0
 11
261.43
 21
470.05000000000007
 31
0.0
  0
LINE
 62
5
  8
0
 10
261.43
 20
470.05000000000007
 30
0.0
 11
261.43
 21
469.05000000000007
 31
0.0
  0
LINE
 62
5
  8
0
 10
261.43
 20
469.05000000000007
 30
0.0
 11
262.43000000000006
 21
469.05000000000007
 31
0.0
  0
LINE
 62
5
  8
0
 10
239.57000000000002
 20
469.05000000000007
 30
0.0
 11
239.57000000000002
 21
470.05000000000007
 31
0.0
  0
LINE
 62
5
  8
0
 10
239.57000000000002
 20
470.05000000000007
 30
0.0
 11
238.57000000000002
 21
470.05000000000007
 31
0.0
  0
LINE
 62
5
  8
0
 10
238.57000000000002
 20
470.05000000000007
 30
0.0
 11
238.57000000000002
 21
469.05000000000007
 31
0.0
  0
LINE
 62
5
  8
0
 10
238.57000000000002
 20
469.05000000000007
 30
0.0
 11
239.57000000000002
 21
469.05000000000007
 31
0.0
  0
LINE
 62
5
  8
0
 10
262.43000000000006
 20
466.5100000000001
 30
0.0
 11
262.43000000000006
 21
467.5100000000001
 31
0.0
  0
LINE
 62
5
  8
0
 10
262.43000000000006
 20
467.5100000000001
 30
0.0
 11
261.43
 21
467.5100000000001
 31
0.0
  0
LINE
 62
5
  8
0
 10
261.43
 20
467.5100000000001
 30
0.0
 11
261.43
 21
466.5100000000001
 31
0.0
  0
LINE
 62
5
  8
0
 10
261.43
 20
466.5100000000001
 30
0.0
 11
262.43000000000006
 21
466.5100000000001
 31
0.0
  0
LINE
 62
5
  8
0
 10
239.57000000000002
 20
466.5100000000001
 30
0.0
 11
239.57000000000002
 21
467.5100000000001
 31
0.0
  0
LINE
 62
5
  8
0
 10
239.57000000000002
 20
467.5100000000001
 30
0.0
 11
238.57000000000002
 21
467.5100000000001
 31
0.0
  0
LINE
 62
5
  8
0
 10
238.57000000000002
 20
467.5100000000001
 30
0.0
 11
238.57000000000002
 21
466.5100000000001
 31
0.0
  0
LINE
 62
5
  8
0
 10
238.57000000000002
 20
466.5100000000001
 30
0.0
 11
239.57000000000002
 21
466.5100000000001
 31
0.0
  0
LINE
 62
5
  8
0
 10
262.43000000000006
 20
463.9700000000001
 30
0.0
 11
262.43000000000006
 21
464.9700000000001
 31
0.0
  0
LINE
 62
5
  8
0
 10
262.43000000000006
 20
464.9700000000001
 30
0.0
 11
261.43
 21
464.9700000000001
 31
0.0
  0
LINE
 62
5
  8
0
 10
261.43
 20
464.9700000000001
 30
0.0
 11
261.43
 21
463.9700000000001
 31
0.0
  0
LINE
 62
5
  8
0
 10
261.43
 20
463.9700000000001
 30
0.0
 11
262.43000000000006
 21
463.9700000000001
 31
0.0
  0
LINE
 62
5
  8
0
 10
239.57000000000002
 20
463.9700000000001
 30
0.0
 11
239.57000000000002
 21
464.9700000000001
 31
0.0
  0
LINE
 62
5
  8
0
 10
239.57000000000002
 20
464.9700000000001
 30
0.0
 11
238.57000000000002
 21
464.9700000000001
 31
0.0
  0
LINE
 62
5
  8
0
 10
238.57000000000002
 20
464.9700000000001
 30
0.0
 11
238.57000000000002
 21
463.9700000000001
 31
0.0
  0
LINE
 62
5
  8
0
 10
238.57000000000002
 20
463.9700000000001
 30
0.0
 11
239.57000000000002
 21
463.9700000000001
 31
0.0
  0
LINE
 62
5
  8
0
 10
262.43000000000006
 20
461.43
 30
0.0
 11
262.43000000000006
 21
462.43000000000006
 31
0.0
  0
LINE
 62
5
  8
0
 10
262.43000000000006
 20
462.43000000000006
 30
0.0
 11
261.43
 21
462.43000000000006
 31
0.0
  0
LINE
 62
5
  8
0
 10
261.43
 20
462.43000000000006
 30
0.0
 11
261.43
 21
461.43
 31
0.0
  0
LINE
 62
5
  8
0
 10
261.43
 20
461.43
 30
0.0
 11
262.43000000000006
 21
461.43
 31
0.0
  0
LINE
 62
5
  8
0
 10
239.57000000000002
 20
461.43
 30
0.0
 11
239.57000000000002
 21
462.43000000000006
 31
0.0
  0
LINE
 62
5
  8
0
 10
239.57000000000002
 20
462.43000000000006
 30
0.0
 11
238.57000000000002
 21
462.43000000000006
 31
0.0
  0
LINE
 62
5
  8
0
 10
238.57000000000002
 20
462.43000000000006
 30
0.0
 11
238.57000000000002
 21
461.43
 31
0.0
  0
LINE
 62
5
  8
0
 10
238.57000000000002
 20
461.43
 30
0.0
 11
239.57000000000002
 21
461.43
 31
0.0
  0
LINE
 62
5
  8
0
 10
262.43000000000006
 20
458.8900000000001
 30
0.0
 11
262.43000000000006
 21
459.89000000000004
 31
0.0
  0
LINE
 62
5
  8
0
 10
262.43000000000006
 20
459.89000000000004
 30
0.0
 11
261.43
 21
459.89000000000004
 31
0.0
  0
LINE
 62
5
  8
0
 10
261.43
 20
459.89000000000004
 30
0.0
 11
261.43
 21
458.8900000000001
 31
0.0
  0
LINE
 62
5
  8
0
 10
261.43
 20
458.8900000000001
 30
0.0
 11
262.43000000000006
 21
458.8900000000001
 31
0.0
  0
LINE
 62
5
  8
0
 10
239.57000000000002
 20
458.8900000000001
 30
0.0
 11
239.57000000000002
 21
459.89000000000004
 31
0.0
  0
LINE
 62
5
  8
0
 10
239.57000000000002
 20
459.89000000000004
 30
0.0
 11
238.57000000000002
 21
459.89000000000004
 31
0.0
  0
LINE
 62
5
  8
0
 10
238.57000000000002
 20
459.89000000000004
 30
0.0
 11
238.57000000000002
 21
458.8900000000001
 31
0.0
  0
LINE
 62
5
  8
0
 10
238.57000000000002
 20
458.8900000000001
 30
0.0
 11
239.57000000000002
 21
458.8900000000001
 31
0.0
  0
LINE
 62
5
  8
0
 10
262.43000000000006
 20
456.3500000000001
 30
0.0
 11
262.43000000000006
 21
457.3500000000001
 31
0.0
  0
LINE
 62
5
  8
0
 10
262.43000000000006
 20
457.3500000000001
 30
0.0
 11
261.43
 21
457.3500000000001
 31
0.0
  0
LINE
 62
5
  8
0
 10
261.43
 20
457.3500000000001
 30
0.0
 11
261.43
 21
456.3500000000001
 31
0.0
  0
LINE
 62
5
  8
0
 10
261.43
 20
456.3500000000001
 30
0.0
 11
262.43000000000006
 21
456.3500000000001
 31
0.0
  0
LINE
 62
5
  8
0
 10
239.57000000000002
 20
456.3500000000001
 30
0.0
 11
239.57000000000002
 21
457.3500000000001
 31
0.0
  0
LINE
 62
5
  8
0
 10
239.57000000000002
 20
457.3500000000001
 30
0.0
 11
238.57000000000002
 21
457.3500000000001
 31
0.0
  0
LINE
 62
5
  8
0
 10
238.57000000000002
 20
457.3500000000001
 30
0.0
 11
238.57000000000002
 21
456.3500000000001
 31
0.0
  0
LINE
 62
5
  8
0
 10
238.57000000000002
 20
456.3500000000001
 30
0.0
 11
239.57000000000002
 21
456.3500000000001
 31
0.0
  0
LINE
 62
5
  8
0
 10
262.43000000000006
 20
453.81000000000006
 30
0.0
 11
262.43000000000006
 21
454.81000000000006
 31
0.0
  0
LINE
 62
5
  8
0
 10
262.43000000000006
 20
454.81000000000006
 30
0.0
 11
261.43
 21
454.81000000000006
 31
0.0
  0
LINE
 62
5
  8
0
 10
261.43
 20
454.81000000000006
 30
0.0
 11
261.43
 21
453.81000000000006
 31
0.0
  0
LINE
 62
5
  8
0
 10
261.43
 20
453.81000000000006
 30
0.0
 11
262.43000000000006
 21
453.81000000000006
 31
0.0
  0
LINE
 62
5
  8
0
 10
239.57000000000002
 20
453.81000000000006
 30
0.0
 11
239.57000000000002
 21
454.81000000000006
 31
0.0
  0
LINE
 62
5
  8
0
 10
239.57000000000002
 20
454.81000000000006
 30
0.0
 11
238.57000000000002
 21
454.81000000000006
 31
0.0
  0
LINE
 62
5
  8
0
 10
238.57000000000002
 20
454.81000000000006
 30
0.0
 11
238.57000000000002
 21
453.81000000000006
 31
0.0
  0
LINE
 62
5
  8
0
 10
238.57000000000002
 20
453.81000000000006
 30
0.0
 11
239.57000000000002
 21
453.81000000000006
 31
0.0
  0
LINE
 62
5
  8
0
 10
262.43000000000006
 20
451.2700000000001
 30
0.0
 11
262.43000000000006
 21
452.2700000000001
 31
0.0
  0
LINE
 62
5
  8
0
 10
262.43000000000006
 20
452.2700000000001
 30
0.0
 11
261.43
 21
452.2700000000001
 31
0.0
  0
LINE
 62
5
  8
0
 10
261.43
 20
452.2700000000001
 30
0.0
 11
261.43
 21
451.2700000000001
 31
0.0
  0
LINE
 62
5
  8
0
 10
261.43
 20
451.2700000000001
 30
0.0
 11
262.43000000000006
 21
451.2700000000001
 31
0.0
  0
LINE
 62
5
  8
0
 10
239.57000000000002
 20
451.2700000000001
 30
0.0
 11
239.57000000000002
 21
452.2700000000001
 31
0.0
  0
LINE
 62
5
  8
0
 10
239.57000000000002
 20
452.2700000000001
 30
0.0
 11
238.57000000000002
 21
452.2700000000001
 31
0.0
  0
LINE
 62
5
  8
0
 10
238.57000000000002
 20
452.2700000000001
 30
0.0
 11
238.57000000000002
 21
451.2700000000001
 31
0.0
  0
LINE
 62
5
  8
0
 10
238.57000000000002
 20
451.2700000000001
 30
0.0
 11
239.57000000000002
 21
451.2700000000001
 31
0.0
  0
LINE
 62
5
  8
0
 10
262.43000000000006
 20
448.7300000000001
 30
0.0
 11
262.43000000000006
 21
449.73
 31
0.0
  0
LINE
 62
5
  8
0
 10
262.43000000000006
 20
449.73
 30
0.0
 11
261.43
 21
449.73
 31
0.0
  0
LINE
 62
5
  8
0
 10
261.43
 20
449.73
 30
0.0
 11
261.43
 21
448.7300000000001
 31
0.0
  0
LINE
 62
5
  8
0
 10
261.43
 20
448.7300000000001
 30
0.0
 11
262.43000000000006
 21
448.7300000000001
 31
0.0
  0
LINE
 62
5
  8
0
 10
239.57000000000002
 20
448.7300000000001
 30
0.0
 11
239.57000000000002
 21
449.73
 31
0.0
  0
LINE
 62
5
  8
0
 10
239.57000000000002
 20
449.73
 30
0.0
 11
238.57000000000002
 21
449.73
 31
0.0
  0
LINE
 62
5
  8
0
 10
238.57000000000002
 20
449.73
 30
0.0
 11
238.57000000000002
 21
448.7300000000001
 31
0.0
  0
LINE
 62
5
  8
0
 10
238.57000000000002
 20
448.7300000000001
 30
0.0
 11
239.57000000000002
 21
448.7300000000001
 31
0.0
  0
LINE
 62
5
  8
0
 10
262.43000000000006
 20
446.19000000000005
 30
0.0
 11
262.43000000000006
 21
447.19000000000005
 31
0.0
  0
LINE
 62
5
  8
0
 10
262.43000000000006
 20
447.19000000000005
 30
0.0
 11
261.43
 21
447.19000000000005
 31
0.0
  0
LINE
 62
5
  8
0
 10
261.43
 20
447.19000000000005
 30
0.0
 11
261.43
 21
446.19000000000005
 31
0.0
  0
LINE
 62
5
  8
0
 10
261.43
 20
446.19000000000005
 30
0.0
 11
262.43000000000006
 21
446.19000000000005
 31
0.0
  0
LINE
 62
5
  8
0
 10
239.57000000000002
 20
446.19000000000005
 30
0.0
 11
239.57000000000002
 21
447.19000000000005
 31
0.0
  0
LINE
 62
5
  8
0
 10
239.57000000000002
 20
447.19000000000005
 30
0.0
 11
238.57000000000002
 21
447.19000000000005
 31
0.0
  0
LINE
 62
5
  8
0
 10
238.57000000000002
 20
447.19000000000005
 30
0.0
 11
238.57000000000002
 21
446.19000000000005
 31
0.0
  0
LINE
 62
5
  8
0
 10
238.57000000000002
 20
446.19000000000005
 30
0.0
 11
239.57000000000002
 21
446.19000000000005
 31
0.0
  0
LINE
 62
5
  8
0
 10
262.43000000000006
 20
443.6500000000001
 30
0.0
 11
262.43000000000006
 21
444.6500000000001
 31
0.0
  0
LINE
 62
5
  8
0
 10
262.43000000000006
 20
444.6500000000001
 30
0.0
 11
261.43
 21
444.6500000000001
 31
0.0
  0
LINE
 62
5
  8
0
 10
261.43
 20
444.6500000000001
 30
0.0
 11
261.43
 21
443.6500000000001
 31
0.0
  0
LINE
 62
5
  8
0
 10
261.43
 20
443.6500000000001
 30
0.0
 11
262.43000000000006
 21
443.6500000000001
 31
0.0
  0
LINE
 62
5
  8
0
 10
239.57000000000002
 20
443.6500000000001
 30
0.0
 11
239.57000000000002
 21
444.6500000000001
 31
0.0
  0
LINE
 62
5
  8
0
 10
239.57000000000002
 20
444.6500000000001
 30
0.0
 11
238.57000000000002
 21
444.6500000000001
 31
0.0
  0
LINE
 62
5
  8
0
 10
238.57000000000002
 20
444.6500000000001
 30
0.0
 11
238.57000000000002
 21
443.6500000000001
 31
0.0
  0
LINE
 62
5
  8
0
 10
238.57000000000002
 20
443.6500000000001
 30
0.0
 11
239.57000000000002
 21
443.6500000000001
 31
0.0
  0
LINE
 62
5
  8
0
 10
262.43000000000006
 20
441.11000000000007
 30
0.0
 11
262.43000000000006
 21
442.11000000000007
 31
0.0
  0
LINE
 62
5
  8
0
 10
262.43000000000006
 20
442.11000000000007
 30
0.0
 11
261.43
 21
442.11000000000007
 31
0.0
  0
LINE
 62
5
  8
0
 10
261.43
 20
442.11000000000007
 30
0.0
 11
261.43
 21
441.11000000000007
 31
0.0
  0
LINE
 62
5
  8
0
 10
261.43
 20
441.11000000000007
 30
0.0
 11
262.43000000000006
 21
441.11000000000007
 31
0.0
  0
LINE
 62
5
  8
0
 10
239.57000000000002
 20
441.11000000000007
 30
0.0
 11
239.57000000000002
 21
442.11000000000007
 31
0.0
  0
LINE
 62
5
  8
0
 10
239.57000000000002
 20
442.11000000000007
 30
0.0
 11
238.57000000000002
 21
442.11000000000007
 31
0.0
  0
LINE
 62
5
  8
0
 10
238.57000000000002
 20
442.11000000000007
 30
0.0
 11
238.57000000000002
 21
441.11000000000007
 31
0.0
  0
LINE
 62
5
  8
0
 10
238.57000000000002
 20
441.11000000000007
 30
0.0
 11
239.57000000000002
 21
441.11000000000007
 31
0.0
  0
LINE
 62
5
  8
0
 10
262.43000000000006
 20
438.57000000000005
 30
0.0
 11
262.43000000000006
 21
439.57
 31
0.0
  0
LINE
 62
5
  8
0
 10
262.43000000000006
 20
439.57
 30
0.0
 11
261.43
 21
439.57
 31
0.0
  0
LINE
 62
5
  8
0
 10
261.43
 20
439.57
 30
0.0
 11
261.43
 21
438.57000000000005
 31
0.0
  0
LINE
 62
5
  8
0
 10
261.43
 20
438.57000000000005
 30
0.0
 11
262.43000000000006
 21
438.57000000000005
 31
0.0
  0
LINE
 62
5
  8
0
 10
240.57000000000002
 20
437.57000000000005
 30
0.0
 11
240.57000000000002
 21
440.57000000000005
 31
0.0
  0
LINE
 62
5
  8
0
 10
240.57000000000002
 20
440.57000000000005
 30
0.0
 11
237.57000000000002
 21
440.57000000000005
 31
0.0
  0
LINE
 62
5
  8
0
 10
237.57000000000002
 20
440.57000000000005
 30
0.0
 11
237.57000000000002
 21
437.57000000000005
 31
0.0
  0
LINE
 62
5
  8
0
 10
237.57000000000002
 20
437.57000000000005
 30
0.0
 11
240.57000000000002
 21
437.57000000000005
 31
0.0
  0
LINE
 62
5
  8
0
 10
186.75
 20
519.8500000000001
 30
0.0
 11
186.75
 21
536.6
 31
0.0
  0
LINE
 62
5
  8
0
 10
186.75
 20
536.6
 30
0.0
 11
186.25000000000003
 21
536.6
 31
0.0
  0
LINE
 62
5
  8
0
 10
186.25000000000003
 20
536.6
 30
0.0
 11
186.25000000000003
 21
519.8500000000001
 31
0.0
  0
LINE
 62
5
  8
0
 10
186.25000000000003
 20
519.8500000000001
 30
0.0
 11
186.75
 21
519.8500000000001
 31
0.0
  0
LINE
 62
5
  8
0
 10
186.75
 20
479.2250000000001
 30
0.0
 11
186.75
 21
495.9750000000001
 31
0.0
  0
LINE
 62
5
  8
0
 10
186.75
 20
495.9750000000001
 30
0.0
 11
186.25000000000003
 21
495.9750000000001
 31
0.0
  0
LINE
 62
5
  8
0
 10
186.25000000000003
 20
495.9750000000001
 30
0.0
 11
186.25000000000003
 21
479.2250000000001
 31
0.0
  0
LINE
 62
5
  8
0
 10
186.25000000000003
 20
479.2250000000001
 30
0.0
 11
186.75
 21
479.2250000000001
 31
0.0
  0
LINE
 62
5
  8
0
 10
186.75
 20
438.6000000000001
 30
0.0
 11
186.75
 21
455.3500000000001
 31
0.0
  0
LINE
 62
5
  8
0
 10
186.75
 20
455.3500000000001
 30
0.0
 11
186.25000000000003
 21
455.3500000000001
 31
0.0
  0
LINE
 62
5
  8
0
 10
186.25000000000003
 20
455.3500000000001
 30
0.0
 11
186.25000000000003
 21
438.6000000000001
 31
0.0
  0
LINE
 62
5
  8
0
 10
186.25000000000003
 20
438.6000000000001
 30
0.0
 11
186.75
 21
438.6000000000001
 31
0.0
  0
LINE
 62
5
  8
0
 10
300.5
 20
536.35
 30
0.0
 11
300.5
 21
541.35
 31
0.0
  0
LINE
 62
5
  8
0
 10
300.5
 20
541.35
 30
0.0
 11
295.5
 21
536.35
 31
0.0
  0
LINE
 62
5
  8
0
 10
295.5
 20
536.35
 30
0.0
 11
295.5
 21
520.1000000000001
 31
0.0
  0
LINE
 62
5
  8
0
 10
295.5
 20
520.1000000000001
 30
0.0
 11
300.5
 21
515.1
 31
0.0
  0
LINE
 62
5
  8
0
 10
300.5
 20
515.1
 30
0.0
 11
300.5
 21
520.1000000000001
 31
0.0
  0
LINE
 62
5
  8
0
 10
300.5
 20
495.7250000000001
 30
0.0
 11
300.5
 21
500.7250000000001
 31
0.0
  0
LINE
 62
5
  8
0
 10
300.5
 20
500.7250000000001
 30
0.0
 11
295.5
 21
495.7250000000001
 31
0.0
  0
LINE
 62
5
  8
0
 10
295.5
 20
495.7250000000001
 30
0.0
 11
295.5
 21
479.4750000000001
 31
0.0
  0
LINE
 62
5
  8
0
 10
295.5
 20
479.4750000000001
 30
0.0
 11
300.5
 21
474.475
 31
0.0
  0
LINE
 62
5
  8
0
 10
300.5
 20
474.475
 30
0.0
 11
300.5
 21
479.4750000000001
 31
0.0
  0
LINE
 62
5
  8
0
 10
300.5
 20
455.1000000000001
 30
0.0
 11
300.5
 21
460.1000000000001
 31
0.0
  0
LINE
 62
5
  8
0
 10
300.5
 20
460.1000000000001
 30
0.0
 11
295.5
 21
455.1000000000001
 31
0.0
  0
LINE
 62
5
  8
0
 10
295.5
 20
455.1000000000001
 30
0.0
 11
295.5
 21
438.8500000000001
 31
0.0
  0
LINE
 62
5
  8
0
 10
295.5
 20
438.8500000000001
 30
0.0
 11
300.5
 21
433.8500000000001
 31
0.0
  0
LINE
 62
5
  8
0
 10
300.5
 20
433.8500000000001
 30
0.0
 11
300.5
 21
438.8500000000001
 31
0.0
  0
LINE
 62
5
  8
0
 10
300.5
 20
403.1000000000001
 30
0.0
 11
300.5
 21
408.1000000000001
 31
0.0
  0
LINE
 62
5
  8
0
 10
300.5
 20
408.1000000000001
 30
0.0
 11
295.5
 21
403.1000000000001
 31
0.0
  0
LINE
 62
5
  8
0
 10
295.5
 20
403.1000000000001
 30
0.0
 11
295.5
 21
383.6000000000001
 31
0.0
  0
LINE
 62
5
  8
0
 10
295.5
 20
383.6000000000001
 30
0.0
 11
300.5
 21
378.6000000000001
 31
0.0
  0
LINE
 62
5
  8
0
 10
300.5
 20
378.6000000000001
 30
0.0
 11
300.5
 21
383.6000000000001
 31
0.0
  0
LINE
 62
5
  8
0
 10
300.5
 20
354.35
 30
0.0
 11
300.5
 21
359.3500000000001
 31
0.0
  0
LINE
 62
5
  8
0
 10
300.5
 20
359.3500000000001
 30
0.0
 11
295.5
 21
354.35
 31
0.0
  0
LINE
 62
5
  8
0
 10
295.5
 20
354.35
 30
0.0
 11
295.5
 21
334.8500000000001
 31
0.0
  0
LINE
 62
5
  8
0
 10
295.5
 20
334.8500000000001
 30
0.0
 11
300.5
 21
329.8500000000001
 31
0.0
  0
LINE
 62
5
  8
0
 10
300.5
 20
329.8500000000001
 30
0.0
 11
300.5
 21
334.8500000000001
 31
0.0
  0
LINE
 62
5
  8
0
 10
300.5
 20
305.6000000000001
 30
0.0
 11
300.5
 21
310.6000000000001
 31
0.0
  0
LINE
 62
5
  8
0
 10
300.5
 20
310.6000000000001
 30
0.0
 11
295.5
 21
305.6000000000001
 31
0.0
  0
LINE
 62
5
  8
0
 10
295.5
 20
305.6000000000001
 30
0.0
 11
295.5
 21
286.1
 31
0.0
  0
LINE
 62
5
  8
0
 10
295.5
 20
286.1
 30
0.0
 11
300.5
 21
281.1
 31
0.0
  0
LINE
 62
5
  8
0
 10
300.5
 20
281.1
 30
0.0
 11
300.5
 21
286.1
 31
0.0
  0
LINE
 62
5
  8
0
 10
149.935
 20
261.6
 30
0.0
 11
137.065
 21
261.6
 31
0.0
  0
LINE
 62
5
  8
0
 10
137.065
 20
261.6
 30
0.0
 11
137.065
 21
238.60000000000005
 31
0.0
  0
LINE
 62
5
  8
0
 10
137.065
 20
238.60000000000005
 30
0.0
 11
149.935
 21
238.60000000000005
 31
0.0
  0
LINE
 62
5
  8
0
 10
149.935
 20
238.60000000000005
 30
0.0
 11
149.935
 21
261.6
 31
0.0
  0
LINE
 62
5
  8
0
 10
7.750000000000002
 20
228.25476190476192
 30
0.0
 11
7.750000000000002
 21
247.80238095238101
 31
0.0
  0
LINE
 62
5
  8
0
 10
7.750000000000002
 20
247.80238095238101
 30
0.0
 11
7.25
 21
247.80238095238101
 31
0.0
  0
LINE
 62
5
  8
0
 10
7.25
 20
247.80238095238101
 30
0.0
 11
7.25
 21
228.25476190476192
 31
0.0
  0
LINE
 62
5
  8
0
 10
7.25
 20
228.25476190476192
 30
0.0
 11
7.750000000000002
 21
228.25476190476192
 31
0.0
  0
LINE
 62
5
  8
0
 10
7.750000000000002
 20
180.63571428571433
 30
0.0
 11
7.750000000000002
 21
200.18333333333337
 31
0.0
  0
LINE
 62
5
  8
0
 10
7.750000000000002
 20
200.18333333333337
 30
0.0
 11
7.25
 21
200.18333333333337
 31
0.0
  0
LINE
 62
5
  8
0
 10
7.25
 20
200.18333333333337
 30
0.0
 11
7.25
 21
180.63571428571433
 31
0.0
  0
LINE
 62
5
  8
0
 10
7.25
 20
180.63571428571433
 30
0.0
 11
7.750000000000002
 21
180.63571428571433
 31
0.0
  0
LINE
 62
5
  8
0
 10
7.750000000000002
 20
133.01666666666668
 30
0.0
 11
7.750000000000002
 21
152.56428571428575
 31
0.0
  0
LINE
 62
5
  8
0
 10
7.750000000000002
 20
152.56428571428575
 30
0.0
 11
7.25
 21
152.56428571428575
 31
0.0
  0
LINE
 62
5
  8
0
 10
7.25
 20
152.56428571428575
 30
0.0
 11
7.25
 21
133.01666666666668
 31
0.0
  0
LINE
 62
5
  8
0
 10
7.25
 20
133.01666666666668
 30
0.0
 11
7.750000000000002
 21
133.01666666666668
 31
0.0
  0
LINE
 62
5
  8
0
 10
7.750000000000002
 20
85.39761904761905
 30
0.0
 11
7.750000000000002
 21
104.94523809523808
 31
0.0
  0
LINE
 62
5
  8
0
 10
7.750000000000002
 20
104.94523809523808
 30
0.0
 11
7.25
 21
104.94523809523808
 31
0.0
  0
LINE
 62
5
  8
0
 10
7.25
 20
104.94523809523808
 30
0.0
 11
7.25
 21
85.39761904761905
 31
0.0
  0
LINE
 62
5
  8
0
 10
7.25
 20
85.39761904761905
 30
0.0
 11
7.750000000000002
 21
85.39761904761905
 31
0.0
  0
LINE
 62
5
  8
0
 10
69.58333333333331
 20
81.85000000000002
 30
0.0
 11
69.58333333333331
 21
71.35000000000002
 31
0.0
  0
LINE
 62
5
  8
0
 10
69.58333333333331
 20
71.35000000000002
 30
0.0
 11
69.08333333333333
 21
71.35000000000002
 31
0.0
  0
LINE
 62
5
  8
0
 10
69.08333333333333
 20
71.35000000000002
 30
0.0
 11
69.08333333333333
 21
81.85000000000002
 31
0.0
  0
LINE
 62
5
  8
0
 10
69.08333333333333
 20
81.85000000000002
 30
0.0
 11
69.58333333333331
 21
81.85000000000002
 31
0.0
  0
LINE
 62
5
  8
0
 10
280.06500000000005
 20
238.60000000000005
 30
0.0
 11
292.93500000000006
 21
238.60000000000005
 31
0.0
  0
LINE
 62
5
  8
0
 10
292.93500000000006
 20
238.60000000000005
 30
0.0
 11
292.93500000000006
 21
261.6
 31
0.0
  0
LINE
 62
5
  8
0
 10
292.93500000000006
 20
261.6
 30
0.0
 11
280.06500000000005
 21
261.6
 31
0.0
  0
LINE
 62
5
  8
0
 10
280.06500000000005
 20
261.6
 30
0.0
 11
280.06500000000005
 21
238.60000000000005
 31
0.0
  0
LINE
 62
5
  8
0
 10
307.50000000000006
 20
247.55238095238101
 30
0.0
 11
307.50000000000006
 21
252.55238095238101
 31
0.0
  0
LINE
 62
5
  8
0
 10
307.50000000000006
 20
252.55238095238101
 30
0.0
 11
302.50000000000006
 21
247.55238095238101
 31
0.0
  0
LINE
 62
5
  8
0
 10
302.50000000000006
 20
247.55238095238101
 30
0.0
 11
302.50000000000006
 21
228.50476190476192
 31
0.0
  0
LINE
 62
5
  8
0
 10
302.50000000000006
 20
228.50476190476192
 30
0.0
 11
307.50000000000006
 21
223.50476190476192
 31
0.0
  0
LINE
 62
5
  8
0
 10
307.50000000000006
 20
223.50476190476192
 30
0.0
 11
307.50000000000006
 21
228.50476190476192
 31
0.0
  0
LINE
 62
5
  8
0
 10
307.50000000000006
 20
199.93333333333337
 30
0.0
 11
307.50000000000006
 21
204.93333333333337
 31
0.0
  0
LINE
 62
5
  8
0
 10
307.50000000000006
 20
204.93333333333337
 30
0.0
 11
302.50000000000006
 21
199.93333333333337
 31
0.0
  0
LINE
 62
5
  8
0
 10
302.50000000000006
 20
199.93333333333337
 30
0.0
 11
302.50000000000006
 21
180.8857142857143
 31
0.0
  0
LINE
 62
5
  8
0
 10
302.50000000000006
 20
180.8857142857143
 30
0.0
 11
307.50000000000006
 21
175.88571428571433
 31
0.0
  0
LINE
 62
5
  8
0
 10
307.50000000000006
 20
175.88571428571433
 30
0.0
 11
307.50000000000006
 21
180.8857142857143
 31
0.0
  0
LINE
 62
5
  8
0
 10
307.50000000000006
 20
152.31428571428575
 30
0.0
 11
307.50000000000006
 21
157.31428571428575
 31
0.0
  0
LINE
 62
5
  8
0
 10
307.50000000000006
 20
157.31428571428575
 30
0.0
 11
302.50000000000006
 21
152.31428571428575
 31
0.0
  0
LINE
 62
5
  8
0
 10
302.50000000000006
 20
152.31428571428575
 30
0.0
 11
302.50000000000006
 21
133.26666666666668
 31
0.0
  0
LINE
 62
5
  8
0
 10
302.50000000000006
 20
133.26666666666668
 30
0.0
 11
307.50000000000006
 21
128.26666666666668
 31
0.0
  0
LINE
 62
5
  8
0
 10
307.50000000000006
 20
128.26666666666668
 30
0.0
 11
307.50000000000006
 21
133.26666666666668
 31
0.0
  0
LINE
 62
5
  8
0
 10
307.50000000000006
 20
104.6952380952381
 30
0.0
 11
307.50000000000006
 21
109.6952380952381
 31
0.0
  0
LINE
 62
5
  8
0
 10
307.50000000000006
 20
109.6952380952381
 30
0.0
 11
302.50000000000006
 21
104.6952380952381
 31
0.0
  0
LINE
 62
5
  8
0
 10
302.50000000000006
 20
104.6952380952381
 30
0.0
 11
302.50000000000006
 21
85.64761904761905
 31
0.0
  0
LINE
 62
5
  8
0
 10
302.50000000000006
 20
85.64761904761905
 30
0.0
 11
307.50000000000006
 21
80.64761904761906
 31
0.0
  0
LINE
 62
5
  8
0
 10
307.50000000000006
 20
80.64761904761906
 30
0.0
 11
307.50000000000006
 21
85.64761904761905
 31
0.0
  0
LINE
 62
5
  8
0
 10
320.00000000000006
 20
66.55000000000001
 30
0.0
 11
320.00000000000006
 21
66.55000000000001
 31
0.0
  0
LINE
 62
5
  8
0
 10
320.00000000000006
 20
66.55000000000001
 30
0.0
 11
320.00000000000006
 21
66.55000000000001
 31
0.0
  0
LINE
 62
5
  8
0
 10
320.00000000000006
 20
66.55000000000001
 30
0.0
 11
320.00000000000006
 21
66.55000000000001
 31
0.0
  0
LINE
 62
5
  8
0
 10
320.00000000000006
 20
66.55000000000001
 30
0.0
 11
320.00000000000006
 21
66.55000000000001
 31
0.0
  0
LINE
 62
5
  8
0
 10
450.00000000000006
 20
66.55000000000001
 30
0.0
 11
449.26130043570834
 21
57.163932097586134
 31
0.0
  0
LINE
 62
5
  8
0
 10
449.26130043570834
 20
75.93606790241387
 30
0.0
 11
450.00000000000006
 21
66.55000000000001
 31
0.0
  0
LINE
 62
5
  8
0
 10
447.0633909777093
 20
85.09101966249686
 30
0.0
 11
449.26130043570834
 21
75.93606790241387
 31
0.0
  0
LINE
 62
5
  8
0
 10
443.46039145130214
 20
93.78942998437282
 30
0.0
 11
447.0633909777093
 21
85.09101966249686
 31
0.0
  0
LINE
 62
5
  8
0
 10
438.5410196624969
 20
101.8171151375484
 30
0.0
 11
443.46039145130214
 21
93.78942998437282
 31
0.0
  0
LINE
 62
5
  8
0
 10
432.4264068711929
 20
108.97640687119286
 30
0.0
 11
438.5410196624969
 21
101.8171151375484
 31
0.0
  0
LINE
 62
5
  8
0
 10
425.26711513754844
 20
115.09101966249686
 30
0.0
 11
432.4264068711929
 21
108.97640687119286
 31
0.0
  0
LINE
 62
5
  8
0
 10
417.23942998437286
 20
120.01039145130208
 30
0.0
 11
425.26711513754844
 21
115.09101966249686
 31
0.0
  0
LINE
 62
5
  8
0
 10
408.5410196624969
 20
123.61339097770922
 30
0.0
 11
417.23942998437286
 21
120.01039145130208
 31
0.0
  0
LINE
 62
5
  8
0
 10
399.38606790241386
 20
125.81130043570828
 30
0.0
 11
408.5410196624969
 21
123.61339097770922
 31
0.0
  0
LINE
 62
5
  8
0
 10
390.00000000000006
 20
126.55000000000001
 30
0.0
 11
399.38606790241386
 21
125.81130043570828
 31
0.0
  0
LINE
 62
5
  8
0
 10
380.6139320975862
 20
125.81130043570828
 30
0.0
 11
390.00000000000006
 21
126.55000000000001
 31
0.0
  0
LINE
 62
5
  8
0
 10
371.4589803375032
 20
123.61339097770923
 30
0.0
 11
380.6139320975862
 21
125.81130043570828
 31
0.0
  0
LINE
 62
5
  8
0
 10
362.76057001562725
 20
120.01039145130208
 30
0.0
 11
371.4589803375032
 21
123.61339097770923
 31
0.0
  0
LINE
 62
5
  8
0
 10
354.7328848624516
 20
115.09101966249686
 30
0.0
 11
362.76057001562725
 21
120.01039145130208
 31
0.0
  0
LINE
 62
5
  8
0
 10
347.57359312880715
 20
108.97640687119286
 30
0.0
 11
354.7328848624516
 21
115.09101966249686
 31
0.0
  0
LINE
 62
5
  8
0
 10
341.45898033750314
 20
101.8171151375484
 30
0.0
 11
347.57359312880715
 21
108.97640687119286
 31
0.0
  0
LINE
 62
5
  8
0
 10
336.5396085486979
 20
93.78942998437283
 30
0.0
 11
341.45898033750314
 21
101.8171151375484
 31
0.0
  0
LINE
 62
5
  8
0
 10
332.93660902229084
 20
85.09101966249686
 30
0.0
 11
336.5396085486979
 21
93.78942998437283
 31
0.0
  0
LINE
 62
5
  8
0
 10
330.7386995642918
 20
75.93606790241387
 30
0.0
 11
332.93660902229084
 21
85.09101966249686
 31
0.0
  0
LINE
 62
5
  8
0
 10
330.00000000000006
 20
66.55000000000003
 30
0.0
 11
330.7386995642918
 21
75.93606790241387
 31
0.0
  0
LINE
 62
5
  8
0
 10
330.7386995642918
 20
57.16393209758616
 30
0.0
 11
330.00000000000006
 21
66.55000000000003
 31
0.0
  0
LINE
 62
5
  8
0
 10
332.93660902229084
 20
48.00898033750317
 30
0.0
 11
330.7386995642918
 21
57.16393209758616
 31
0.0
  0
LINE
 62
5
  8
0
 10
336.5396085486979
 20
39.310570015627206
 30
0.0
 11
332.93660902229084
 21
48.00898033750317
 31
0.0
  0
LINE
 62
5
  8
0
 10
341.45898033750314
 20
31.28288486245162
 30
0.0
 11
336.5396085486979
 21
39.310570015627206
 31
0.0
  0
LINE
 62
5
  8
0
 10
347.57359312880715
 20
24.123593128807155
 30
0.0
 11
341.45898033750314
 21
31.28288486245162
 31
0.0
  0
LINE
 62
5
  8
0
 10
354.7328848624516
 20
18.008980337503157
 30
0.0
 11
347.57359312880715
 21
24.123593128807155
 31
0.0
  0
LINE
 62
5
  8
0
 10
362.76057001562725
 20
13.089608548697933
 30
0.0
 11
354.7328848624516
 21
18.008980337503157
 31
0.0
  0
LINE
 62
5
  8
0
 10
371.4589803375032
 20
9.486609022290786
 30
0.0
 11
362.76057001562725
 21
13.089608548697933
 31
0.0
  0
LINE
 62
5
  8
0
 10
380.6139320975862
 20
7.288699564291741
 30
0.0
 11
371.4589803375032
 21
9.486609022290786
 31
0.0
  0
LINE
 62
5
  8
0
 10
390.00000000000006
 20
6.549999999999998
 30
0.0
 11
380.6139320975862
 21
7.288699564291741
 31
0.0
  0
LINE
 62
5
  8
0
 10
399.38606790241386
 20
7.288699564291734
 30
0.0
 11
390.00000000000006
 21
6.549999999999998
 31
0.0
  0
LINE
 62
5
  8
0
 10
408.54101966249686
 20
9.486609022290779
 30
0.0
 11
399.38606790241386
 21
7.288699564291734
 31
0.0
  0
LINE
 62
5
  8
0
 10
417.23942998437286
 20
13.08960854869792
 30
0.0
 11
408.54101966249686
 21
9.486609022290779
 31
0.0
  0
LINE
 62
5
  8
0
 10
425.26711513754844
 20
18.00898033750315
 30
0.0
 11
417.23942998437286
 21
13.08960854869792
 31
0.0
  0
LINE
 62
5
  8
0
 10
432.4264068711929
 20
24.12359312880714
 30
0.0
 11
425.26711513754844
 21
18.00898033750315
 31
0.0
  0
LINE
 62
5
  8
0
 10
438.5410196624969
 20
31.2828848624516
 30
0.0
 11
432.4264068711929
 21
24.12359312880714
 31
0.0
  0
LINE
 62
5
  8
0
 10
443.46039145130214
 20
39.310570015627185
 30
0.0
 11
438.5410196624969
 21
31.2828848624516
 31
0.0
  0
LINE
 62
5
  8
0
 10
447.0633909777093
 20
48.00898033750315
 30
0.0
 11
443.46039145130214
 21
39.310570015627185
 31
0.0
  0
LINE
 62
5
  8
0
 10
449.26130043570834
 20
57.163932097586134
 30
0.0
 11
447.0633909777093
 21
48.00898033750315
 31
0.0
  0
LINE
 62
5
  8
0
 10
460.00000000000006
 20
66.55000000000001
 30
0.0
 11
460.00000000000006
 21
66.55000000000001
 31
0.0
  0
LINE
 62
5
  8
0
 10
460.00000000000006
 20
66.55000000000001
 30
0.0
 11
460.00000000000006
 21
66.55000000000001
 31
0.0
  0
LINE
 62
5
  8
0
 10
460.00000000000006
 20
66.55000000000001
 30
0.0
 11
460.00000000000006
 21
66.55000000000001
 31
0.0
  0
LINE
 62
5
  8
0
 10
460.00000000000006
 20
66.55000000000001
 30
0.0
 11
460.00000000000006
 21
66.55000000000001
 31
0.0
  0
LINE
 62
5
  8
0
 10
590.0
 20
66.55000000000001
 30
0.0
 11
589.2613004357082
 21
57.163932097586134
 31
0.0
  0
LINE
 62
5
  8
0
 10
589.2613004357082
 20
75.93606790241387
 30
0.0
 11
590.0
 21
66.55000000000001
 31
0.0
  0
LINE
 62
5
  8
0
 10
587.0633909777093
 20
85.09101966249686
 30
0.0
 11
589.2613004357082
 21
75.93606790241387
 31
0.0
  0
LINE
 62
5
  8
0
 10
583.460391451302
 20
93.78942998437282
 30
0.0
 11
587.0633909777093
 21
85.09101966249686
 31
0.0
  0
LINE
 62
5
  8
0
 10
578.5410196624969
 20
101.8171151375484
 30
0.0
 11
583.460391451302
 21
93.78942998437282
 31
0.0
  0
LINE
 62
5
  8
0
 10
572.426406871193
 20
108.97640687119286
 30
0.0
 11
578.5410196624969
 21
101.8171151375484
 31
0.0
  0
LINE
 62
5
  8
0
 10
565.2671151375486
 20
115.09101966249686
 30
0.0
 11
572.426406871193
 21
108.97640687119286
 31
0.0
  0
LINE
 62
5
  8
0
 10
557.2394299843729
 20
120.01039145130208
 30
0.0
 11
565.2671151375486
 21
115.09101966249686
 31
0.0
  0
LINE
 62
5
  8
0
 10
548.5410196624969
 20
123.61339097770922
 30
0.0
 11
557.2394299843729
 21
120.01039145130208
 31
0.0
  0
LINE
 62
5
  8
0
 10
539.386067902414
 20
125.81130043570828
 30
0.0
 11
548.5410196624969
 21
123.61339097770922
 31
0.0
  0
LINE
 62
5
  8
0
 10
530.0000000000001
 20
126.55000000000001
 30
0.0
 11
539.386067902414
 21
125.81130043570828
 31
0.0
  0
LINE
 62
5
  8
0
 10
520.6139320975861
 20
125.81130043570828
 30
0.0
 11
530.0000000000001
 21
126.55000000000001
 31
0.0
  0
LINE
 62
5
  8
0
 10
511.4589803375032
 20
123.61339097770923
 30
0.0
 11
520.6139320975861
 21
125.81130043570828
 31
0.0
  0
LINE
 62
5
  8
0
 10
502.76057001562725
 20
120.01039145130208
 30
0.0
 11
511.4589803375032
 21
123.61339097770923
 31
0.0
  0
LINE
 62
5
  8
0
 10
494.73288486245167
 20
115.09101966249686
 30
0.0
 11
502.76057001562725
 21
120.01039145130208
 31
0.0
  0
LINE
 62
5
  8
0
 10
487.5735931288072
 20
108.97640687119286
 30
0.0
 11
494.73288486245167
 21
115.09101966249686
 31
0.0
  0
LINE
 62
5
  8
0
 10
481.4589803375032
 20
101.8171151375484
 30
0.0
 11
487.5735931288072
 21
108.97640687119286
 31
0.0
  0
LINE
 62
5
  8
0
 10
476.53960854869797
 20
93.78942998437283
 30
0.0
 11
481.4589803375032
 21
101.8171151375484
 31
0.0
  0
LINE
 62
5
  8
0
 10
472.93660902229084
 20
85.09101966249686
 30
0.0
 11
476.53960854869797
 21
93.78942998437283
 31
0.0
  0
LINE
 62
5
  8
0
 10
470.7386995642918
 20
75.93606790241387
 30
0.0
 11
472.93660902229084
 21
85.09101966249686
 31
0.0
  0
LINE
 62
5
  8
0
 10
470.00000000000006
 20
66.55000000000003
 30
0.0
 11
470.7386995642918
 21
75.93606790241387
 31
0.0
  0
LINE
 62
5
  8
0
 10
470.7386995642918
 20
57.16393209758616
 30
0.0
 11
470.00000000000006
 21
66.55000000000003
 31
0.0
  0
LINE
 62
5
  8
0
 10
472.93660902229084
 20
48.00898033750317
 30
0.0
 11
470.7386995642918
 21
57.16393209758616
 31
0.0
  0
LINE
 62
5
  8
0
 10
476.53960854869797
 20
39.310570015627206
 30
0.0
 11
472.93660902229084
 21
48.00898033750317
 31
0.0
  0
LINE
 62
5
  8
0
 10
481.4589803375032
 20
31.28288486245162
 30
0.0
 11
476.53960854869797
 21
39.310570015627206
 31
0.0
  0
LINE
 62
5
  8
0
 10
487.5735931288072
 20
24.123593128807155
 30
0.0
 11
481.4589803375032
 21
31.28288486245162
 31
0.0
  0
LINE
 62
5
  8
0
 10
494.73288486245167
 20
18.008980337503157
 30
0.0
 11
487.5735931288072
 21
24.123593128807155
 31
0.0
  0
LINE
 62
5
  8
0
 10
502.76057001562725
 20
13.089608548697933
 30
0.0
 11
494.73288486245167
 21
18.008980337503157
 31
0.0
  0
LINE
 62
5
  8
0
 10
511.4589803375032
 20
9.486609022290786
 30
0.0
 11
502.76057001562725
 21
13.089608548697933
 31
0.0
  0
LINE
 62
5
  8
0
 10
520.6139320975861
 20
7.288699564291741
 30
0.0
 11
511.4589803375032
 21
9.486609022290786
 31
0.0
  0
LINE
 62
5
  8
0
 10
530.0000000000001
 20
6.549999999999998
 30
0.0
 11
520.6139320975861
 21
7.288699564291741
 31
0.0
  0
LINE
 62
5
  8
0
 10
539.386067902414
 20
7.288699564291734
 30
0.0
 11
530.0000000000001
 21
6.549999999999998
 31
0.0
  0
LINE
 62
5
  8
0
 10
548.5410196624969
 20
9.486609022290779
 30
0.0
 11
539.386067902414
 21
7.288699564291734
 31
0.0
  0
LINE
 62
5
  8
0
 10
557.2394299843729
 20
13.08960854869792
 30
0.0
 11
548.5410196624969
 21
9.486609022290779
 31
0.0
  0
LINE
 62
5
  8
0
 10
565.2671151375484
 20
18.00898033750315
 30
0.0
 11
557.2394299843729
 21
13.08960854869792
 31
0.0
  0
LINE
 62
5
  8
0
 10
572.426406871193
 20
24.12359312880714
 30
0.0
 11
565.2671151375484
 21
18.00898033750315
 31
0.0
  0
LINE
 62
5
  8
0
 10
578.5410196624969
 20
31.2828848624516
 30
0.0
 11
572.426406871193
 21
24.12359312880714
 31
0.0
  0
LINE
 62
5
  8
0
 10
583.460391451302
 20
39.310570015627185
 30
0.0
 11
578.5410196624969
 21
31.2828848624516
 31
0.0
  0
LINE
 62
5
  8
0
 10
587.0633909777093
 20
48.00898033750315
 30
0.0
 11
583.460391451302
 21
39.310570015627185
 31
0.0
  0
LINE
 62
5
  8
0
 10
589.2613004357082
 20
57.163932097586134
 30
0.0
 11
587.0633909777093
 21
48.00898033750315
 31
0.0
  0
ENDSEC
  0
EOF
